<svg xmlns="http://www.w3.org/2000/svg" xmlns:xlink="http://www.w3.org/1999/xlink" zoomAndPan="magnify" viewBox="0 0 375 149.999998" preserveAspectRatio="xMidYMid meet" version="1.0"><defs><clipPath id="bfeecb71af"><path d="M 0.078125 0 L 352.855469 0 L 352.855469 150 L 0.078125 150 Z M 0.078125 0 " clip-rule="nonzero"/></clipPath></defs><g clip-path="url(#bfeecb71af)"><path fill="#ffc0cb" d="M 342.058594 147.660156 C 336.550781 144.914062 329.707031 141.75 326.023438 140.253906 C 320.757812 138.109375 316.640625 136.351562 312.449219 134.453125 C 306.179688 131.613281 305.617188 131.371094 303.9375 130.839844 C 300.292969 129.671875 295.117188 129.03125 285.144531 128.507812 C 282.609375 128.378906 278.398438 128.125 275.777344 127.953125 C 273.15625 127.777344 269.65625 127.566406 268 127.480469 C 263.765625 127.261719 262.945312 127.1875 259.980469 126.75 C 253.761719 125.828125 250.210938 124.960938 246.246094 123.398438 C 241.980469 121.714844 240.390625 120.730469 237.597656 118.03125 C 233.0625 113.65625 230.789062 112.046875 227.851562 111.140625 C 226.257812 110.648438 221.234375 109.996094 218.304688 109.902344 C 215.492188 109.808594 214.128906 109.980469 209.019531 111.070312 C 205.527344 111.8125 202.992188 112.679688 198.699219 114.585938 C 193.164062 117.046875 184.402344 120.09375 178.066406 121.761719 C 170.371094 123.785156 167.3125 124.574219 160.835938 126.195312 C 156.992188 127.160156 152.382812 128.34375 150.59375 128.828125 C 144.335938 130.511719 141.117188 131.015625 134.765625 131.308594 C 129.75 131.53125 127.136719 131.382812 119.472656 130.425781 C 108.835938 129.097656 104.84375 127.972656 98.933594 124.625 C 95.28125 122.5625 93.835938 121.515625 88.652344 117.203125 C 82.929688 112.441406 81.292969 111.160156 77.410156 108.394531 C 72.171875 104.671875 70.007812 103.058594 65.371094 99.40625 C 58.042969 93.640625 57.3125 93.089844 54.230469 90.898438 C 50.035156 87.929688 48.222656 86.398438 44.171875 82.410156 C 38.703125 77.019531 35.828125 72.386719 33.988281 65.996094 C 32.882812 62.164062 32.714844 60.703125 32.722656 54.925781 C 32.726562 49.542969 32.753906 49.183594 33.753906 39.921875 C 34.363281 34.253906 34.464844 32.121094 34.234375 29.601562 C 33.71875 23.9375 32.613281 21.683594 28.335938 17.527344 C 26.351562 15.597656 24.648438 14.269531 22.707031 13.136719 C 21.109375 12.199219 15.976562 9.785156 13.585938 8.839844 C 3.558594 4.882812 2.652344 4.488281 0.925781 3.386719 L 0.09375 2.855469 L 0.09375 0 L 1.878906 1.171875 C 5.011719 3.226562 5.644531 3.507812 14.539062 6.808594 C 21.496094 9.394531 26.714844 12.015625 29.738281 14.460938 C 31.492188 15.875 34.382812 18.824219 35.3125 20.15625 C 37.9375 23.890625 38.539062 28.945312 37.480469 38.414062 C 35.847656 53.003906 35.800781 58.402344 37.25 64.050781 C 38.996094 70.859375 42.257812 76.117188 48.308594 81.886719 C 51.828125 85.238281 53.34375 86.492188 57.246094 89.28125 C 59.121094 90.625 63.230469 93.75 66.375 96.230469 C 73.199219 101.609375 74.65625 102.710938 79.964844 106.496094 C 84.492188 109.726562 85.816406 110.761719 91.777344 115.730469 C 96.363281 119.558594 97.386719 120.320312 100.078125 121.933594 C 104.261719 124.4375 107.425781 125.816406 111.144531 126.773438 C 114.183594 127.550781 116.152344 127.882812 122.449219 128.6875 C 127.601562 129.34375 128.539062 129.417969 132.511719 129.496094 C 140.320312 129.644531 144.949219 129.078125 152.261719 127.082031 C 153.660156 126.699219 158.484375 125.457031 162.980469 124.324219 C 173.546875 121.65625 180.382812 119.867188 183.457031 118.957031 C 187.476562 117.769531 195.53125 114.832031 198.9375 113.316406 C 204.398438 110.882812 207.382812 109.9375 213.066406 108.84375 C 218.539062 107.792969 219.714844 107.761719 225.730469 108.523438 C 229.574219 109.003906 230.90625 109.332031 232.769531 110.257812 C 235.152344 111.4375 237.0625 112.933594 241.03125 116.71875 C 242.015625 117.65625 243.269531 118.71875 243.820312 119.074219 C 246.53125 120.824219 251.851562 122.859375 256.074219 123.753906 C 259.675781 124.519531 264.730469 125.242188 267.65625 125.417969 C 269.242188 125.511719 273.859375 125.800781 277.921875 126.054688 C 281.980469 126.308594 286.800781 126.589844 288.636719 126.683594 C 296.738281 127.078125 302.925781 127.851562 306.53125 128.917969 C 307.871094 129.316406 309.734375 130.101562 315.230469 132.59375 C 317.628906 133.683594 321.417969 135.328125 323.644531 136.25 C 332.074219 139.738281 333.5 140.347656 336.820312 141.863281 C 342.730469 144.5625 352.855469 149.671875 352.855469 149.953125 C 352.855469 149.988281 351.480469 150.015625 349.796875 150.007812 L 346.742188 150 Z M 315.457031 149.875 C 315.378906 149.792969 312.414062 148.265625 308.878906 146.484375 C 304.210938 144.128906 301.730469 142.976562 299.828125 142.277344 C 295.835938 140.808594 293.503906 140.058594 291.121094 139.476562 C 289.929688 139.179688 287.628906 138.578125 286.011719 138.132812 C 281.300781 136.839844 277.902344 136.238281 270.726562 135.414062 C 266.207031 134.894531 264.226562 134.574219 260.773438 133.8125 C 251.824219 131.828125 244.128906 129.3125 233.945312 125.046875 C 228.839844 122.910156 227.851562 122.695312 221.796875 122.394531 C 209.347656 121.789062 202.339844 122.8125 190.683594 126.945312 C 188.269531 127.796875 185.460938 128.875 179.648438 131.175781 C 174.582031 133.179688 173.214844 133.625 169.089844 134.625 C 165.222656 135.5625 163.457031 135.902344 159.644531 136.445312 C 158.027344 136.671875 154.601562 137.28125 152.023438 137.800781 C 146.558594 138.898438 144.460938 139.179688 140.714844 139.320312 C 134.304688 139.558594 128.175781 138.871094 117.972656 136.769531 C 113.886719 135.929688 113.0625 135.714844 107.253906 134.015625 C 100.097656 131.917969 98.003906 131.121094 92.527344 128.40625 C 87.628906 125.976562 85.402344 124.402344 81.21875 120.421875 C 77.515625 116.894531 76.691406 116.234375 71.214844 112.390625 C 67.925781 110.078125 62.695312 105.96875 58.914062 102.722656 C 57.777344 101.75 55.886719 100.296875 54.710938 99.492188 C 48.140625 94.992188 43.605469 91.058594 39.753906 86.519531 C 38.828125 85.425781 37.152344 83.453125 36.027344 82.136719 C 32.429688 77.917969 31.144531 75.808594 29.414062 71.277344 C 28.242188 68.21875 27.570312 65.953125 26.59375 61.789062 C 25.042969 55.171875 25.167969 56.378906 25.015625 46.351562 C 24.835938 34.410156 24.789062 33.261719 24.371094 32.027344 C 23.972656 30.832031 21.9375 27.152344 20.875 25.707031 C 19.65625 24.042969 17.953125 22.539062 15.175781 20.683594 C 11.605469 18.300781 6.171875 15.355469 3.820312 14.53125 C 3.125 14.289062 2 13.835938 1.320312 13.527344 L 0.09375 12.96875 L 0.09375 12.039062 C 0.09375 11.527344 0.109375 11.105469 0.132812 11.105469 C 0.507812 11.105469 4.460938 12.636719 5.886719 13.332031 C 9.453125 15.078125 14.464844 18.183594 17.078125 20.261719 C 19.335938 22.0625 22.515625 25.472656 23.785156 27.457031 C 24.984375 29.339844 26.820312 32.792969 27.277344 34.019531 C 27.753906 35.304688 27.757812 35.359375 27.933594 40.238281 C 28.035156 42.945312 28.089844 47.546875 28.066406 50.464844 C 28.042969 53.480469 28.09375 56.417969 28.191406 57.289062 C 28.386719 59.078125 29.675781 64.773438 30.664062 68.21875 C 31.453125 70.964844 33.164062 75.417969 34.074219 77.070312 C 34.824219 78.445312 35.992188 80.097656 37.105469 81.375 C 37.574219 81.910156 39.023438 83.589844 40.332031 85.105469 C 41.636719 86.625 43.492188 88.675781 44.457031 89.664062 C 46.480469 91.742188 50.425781 94.914062 54.148438 97.460938 C 55.574219 98.433594 58.015625 100.3125 59.574219 101.632812 C 64.347656 105.675781 67.753906 108.347656 71.832031 111.25 C 78.289062 115.839844 79.28125 116.632812 83.90625 120.925781 C 87.269531 124.054688 88.183594 124.679688 92.460938 126.808594 C 97.070312 129.101562 98.328125 129.59375 104.160156 131.417969 C 111.816406 133.804688 113.464844 134.234375 120.429688 135.632812 C 127.832031 137.117188 131.511719 137.515625 137.976562 137.527344 C 142.660156 137.539062 144.457031 137.363281 149.960938 136.351562 C 151.839844 136.007812 154.945312 135.515625 156.867188 135.253906 C 161.300781 134.652344 163.105469 134.3125 166.949219 133.347656 C 170.925781 132.351562 172.03125 131.960938 178.992188 129.074219 C 191.695312 123.804688 197.46875 122.03125 205.210938 121.039062 C 207.929688 120.683594 214.460938 120.574219 219.335938 120.792969 C 224.199219 121.011719 225.5625 121.160156 228.441406 121.785156 C 231.253906 122.394531 233.207031 123.070312 238.308594 125.21875 C 248.558594 129.527344 258.992188 132.574219 266.726562 133.515625 C 268.214844 133.695312 270.855469 134.019531 272.605469 134.234375 C 276.875 134.757812 281.507812 135.609375 285.0625 136.523438 C 299.894531 140.34375 302.601562 141.304688 311.972656 146.0625 C 315.203125 147.707031 318.242188 149.265625 318.71875 149.53125 L 319.59375 150.015625 L 317.601562 150.019531 C 316.507812 150.019531 315.539062 149.957031 315.457031 149.878906 Z M 282.921875 149.523438 C 279.039062 148.058594 263.984375 143.972656 258.152344 142.800781 C 256.671875 142.5 253.207031 141.929688 250.457031 141.53125 C 244.160156 140.617188 243.617188 140.527344 237.832031 139.382812 C 230.425781 137.921875 227.136719 137.464844 222.355469 137.246094 C 221.175781 137.191406 218.710938 137.027344 216.878906 136.882812 C 212.234375 136.519531 205.605469 136.523438 202.984375 136.894531 C 196.695312 137.789062 189.652344 139.128906 185.207031 140.277344 C 175.972656 142.664062 172.648438 143.792969 167.265625 146.375 C 162.734375 148.542969 160.9375 149.046875 156.492188 149.394531 C 153.234375 149.648438 149.6875 149.394531 141.625 148.34375 C 133.28125 147.246094 129.515625 146.582031 124.292969 145.273438 C 118.855469 143.910156 110.664062 142.183594 103.453125 140.882812 C 95.726562 139.484375 93.585938 138.886719 89.308594 136.933594 C 86.328125 135.566406 85.121094 134.855469 80.820312 131.925781 C 78.8125 130.558594 76.0625 128.699219 74.707031 127.792969 C 69.871094 124.558594 62.40625 119.128906 57.164062 115.039062 C 52.621094 111.488281 49.664062 108.921875 45.703125 105.089844 C 42.027344 101.542969 41.992188 101.515625 40.121094 100.550781 C 39.085938 100.015625 37.949219 99.375 37.597656 99.121094 C 30.101562 93.71875 27.917969 91.816406 24.878906 88.035156 C 18.953125 80.660156 17.460938 76.988281 17.492188 69.847656 C 17.503906 66.789062 17.710938 64.136719 18.207031 60.660156 C 18.613281 57.800781 18.632812 56.035156 18.296875 52.625 C 18.152344 51.136719 17.851562 47.757812 17.636719 45.109375 C 17.078125 38.265625 16.589844 36.25 14.984375 34.167969 C 13.148438 31.78125 10.410156 29.988281 5.484375 27.933594 C 4.394531 27.480469 2.738281 26.789062 1.800781 26.394531 L 0.09375 25.683594 L 0.09375 24.425781 C 0.09375 23.738281 0.117188 23.171875 0.144531 23.171875 C 0.171875 23.171875 1.011719 23.460938 2.011719 23.816406 C 9.484375 26.460938 12.125 27.847656 14.417969 30.308594 C 15.054688 30.996094 15.847656 32.011719 16.175781 32.566406 C 17.453125 34.71875 18.1875 38.25 18.738281 44.921875 C 18.957031 47.585938 19.261719 50.980469 19.417969 52.464844 C 19.800781 56.144531 19.773438 59.886719 19.335938 63.019531 C 18.542969 68.691406 18.476562 72.90625 19.144531 75.007812 C 19.980469 77.636719 21.714844 80.378906 25.5625 85.167969 C 27.847656 88.011719 30.242188 90.167969 35.734375 94.332031 C 37.367188 95.570312 38.480469 96.269531 39.941406 96.972656 L 41.925781 97.933594 L 46.535156 102.425781 C 52.683594 108.417969 55.078125 110.488281 60.609375 114.582031 C 63.769531 116.925781 71.332031 122.246094 76.535156 125.792969 C 79.066406 127.515625 82.175781 129.636719 83.441406 130.507812 C 85.9375 132.222656 90.605469 134.652344 93.304688 135.640625 C 95.566406 136.46875 97.28125 136.882812 104.554688 138.347656 C 111.976562 139.847656 117.648438 141.058594 123.132812 142.324219 C 129.316406 143.746094 132.839844 144.300781 141.625 145.246094 C 148.300781 145.964844 151.675781 146.136719 154.601562 145.90625 C 159.628906 145.511719 161.816406 144.871094 166.964844 142.277344 C 171.476562 140.003906 173.828125 139.09375 179.210938 137.542969 C 187.808594 135.070312 193.167969 133.933594 203.226562 132.449219 C 205.792969 132.066406 212.902344 132.0625 217.351562 132.433594 C 219.101562 132.582031 221.386719 132.742188 222.433594 132.796875 C 228.160156 133.074219 230.820312 133.464844 240.292969 135.398438 C 242.433594 135.832031 246.328125 136.519531 248.949219 136.917969 C 257.234375 138.183594 259.433594 138.625 266.015625 140.359375 C 276.171875 143.03125 282.03125 144.8125 286.597656 146.621094 C 289.066406 147.59375 294.28125 149.820312 294.417969 149.953125 C 294.457031 149.988281 292.167969 150.019531 289.339844 150.011719 L 284.191406 150.003906 Z M 177.28125 149.957031 C 177.40625 149.839844 183.628906 147.3125 185.484375 146.625 C 189.859375 145.011719 190.433594 144.867188 198.382812 143.445312 C 204.933594 142.273438 205.390625 142.226562 210.605469 142.230469 C 213.421875 142.230469 216.460938 142.140625 218.226562 141.996094 C 219.839844 141.863281 222.554688 141.714844 224.257812 141.664062 C 227.253906 141.574219 227.519531 141.59375 232.277344 142.226562 C 238.054688 142.996094 240.753906 143.511719 245.296875 144.703125 C 255.3125 147.339844 261.351562 148.734375 267.203125 149.765625 C 268.386719 149.972656 267.960938 149.988281 261.054688 150.003906 L 253.640625 150.019531 L 250.421875 149.238281 C 248.648438 148.808594 245.308594 147.949219 243 147.332031 C 240.6875 146.714844 237.332031 145.917969 235.539062 145.5625 C 233.746094 145.207031 230.671875 144.597656 228.703125 144.203125 L 225.132812 143.488281 L 221.75 143.496094 C 219.886719 143.503906 218.300781 143.542969 218.222656 143.59375 C 218.140625 143.644531 215.019531 143.746094 211.285156 143.824219 C 203.464844 143.988281 204.183594 143.890625 194.730469 146.042969 C 190.011719 147.117188 184.78125 148.582031 181.414062 149.773438 C 180.949219 149.941406 180.144531 150.019531 178.964844 150.019531 C 178 150.019531 177.242188 149.992188 177.28125 149.957031 Z M 85.570312 148.78125 C 83.90625 147.6875 78.820312 144.015625 75.949219 141.828125 C 75.398438 141.410156 73.910156 140.058594 72.644531 138.832031 C 67.066406 133.410156 66.730469 133.152344 55.261719 125.417969 C 52.671875 123.667969 51.089844 122.460938 49.148438 120.738281 C 47.710938 119.464844 45.75 117.796875 44.796875 117.035156 C 41.78125 114.625 40.871094 113.785156 38.722656 111.417969 C 35.953125 108.367188 32.867188 105.546875 29.460938 102.945312 C 24.871094 99.433594 22.289062 97.285156 21.53125 96.339844 C 21.132812 95.84375 20.351562 94.664062 19.792969 93.71875 C 19.234375 92.769531 17.8125 90.53125 16.636719 88.738281 C 13.761719 84.359375 12.75 82.332031 12 79.410156 C 11.398438 77.054688 10.402344 70.859375 10.167969 67.96875 C 9.867188 64.328125 9.300781 60.964844 8.699219 59.210938 C 8.246094 57.90625 6.941406 54.726562 4.820312 49.761719 C 4.261719 48.453125 3.597656 46.882812 3.34375 46.273438 C 2.792969 44.941406 1.628906 43.171875 0.742188 42.3125 L 0.09375 41.683594 L 0.09375 38.238281 L 0.824219 38.839844 C 1.808594 39.652344 3.152344 41.390625 3.726562 42.589844 C 4.953125 45.140625 8.144531 52.53125 9.316406 55.515625 C 10.230469 57.851562 10.914062 61.476562 11.28125 65.972656 C 11.585938 69.691406 12.640625 75.773438 13.347656 77.890625 C 14.117188 80.199219 14.675781 81.214844 17.503906 85.488281 C 18.890625 87.582031 20.382812 89.890625 20.816406 90.621094 C 22.136719 92.847656 23.101562 93.722656 29.867188 98.816406 C 33.488281 101.542969 35.703125 103.582031 40.578125 108.6875 C 41.703125 109.863281 43.347656 111.367188 44.371094 112.15625 C 45.367188 112.917969 47.332031 114.554688 48.738281 115.789062 C 52.195312 118.820312 52.1875 118.820312 56.613281 121.789062 C 67.28125 128.964844 67.703125 129.292969 73.28125 134.703125 C 75.386719 136.75 76.660156 137.804688 79.796875 140.113281 C 81.941406 141.691406 84.261719 143.378906 84.957031 143.863281 C 87.210938 145.429688 91.410156 147.996094 93.398438 149.019531 L 95.34375 150.019531 L 87.464844 150.019531 Z M 66.851562 146.171875 C 60.714844 139.710938 59.753906 138.75 58.4375 137.722656 C 55.550781 135.472656 50.339844 132.269531 44.625 129.226562 C 39.347656 126.414062 35.90625 124.417969 28.511719 119.882812 C 15.5625 111.945312 5.617188 104.59375 1.148438 99.664062 L 0.0976562 98.503906 L 0.0976562 95.5 L 2.4375 97.804688 C 5.085938 100.410156 6.277344 101.417969 9.78125 104.007812 C 14.992188 107.859375 21.085938 111.738281 29.863281 116.796875 C 36.601562 120.675781 39.40625 122.210938 45.34375 125.25 C 51.828125 128.574219 56.957031 131.664062 59.832031 133.980469 C 60.5 134.515625 62.246094 136.214844 63.710938 137.757812 C 65.175781 139.300781 67.734375 141.992188 69.394531 143.742188 C 71.054688 145.488281 73.082031 147.621094 73.902344 148.472656 L 75.394531 150.019531 L 70.503906 150.019531 L 66.851562 146.175781 Z M 51.425781 148.234375 C 49.085938 145.253906 44.722656 140.191406 43.117188 138.585938 C 39.839844 135.300781 36.625 133.257812 29.871094 130.167969 C 27.132812 128.914062 23.488281 126.898438 21.152344 125.34375 C 19.152344 124.015625 17.769531 122.851562 13.125 118.609375 C 7.957031 113.894531 6.878906 112.976562 3.386719 110.363281 L 0.09375 107.898438 L 0.09375 106.007812 C 0.09375 104.542969 0.136719 104.144531 0.292969 104.238281 C 0.660156 104.453125 4.289062 107.054688 5.886719 108.246094 C 7.863281 109.722656 8.785156 110.5 11.664062 113.105469 C 16.277344 117.277344 18.777344 119.453125 20.175781 120.503906 C 22.390625 122.171875 25.78125 124.113281 30.84375 126.609375 C 39.957031 131.101562 42.085938 132.824219 49.128906 141.421875 C 51.191406 143.9375 54.71875 148.519531 55.410156 149.585938 L 55.695312 150.019531 L 52.832031 150.019531 Z M 19.777344 148.894531 C 17.824219 146.207031 14.15625 142.289062 6.328125 134.542969 L 0.078125 128.347656 L 0.125 126.128906 L 0.171875 123.902344 L 6.378906 130.023438 C 12.078125 135.640625 15.632812 139.3125 18.371094 142.402344 C 19.933594 144.167969 20.964844 145.648438 23.253906 149.425781 L 23.613281 150.019531 L 20.597656 150.019531 L 19.777344 148.894531 " fill-opacity="1" fill-rule="nonzero"/></g></svg>