<svg xmlns="http://www.w3.org/2000/svg" xmlns:xlink="http://www.w3.org/1999/xlink" width="500" zoomAndPan="magnify" viewBox="0 0 375 262.499992" height="350" preserveAspectRatio="xMidYMid meet" version="1.0"><defs><clipPath id="389d0bca5f"><path d="M 8 21 L 372 21 L 372 255 L 8 255 Z M 8 21 " clip-rule="nonzero"/></clipPath><clipPath id="ff1e7c0ec2"><path d="M 111.375 -79.53125 L 409.617188 101.402344 L 264.019531 341.40625 L -34.226562 160.472656 Z M 111.375 -79.53125 " clip-rule="nonzero"/></clipPath><clipPath id="edd4eb4211"><path d="M 111.375 -79.53125 L 409.617188 101.402344 L 264.019531 341.40625 L -34.226562 160.472656 Z M 111.375 -79.53125 " clip-rule="nonzero"/></clipPath></defs><g clip-path="url(#389d0bca5f)"><g clip-path="url(#ff1e7c0ec2)"><g clip-path="url(#edd4eb4211)"><path fill="#ffc0cb" d="M 348.902344 200.792969 C 357.890625 185.800781 364.746094 169.398438 368.386719 152.277344 C 371.925781 135.652344 373.300781 117.695312 367.789062 101.332031 C 362.398438 85.339844 351.390625 72.128906 336.796875 63.667969 C 333.5625 61.796875 330.171875 60.171875 326.746094 58.625 C 326.035156 58 325.210938 57.484375 324.285156 57.125 C 321.722656 56.121094 319.21875 54.96875 316.753906 53.742188 C 314.234375 52.441406 311.726562 51.074219 309.210938 49.734375 C 299.105469 37.734375 286.792969 26.9375 271.40625 23.195312 C 254.65625 19.117188 237.367188 24.558594 223.796875 34.636719 C 213.121094 42.5625 205.371094 53.703125 194.769531 61.71875 C 193.8125 62.441406 192.832031 63.125 191.828125 63.777344 C 191.816406 63.765625 190.589844 64.503906 190.242188 64.691406 C 189.464844 65.113281 188.664062 65.496094 187.859375 65.859375 C 186.507812 66.476562 185.109375 66.980469 183.691406 67.421875 C 183.371094 67.5 183.050781 67.574219 182.730469 67.644531 C 181.78125 67.851562 180.824219 68.007812 179.863281 68.140625 C 179.015625 68.257812 178.160156 68.332031 177.304688 68.390625 C 177.09375 68.40625 176.886719 68.417969 176.679688 68.425781 C 176.519531 68.429688 176.363281 68.429688 176.253906 68.429688 C 174.398438 68.414062 172.53125 68.242188 170.679688 68.09375 C 167.082031 67.796875 163.496094 67.328125 159.929688 66.769531 C 156.316406 66.203125 152.722656 65.515625 149.140625 64.769531 C 148.835938 64.703125 148.53125 64.636719 148.222656 64.574219 C 148.199219 64.566406 148.175781 64.5625 148.148438 64.554688 C 147.28125 64.363281 146.417969 64.167969 145.554688 63.96875 C 143.675781 63.542969 141.804688 63.09375 139.929688 62.644531 C 132.714844 60.902344 125.523438 59.039062 118.292969 57.351562 C 103.683594 53.941406 88.667969 51.089844 73.601562 51.769531 C 56.808594 52.523438 39.589844 57.425781 26.90625 68.886719 C 14.585938 80.019531 9.539062 96.460938 8.65625 112.585938 C 7.796875 128.308594 11.207031 144.4375 16.59375 159.148438 C 22.863281 176.273438 32.574219 191.835938 45.664062 204.5625 C 58.570312 217.109375 75.085938 225.894531 92.402344 230.574219 C 101.605469 233.066406 111.019531 234.589844 120.53125 235.171875 C 130.167969 235.761719 139.820312 235.25 149.429688 234.453125 C 157.523438 233.777344 165.589844 232.832031 173.6875 232.183594 C 173.746094 232.179688 173.808594 232.171875 173.867188 232.167969 C 174.105469 232.152344 174.574219 232.117188 174.8125 232.101562 C 175.753906 232.042969 176.691406 231.988281 177.632812 231.941406 C 179.652344 231.835938 181.671875 231.765625 183.695312 231.730469 C 187.550781 231.660156 191.410156 231.761719 195.253906 232.054688 C 196.175781 232.125 197.097656 232.214844 198.019531 232.308594 C 198.410156 232.351562 199.632812 232.511719 200.085938 232.566406 C 201.75 232.828125 203.402344 233.144531 205.046875 233.496094 C 208.625 234.265625 212.136719 235.300781 215.578125 236.539062 C 215.585938 236.558594 217.394531 237.269531 217.859375 237.46875 C 218.816406 237.878906 219.765625 238.316406 220.707031 238.765625 C 222.738281 239.726562 224.707031 240.800781 226.679688 241.875 C 229.839844 243.59375 233.078125 245.179688 236.382812 246.613281 C 249.367188 252.246094 263.414062 255.484375 277.617188 254.324219 C 291.8125 253.167969 305.226562 247.1875 316.464844 238.59375 C 329.640625 228.511719 340.410156 214.953125 348.902344 200.792969 Z M 348.902344 200.792969 " fill-opacity="1" fill-rule="nonzero"/></g></g></g></svg>