<svg xmlns="http://www.w3.org/2000/svg" xmlns:xlink="http://www.w3.org/1999/xlink" width="500" zoomAndPan="magnify" viewBox="0 0 375 299.999988" height="400" preserveAspectRatio="xMidYMid meet" version="1.0"><defs><clipPath id="a70b8fa293"><path d="M 4 2 L 373.453125 2 L 373.453125 299 L 4 299 Z M 4 2 " clip-rule="nonzero"/></clipPath></defs><g clip-path="url(#a70b8fa293)"><path fill="#ffc0cb" d="M 373.449219 124.332031 C 373.355469 105.667969 370.527344 86.90625 364.375 69.261719 C 358.398438 52.128906 349.710938 34.976562 335.617188 23.09375 C 321.84375 11.484375 304.484375 5.523438 286.480469 5.882812 C 282.492188 5.960938 278.496094 6.359375 274.511719 6.84375 C 273.519531 6.664062 272.480469 6.652344 271.4375 6.835938 C 268.542969 7.339844 265.621094 7.671875 262.691406 7.917969 C 259.667969 8.125 256.628906 8.269531 253.585938 8.4375 C 237.722656 3.082031 220.503906 0.046875 204.386719 5.148438 C 186.84375 10.699219 174.078125 25.238281 167.269531 41.949219 C 161.917969 55.09375 161.011719 69.558594 155.773438 82.742188 C 155.300781 83.929688 154.785156 85.09375 154.230469 86.246094 C 154.214844 86.246094 153.5 87.59375 153.289062 87.960938 C 152.808594 88.773438 152.292969 89.566406 151.761719 90.347656 C 150.867188 91.65625 149.871094 92.890625 148.820312 94.078125 C 148.574219 94.328125 148.320312 94.570312 148.066406 94.8125 C 147.316406 95.527344 146.527344 96.199219 145.726562 96.851562 C 145.015625 97.429688 144.277344 97.972656 143.527344 98.5 C 143.347656 98.628906 143.160156 98.753906 142.976562 98.878906 C 142.832031 98.96875 142.691406 99.058594 142.589844 99.117188 C 140.886719 100.128906 139.089844 101.007812 137.316406 101.894531 C 133.867188 103.617188 130.339844 105.175781 126.773438 106.640625 C 123.164062 108.125 119.5 109.484375 115.820312 110.785156 C 115.503906 110.898438 115.1875 111.007812 114.875 111.117188 C 114.847656 111.125 114.824219 111.132812 114.792969 111.144531 C 113.898438 111.449219 113 111.746094 112.101562 112.046875 C 110.152344 112.691406 108.195312 113.324219 106.238281 113.945312 C 98.683594 116.355469 91.09375 118.636719 83.558594 121.097656 C 68.335938 126.074219 53.054688 131.785156 39.679688 140.746094 C 24.769531 150.734375 11.765625 164.742188 6.535156 182.222656 C 1.457031 199.210938 5.953125 217.007812 14.074219 232.214844 C 21.996094 247.039062 34.042969 259.871094 47.101562 270.316406 C 62.304688 282.472656 79.78125 291.300781 98.777344 295.667969 C 117.503906 299.972656 137.441406 298.84375 155.839844 293.53125 C 165.613281 290.707031 175.054688 286.886719 184.058594 282.152344 C 193.175781 277.351562 201.707031 271.542969 210.03125 265.492188 C 217.046875 260.398438 223.886719 255.070312 230.914062 249.992188 C 230.96875 249.953125 231.019531 249.917969 231.074219 249.878906 C 231.28125 249.730469 231.691406 249.441406 231.898438 249.296875 C 232.722656 248.71875 233.550781 248.152344 234.382812 247.585938 C 236.167969 246.371094 237.972656 245.191406 239.800781 244.039062 C 243.28125 241.839844 246.855469 239.792969 250.527344 237.933594 C 251.410156 237.484375 252.300781 237.058594 253.195312 236.632812 C 253.574219 236.457031 254.777344 235.925781 255.222656 235.726562 C 256.886719 235.046875 258.570312 234.414062 260.265625 233.828125 C 263.957031 232.550781 267.734375 231.546875 271.5625 230.777344 C 271.578125 230.789062 273.625 230.433594 274.15625 230.359375 C 275.261719 230.203125 276.367188 230.078125 277.476562 229.964844 C 279.859375 229.714844 282.25 229.609375 284.644531 229.496094 C 288.484375 229.316406 292.316406 228.96875 296.125 228.449219 C 311.09375 226.402344 325.710938 221.578125 338.027344 212.65625 C 350.347656 203.738281 359.277344 190.855469 364.773438 176.789062 C 371.21875 160.292969 373.542969 141.953125 373.449219 124.332031 Z M 373.449219 124.332031 " fill-opacity="1" fill-rule="nonzero"/></g></svg>