<svg xmlns="http://www.w3.org/2000/svg" xmlns:xlink="http://www.w3.org/1999/xlink" width="500" zoomAndPan="magnify" viewBox="0 0 375 374.999991" height="500" preserveAspectRatio="xMidYMid meet" version="1.0"><defs><clipPath id="f7c486f3b6"><path d="M 54 13 L 344 13 L 344 351 L 54 351 Z M 54 13 " clip-rule="nonzero"/></clipPath><clipPath id="c82fd8c1bf"><path d="M 269.917969 -33.257812 L 385.445312 314.820312 L 104.988281 407.902344 L -10.539062 59.824219 Z M 269.917969 -33.257812 " clip-rule="nonzero"/></clipPath><clipPath id="840b6a0b67"><path d="M 269.917969 -33.257812 L 385.445312 314.820312 L 104.988281 407.902344 L -10.539062 59.824219 Z M 269.917969 -33.257812 " clip-rule="nonzero"/></clipPath><clipPath id="de7468bf4d"><path d="M 55 33 L 349 33 L 349 374 L 55 374 Z M 55 33 " clip-rule="nonzero"/></clipPath><clipPath id="2e5dba393b"><path d="M 269.917969 -33.257812 L 385.445312 314.820312 L 104.988281 407.902344 L -10.539062 59.824219 Z M 269.917969 -33.257812 " clip-rule="nonzero"/></clipPath><clipPath id="e03cb9a06b"><path d="M 269.917969 -33.257812 L 385.445312 314.820312 L 104.988281 407.902344 L -10.539062 59.824219 Z M 269.917969 -33.257812 " clip-rule="nonzero"/></clipPath><clipPath id="7a907aca4e"><path d="M 84 48 L 292.394531 48 L 292.394531 259 L 84 259 Z M 84 48 " clip-rule="nonzero"/></clipPath></defs><g clip-path="url(#f7c486f3b6)"><g clip-path="url(#c82fd8c1bf)"><g clip-path="url(#840b6a0b67)"><path fill="#ffc0cb" d="M 264.015625 31.152344 C 285.679688 43.453125 302.886719 67.019531 300.132812 91.800781 C 298.539062 105.933594 290.785156 118.769531 288.453125 132.832031 C 284.386719 156.773438 296.34375 180.332031 309.6875 200.644531 C 323.03125 220.957031 338.667969 240.75 343.460938 264.539062 C 335.609375 280.90625 318.238281 290.410156 301.085938 296.503906 C 283.933594 302.59375 265.734375 306.484375 250.535156 316.300781 C 240.140625 323.09375 231.605469 332.371094 221.542969 339.6875 C 211.480469 347.007812 198.84375 352.3125 186.8125 349.386719 C 174.710938 346.480469 165.984375 336.011719 159.71875 325.28125 C 153.453125 314.554688 148.597656 302.800781 140.109375 293.761719 C 126.875 279.777344 107.136719 274.714844 89.644531 266.835938 C 72.152344 258.957031 54.40625 244.558594 54.3125 225.339844 C 54.242188 203.800781 75.726562 188.953125 83.65625 168.980469 C 91.417969 149.457031 85.40625 127.507812 79.941406 107.203125 C 74.476562 86.902344 70.039062 64.1875 80.164062 45.792969 C 90.671875 26.871094 113.554688 18.636719 134.976562 15.824219 C 155.992188 12.984375 177.40625 14.949219 198.515625 14.066406 C 219.984375 13.070312 245.570312 20.648438 264.015625 31.152344 Z M 264.015625 31.152344 " fill-opacity="1" fill-rule="nonzero"/></g></g></g><g clip-path="url(#de7468bf4d)"><g clip-path="url(#2e5dba393b)"><g clip-path="url(#e03cb9a06b)"><path fill="#578cb5" d="M 57.085938 256.957031 C 55.992188 253.660156 55.402344 250.195312 55.359375 246.472656 C 55.304688 232.886719 63.554688 221.792969 71.449219 211.058594 C 76.496094 204.210938 81.78125 197.128906 84.871094 189.417969 C 92.347656 170.710938 86.738281 149.738281 81.296875 129.507812 L 81.15625 128.835938 C 75.355469 107.054688 71.351562 84.4375 81.546875 66.015625 C 93.128906 45.066406 118.496094 37.601562 137.769531 35.023438 C 151.09375 33.226562 164.730469 33.316406 177.886719 33.40625 C 185.621094 33.464844 193.667969 33.496094 201.523438 33.199219 C 221.773438 32.363281 247.910156 39.203125 268.023438 50.667969 L 267.066406 52.335938 L 268.023438 50.667969 C 288.613281 62.367188 308.09375 86.296875 305.074219 113.152344 C 304.226562 120.914062 301.519531 128.335938 298.882812 135.496094 C 296.679688 141.554688 294.402344 147.882812 293.273438 154.300781 C 289.132812 178.746094 302.332031 202.691406 314.199219 220.707031 C 316.269531 223.839844 318.441406 227.019531 320.585938 230.125 C 332.214844 247.1875 344.179688 264.777344 348.28125 285.292969 L 348.402344 285.890625 L 348.113281 286.460938 C 341.289062 300.660156 327.046875 311.433594 304.6875 319.332031 C 300.050781 320.949219 295.296875 322.449219 290.6875 323.898438 C 278.289062 327.777344 265.488281 331.867188 254.542969 338.917969 C 248.855469 342.636719 243.597656 347.167969 238.550781 351.625 C 234.417969 355.226562 230.160156 358.945312 225.621094 362.28125 C 216.777344 368.71875 203.253906 375.671875 189.3125 372.261719 C 178.765625 369.71875 169.222656 361.347656 161.050781 347.273438 C 159.265625 344.289062 157.644531 341.085938 156.027344 338.125 C 151.953125 330.40625 147.640625 322.449219 141.703125 316.066406 C 132.023438 305.835938 118.277344 300.371094 105.054688 295.054688 C 100.664062 293.328125 96.152344 291.484375 91.859375 289.570312 C 82.597656 285.402344 62.984375 274.726562 57.085938 256.957031 Z M 298.964844 92.109375 C 293.515625 75.699219 280.089844 61.855469 266.085938 53.933594 C 246.542969 42.757812 221.265625 36.113281 201.664062 36.96875 C 193.734375 37.292969 185.6875 37.261719 177.855469 37.15625 C 164.84375 37.019531 151.378906 36.953125 138.265625 38.679688 C 119.828125 41.136719 95.679688 48.199219 84.816406 67.714844 C 75.265625 84.96875 79.152344 106.75 84.761719 127.71875 L 84.902344 128.390625 C 90.226562 148.261719 96.261719 170.761719 88.308594 190.664062 C 85.050781 198.828125 79.667969 206.101562 74.457031 213.164062 C 66.539062 223.828125 59.003906 233.964844 59.058594 246.355469 C 59.148438 268.921875 85.300781 282.515625 93.246094 286.085938 C 97.472656 288.023438 101.957031 289.796875 106.277344 291.546875 C 119.929688 296.960938 134.058594 302.613281 144.261719 313.46875 C 150.628906 320.183594 154.941406 328.378906 159.15625 336.289062 C 160.777344 339.253906 162.371094 342.382812 164.132812 345.296875 C 171.734375 358.367188 180.464844 366.210938 190.058594 368.515625 C 203.285156 371.683594 216.570312 364.011719 223.285156 359.078125 C 227.707031 355.863281 231.914062 352.238281 235.976562 348.660156 C 241.164062 344.15625 246.472656 339.53125 252.351562 335.667969 C 263.75 328.304688 276.765625 324.144531 289.453125 320.171875 C 294.0625 318.722656 298.742188 317.25 303.304688 315.65625 C 324.375 308.183594 337.855469 298.222656 344.296875 285.265625 C 340.238281 265.847656 328.582031 248.710938 317.285156 232.171875 C 315.140625 229.066406 312.972656 225.886719 310.875 222.6875 C 298.554688 204.023438 284.953125 179.339844 289.355469 153.535156 C 290.464844 146.800781 292.859375 140.359375 295.089844 134.128906 C 297.628906 127.160156 300.191406 120.023438 301.015625 112.671875 C 302.074219 105.554688 301.128906 98.628906 298.964844 92.109375 Z M 298.964844 92.109375 " fill-opacity="1" fill-rule="nonzero"/></g></g></g><g clip-path="url(#7a907aca4e)"><path fill="#ffffff" d="M 189.054688 106.292969 C 180.867188 102.050781 173.425781 97.402344 168.15625 91.410156 C 162.988281 85.515625 160.292969 78.175781 160.613281 68.242188 C 161.761719 59.851562 165.785156 54.28125 174.371094 52.3125 C 181.410156 50.761719 187.40625 51.6875 192.171875 54.683594 C 197.039062 57.679688 200.4375 62.851562 202.109375 69.789062 C 202.53125 71.335938 202.832031 72.886719 203.132812 74.554688 C 205.105469 84.070312 207.175781 94.425781 217.613281 97.523438 C 218.640625 97.828125 219.886719 98.148438 221.132812 98.449219 C 229.300781 100.722656 236.441406 103.519531 240.785156 114.800781 C 248.75 135.398438 254.441406 165.386719 273.992188 176.449219 C 255.789062 159.59375 253.09375 132.902344 245.230469 112.628906 C 240.261719 99.796875 231.050781 97.625 222.058594 95.152344 C 220.914062 94.851562 219.886719 94.527344 218.640625 94.125 C 210.152344 91.652344 208.300781 82.339844 206.53125 73.953125 C 206.230469 72.203125 205.910156 70.632812 205.507812 68.984375 C 203.636719 61.222656 199.613281 55.226562 194.023438 51.707031 C 188.53125 48.289062 181.511719 47.261719 173.648438 49.011719 C 164.65625 50.984375 157.296875 58.726562 156.070312 67.839844 C 155.34375 77.152344 159.488281 86.765625 165.582031 93.703125 C 171.175781 100.21875 179.039062 104.988281 187.503906 109.429688 L 187.605469 109.429688 C 199.714844 114.921875 204.882812 105.085938 206.03125 95.152344 C 202.914062 102.171875 199.695312 110.960938 189.054688 106.292969 Z M 189.777344 162.789062 C 181.8125 172.726562 169.804688 182.140625 165.683594 195.695312 C 170.449219 187.53125 183.363281 175 191.851562 165.484375 C 200.640625 155.773438 202.511719 147.484375 203.957031 136.523438 C 205.707031 122.867188 204.984375 110.355469 218.136719 104.140625 C 206.25 105.390625 202.628906 120.171875 200.035156 133.929688 C 197.742188 145.917969 197.523438 153.054688 189.777344 162.789062 Z M 274.070312 206.738281 C 264.757812 213.878906 252.027344 216.773438 242.613281 216.453125 C 218.097656 215.425781 204.761719 197.527344 184.167969 195.976562 C 175.476562 195.253906 168.136719 197.726562 163.371094 202.492188 C 159.953125 205.390625 157.777344 207.261719 155.707031 206.9375 C 153.738281 206.738281 151.664062 204.566406 148.667969 199.796875 C 145.671875 195.03125 140.703125 192.355469 135.332031 191.3125 C 122.097656 188.9375 109.992188 193.382812 107.394531 207.761719 C 105.648438 217.898438 112.164062 226.066406 119.605469 231.355469 C 113.089844 223.914062 109.570312 215.628906 110.816406 208.285156 C 112.785156 197.847656 125.097656 192.980469 134.710938 194.730469 C 139.15625 195.554688 143.296875 197.726562 145.773438 201.667969 C 149.292969 207.359375 152.085938 210.054688 155.285156 210.457031 C 158.484375 210.878906 161.277344 208.386719 165.625 204.867188 C 170.894531 200 176.90625 200.101562 183.824219 200.625 C 207.71875 202.492188 219.101562 218.625 242.070312 219.648438 C 252.972656 220.09375 268.277344 213.976562 274.070312 206.738281 Z M 109.1875 223.710938 C 96.054688 230.328125 88.390625 242.335938 85.816406 247.808594 C 82.394531 254.949219 85.089844 259.292969 96.253906 257.84375 C 109.1875 256.296875 120.871094 251.628906 132.15625 248.007812 C 150.355469 242.117188 165.5625 236.222656 185.9375 241.292969 C 171.457031 232.179688 147.5625 239.84375 131.3125 245.113281 C 120.25 248.734375 109.265625 251.527344 96.65625 253.078125 C 89.9375 253.902344 87.765625 252.453125 89.414062 249.035156 C 94.503906 237.269531 100.296875 231.15625 109.1875 223.710938 Z M 155.746094 240.367188 C 161.015625 240.566406 163.1875 243.5625 166.507812 245.535156 C 171.777344 248.632812 178.09375 250.703125 192.574219 251.027344 C 207.355469 251.226562 223.308594 250.300781 238.914062 249.878906 C 256.59375 249.355469 279.058594 249.257812 292.59375 244.1875 C 278.113281 246.78125 254.742188 246.660156 238.8125 247.082031 C 223.1875 247.507812 207.15625 246.882812 192.375 246.5625 C 178.714844 246.257812 172.925781 245.214844 167.855469 242.519531 C 162.363281 239.742188 160.292969 238.816406 155.746094 240.367188 Z M 225.660156 125.964844 C 223.589844 152.753906 209.308594 172.625 191.828125 190.507812 C 213.773438 173.953125 228.777344 159.996094 225.660156 125.964844 Z M 220.289062 203.238281 C 227.230469 193.203125 227.632812 179.144531 218.742188 170.753906 C 224.734375 179.746094 221.636719 196.300781 220.289062 203.238281 Z M 176.222656 167.539062 C 190.28125 153.15625 188.230469 127.914062 199.292969 114.78125 C 185.535156 123.46875 185.214844 151.507812 176.222656 167.539062 Z M 166.808594 215.648438 C 154.921875 217.09375 140.421875 224.636719 131.429688 229.707031 C 125.015625 233.328125 119.023438 235.921875 112.082031 238.597656 C 100.195312 243.363281 106.492188 232.902344 111.058594 226.808594 C 102.269531 232.601562 94.304688 249.980469 112.40625 242.839844 C 119.644531 239.945312 126.363281 235.699219 132.777344 232.179688 C 144.261719 225.683594 155.226562 219.570312 166.808594 215.648438 Z M 166.808594 215.648438 " fill-opacity="1" fill-rule="nonzero"/></g></svg>