<svg xmlns="http://www.w3.org/2000/svg" xmlns:xlink="http://www.w3.org/1999/xlink" width="500" zoomAndPan="magnify" viewBox="0 0 375 374.999991" height="500" preserveAspectRatio="xMidYMid meet" version="1.0"><defs><clipPath id="5370fbb5f6"><path d="M 90 35 L 310 35 L 310 310.402344 L 90 310.402344 Z M 90 35 " clip-rule="nonzero"/></clipPath></defs><path fill="#578cb5" d="M 51.179688 35.074219 C 37.039062 49.132812 30.882812 70.746094 35.496094 90.144531 C 40.765625 112.304688 58.835938 131.464844 57.339844 154.191406 C 55.605469 180.492188 29.257812 197.195312 14.882812 219.289062 C 3.785156 236.347656 -0.164062 258.292969 5.992188 277.6875 C 12.152344 297.082031 28.878906 313.171875 48.875 316.933594 C 71.847656 321.257812 95.386719 309.894531 118.550781 313.023438 C 139.730469 315.878906 157.207031 330.234375 175.070312 341.96875 C 192.929688 353.703125 215.109375 363.488281 235.160156 356.089844 C 260.910156 346.585938 269.445312 314.789062 288.644531 295.179688 C 302 281.539062 320.277344 274.144531 336.652344 264.320312 C 353.019531 254.496094 368.839844 240.097656 371.171875 221.144531 C 374.933594 190.503906 343.226562 167.890625 332.773438 138.847656 C 325.109375 117.546875 329.320312 93.492188 322.316406 71.96875 C 309.839844 33.636719 265.597656 14.636719 225.316406 13.003906 C 192.230469 11.664062 160.070312 19.996094 127.183594 20.796875 C 99.542969 21.472656 73.773438 12.609375 51.179688 35.074219 Z M 51.179688 35.074219 " fill-opacity="1" fill-rule="nonzero"/><g clip-path="url(#5370fbb5f6)"><path fill="#ffffff" d="M 307.101562 165.558594 C 305.753906 162.292969 302.734375 155.242188 295.214844 150.390625 C 289.582031 146.757812 284.105469 146.085938 281.382812 145.78125 C 274.238281 144.984375 268.804688 146.632812 267.308594 147.113281 C 264.980469 147.871094 260.9375 149.476562 256.871094 152.816406 C 254.800781 154.519531 251.714844 157.109375 249.714844 161.550781 C 249.492188 162.039062 249.273438 162.578125 248.949219 163.59375 C 248.917969 163.515625 248.890625 163.445312 248.863281 163.367188 C 248.472656 162.414062 248.054688 161.5625 247.648438 160.820312 C 246.71875 160.855469 245.792969 160.898438 244.855469 160.9375 C 244.265625 160.039062 243.414062 158.703125 242.429688 157.058594 C 240.09375 153.136719 238.882812 150.503906 236.726562 146.140625 C 234.109375 140.835938 232.800781 138.175781 231.140625 135.222656 C 228.460938 130.429688 227.113281 128.03125 224.957031 125.519531 C 222.402344 122.546875 221.417969 122.328125 219.253906 119.214844 C 218.054688 117.488281 218.34375 117.539062 215.371094 112.777344 C 214.265625 111.011719 213.953125 110.574219 213.675781 109.621094 C 213.003906 107.34375 213.769531 106.367188 213.308594 103.917969 C 213.003906 102.28125 212.371094 101.195312 211.492188 99.675781 C 209.988281 97.082031 208.195312 95.363281 207.25 94.457031 C 205.441406 92.746094 205.050781 92.851562 204.09375 91.546875 C 203.164062 90.269531 203.335938 89.886719 202.027344 87.667969 C 200.980469 85.871094 200.425781 84.957031 199.363281 84.277344 C 198.105469 83.46875 196.820312 83.355469 196.203125 83.304688 C 195.042969 83.210938 194.777344 83.460938 191.957031 83.785156 C 189.726562 84.050781 189.265625 83.976562 188.925781 83.664062 C 188.386719 83.175781 188.414062 82.445312 188.324219 81 C 188.261719 79.921875 188.125 78.429688 187.839844 76.628906 C 189.339844 76.707031 190.835938 76.792969 192.332031 76.871094 C 193.339844 75.941406 193.609375 75.132812 193.664062 74.566406 C 193.785156 73.457031 193.15625 72.910156 193.542969 71.898438 C 193.800781 71.214844 194.167969 71.238281 194.394531 70.441406 C 194.59375 69.710938 194.359375 69.414062 194.636719 68.859375 C 194.878906 68.378906 195.175781 68.386719 195.730469 67.890625 C 196.402344 67.285156 196.347656 66.953125 197.3125 65.464844 C 198.199219 64.078125 198.285156 64.328125 198.402344 63.882812 C 198.730469 62.710938 197.824219 62.320312 197.800781 60.363281 C 197.792969 59.746094 197.878906 59.765625 197.921875 58.417969 C 197.941406 57.652344 197.929688 57.355469 198.042969 56.835938 C 198.191406 56.199219 198.363281 56.042969 198.523438 55.503906 C 198.652344 55.09375 198.738281 54.558594 198.644531 53.4375 C 198.460938 51.273438 197.792969 49.289062 197.554688 48.585938 C 196.957031 46.863281 196.808594 46.917969 196.28125 45.308594 C 195.652344 43.394531 195.652344 42.671875 195.367188 41.847656 C 194.53125 39.34375 191.898438 38.082031 189.914062 37.117188 C 184.257812 34.386719 178.746094 35.632812 177.902344 35.839844 C 176.796875 36.109375 172.519531 37.144531 169.347656 40.570312 C 168.015625 42.019531 167.808594 42.875 166.078125 44.21875 C 164.078125 45.75 162.820312 45.769531 161.53125 47.488281 C 161.105469 48.046875 160.765625 48.890625 160.074219 50.582031 C 159.566406 51.828125 158.914062 53.445312 158.4375 55.3125 C 157.75 58.0625 158.253906 58.21875 157.707031 61.136719 C 157.480469 62.382812 156.820312 64.285156 155.527344 68.046875 C 153.875 72.820312 153.90625 72.445312 153.707031 73.324219 C 153.074219 76.132812 153.449219 77.140625 153.160156 81.507812 C 153.023438 83.558594 152.832031 85 152.429688 87.878906 C 151.492188 94.71875 150.804688 95.960938 151.707031 98.25 C 152.265625 99.675781 152.925781 100.207031 152.980469 101.710938 C 153.046875 103.585938 152.066406 104.210938 151.890625 106.261719 C 151.796875 107.308594 152.039062 107.339844 152.804688 110.628906 C 153.769531 114.792969 153.585938 115.609375 154.621094 116.816406 C 154.882812 117.121094 156.003906 118.425781 157.648438 118.574219 C 158.847656 118.679688 159.019531 118.058594 160.316406 117.972656 C 162.140625 117.84375 162.617188 119.023438 165.289062 119.789062 C 167.566406 120.441406 167.75 119.738281 168.929688 120.390625 C 169.703125 120.816406 170.523438 121.609375 172.085938 125.972656 C 172.988281 128.492188 173.496094 130.429688 173.539062 130.585938 C 175.492188 138.019531 175.128906 138.019531 176.085938 140.890625 C 177.066406 143.828125 177.824219 146.097656 179.476562 148.902344 C 180.710938 150.988281 182.292969 153.109375 181.664062 153.878906 C 181.40625 154.191406 180.867188 154.179688 180.449219 154.121094 C 179.398438 152.058594 178.34375 150 177.292969 147.9375 C 176.109375 145.714844 174.007812 142.417969 170.496094 139.324219 C 166.011719 135.371094 161.585938 133.820312 159.21875 133.019531 C 149.613281 129.753906 141.207031 131.378906 137.984375 132.167969 C 131.820312 133.683594 127.183594 136.457031 124.152344 138.722656 C 117.804688 143.46875 114.640625 148.914062 112.988281 151.824219 C 112.183594 153.234375 109.832031 157.578125 108.253906 163.714844 C 107.6875 165.925781 107.363281 167.839844 107.164062 169.296875 C 102.75 169.375 98.34375 169.457031 93.941406 169.535156 C 93.238281 169.890625 91.898438 170.722656 91.023438 172.324219 C 89.910156 174.390625 90.292969 176.402344 90.542969 177.667969 C 90.839844 179.199219 91.109375 180.601562 92.359375 181.425781 C 93.753906 182.339844 95.445312 181.914062 95.875 181.789062 L 106.914062 181.789062 C 107.019531 183.050781 107.199219 184.804688 107.519531 186.882812 C 107.617188 187.519531 108.433594 192.628906 109.703125 196.464844 C 112.09375 203.679688 116.953125 208.859375 118.433594 210.410156 C 120.699219 212.789062 128.53125 220.746094 141.242188 222.542969 C 143.304688 222.832031 147.328125 223.222656 152.285156 222.421875 C 162.296875 220.796875 169.253906 215.421875 172.910156 211.867188 C 177.34375 207.546875 179.621094 203.269531 180.1875 202.160156 C 180.441406 201.65625 181.597656 199.394531 182.761719 196.257812 C 182.769531 197.394531 182.769531 198.628906 182.734375 200.339844 C 182.648438 204.695312 182.5 204.085938 182.25 211.257812 C 182.089844 215.917969 182.003906 218.285156 182.011719 221.691406 C 182.015625 227.296875 182.25 227.359375 182.011719 229.699219 C 181.683594 232.871094 181.011719 235.164062 179.824219 239.164062 C 179.207031 241.261719 178.519531 243.234375 177.15625 247.171875 C 175.414062 252.203125 175.164062 252.628906 174.730469 254.449219 C 173.972656 257.679688 173.84375 260.226562 173.761719 262.210938 C 173.5625 266.835938 174.144531 267.078125 174.242188 272.886719 C 174.378906 280.507812 173.371094 279.726562 174 283.5625 C 174.457031 286.316406 175.285156 288.578125 174 290.109375 C 173.441406 290.785156 172.859375 290.871094 171.09375 292.539062 C 170.175781 293.402344 169.714844 293.84375 169.398438 294.480469 C 168.746094 295.773438 169.234375 296.355469 168.914062 298.121094 C 168.503906 300.355469 167.511719 300.539062 167.21875 302.488281 C 167.09375 303.320312 167.085938 304.539062 167.703125 306.128906 C 169.367188 306.433594 171.902344 306.921875 174.980469 307.582031 C 179.664062 308.589844 180.203125 308.839844 182.5 309.277344 C 185.628906 309.882812 189.855469 310.691406 194.871094 310.25 C 199.902344 309.8125 203.058594 309.917969 205.304688 307.582031 C 206.597656 306.242188 207.695312 304.070312 207 302.972656 C 206.308594 301.867188 204.457031 302.878906 201.417969 301.757812 C 199.410156 301.015625 198.078125 299.78125 196.808594 298.601562 C 194.757812 296.703125 195.121094 296.234375 193.167969 294.480469 C 191.167969 292.679688 190.460938 292.871094 188.558594 291.082031 C 187.757812 290.332031 186.507812 289.152344 185.648438 287.445312 C 184.265625 284.691406 184.605469 281.96875 185.167969 277.980469 C 185.402344 276.3125 185.804688 274.6875 186.621094 271.433594 C 187.4375 268.164062 188.140625 265.851562 188.804688 263.671875 C 190.210938 259.054688 190.757812 257.863281 190.992188 257.367188 C 191.914062 255.40625 192.394531 254.945312 193.660156 252.753906 C 194.785156 250.804688 195.714844 248.675781 197.539062 244.503906 C 198.984375 241.199219 199.972656 238.929688 201.179688 235.773438 C 202.511719 232.269531 203.648438 229.308594 204.574219 225.828125 C 206.902344 217.101562 206.3125 211.328125 207.242188 211.269531 C 208.058594 211.21875 208.960938 215.605469 209.667969 219.03125 C 210.535156 223.230469 210.867188 226.671875 211.125 229.464844 C 211.394531 232.367188 211.5 234.558594 211.605469 236.742188 C 211.820312 241.070312 211.925781 243.234375 211.847656 245.476562 C 211.640625 251.570312 210.675781 251.960938 211.117188 255.714844 C 211.476562 258.757812 212.152344 258.839844 213.058594 263.191406 C 213.648438 266.035156 213.421875 266.304688 214.03125 271.921875 C 214.464844 275.921875 215.023438 279.929688 215.246094 285.507812 C 215.335938 287.910156 215.332031 289.648438 214.273438 291.332031 C 213.429688 292.671875 212.472656 293.097656 211.605469 294.730469 C 211.050781 295.777344 211.179688 296.164062 210.632812 298.851562 C 209.78125 303.027344 209.265625 303.488281 209.664062 304.433594 C 210.222656 305.746094 211.882812 306.320312 214.996094 306.859375 C 220.089844 307.738281 223.851562 307.605469 227.367188 307.589844 C 232.105469 307.5625 236.675781 307.738281 239.257812 307.832031 C 246.769531 308.117188 249.445312 308.519531 250.175781 307.101562 C 250.828125 305.839844 249.679688 303.625 248.230469 302.488281 C 246.074219 300.792969 244.324219 302.328125 241.195312 300.792969 C 238.851562 299.644531 239.535156 298.632812 236.582031 296.914062 C 235.269531 296.148438 234.964844 296.246094 230.757812 294.488281 C 228.554688 293.566406 227.445312 293.097656 227.121094 292.792969 C 225.6875 291.4375 225.417969 289.375 225.664062 283.570312 C 225.835938 279.605469 226.070312 278.09375 226.398438 273.867188 C 226.9375 266.835938 226.601562 266.992188 227.128906 263.429688 C 227.632812 259.96875 228.050781 259.132812 228.339844 255.714844 C 228.617188 252.515625 228.363281 251.96875 228.582031 249.363281 C 228.9375 245.207031 229.824219 243.753906 230.523438 240.390625 C 231.539062 235.503906 230.488281 234.628906 230.765625 228.019531 C 230.972656 223.171875 231.53125 223.734375 232.953125 213.703125 C 233.765625 207.90625 234.304688 204.011719 234.40625 198.90625 C 234.496094 194.238281 234.164062 190.625 233.921875 187.988281 C 233.640625 184.894531 233.261719 182.105469 232.859375 179.644531 C 235.234375 179.714844 237.613281 179.789062 239.988281 179.867188 C 240.328125 180.390625 240.847656 181.113281 241.5625 181.929688 C 242.476562 182.964844 242.933594 183.484375 243.507812 183.746094 C 244.125 184.035156 244.777344 184.085938 245.414062 184.023438 C 245.804688 187.363281 246.699219 189.867188 247.394531 191.753906 C 248.464844 194.664062 250.261719 199.394531 254.671875 203.886719 C 255.972656 205.203125 260.128906 209.191406 266.921875 211.40625 C 268.589844 211.949219 275.691406 214.109375 284.515625 211.886719 C 286.277344 211.449219 293.015625 209.597656 299.3125 203.636719 C 306.230469 197.097656 308.378906 189.597656 308.898438 187.625 C 311.691406 177.019531 308.28125 168.394531 307.101562 165.558594 Z M 238.320312 169.984375 C 238.121094 170.871094 238.414062 171.203125 238.050781 171.800781 C 237.859375 172.113281 237.613281 172.28125 237.144531 172.617188 C 236.371094 173.160156 236.15625 173.042969 235.78125 173.429688 C 235.265625 173.96875 235.449219 174.390625 235.050781 174.707031 C 234.765625 174.933594 234.222656 175.078125 233.050781 174.617188 C 233.035156 173.574219 232.945312 172.082031 232.597656 170.339844 C 232.296875 168.863281 231.9375 167.800781 231.234375 165.792969 C 230.546875 163.828125 229.792969 161.917969 229.417969 160.96875 C 228.828125 159.492188 228.503906 158.726562 228.140625 157.421875 C 227.835938 156.3125 227.746094 155.660156 227.59375 154.597656 C 227.382812 153.113281 227.246094 152.113281 227.59375 151.957031 C 227.863281 151.832031 228.332031 152.304688 228.871094 152.867188 C 230.886719 154.988281 231.902344 156.042969 232.058594 156.230469 C 233.808594 158.398438 234.824219 159.726562 235.964844 161.324219 C 237.058594 162.839844 237.421875 163.445312 237.605469 164.324219 C 237.769531 165.117188 237.667969 165.558594 238.058594 166.324219 C 238.546875 167.296875 239.09375 167.378906 239.152344 168.046875 C 239.199219 168.785156 238.578125 168.84375 238.320312 169.984375 Z M 248.160156 166.265625 C 248.039062 166.679688 247.925781 167.074219 247.8125 167.472656 C 247.601562 167.097656 247.421875 166.769531 247.300781 166.527344 C 247.585938 166.4375 247.875 166.351562 248.160156 166.265625 Z M 248.160156 166.265625 " fill-opacity="1" fill-rule="nonzero"/></g></svg>