<svg xmlns="http://www.w3.org/2000/svg" xmlns:xlink="http://www.w3.org/1999/xlink" width="500" zoomAndPan="magnify" viewBox="0 0 375 374.999991" height="500" preserveAspectRatio="xMidYMid meet" version="1.0"><defs><clipPath id="8da08376f3"><path d="M 59 16 L 375 16 L 375 372 L 59 372 Z M 59 16 " clip-rule="nonzero"/></clipPath><clipPath id="6e2e78b954"><path d="M 404.183594 414.554688 L -12.535156 277.277344 L 97.992188 -58.238281 L 514.710938 79.042969 Z M 404.183594 414.554688 " clip-rule="nonzero"/></clipPath><clipPath id="24054cf136"><path d="M 404.183594 414.554688 L -12.535156 277.277344 L 97.992188 -58.238281 L 514.710938 79.042969 Z M 404.183594 414.554688 " clip-rule="nonzero"/></clipPath><clipPath id="f734d394b2"><path d="M 35 1 L 375 1 L 375 362 L 35 362 Z M 35 1 " clip-rule="nonzero"/></clipPath><clipPath id="0783c69bd5"><path d="M 404.183594 414.554688 L -12.535156 277.277344 L 97.992188 -58.238281 L 514.710938 79.042969 Z M 404.183594 414.554688 " clip-rule="nonzero"/></clipPath><clipPath id="a7e694dcd0"><path d="M 404.183594 414.554688 L -12.535156 277.277344 L 97.992188 -58.238281 L 514.710938 79.042969 Z M 404.183594 414.554688 " clip-rule="nonzero"/></clipPath><clipPath id="d35af3616f"><path d="M 94.476562 106.117188 L 364.476562 106.117188 L 364.476562 256.117188 L 94.476562 256.117188 Z M 94.476562 106.117188 " clip-rule="nonzero"/></clipPath></defs><g clip-path="url(#8da08376f3)"><g clip-path="url(#6e2e78b954)"><g clip-path="url(#24054cf136)"><path fill="#ffc0cb" d="M 346.625 363.035156 C 319.40625 375.050781 284.558594 374.777344 262.757812 354.492188 C 250.339844 342.902344 243.554688 326.328125 231.734375 314.078125 C 211.667969 293.132812 180.570312 287.824219 151.589844 286.160156 C 122.613281 284.492188 92.5 285.398438 66.28125 273.054688 C 56.175781 253.871094 59.429688 230.449219 65.800781 209.667969 C 72.171875 188.882812 81.398438 168.664062 82.804688 147.097656 C 83.695312 132.296875 80.875 117.507812 81.023438 102.648438 C 81.171875 87.792969 85.078125 71.894531 96.449219 62.445312 C 107.851562 52.90625 124.105469 51.996094 138.851562 53.625 C 153.601562 55.257812 168.328125 58.96875 183.035156 57.261719 C 205.867188 54.53125 224.777344 39.207031 244.785156 28.042969 C 264.792969 16.882812 291.230469 10.117188 309.730469 23.710938 C 330.429688 38.980469 329.371094 70.152344 342.878906 91.976562 C 356.070312 113.316406 381.398438 123.179688 404.757812 132.394531 C 428.117188 141.605469 453.054688 153.523438 463.484375 176.328125 C 474.148438 199.875 465.746094 227.679688 453.195312 250.222656 C 440.953125 272.394531 423.824219 291.53125 409.640625 312.398438 C 395.3125 333.691406 369.832031 352.832031 346.625 363.035156 Z M 346.625 363.035156 " fill-opacity="1" fill-rule="nonzero"/></g></g></g><g clip-path="url(#f734d394b2)"><g clip-path="url(#0783c69bd5)"><g clip-path="url(#a7e694dcd0)"><path fill="#578cb5" d="M 277.4375 3.863281 C 281.375 5.160156 285.117188 7.058594 288.722656 9.667969 C 301.785156 19.289062 306.546875 35.097656 311.222656 50.308594 C 314.191406 60.023438 317.222656 70.136719 322.414062 78.585938 C 335.03125 99.074219 359.132812 108.628906 382.40625 117.8125 L 383.148438 118.152344 C 408.164062 128.101562 432.703125 140.363281 443.105469 163.253906 C 454.945312 189.277344 444.042969 218.914062 432.792969 239.230469 C 425.03125 253.289062 415.238281 266.296875 405.785156 278.847656 C 400.222656 286.226562 394.460938 293.917969 389.15625 301.664062 C 375.539062 321.671875 350.371094 341.863281 325.0625 352.988281 L 324.140625 350.882812 L 325.0625 352.988281 C 299.179688 364.402344 262.371094 366.042969 238.769531 344.023438 C 231.929688 337.691406 226.742188 329.808594 221.753906 322.183594 C 217.507812 315.753906 213.066406 309.070312 207.714844 303.414062 C 187.222656 282.042969 154.867188 277.648438 129.140625 276.199219 C 124.664062 275.960938 120.070312 275.777344 115.566406 275.621094 C 90.925781 274.625 65.539062 273.574219 42.945312 262.902344 L 42.289062 262.589844 L 41.945312 261.90625 C 33.191406 245.253906 33 223.925781 41.347656 196.863281 C 43.09375 191.269531 45.042969 185.644531 46.933594 180.191406 C 52.042969 165.542969 57.238281 150.355469 58.265625 134.839844 C 58.75 126.738281 58.152344 118.46875 57.46875 110.460938 C 56.960938 103.929688 56.421875 97.203125 56.457031 90.472656 C 56.582031 77.414062 59.539062 59.492188 72.734375 48.554688 C 82.683594 40.25 97.503906 37.0625 116.816406 39.246094 C 120.953125 39.660156 125.175781 40.386719 129.167969 40.941406 C 139.46875 42.53125 150.167969 44.0625 160.515625 42.914062 C 177.21875 40.914062 192.242188 31.621094 206.753906 22.730469 C 211.535156 19.75 216.515625 16.738281 221.410156 13.984375 C 231.996094 8.070312 256.195312 -3.136719 277.4375 3.863281 Z M 263.296875 353.148438 C 282.910156 359.609375 305.738281 356.59375 323.308594 348.804688 C 347.933594 338.023438 372.304688 318.519531 385.441406 299.109375 C 390.773438 291.277344 396.535156 283.585938 402.210938 276.152344 C 411.609375 263.769531 421.257812 250.90625 428.9375 237.105469 C 439.703125 217.675781 450.128906 189.492188 439.148438 165.179688 C 429.40625 143.742188 405.753906 131.960938 381.652344 122.40625 L 380.910156 122.066406 C 358.066406 113.023438 332.195312 102.792969 318.773438 80.996094 C 313.265625 72.0625 310.121094 61.71875 307.0625 51.695312 C 302.476562 36.511719 298.117188 22.066406 286.195312 13.296875 C 264.496094 -2.679688 232.839844 12.714844 223.761719 17.796875 C 218.894531 20.464844 214 23.503906 209.25 26.402344 C 194.339844 35.636719 178.859375 45.15625 161.1875 47.214844 C 150.210938 48.539062 139.285156 46.835938 128.699219 45.25 C 124.707031 44.691406 120.566406 43.996094 116.515625 43.609375 C 98.574219 41.589844 84.839844 44.375 75.796875 51.9375 C 63.34375 62.359375 61.242188 80.5625 61.191406 90.511719 C 61.128906 97.042969 61.605469 103.65625 62.144531 110.101562 C 62.769531 118.28125 63.425781 126.664062 62.945312 135.050781 C 61.886719 151.222656 56.609375 166.667969 51.386719 181.65625 C 49.496094 187.109375 47.578125 192.648438 45.855469 198.160156 C 38.019531 223.679688 37.976562 243.699219 45.8125 259.097656 C 67.320312 269.03125 92.046875 270.058594 115.949219 271 C 120.453125 271.15625 125.046875 271.339844 129.609375 271.605469 C 156.277344 273.082031 189.628906 277.613281 211.238281 300.207031 C 216.90625 306.0625 221.378906 312.945312 225.765625 319.519531 C 230.636719 326.914062 235.65625 334.453125 242.121094 340.476562 C 248.1875 346.558594 255.5 350.582031 263.296875 353.148438 Z M 263.296875 353.148438 " fill-opacity="1" fill-rule="nonzero"/></g></g></g><g clip-path="url(#d35af3616f)"><path fill="#ffffff" d="M 285.960938 170 L 233.070312 186.835938 L 172.9375 168.730469 C 172.9375 168.730469 172.933594 168.730469 172.933594 168.730469 L 113.792969 150.921875 L 229.480469 115.0625 L 345.542969 151.035156 Z M 282.933594 201.082031 C 275.898438 208.09375 256.160156 214.167969 229.480469 214.167969 C 202.800781 214.167969 183.066406 208.09375 176.03125 201.082031 L 176.03125 178.742188 L 231.851562 195.550781 C 232.0625 195.613281 232.269531 195.65625 232.484375 195.691406 C 232.539062 195.699219 232.597656 195.695312 232.652344 195.703125 C 232.804688 195.71875 232.953125 195.734375 233.105469 195.734375 C 233.113281 195.734375 233.121094 195.734375 233.125 195.730469 C 233.246094 195.730469 233.367188 195.714844 233.488281 195.707031 C 233.585938 195.695312 233.683594 195.695312 233.785156 195.679688 C 234 195.644531 234.214844 195.59375 234.425781 195.53125 L 282.933594 180.089844 Z M 269.070312 223.441406 C 258.558594 226.675781 244.5 228.460938 229.480469 228.460938 C 214.464844 228.460938 200.40625 226.675781 189.890625 223.441406 C 179.722656 220.308594 176.03125 216.683594 176.03125 215.007812 L 176.03125 214.230469 C 178.929688 216.429688 182.617188 218.390625 187.035156 220.054688 C 195.636719 223.292969 206.535156 225.277344 218.554688 225.792969 C 218.589844 225.792969 218.621094 225.796875 218.65625 225.796875 C 219.882812 225.796875 220.902344 224.828125 220.953125 223.589844 C 221.007812 222.320312 220.023438 221.246094 218.753906 221.195312 C 198.703125 220.332031 182.453125 215.214844 176.03125 208.074219 L 176.03125 205.140625 C 179.003906 207.402344 183.0625 209.460938 188.105469 211.226562 C 199.179688 215.105469 213.875 217.238281 229.480469 217.238281 C 245.089844 217.238281 259.78125 215.105469 270.859375 211.226562 C 275.902344 209.460938 279.957031 207.402344 282.933594 205.140625 L 282.933594 215.007812 C 282.933594 216.683594 279.238281 220.308594 269.070312 223.441406 Z M 133.234375 251.71875 C 130.300781 251.71875 127.433594 250.828125 125.019531 249.191406 L 130.34375 228.949219 C 130.375 228.964844 130.40625 228.976562 130.4375 228.992188 C 130.492188 229.023438 130.554688 229.050781 130.613281 229.078125 L 128.222656 243.625 C 128.085938 244.460938 128.648438 245.25 129.488281 245.386719 C 129.570312 245.398438 129.65625 245.40625 129.738281 245.40625 C 130.476562 245.40625 131.125 244.875 131.25 244.121094 L 133.625 229.652344 C 133.734375 229.648438 133.839844 229.640625 133.945312 229.628906 C 134.019531 229.621094 134.089844 229.605469 134.164062 229.59375 C 134.324219 229.570312 134.480469 229.542969 134.636719 229.503906 C 134.71875 229.488281 134.796875 229.464844 134.875 229.445312 C 135.023438 229.402344 135.171875 229.355469 135.316406 229.304688 C 135.386719 229.277344 135.457031 229.253906 135.53125 229.222656 C 135.703125 229.152344 135.871094 229.074219 136.039062 228.988281 C 136.066406 228.976562 136.101562 228.964844 136.128906 228.949219 L 141.449219 249.191406 C 139.039062 250.828125 136.171875 251.71875 133.234375 251.71875 Z M 133.234375 225.070312 C 132.382812 225.070312 131.691406 224.375 131.691406 223.523438 C 131.691406 222.671875 132.382812 221.980469 133.234375 221.980469 C 134.089844 221.980469 134.78125 222.671875 134.78125 223.523438 C 134.78125 224.375 134.089844 225.070312 133.234375 225.070312 Z M 361.335938 146.828125 L 230.769531 106.359375 C 229.929688 106.097656 229.03125 106.097656 228.195312 106.359375 L 97.628906 146.828125 C 95.800781 147.394531 94.558594 149.089844 94.566406 151 C 94.574219 152.910156 95.828125 154.59375 97.660156 155.144531 L 130.933594 165.164062 L 130.933594 217.828125 C 128.789062 218.695312 127.25 220.742188 127.105469 223.15625 L 120.179688 249.511719 C 119.949219 250.375 120.242188 251.292969 120.929688 251.863281 C 124.375 254.738281 128.746094 256.324219 133.234375 256.324219 C 137.722656 256.324219 142.09375 254.738281 145.542969 251.863281 C 146.226562 251.292969 146.519531 250.375 146.292969 249.511719 L 139.363281 223.15625 C 139.222656 220.742188 137.679688 218.695312 135.535156 217.828125 L 135.535156 166.550781 L 167.335938 176.125 L 167.335938 215.007812 C 167.335938 219.835938 170.804688 226.660156 187.332031 231.75 C 198.652344 235.234375 213.621094 237.15625 229.480469 237.15625 C 245.339844 237.15625 260.3125 235.234375 271.628906 231.75 C 288.160156 226.660156 291.628906 219.835938 291.628906 215.007812 L 291.628906 177.320312 L 361.367188 155.125 C 363.175781 154.550781 364.402344 152.863281 364.398438 150.964844 C 364.390625 149.066406 363.152344 147.390625 361.335938 146.828125 " fill-opacity="1" fill-rule="nonzero"/></g><path fill="#ffffff" d="M 176.589844 161.183594 L 133.878906 148.738281 C 132.660156 148.382812 131.382812 149.085938 131.023438 150.304688 C 130.667969 151.527344 131.371094 152.804688 132.589844 153.160156 L 175.300781 165.605469 C 175.515625 165.664062 175.730469 165.695312 175.945312 165.695312 C 176.941406 165.695312 177.863281 165.042969 178.152344 164.039062 C 178.507812 162.816406 177.808594 161.539062 176.589844 161.183594 " fill-opacity="1" fill-rule="nonzero"/><path fill="#ffffff" d="M 203.144531 168.84375 L 185.242188 163.984375 C 184.019531 163.652344 182.75 164.378906 182.417969 165.605469 C 182.085938 166.832031 182.8125 168.09375 184.039062 168.425781 L 201.941406 173.285156 C 202.140625 173.34375 202.34375 173.367188 202.542969 173.367188 C 203.554688 173.367188 204.484375 172.691406 204.761719 171.667969 C 205.097656 170.441406 204.371094 169.175781 203.144531 168.84375 " fill-opacity="1" fill-rule="nonzero"/><path fill="#ffffff" d="M 173.574219 157.691406 L 191.21875 162.296875 C 191.414062 162.347656 191.609375 162.371094 191.800781 162.371094 C 192.824219 162.371094 193.757812 161.6875 194.027344 160.648438 C 194.347656 159.421875 193.613281 158.164062 192.382812 157.839844 L 174.734375 153.238281 C 173.507812 152.917969 172.246094 153.652344 171.929688 154.886719 C 171.605469 156.113281 172.34375 157.371094 173.574219 157.691406 " fill-opacity="1" fill-rule="nonzero"/><path fill="#ffffff" d="M 275.003906 137.203125 L 302.371094 145.644531 C 302.597656 145.714844 302.824219 145.746094 303.050781 145.746094 C 304.03125 145.746094 304.945312 145.113281 305.246094 144.125 C 305.621094 142.910156 304.941406 141.621094 303.726562 141.246094 L 276.363281 132.808594 C 275.148438 132.433594 273.859375 133.113281 273.484375 134.328125 C 273.109375 135.542969 273.789062 136.832031 275.003906 137.203125 " fill-opacity="1" fill-rule="nonzero"/><path fill="#ffffff" d="M 312.84375 148.457031 L 321.792969 151.269531 C 322.023438 151.339844 322.257812 151.375 322.484375 151.375 C 323.460938 151.375 324.371094 150.746094 324.679688 149.761719 C 325.0625 148.550781 324.386719 147.257812 323.175781 146.875 L 314.222656 144.0625 C 313.007812 143.683594 311.71875 144.355469 311.335938 145.566406 C 310.957031 146.78125 311.628906 148.074219 312.84375 148.457031 " fill-opacity="1" fill-rule="nonzero"/><path fill="#ffffff" d="M 134.765625 234.046875 C 134.757812 234.046875 134.746094 234.046875 134.738281 234.046875 C 133.890625 234.0625 133.21875 234.761719 133.230469 235.605469 L 133.402344 245.941406 C 133.414062 246.78125 134.101562 247.453125 134.933594 247.453125 C 134.941406 247.453125 134.953125 247.453125 134.960938 247.453125 C 135.808594 247.4375 136.484375 246.738281 136.46875 245.894531 L 136.300781 235.558594 C 136.285156 234.71875 135.601562 234.046875 134.765625 234.046875 " fill-opacity="1" fill-rule="nonzero"/></svg>