<svg xmlns="http://www.w3.org/2000/svg" xmlns:xlink="http://www.w3.org/1999/xlink" width="500" zoomAndPan="magnify" viewBox="0 0 375 374.999991" height="500" preserveAspectRatio="xMidYMid meet" version="1.0"><defs><clipPath id="c2dfcb65e2"><path d="M 72.582031 128 L 203 128 L 203 245 L 72.582031 245 Z M 72.582031 128 " clip-rule="nonzero"/></clipPath><clipPath id="1f73a070a3"><path d="M 149.253906 88.105469 L 293.507812 88.105469 L 293.507812 245.605469 L 149.253906 245.605469 Z M 149.253906 88.105469 " clip-rule="nonzero"/></clipPath><clipPath id="eda714c423"><path d="M 103 88.105469 L 255 88.105469 L 255 179 L 103 179 Z M 103 88.105469 " clip-rule="nonzero"/></clipPath></defs><path fill="#578cb5" d="M 142.445312 363.425781 C 80.75 374.769531 29.777344 339.957031 10.75 239.109375 C -8.277344 138.261719 39.898438 -2.546875 158.40625 6.96875 C 276.910156 16.484375 350.625 60.449219 364.726562 116.265625 C 378.828125 172.078125 401.203125 315.855469 142.445312 363.425781 Z M 142.445312 363.425781 " fill-opacity="1" fill-rule="nonzero"/><g clip-path="url(#c2dfcb65e2)"><path fill="#ffffff" d="M 123.117188 235.75 L 114.886719 224.832031 C 114.171875 223.882812 113.035156 223.355469 111.847656 223.425781 C 111.148438 223.464844 110.480469 223.710938 109.917969 224.132812 C 108.355469 225.3125 108.042969 227.539062 109.21875 229.101562 L 112.0625 232.875 L 106.117188 237.355469 L 80.046875 202.757812 L 85.992188 198.277344 L 101.949219 219.429688 C 102.664062 220.378906 103.800781 220.90625 104.988281 220.835938 C 105.6875 220.796875 106.355469 220.550781 106.917969 220.125 C 108.480469 218.949219 108.792969 216.722656 107.613281 215.160156 L 86.273438 186.859375 L 92.925781 181.847656 L 129.769531 230.738281 Z M 87.566406 228.558594 L 83.386719 223.015625 L 85.324219 221.554688 L 89.503906 227.101562 Z M 155.886719 168.382812 L 160.066406 173.925781 L 119.101562 204.796875 L 114.925781 199.25 Z M 145.222656 142.4375 L 151.875 137.425781 L 173.214844 165.726562 C 173.933594 166.675781 175.066406 167.199219 176.257812 167.132812 C 176.957031 167.089844 177.625 166.847656 178.183594 166.421875 C 179.746094 165.246094 180.0625 163.015625 178.882812 161.453125 L 162.925781 140.300781 L 168.875 135.824219 L 194.945312 170.417969 L 189 174.898438 L 186.15625 171.128906 C 185.441406 170.179688 184.304688 169.652344 183.117188 169.722656 C 182.414062 169.761719 181.75 170.007812 181.1875 170.429688 C 180.429688 171 179.941406 171.832031 179.808594 172.769531 C 179.675781 173.707031 179.917969 174.640625 180.488281 175.398438 L 188.71875 186.316406 L 182.066406 191.332031 Z M 187.425781 144.617188 L 191.605469 150.160156 L 189.664062 151.621094 L 185.488281 146.078125 Z M 123.371094 210.460938 L 164.335938 179.59375 L 176.554688 195.808594 C 177.929688 197.632812 180.121094 198.644531 182.414062 198.511719 C 183.769531 198.433594 185.058594 197.957031 186.144531 197.140625 L 193.175781 191.839844 C 194.636719 190.742188 195.585938 189.136719 195.84375 187.324219 C 196.101562 185.511719 195.636719 183.710938 194.539062 182.253906 L 193.269531 180.566406 L 199.558594 175.828125 C 200.976562 174.757812 201.894531 173.199219 202.148438 171.4375 C 202.398438 169.675781 201.949219 167.921875 200.878906 166.503906 L 193.933594 157.289062 L 198.707031 153.691406 C 200.269531 152.515625 200.582031 150.289062 199.40625 148.726562 L 190.957031 137.515625 C 190.242188 136.566406 189.105469 136.039062 187.917969 136.105469 C 187.21875 136.148438 186.550781 136.394531 185.988281 136.816406 L 181.21875 140.410156 L 174.273438 131.195312 C 172.933594 129.421875 170.804688 128.4375 168.574219 128.566406 C 167.253906 128.640625 166 129.101562 164.945312 129.898438 L 158.65625 134.636719 L 157.386719 132.949219 C 156.011719 131.125 153.820312 130.113281 151.527344 130.246094 C 150.171875 130.324219 148.882812 130.796875 147.796875 131.617188 L 140.761719 136.914062 C 139.300781 138.015625 138.355469 139.621094 138.097656 141.429688 C 137.839844 143.242188 138.300781 145.046875 139.402344 146.503906 L 151.617188 162.714844 L 110.65625 193.585938 L 98.4375 177.371094 C 97.0625 175.546875 94.871094 174.535156 92.578125 174.667969 C 91.222656 174.746094 89.933594 175.21875 88.847656 176.039062 L 81.8125 181.335938 C 78.792969 183.613281 78.183594 187.914062 80.453125 190.925781 L 81.722656 192.609375 L 75.433594 197.347656 C 74.015625 198.417969 73.09375 199.976562 72.84375 201.738281 C 72.59375 203.503906 73.042969 205.253906 74.109375 206.671875 L 81.054688 215.886719 L 76.285156 219.484375 C 75.527344 220.054688 75.039062 220.886719 74.90625 221.824219 C 74.773438 222.761719 75.015625 223.695312 75.585938 224.453125 L 84.035156 235.664062 C 84.75 236.613281 85.886719 237.140625 87.074219 237.070312 C 87.773438 237.03125 88.441406 236.785156 89 236.363281 L 93.773438 232.765625 L 100.71875 241.980469 C 102.054688 243.757812 104.1875 244.742188 106.417969 244.613281 C 107.734375 244.535156 108.988281 244.074219 110.046875 243.28125 L 116.332031 238.542969 L 117.605469 240.226562 C 118.980469 242.054688 121.171875 243.066406 123.464844 242.933594 C 124.820312 242.855469 126.109375 242.378906 127.195312 241.5625 L 134.230469 236.261719 C 135.6875 235.164062 136.636719 233.558594 136.894531 231.746094 C 137.152344 229.933594 136.6875 228.132812 135.589844 226.675781 L 123.371094 210.460938 " fill-opacity="1" fill-rule="nonzero"/></g><g clip-path="url(#1f73a070a3)"><path fill="#ffffff" d="M 291.421875 123 C 290.09375 118.375 288.132812 114.039062 285.59375 110.109375 C 280.785156 102.671875 273.894531 96.71875 265.667969 92.890625 C 256.832031 88.78125 246.929688 87.277344 237.027344 88.539062 C 226.6875 89.859375 216.9375 94.167969 208.828125 101.003906 C 207.175781 102.390625 206.96875 104.851562 208.355469 106.5 C 209.746094 108.148438 212.207031 108.359375 213.855469 106.96875 C 227.589844 95.394531 246.640625 92.648438 262.378906 99.96875 C 277.203125 106.863281 285.703125 120.855469 285.703125 138.359375 C 285.703125 148.976562 280.910156 160.53125 271.046875 173.691406 C 262.140625 185.570312 250.695312 196.78125 239.625 207.625 L 239.363281 207.886719 C 228.632812 218.394531 220.136719 225.902344 213.386719 230.839844 C 205.109375 236.894531 200.835938 238.0625 198.703125 237.984375 C 196.667969 237.90625 191.953125 236.859375 183.246094 230.753906 C 175.480469 225.3125 166.332031 217.136719 156.050781 206.457031 C 154.554688 204.90625 152.085938 204.859375 150.535156 206.351562 C 148.980469 207.847656 148.933594 210.316406 150.429688 211.871094 C 161.054688 222.910156 170.589844 231.414062 178.765625 237.144531 C 186.65625 242.675781 193.261719 245.582031 198.398438 245.78125 C 198.566406 245.789062 198.734375 245.789062 198.90625 245.789062 C 203.855469 245.789062 209.941406 243.03125 217.992188 237.140625 C 225.046875 231.980469 233.824219 224.234375 244.824219 213.460938 L 245.089844 213.199219 C 255.839844 202.667969 268.03125 190.726562 277.289062 178.371094 C 288.203125 163.8125 293.507812 150.722656 293.507812 138.359375 C 293.507812 132.992188 292.804688 127.824219 291.421875 123 " fill-opacity="1" fill-rule="nonzero"/></g><g clip-path="url(#eda714c423)"><path fill="#ffffff" d="M 115.453125 169.679688 C 116.085938 169.679688 116.730469 169.523438 117.324219 169.199219 C 119.214844 168.164062 119.90625 165.792969 118.871094 163.902344 C 113.914062 154.851562 111.398438 146.257812 111.398438 138.359375 C 111.398438 120.195312 121.125 105.664062 137.417969 99.496094 C 155.324219 92.714844 175.964844 97.894531 188.785156 112.382812 C 195.113281 119.746094 200.910156 128.042969 206.519531 136.066406 C 212.890625 145.183594 218.90625 153.796875 225.636719 161.152344 C 229.324219 165.183594 232.875 168.445312 236.488281 171.125 C 240.617188 174.183594 244.734375 176.414062 249.066406 177.941406 C 249.496094 178.09375 249.933594 178.167969 250.363281 178.167969 C 251.972656 178.167969 253.480469 177.164062 254.042969 175.5625 C 254.761719 173.53125 253.695312 171.300781 251.664062 170.585938 C 236.386719 165.191406 224.984375 148.871094 212.914062 131.597656 C 207.191406 123.40625 201.273438 114.9375 194.683594 107.269531 C 194.675781 107.265625 194.671875 107.257812 194.667969 107.25 C 194.660156 107.242188 194.652344 107.238281 194.648438 107.230469 C 187.011719 98.597656 177.085938 92.683594 165.941406 90.136719 C 160.714844 88.941406 155.355469 88.515625 150.007812 88.875 C 144.699219 89.230469 139.535156 90.347656 134.65625 92.195312 C 125.601562 95.625 117.960938 101.421875 112.558594 108.960938 C 109.6875 112.960938 107.472656 117.429688 105.96875 122.234375 C 104.394531 127.265625 103.59375 132.691406 103.59375 138.359375 C 103.59375 147.582031 106.433594 157.4375 112.027344 167.652344 C 112.738281 168.945312 114.074219 169.679688 115.453125 169.679688 " fill-opacity="1" fill-rule="nonzero"/></g></svg>