<svg xmlns="http://www.w3.org/2000/svg" xmlns:xlink="http://www.w3.org/1999/xlink" width="500" zoomAndPan="magnify" viewBox="0 0 375 187.499995" height="250" preserveAspectRatio="xMidYMid meet" version="1.0"><path fill="#ffffff" d="M 350.921875 36.207031 C 337.386719 26.6875 319.890625 23.617188 303.789062 21.605469 C 294.898438 20.496094 285.789062 20.078125 276.90625 21.539062 C 268.085938 22.988281 260.160156 26.746094 252.246094 30.738281 C 240.175781 36.824219 226.851562 43.488281 213.164062 38.582031 C 199.496094 33.6875 190.699219 20.949219 178.542969 13.585938 C 175.035156 11.5 171.359375 9.765625 167.515625 8.386719 C 163.675781 7.007812 159.738281 6.003906 155.703125 5.378906 C 151.671875 4.753906 147.613281 4.519531 143.535156 4.671875 C 139.457031 4.828125 135.429688 5.367188 131.453125 6.292969 C 123.140625 8.261719 116.085938 12.359375 108.625 16.328125 C 102.28125 19.699219 95.652344 22.128906 88.367188 21.574219 C 74.128906 20.488281 62.257812 10.96875 49.25 6.082031 C 41.824219 3.292969 34.300781 2.222656 26.5625 4.417969 C 23.660156 5.242188 13.066406 7.742188 7.144531 17.550781 C 0.964844 27.785156 3.996094 38.984375 5.152344 43.25 C 6.472656 47.847656 8.460938 52.132812 11.125 56.105469 C 12.402344 57.996094 13.820312 59.773438 15.375 61.441406 C 19.207031 65.558594 23.652344 69.0625 27.394531 73.265625 C 35.894531 82.824219 38.484375 94.742188 36.394531 107.144531 C 35.152344 114.511719 35.300781 120.777344 39.285156 127.382812 C 41.109375 130.265625 43.257812 132.878906 45.734375 135.222656 C 48.210938 137.570312 50.9375 139.574219 53.914062 141.234375 C 66.652344 148.660156 82.480469 150.808594 96.964844 151.03125 C 106.53125 151.171875 115.984375 150.210938 125.328125 148.140625 C 133.667969 146.300781 141.851562 143.785156 150.242188 142.171875 C 165.75 139.1875 179.980469 140.789062 192.320312 151.203125 C 203.539062 160.667969 212.492188 173.476562 227.722656 176.578125 C 245.0625 180.109375 262.3125 171.78125 274.304688 159.675781 C 285.773438 148.101562 292.378906 133.609375 300.4375 119.722656 C 303.992188 113.601562 308.144531 107.652344 313.765625 103.246094 C 318.679688 99.394531 324.472656 97.191406 330.453125 95.601562 C 343.753906 92.058594 360.914062 90.5 366.171875 75.363281 C 371.277344 60.664062 362.917969 44.648438 350.921875 36.207031 Z M 350.921875 36.207031 " fill-opacity="1" fill-rule="nonzero"/><path fill="#ffc0cb" d="M 366.097656 80.210938 C 356.882812 91.179688 341.226562 91.835938 328.894531 97.25 C 312.785156 104.324219 307.355469 121.109375 300.191406 135.761719 C 293.121094 150.230469 283.832031 164.566406 270.121094 173.550781 C 257.613281 181.746094 241.160156 185.375 226.976562 179.433594 C 212.53125 173.378906 203.617188 159.078125 189.328125 152.777344 C 170.992188 144.695312 151.046875 154.449219 133.296875 159.488281 C 124.421875 162.019531 115.375 163.542969 106.15625 164.0625 C 96.941406 164.582031 87.78125 164.082031 78.675781 162.5625 C 66.691406 160.539062 54.582031 155.722656 46.515625 146.269531 C 42.292969 141.320312 39.40625 135.347656 39.332031 128.769531 C 39.257812 122.355469 40.949219 116.195312 39.8125 109.761719 C 39.101562 106.015625 37.84375 102.464844 36.046875 99.109375 C 34.246094 95.75 31.984375 92.738281 29.261719 90.070312 C 24.925781 85.738281 19.816406 82.277344 15.496094 77.925781 C 10.796875 73.023438 7.3125 67.371094 5.039062 60.96875 C 3.292969 55.894531 0.472656 47.6875 3.632812 38.46875 C 6.269531 30.769531 11.65625 26.378906 14.484375 24.164062 C 17.15625 22.054688 20.058594 20.324219 23.183594 18.976562 C 26.3125 17.628906 29.5625 16.710938 32.933594 16.222656 C 40.242188 15.238281 47.515625 17.242188 54.304688 19.8125 C 69.300781 25.484375 85.042969 35.824219 101.371094 28.664062 C 109.261719 25.203125 115.875 19.429688 123.796875 15.988281 C 131.027344 12.878906 138.570312 11.164062 146.433594 10.839844 C 162.328125 10.148438 177.046875 15.304688 189.671875 24.792969 C 195.777344 29.378906 201.585938 34.515625 208.382812 38.085938 C 210.351562 39.144531 212.410156 39.988281 214.558594 40.613281 C 216.707031 41.238281 218.894531 41.632812 221.125 41.796875 C 223.355469 41.964844 225.578125 41.894531 227.792969 41.589844 C 230.007812 41.285156 232.167969 40.757812 234.273438 39.996094 C 249.867188 34.644531 262.148438 23.027344 278.640625 19.71875 C 295.507812 16.335938 314.558594 18.34375 331.21875 22.128906 C 345.382812 25.34375 359.789062 31.917969 367.191406 45.074219 C 373.234375 55.820312 374.429688 70.289062 366.097656 80.210938 Z M 351.6875 32.410156 C 337.621094 23.695312 319.972656 21.65625 303.785156 20.589844 C 294.839844 20 285.722656 20.117188 276.941406 22.09375 C 268.21875 24.058594 260.527344 28.273438 252.859375 32.722656 C 241.167969 39.503906 228.257812 46.9375 214.308594 42.84375 C 200.375 38.753906 190.847656 26.554688 178.28125 19.914062 C 174.65625 18.039062 170.886719 16.523438 166.96875 15.371094 C 163.054688 14.214844 159.066406 13.445312 155 13.058594 C 150.9375 12.671875 146.875 12.671875 142.8125 13.066406 C 138.75 13.457031 134.757812 14.234375 130.84375 15.390625 C 122.660156 17.839844 115.859375 22.347656 108.644531 26.742188 C 102.507812 30.480469 96.035156 33.292969 88.726562 33.164062 C 74.449219 32.917969 62.042969 24.109375 48.773438 19.992188 C 41.195312 17.640625 33.625 17.015625 26.027344 19.65625 C 23.175781 20.648438 12.75 23.765625 7.410156 33.902344 C 1.839844 44.484375 5.523438 55.484375 6.925781 59.675781 C 8.511719 64.191406 10.75 68.351562 13.640625 72.164062 C 15.027344 73.972656 16.542969 75.667969 18.195312 77.238281 C 22.261719 81.125 26.902344 84.359375 30.886719 88.339844 C 39.929688 97.382812 43.214844 109.128906 41.851562 121.632812 C 41.042969 129.0625 41.558594 135.308594 45.925781 141.667969 C 47.914062 144.4375 50.210938 146.921875 52.820312 149.117188 C 55.429688 151.3125 58.269531 153.15625 61.339844 154.640625 C 74.488281 161.308594 90.417969 162.523438 104.886719 161.898438 C 114.445312 161.480469 123.828125 159.964844 133.035156 157.355469 C 141.253906 155.027344 149.273438 152.039062 157.558594 149.933594 C 172.863281 146.050781 187.164062 146.816406 200.09375 156.488281 C 211.84375 165.28125 221.53125 177.542969 236.917969 179.746094 C 254.433594 182.257812 271.167969 172.933594 282.429688 160.148438 C 293.203125 147.921875 298.949219 133.070312 306.183594 118.734375 C 309.371094 112.417969 313.167969 106.234375 318.523438 101.507812 C 323.203125 97.375 328.855469 94.835938 334.734375 92.894531 C 347.804688 88.582031 364.839844 86.019531 369.203125 70.601562 C 373.441406 55.628906 364.160156 40.132812 351.6875 32.410156 Z M 351.6875 32.410156 " fill-opacity="1" fill-rule="nonzero"/><path fill="#ffc0cb" d="M 9.109375 54.269531 C 8.253906 50 7.199219 45.140625 8.867188 40.960938 C 10.375 37.398438 12.464844 34.21875 15.128906 31.417969 C 16.511719 29.878906 18.050781 28.515625 19.746094 27.332031 C 21.4375 26.144531 23.246094 25.164062 25.164062 24.390625 C 27.078125 23.617188 29.058594 23.070312 31.101562 22.75 C 33.144531 22.425781 35.199219 22.339844 37.261719 22.488281 C 38.542969 22.585938 37.691406 24.832031 36.496094 24.734375 C 34.617188 24.59375 32.746094 24.671875 30.882812 24.960938 C 29.019531 25.25 27.214844 25.75 25.46875 26.453125 C 23.71875 27.160156 22.074219 28.054688 20.53125 29.136719 C 18.988281 30.222656 17.589844 31.464844 16.332031 32.871094 C 14.203125 35.152344 12.457031 37.699219 11.105469 40.511719 C 9.117188 44.710938 10.535156 49.238281 10.703125 53.660156 C 10.738281 54.566406 9.351562 55.488281 9.109375 54.269531 Z M 9.109375 54.269531 " fill-opacity="1" fill-rule="nonzero"/><path fill="#ffc0cb" d="M 41.0625 23.304688 C 43.511719 22.367188 46.585938 23.222656 48.816406 24.386719 C 49.785156 24.894531 48.714844 26.613281 47.742188 26.179688 C 46.617188 25.652344 45.449219 25.261719 44.234375 25.015625 C 43.140625 24.8125 41.996094 24.800781 40.929688 24.496094 C 40.328125 24.324219 40.613281 23.476562 41.0625 23.304688 Z M 41.0625 23.304688 " fill-opacity="1" fill-rule="nonzero"/><path fill="#ffc0cb" d="M 216.457031 161.898438 C 220.257812 164.722656 224.386719 166.945312 228.835938 168.5625 C 233.289062 170.175781 237.882812 171.121094 242.609375 171.390625 C 253.628906 171.816406 261.433594 165.621094 269.9375 159.589844 C 270.664062 159.074219 271.121094 160.160156 270.574219 160.667969 C 262.800781 167.835938 253.871094 173.976562 242.898438 173.738281 C 240.402344 173.6875 237.933594 173.410156 235.488281 172.898438 C 233.046875 172.390625 230.671875 171.65625 228.367188 170.703125 C 226.058594 169.75 223.859375 168.589844 221.769531 167.226562 C 219.679688 165.863281 217.734375 164.316406 215.933594 162.589844 C 215.652344 162.328125 216.125 161.652344 216.457031 161.898438 Z M 216.457031 161.898438 " fill-opacity="1" fill-rule="nonzero"/><path fill="#ffc0cb" d="M 273.332031 155.230469 C 274.71875 154.222656 276.007812 153.113281 276.367188 151.347656 C 276.402344 151.03125 276.53125 150.75 276.75 150.515625 C 276.964844 150.277344 277.234375 150.128906 277.550781 150.066406 C 277.6875 150.058594 277.820312 150.082031 277.945312 150.136719 C 278.074219 150.191406 278.183594 150.269531 278.273438 150.375 C 278.363281 150.480469 278.421875 150.601562 278.457031 150.734375 C 278.492188 150.867188 278.492188 151.003906 278.464844 151.136719 C 277.921875 153.707031 276.253906 156.332031 273.539062 156.925781 C 272.503906 157.152344 272.839844 155.589844 273.332031 155.230469 Z M 273.332031 155.230469 " fill-opacity="1" fill-rule="nonzero"/><path fill="#ffc0cb" d="M 197.734375 24.066406 C 201.828125 25.027344 204.851562 28.117188 208.359375 30.257812 C 210.535156 31.578125 212.847656 32.574219 215.300781 33.246094 C 217.757812 33.921875 220.253906 34.246094 222.800781 34.222656 C 233.074219 34.089844 241.0625 27.332031 250.089844 23.492188 C 251.035156 23.089844 250.964844 24.476562 250.449219 24.882812 C 246.449219 28.03125 241.488281 30.417969 236.914062 32.652344 C 232.355469 34.882812 227.65625 36.546875 222.53125 36.609375 C 218.1875 36.675781 214.0625 35.769531 210.152344 33.882812 C 205.488281 31.621094 201.632812 27.953125 197.117188 25.386719 C 196.503906 25.039062 197.105469 23.917969 197.734375 24.066406 Z M 197.734375 24.066406 " fill-opacity="1" fill-rule="nonzero"/><path fill="#ffc0cb" d="M 253.847656 20.121094 C 256.171875 18.726562 258.621094 17.601562 261.1875 16.738281 C 262.664062 16.1875 262.542969 18.425781 261.460938 18.921875 C 259.089844 20.117188 256.617188 21.027344 254.039062 21.652344 C 253.125 21.832031 253.359375 20.4375 253.847656 20.121094 Z M 253.847656 20.121094 " fill-opacity="1" fill-rule="nonzero"/><path fill="#ffc0cb" d="M 40.628906 146.652344 C 48.28125 152.472656 54.910156 158.507812 63.972656 162.207031 C 68.691406 164.136719 73.570312 165.5 78.605469 166.292969 C 83.644531 167.089844 88.703125 167.296875 93.789062 166.914062 C 95.148438 166.816406 94.679688 169.003906 93.542969 169.09375 C 88.628906 169.484375 83.730469 169.324219 78.855469 168.613281 C 73.976562 167.90625 69.234375 166.664062 64.636719 164.894531 C 55.648438 161.417969 45.457031 155.699219 40.046875 147.421875 C 39.839844 147.105469 40.226562 146.347656 40.625 146.652344 Z M 40.628906 146.652344 " fill-opacity="1" fill-rule="nonzero"/><path fill="#ffc0cb" d="M 100.128906 167.328125 C 101.117188 167.382812 102.101562 167.316406 103.078125 167.136719 C 103.804688 166.980469 104.8125 166.292969 105.496094 166.777344 C 105.617188 166.875 105.699219 167 105.738281 167.148438 C 105.777344 167.300781 105.769531 167.449219 105.710938 167.59375 C 105.421875 168.699219 104.136719 169.109375 103.140625 169.351562 C 101.980469 169.671875 100.832031 169.628906 99.699219 169.21875 C 98.789062 168.894531 99.203125 167.289062 100.125 167.328125 Z M 100.128906 167.328125 " fill-opacity="1" fill-rule="nonzero"/><path fill="#ffc0cb" d="M 357.355469 80.265625 C 365.460938 74.566406 367.042969 65.230469 363.480469 56.304688 C 360.488281 48.800781 354.753906 42.929688 349.148438 37.296875 C 348.253906 36.394531 349.878906 34.449219 350.878906 35.453125 C 358.164062 42.761719 365.828125 50.902344 367.125 61.625 C 368.050781 69.285156 365.039062 78.03125 357.632812 81.339844 C 356.929688 81.65625 356.917969 80.570312 357.355469 80.265625 Z M 357.355469 80.265625 " fill-opacity="1" fill-rule="nonzero"/><path fill="#ffc0cb" d="M 337.917969 30.648438 C 339.175781 31.003906 340.464844 31.238281 341.710938 31.628906 C 342.863281 31.828125 343.90625 32.277344 344.839844 32.980469 C 345.457031 33.59375 344.691406 34.832031 343.941406 34.886719 C 342.742188 34.976562 341.539062 34.296875 340.4375 33.851562 C 339.316406 33.398438 338.253906 32.804688 337.136719 32.324219 C 336.328125 31.976562 337.136719 30.429688 337.917969 30.648438 Z M 337.917969 30.648438 " fill-opacity="1" fill-rule="nonzero"/></svg>