<svg xmlns="http://www.w3.org/2000/svg" xmlns:xlink="http://www.w3.org/1999/xlink" width="500" zoomAndPan="magnify" viewBox="0 0 375 464.999988" height="620" preserveAspectRatio="xMidYMid meet" version="1.0"><defs><clipPath id="144227a477"><path d="M 13.964844 18.511719 L 375 18.511719 L 375 460.457031 L 13.964844 460.457031 Z M 13.964844 18.511719 " clip-rule="nonzero"/></clipPath><clipPath id="e7512d368a"><path d="M 43.964844 18.511719 L 345 18.511719 C 361.570312 18.511719 375 31.941406 375 48.511719 L 375 430.457031 C 375 447.023438 361.570312 460.457031 345 460.457031 L 43.964844 460.457031 C 27.398438 460.457031 13.964844 447.023438 13.964844 430.457031 L 13.964844 48.511719 C 13.964844 31.941406 27.398438 18.511719 43.964844 18.511719 Z M 43.964844 18.511719 " clip-rule="nonzero"/></clipPath><clipPath id="590ca5445b"><path d="M 0 4.542969 L 361.035156 4.542969 L 361.035156 446.488281 L 0 446.488281 Z M 0 4.542969 " clip-rule="nonzero"/></clipPath><clipPath id="8357a853a9"><path d="M 30 4.542969 L 331.035156 4.542969 C 347.601562 4.542969 361.035156 17.976562 361.035156 34.542969 L 361.035156 416.488281 C 361.035156 433.058594 347.601562 446.488281 331.035156 446.488281 L 30 446.488281 C 13.429688 446.488281 0 433.058594 0 416.488281 L 0 34.542969 C 0 17.976562 13.429688 4.542969 30 4.542969 Z M 30 4.542969 " clip-rule="nonzero"/></clipPath></defs><g clip-path="url(#144227a477)"><g clip-path="url(#e7512d368a)"><path fill="#ffc0cb" d="M 13.964844 18.511719 L 375 18.511719 L 375 460.457031 L 13.964844 460.457031 Z M 13.964844 18.511719 " fill-opacity="1" fill-rule="nonzero"/></g></g><g clip-path="url(#590ca5445b)"><g clip-path="url(#8357a853a9)"><path fill="#578cb5" d="M 0 4.542969 L 361.035156 4.542969 L 361.035156 446.488281 L 0 446.488281 Z M 0 4.542969 " fill-opacity="1" fill-rule="nonzero"/></g></g></svg>