<svg xmlns="http://www.w3.org/2000/svg" xmlns:xlink="http://www.w3.org/1999/xlink" width="500" zoomAndPan="magnify" viewBox="0 0 375 209.999996" height="280" preserveAspectRatio="xMidYMid meet" version="1.0"><defs><clipPath id="9a95e841f6"><path d="M 3 13 L 357 13 L 357 191 L 3 191 Z M 3 13 " clip-rule="nonzero"/></clipPath><clipPath id="67637012f5"><path d="M 26.71875 -52.035156 L 383.738281 25.070312 L 341.148438 222.273438 L -15.871094 145.171875 Z M 26.71875 -52.035156 " clip-rule="nonzero"/></clipPath><clipPath id="b10a2a08fb"><path d="M 26.71875 -52.035156 L 383.738281 25.070312 L 341.148438 222.273438 L -15.871094 145.171875 Z M 26.71875 -52.035156 " clip-rule="nonzero"/></clipPath><clipPath id="36587fcfe2"><path d="M 6 19 L 364 19 L 364 203 L 6 203 Z M 6 19 " clip-rule="nonzero"/></clipPath><clipPath id="5b447acbfa"><path d="M 26.71875 -52.035156 L 383.738281 25.070312 L 341.148438 222.273438 L -15.871094 145.171875 Z M 26.71875 -52.035156 " clip-rule="nonzero"/></clipPath><clipPath id="b18ca8f4d7"><path d="M 26.71875 -52.035156 L 383.738281 25.070312 L 341.148438 222.273438 L -15.871094 145.171875 Z M 26.71875 -52.035156 " clip-rule="nonzero"/></clipPath><clipPath id="15305e98b0"><path d="M 14 58 L 46 58 L 46 99 L 14 99 Z M 14 58 " clip-rule="nonzero"/></clipPath><clipPath id="0368ea3b26"><path d="M 26.71875 -52.035156 L 383.738281 25.070312 L 341.148438 222.273438 L -15.871094 145.171875 Z M 26.71875 -52.035156 " clip-rule="nonzero"/></clipPath><clipPath id="ec26f77b6c"><path d="M 26.71875 -52.035156 L 383.738281 25.070312 L 341.148438 222.273438 L -15.871094 145.171875 Z M 26.71875 -52.035156 " clip-rule="nonzero"/></clipPath><clipPath id="3533eed625"><path d="M 54 57 L 72 57 L 72 61 L 54 61 Z M 54 57 " clip-rule="nonzero"/></clipPath><clipPath id="e09687a12c"><path d="M 26.71875 -52.035156 L 383.738281 25.070312 L 341.148438 222.273438 L -15.871094 145.171875 Z M 26.71875 -52.035156 " clip-rule="nonzero"/></clipPath><clipPath id="1777983e4f"><path d="M 26.71875 -52.035156 L 383.738281 25.070312 L 341.148438 222.273438 L -15.871094 145.171875 Z M 26.71875 -52.035156 " clip-rule="nonzero"/></clipPath><clipPath id="82a5185164"><path d="M 243 155 L 309 155 L 309 191 L 243 191 Z M 243 155 " clip-rule="nonzero"/></clipPath><clipPath id="6d592201c5"><path d="M 26.71875 -52.035156 L 383.738281 25.070312 L 341.148438 222.273438 L -15.871094 145.171875 Z M 26.71875 -52.035156 " clip-rule="nonzero"/></clipPath><clipPath id="1e0eb3fea7"><path d="M 26.71875 -52.035156 L 383.738281 25.070312 L 341.148438 222.273438 L -15.871094 145.171875 Z M 26.71875 -52.035156 " clip-rule="nonzero"/></clipPath><clipPath id="d671655378"><path d="M 303 133 L 309 133 L 309 150 L 303 150 Z M 303 133 " clip-rule="nonzero"/></clipPath><clipPath id="88581f5dce"><path d="M 26.71875 -52.035156 L 383.738281 25.070312 L 341.148438 222.273438 L -15.871094 145.171875 Z M 26.71875 -52.035156 " clip-rule="nonzero"/></clipPath><clipPath id="bde600d0d2"><path d="M 26.71875 -52.035156 L 383.738281 25.070312 L 341.148438 222.273438 L -15.871094 145.171875 Z M 26.71875 -52.035156 " clip-rule="nonzero"/></clipPath><clipPath id="acac1b7583"><path d="M 83 144 L 157 144 L 157 170 L 83 170 Z M 83 144 " clip-rule="nonzero"/></clipPath><clipPath id="37be102d53"><path d="M 26.71875 -52.035156 L 383.738281 25.070312 L 341.148438 222.273438 L -15.871094 145.171875 Z M 26.71875 -52.035156 " clip-rule="nonzero"/></clipPath><clipPath id="826de1136d"><path d="M 26.71875 -52.035156 L 383.738281 25.070312 L 341.148438 222.273438 L -15.871094 145.171875 Z M 26.71875 -52.035156 " clip-rule="nonzero"/></clipPath><clipPath id="bd78418fe2"><path d="M 299 12 L 366 12 L 366 53 L 299 53 Z M 299 12 " clip-rule="nonzero"/></clipPath><clipPath id="2380aa6dd0"><path d="M 26.71875 -52.035156 L 383.738281 25.070312 L 341.148438 222.273438 L -15.871094 145.171875 Z M 26.71875 -52.035156 " clip-rule="nonzero"/></clipPath><clipPath id="7c2a733c6b"><path d="M 26.71875 -52.035156 L 383.738281 25.070312 L 341.148438 222.273438 L -15.871094 145.171875 Z M 26.71875 -52.035156 " clip-rule="nonzero"/></clipPath><clipPath id="9221f0d99f"><path d="M 367 58 L 374 58 L 374 74 L 367 74 Z M 367 58 " clip-rule="nonzero"/></clipPath><clipPath id="9eab388f00"><path d="M 26.71875 -52.035156 L 383.738281 25.070312 L 341.148438 222.273438 L -15.871094 145.171875 Z M 26.71875 -52.035156 " clip-rule="nonzero"/></clipPath><clipPath id="ef59a7fa46"><path d="M 26.71875 -52.035156 L 383.738281 25.070312 L 341.148438 222.273438 L -15.871094 145.171875 Z M 26.71875 -52.035156 " clip-rule="nonzero"/></clipPath></defs><g clip-path="url(#9a95e841f6)"><g clip-path="url(#67637012f5)"><g clip-path="url(#b10a2a08fb)"><path fill="#ffffff" d="M 340.351562 94.746094 C 333.753906 98.300781 327.242188 101.410156 321.871094 106.78125 C 319.222656 109.433594 316.929688 112.359375 314.980469 115.5625 C 313.035156 118.761719 311.496094 122.148438 310.359375 125.714844 C 305.324219 141.589844 313.441406 160.652344 301.925781 174.332031 C 282.988281 196.828125 247.398438 191.703125 222.832031 183.753906 C 200.792969 176.625 178.832031 166.167969 162.066406 149.917969 C 156.273438 144.304688 150.949219 138.175781 144.347656 133.464844 C 134.972656 126.765625 123.699219 122.824219 112.527344 120.375 C 99.613281 117.542969 86.539062 117.410156 73.386719 117.800781 C 61.714844 118.148438 49.707031 118.691406 38.472656 114.917969 C 32.1875 112.71875 26.476562 109.503906 21.339844 105.273438 C 21.109375 105.0625 20.835938 104.972656 20.523438 105 C 10.765625 96.554688 3.46875 85.644531 3.511719 72.253906 C 3.5625 56.035156 12.882812 39.960938 28.421875 34.296875 C 42.125 29.300781 57.195312 31.691406 71.128906 34.347656 C 86.617188 37.304688 101.742188 40.359375 117.609375 40.03125 C 183.183594 38.679688 249.71875 -3.839844 315.019531 22.3125 C 330.25 28.410156 345.070312 38.808594 352.320312 53.945312 C 355.640625 60.875 357.585938 68.925781 356.015625 76.578125 C 354.222656 85.300781 347.867188 90.703125 340.351562 94.746094 Z M 340.351562 94.746094 " fill-opacity="1" fill-rule="nonzero"/></g></g></g><g clip-path="url(#36587fcfe2)"><g clip-path="url(#5b447acbfa)"><g clip-path="url(#b18ca8f4d7)"><path fill="#ffc0cb" d="M 362.398438 66.902344 C 358.226562 52.078125 347.101562 40.785156 334.09375 33.167969 C 304.382812 15.773438 267.289062 17.816406 234.859375 25.0625 C 199.140625 33.046875 165.246094 48.425781 128.703125 52.871094 C 111.246094 55 94.46875 53.359375 77.167969 50.902344 C 62.582031 48.832031 46.921875 46.769531 32.734375 51.976562 C 5.375 62.023438 -1.859375 99.011719 16.921875 120.246094 C 19.933594 123.550781 23.261719 126.492188 26.917969 129.066406 C 27.019531 129.410156 27.210938 129.691406 27.496094 129.914062 C 29.964844 131.691406 32.554688 133.269531 35.265625 134.648438 C 37.976562 136.027344 40.777344 137.191406 43.667969 138.140625 C 46.558594 139.089844 49.503906 139.8125 52.503906 140.308594 C 55.503906 140.804688 58.527344 141.070312 61.566406 141.101562 C 74.847656 141.378906 88.039062 139.023438 101.324219 139.007812 C 116.3125 138.992188 131.921875 141.449219 145.550781 147.945312 C 154.246094 152.09375 161 158.511719 168.101562 164.855469 C 185.964844 180.808594 208.269531 190.625 231.183594 197.019531 C 256.40625 204.058594 288.691406 207.460938 309.671875 188.269531 C 315.183594 183.226562 318.96875 176.863281 319.988281 169.410156 C 321.222656 160.402344 318.796875 151.414062 319.171875 142.398438 C 319.390625 137.683594 320.335938 133.117188 322.011719 128.699219 C 323.6875 124.285156 326.011719 120.242188 328.980469 116.570312 C 334.785156 109.375 342.578125 105.738281 350.117188 100.785156 C 362.011719 92.96875 366.234375 80.53125 362.398438 66.902344 Z M 346.449219 99.519531 C 340.046875 103.421875 333.714844 106.878906 328.636719 112.53125 C 326.136719 115.320312 324.003906 118.367188 322.230469 121.664062 C 320.460938 124.964844 319.101562 128.429688 318.160156 132.054688 C 313.984375 148.175781 323.109375 166.773438 312.34375 181.054688 C 294.644531 204.53125 258.832031 201.324219 233.875 194.707031 C 211.480469 188.769531 188.992188 179.503906 171.378906 164.179688 C 165.292969 158.882812 159.648438 153.050781 152.804688 148.699219 C 143.078125 142.515625 131.613281 139.179688 120.328125 137.335938 C 107.28125 135.203125 94.214844 135.769531 81.101562 136.867188 C 69.464844 137.839844 57.503906 139.027344 46.082031 135.863281 C 39.691406 134.003906 33.816406 131.101562 28.460938 127.152344 C 28.21875 126.953125 27.941406 126.878906 27.632812 126.921875 C 17.433594 119.011719 9.5625 108.507812 8.886719 95.136719 C 8.0625 78.9375 16.511719 62.386719 31.722656 55.894531 C 45.136719 50.171875 60.316406 51.75 74.371094 53.65625 C 89.996094 55.777344 105.261719 58.015625 121.089844 56.835938 C 186.496094 51.96875 250.652344 5.941406 317.261719 28.546875 C 332.796875 33.820312 348.15625 43.410156 356.207031 58.136719 C 359.894531 64.878906 362.269531 72.808594 361.113281 80.535156 C 359.792969 89.34375 353.734375 95.078125 346.449219 99.519531 Z M 346.449219 99.519531 " fill-opacity="1" fill-rule="nonzero"/></g></g></g><g clip-path="url(#15305e98b0)"><g clip-path="url(#0368ea3b26)"><g clip-path="url(#ec26f77b6c)"><path fill="#ffc0cb" d="M 44.542969 58.742188 C 40.582031 58.109375 36.445312 60.949219 33.164062 62.941406 C 28.839844 65.492188 25.082031 68.703125 21.882812 72.574219 C 16.488281 79.296875 12.882812 89.664062 16.265625 98.054688 C 16.707031 99.144531 18.203125 99.136719 18.058594 97.769531 C 17.128906 88.789062 18.421875 81.136719 24.429688 74.027344 C 28.875 68.769531 37.632812 61.394531 44.792969 60.90625 C 46.074219 60.820312 45.566406 58.90625 44.542969 58.742188 Z M 44.542969 58.742188 " fill-opacity="1" fill-rule="nonzero"/></g></g></g><g clip-path="url(#3533eed625)"><g clip-path="url(#e09687a12c)"><g clip-path="url(#1777983e4f)"><path fill="#ffc0cb" d="M 55.640625 59.789062 C 60.457031 60.769531 65.320312 61.148438 70.234375 60.921875 C 71.925781 60.8125 71.417969 57.851562 69.882812 57.910156 C 65.128906 58.195312 60.375 58.183594 55.621094 57.871094 C 54.625 57.78125 54.800781 59.640625 55.640625 59.789062 Z M 55.640625 59.789062 " fill-opacity="1" fill-rule="nonzero"/></g></g></g><g clip-path="url(#82a5185164)"><g clip-path="url(#6d592201c5)"><g clip-path="url(#1e0eb3fea7)"><path fill="#ffc0cb" d="M 243.773438 186.136719 C 250.007812 190.707031 257.722656 191.347656 265.226562 190.601562 C 273.035156 189.824219 282.261719 188.601562 289.261719 184.917969 C 295.054688 181.867188 299.253906 176.644531 302.53125 171.097656 C 304.539062 167.699219 309.652344 161.050781 307.765625 156.957031 C 307.554688 156.5 307.117188 155.804688 306.5 155.878906 L 305.828125 155.957031 C 304.925781 156.0625 304.8125 157.308594 305.417969 157.863281 C 307.265625 159.566406 299.316406 171.058594 297.925781 172.996094 C 294.433594 177.878906 290.050781 181.734375 284.300781 183.660156 C 272.589844 187.585938 255.667969 191.089844 244.3125 184.601562 C 243.296875 184.019531 243.0625 185.613281 243.773438 186.136719 Z M 243.773438 186.136719 " fill-opacity="1" fill-rule="nonzero"/></g></g></g><g clip-path="url(#d671655378)"><g clip-path="url(#88581f5dce)"><g clip-path="url(#bde600d0d2)"><path fill="#ffc0cb" d="M 305.183594 149.277344 C 308.332031 145.230469 310.019531 138.257812 306.761719 133.761719 C 306.171875 132.953125 305.15625 133.230469 305.230469 134.285156 C 305.390625 136.652344 306.054688 138.851562 305.84375 141.253906 C 305.621094 143.683594 304.964844 145.992188 303.875 148.175781 C 303.519531 148.902344 304.566406 150.070312 305.183594 149.277344 Z M 305.183594 149.277344 " fill-opacity="1" fill-rule="nonzero"/></g></g></g><g clip-path="url(#acac1b7583)"><g clip-path="url(#37be102d53)"><g clip-path="url(#826de1136d)"><path fill="#ffc0cb" d="M 83.964844 146.890625 C 89.960938 149.046875 95.777344 148.355469 102.003906 147.835938 C 109.136719 147.238281 115.601562 148.273438 122.488281 150.109375 C 134.804688 153.390625 147.550781 158.105469 154.992188 169.097656 C 155.984375 170.5625 157.597656 169.066406 156.703125 167.746094 C 149.847656 157.613281 138.914062 152.363281 127.492188 148.921875 C 121.25 147.042969 114.632812 145.007812 108.070312 144.957031 C 100.003906 144.890625 92.15625 147.152344 84.125 145.320312 C 83.148438 145.097656 83.207031 146.621094 83.964844 146.890625 Z M 83.964844 146.890625 " fill-opacity="1" fill-rule="nonzero"/></g></g></g><g clip-path="url(#bd78418fe2)"><g clip-path="url(#2380aa6dd0)"><g clip-path="url(#7c2a733c6b)"><path fill="#ffc0cb" d="M 299.941406 13.683594 C 312.457031 16.960938 325.386719 19.011719 336.582031 25.933594 C 341.769531 29.269531 346.558594 33.101562 350.949219 37.433594 C 355.539062 41.796875 360.613281 46.238281 363.941406 51.660156 C 364.859375 53.152344 366.417969 51.667969 365.625 50.335938 C 362.550781 45.144531 357.902344 41.007812 353.609375 36.839844 C 348.898438 32.078125 343.757812 27.835938 338.179688 24.121094 C 326.800781 16.878906 313.164062 13.671875 299.925781 12.035156 C 299.054688 11.925781 299.253906 13.503906 299.941406 13.683594 Z M 299.941406 13.683594 " fill-opacity="1" fill-rule="nonzero"/></g></g></g><g clip-path="url(#9221f0d99f)"><g clip-path="url(#9eab388f00)"><g clip-path="url(#ef59a7fa46)"><path fill="#ffc0cb" d="M 367.816406 59.851562 C 369.015625 61.542969 369.886719 63.394531 370.421875 65.398438 C 370.957031 67.40625 371.125 69.441406 370.925781 71.507812 C 370.78125 73.023438 372.863281 74.097656 373.21875 72.25 C 373.453125 71.035156 373.53125 69.804688 373.453125 68.570312 C 373.371094 67.332031 373.140625 66.125 372.753906 64.945312 C 372.367188 63.769531 371.839844 62.65625 371.171875 61.613281 C 370.503906 60.570312 369.714844 59.625 368.808594 58.78125 C 368.042969 58.105469 367.308594 59.101562 367.816406 59.851562 Z M 367.816406 59.851562 " fill-opacity="1" fill-rule="nonzero"/></g></g></g></svg>