<svg xmlns="http://www.w3.org/2000/svg" xmlns:xlink="http://www.w3.org/1999/xlink" width="500" zoomAndPan="magnify" viewBox="0 0 375 337.499995" height="450" preserveAspectRatio="xMidYMid meet" version="1.0"><defs><clipPath id="2318662e18"><path d="M 2 186 L 220 186 L 220 298 L 2 298 Z M 2 186 " clip-rule="nonzero"/></clipPath><clipPath id="663b969f52"><path d="M -11.171875 242.765625 L 218.636719 183.222656 L 233.289062 239.769531 L 3.480469 299.3125 Z M -11.171875 242.765625 " clip-rule="nonzero"/></clipPath><clipPath id="9e09b0f42b"><path d="M -11.171875 242.765625 L 218.636719 183.222656 L 233.289062 239.769531 L 3.480469 299.3125 Z M -11.171875 242.765625 " clip-rule="nonzero"/></clipPath><clipPath id="3ce759527f"><path d="M -11.15625 242.816406 L 218.511719 183.308594 L 233.128906 239.726562 L 3.460938 299.238281 Z M -11.15625 242.816406 " clip-rule="nonzero"/></clipPath><clipPath id="ae324b3a0e"><path d="M -11.15625 242.816406 L 218.335938 183.355469 L 232.90625 239.589844 L 3.414062 299.050781 Z M -11.15625 242.816406 " clip-rule="nonzero"/></clipPath><clipPath id="643c4be033"><path d="M 22 34 L 173 34 L 173 147 L 22 147 Z M 22 34 " clip-rule="nonzero"/></clipPath><clipPath id="715d575c21"><path d="M 157.679688 163.132812 L 21.226562 36.039062 L 43.175781 12.476562 L 179.628906 139.570312 Z M 157.679688 163.132812 " clip-rule="nonzero"/></clipPath><clipPath id="e9cda8dcca"><path d="M 157.679688 163.132812 L 21.226562 36.039062 L 43.175781 12.476562 L 179.628906 139.570312 Z M 157.679688 163.132812 " clip-rule="nonzero"/></clipPath><clipPath id="615b584737"><path d="M 157.40625 162.878906 L 21.25 36.0625 L 43.238281 12.453125 L 179.394531 139.273438 Z M 157.40625 162.878906 " clip-rule="nonzero"/></clipPath><clipPath id="23ac3b189b"><path d="M 157.40625 162.878906 L 21.398438 36.199219 L 43.136719 12.855469 L 179.144531 139.539062 Z M 157.40625 162.878906 " clip-rule="nonzero"/></clipPath><clipPath id="fc1ebb5d8d"><path d="M 202 6 L 326 6 L 326 91 L 202 91 Z M 202 6 " clip-rule="nonzero"/></clipPath><clipPath id="905556cfc9"><path d="M 329.8125 11.097656 L 235.363281 118.519531 L 202.183594 89.34375 L 296.628906 -18.078125 Z M 329.8125 11.097656 " clip-rule="nonzero"/></clipPath><clipPath id="074fd9602b"><path d="M 296.710938 -18.007812 L 202.261719 89.414062 L 235.445312 118.589844 L 329.890625 11.164062 Z M 296.710938 -18.007812 " clip-rule="nonzero"/></clipPath></defs><g clip-path="url(#2318662e18)"><g clip-path="url(#663b969f52)"><g clip-path="url(#9e09b0f42b)"><g clip-path="url(#3ce759527f)"><g clip-path="url(#ae324b3a0e)"><path fill="#578cb5" d="M 44.667969 286.960938 C 45.039062 286.859375 45.398438 286.738281 45.753906 286.601562 C 46.152344 286.433594 46.539062 286.253906 46.917969 286.050781 C 47.285156 285.84375 47.632812 285.621094 47.976562 285.382812 C 48.324219 285.117188 48.652344 284.84375 48.972656 284.546875 C 49.292969 284.214844 49.597656 283.875 49.886719 283.519531 C 50.378906 282.890625 50.824219 282.238281 51.246094 281.566406 C 51.746094 280.726562 52.195312 279.871094 52.59375 278.980469 C 52.757812 278.585938 52.90625 278.1875 53.03125 277.78125 C 53.152344 277.308594 53.246094 276.832031 53.320312 276.347656 C 53.320312 276.351562 53.316406 276.355469 53.316406 276.363281 C 53.367188 275.945312 53.398438 275.535156 53.414062 275.117188 C 53.414062 274.3125 53.355469 273.515625 53.261719 272.714844 C 53.214844 272.367188 53.167969 272.019531 53.101562 271.675781 C 53.03125 271.28125 52.941406 270.894531 52.84375 270.507812 C 52.574219 269.515625 52.246094 268.539062 51.871094 267.582031 C 51.453125 266.550781 50.984375 265.542969 50.457031 264.5625 C 50.027344 263.808594 49.554688 263.089844 49.042969 262.386719 C 49.058594 262.410156 49.074219 262.4375 49.09375 262.457031 C 48.816406 262.097656 48.53125 261.75 48.222656 261.414062 C 48.035156 261.226562 47.84375 261.042969 47.644531 260.867188 C 47.398438 261.042969 47.15625 261.21875 46.914062 261.394531 C 45.792969 262.230469 44.714844 263.117188 43.695312 264.078125 C 43.699219 264.074219 43.699219 264.074219 43.703125 264.070312 C 42.886719 264.851562 42.125 265.675781 41.410156 266.554688 C 40.71875 267.417969 40.085938 268.324219 39.507812 269.269531 C 38.96875 270.171875 38.488281 271.097656 38.0625 272.054688 C 37.632812 273.058594 37.261719 274.082031 36.960938 275.132812 C 36.726562 275.992188 36.542969 276.859375 36.410156 277.742188 C 36.410156 277.738281 36.410156 277.738281 36.410156 277.734375 C 36.410156 277.738281 36.410156 277.738281 36.410156 277.742188 C 36.40625 277.769531 36.402344 277.796875 36.398438 277.820312 C 36.402344 277.800781 36.40625 277.777344 36.40625 277.757812 C 36.335938 278.292969 36.28125 278.824219 36.269531 279.363281 C 36.273438 279.851562 36.304688 280.335938 36.363281 280.820312 C 36.410156 281.160156 36.46875 281.492188 36.546875 281.824219 C 36.636719 282.148438 36.734375 282.46875 36.851562 282.785156 C 37.007812 283.160156 37.179688 283.519531 37.375 283.878906 C 37.363281 283.851562 37.347656 283.828125 37.332031 283.800781 C 37.472656 284.039062 37.621094 284.269531 37.78125 284.492188 C 37.972656 284.75 38.175781 284.996094 38.394531 285.234375 C 38.582031 285.421875 38.773438 285.597656 38.976562 285.769531 C 39.191406 285.933594 39.40625 286.09375 39.632812 286.238281 C 39.855469 286.367188 40.085938 286.480469 40.316406 286.59375 C 40.628906 286.726562 40.949219 286.839844 41.277344 286.9375 C 41.613281 287.03125 41.953125 287.101562 42.300781 287.152344 C 42.503906 287.175781 42.707031 287.1875 42.914062 287.191406 C 43.207031 287.183594 43.496094 287.167969 43.785156 287.136719 C 44.085938 287.089844 44.375 287.03125 44.667969 286.960938 Z M 42.417969 288.527344 C 42.191406 288.515625 41.964844 288.476562 41.742188 288.4375 C 41.515625 288.394531 41.285156 288.34375 41.0625 288.285156 C 40.605469 288.15625 40.152344 288.011719 39.726562 287.808594 C 39.335938 287.628906 38.953125 287.429688 38.601562 287.179688 C 38.222656 286.914062 37.859375 286.617188 37.535156 286.285156 C 36.917969 285.664062 36.40625 284.953125 36 284.175781 C 35.59375 283.402344 35.3125 282.566406 35.132812 281.707031 C 35.042969 281.289062 34.996094 280.855469 34.957031 280.425781 C 34.914062 279.949219 34.90625 279.464844 34.925781 278.988281 C 34.941406 278.503906 35 278.023438 35.070312 277.542969 C 35.152344 277 35.246094 276.457031 35.367188 275.921875 C 36.273438 271.90625 38.226562 268.152344 40.90625 265.042969 C 42.152344 263.597656 43.554688 262.304688 45.046875 261.121094 C 45.511719 260.75 45.984375 260.390625 46.46875 260.039062 C 46.074219 259.816406 45.671875 259.613281 45.257812 259.433594 C 44.714844 259.207031 44.15625 259.011719 43.589844 258.839844 C 42.851562 258.640625 42.105469 258.484375 41.347656 258.375 C 40.621094 258.277344 39.890625 258.21875 39.152344 258.207031 C 38.644531 258.207031 38.140625 258.238281 37.636719 258.296875 C 36.828125 258.410156 36.03125 258.570312 35.242188 258.765625 C 34.433594 258.984375 33.648438 259.257812 32.871094 259.570312 C 32.898438 259.558594 32.925781 259.546875 32.953125 259.539062 C 32.097656 259.886719 31.273438 260.28125 30.460938 260.71875 C 28.980469 261.550781 27.570312 262.492188 26.199219 263.492188 C 24.128906 265.023438 22.15625 266.679688 20.289062 268.453125 C 19.355469 269.351562 18.457031 270.277344 17.585938 271.234375 C 16.605469 272.316406 15.671875 273.441406 14.757812 274.574219 C 14.773438 274.550781 14.792969 274.53125 14.8125 274.507812 C 13.867188 275.691406 12.941406 276.886719 12.058594 278.117188 C 11.152344 279.378906 10.300781 280.675781 9.496094 282.003906 C 9.496094 282 9.496094 282 9.496094 282 C 8.777344 283.199219 8.105469 284.421875 7.46875 285.667969 C 6.832031 286.90625 6.226562 288.15625 5.65625 289.425781 C 5.417969 289.980469 5.183594 290.539062 4.976562 291.109375 C 4.773438 291.675781 4.589844 292.25 4.421875 292.824219 C 4.363281 293.039062 4.3125 293.25 4.261719 293.464844 C 4.199219 293.734375 4.164062 294.007812 4.121094 294.28125 C 4.082031 294.59375 4.058594 294.90625 4.046875 295.226562 C 4.046875 295.53125 4.0625 295.839844 4.089844 296.144531 C 4.105469 296.25 4.121094 296.355469 4.144531 296.460938 C 4.457031 296.429688 4.761719 296.605469 4.863281 296.917969 C 4.972656 297.261719 4.78125 297.671875 4.425781 297.773438 C 4.257812 297.824219 4.089844 297.871094 3.910156 297.863281 C 3.589844 297.855469 3.308594 297.691406 3.113281 297.441406 C 2.886719 297.15625 2.808594 296.777344 2.765625 296.421875 C 2.707031 296 2.683594 295.574219 2.695312 295.148438 C 2.710938 294.636719 2.769531 294.132812 2.855469 293.628906 C 2.941406 293.09375 3.082031 292.582031 3.234375 292.066406 C 3.5625 290.953125 3.976562 289.863281 4.449219 288.808594 C 4.898438 287.804688 5.378906 286.816406 5.867188 285.832031 C 6.394531 284.765625 6.949219 283.714844 7.535156 282.675781 C 8.722656 280.574219 10.046875 278.546875 11.484375 276.605469 C 12.859375 274.742188 14.3125 272.929688 15.828125 271.175781 C 17.128906 269.671875 18.515625 268.242188 19.972656 266.886719 C 21.414062 265.550781 22.917969 264.285156 24.480469 263.089844 C 26.367188 261.648438 28.335938 260.28125 30.449219 259.191406 C 31.472656 258.664062 32.539062 258.210938 33.632812 257.835938 C 34.722656 257.464844 35.855469 257.195312 36.996094 257.023438 C 37.523438 256.941406 38.054688 256.882812 38.585938 256.859375 C 39.1875 256.828125 39.789062 256.863281 40.382812 256.90625 C 41.496094 256.984375 42.601562 257.183594 43.683594 257.464844 C 44.703125 257.730469 45.707031 258.105469 46.644531 258.589844 C 47 258.773438 47.34375 258.972656 47.675781 259.195312 C 48.308594 258.773438 48.949219 258.367188 49.605469 257.984375 C 50.667969 257.359375 51.773438 256.816406 52.90625 256.335938 C 54.148438 255.8125 55.417969 255.363281 56.691406 254.929688 C 57.957031 254.5 59.234375 254.097656 60.503906 253.675781 C 61.8125 253.246094 63.097656 252.757812 64.378906 252.25 C 64.351562 252.261719 64.324219 252.273438 64.296875 252.28125 C 67.789062 250.882812 71.210938 249.296875 74.507812 247.480469 C 74.492188 247.488281 74.476562 247.496094 74.460938 247.507812 C 75.625 246.851562 76.78125 246.179688 77.90625 245.464844 C 78.996094 244.769531 80.066406 244.039062 81.109375 243.273438 C 82.84375 241.980469 84.496094 240.589844 86.066406 239.097656 C 86.046875 239.117188 86.023438 239.140625 86.003906 239.160156 C 86.761719 238.425781 87.503906 237.671875 88.214844 236.890625 C 88.882812 236.152344 89.527344 235.394531 90.152344 234.617188 C 91.582031 232.828125 92.894531 230.953125 94.136719 229.027344 C 95.273438 227.261719 96.355469 225.460938 97.445312 223.667969 C 98.480469 221.957031 99.542969 220.261719 100.765625 218.671875 C 101.917969 217.167969 103.207031 215.757812 104.632812 214.503906 C 105.839844 213.445312 107.183594 212.515625 108.667969 211.882812 C 109.816406 211.390625 111.089844 211.105469 112.34375 211.234375 C 113.378906 211.34375 114.378906 211.796875 115.089844 212.566406 C 115.265625 212.757812 115.410156 212.996094 115.535156 213.226562 C 115.6875 213.503906 115.800781 213.792969 115.894531 214.085938 C 116.105469 214.714844 116.21875 215.375 116.277344 216.027344 C 116.34375 216.742188 116.339844 217.464844 116.269531 218.179688 C 116.230469 218.574219 116.167969 218.960938 116.082031 219.339844 C 115.960938 219.886719 115.761719 220.414062 115.558594 220.933594 C 115.207031 221.820312 114.769531 222.679688 114.3125 223.519531 C 113.867188 224.34375 113.367188 225.140625 112.855469 225.925781 C 111.847656 227.472656 110.777344 228.976562 109.664062 230.445312 C 108.417969 232.09375 107.117188 233.703125 105.847656 235.335938 C 103.886719 237.851562 101.953125 240.402344 100.277344 243.121094 C 100.230469 243.207031 100.183594 243.296875 100.125 243.375 C 100.113281 243.394531 100.101562 243.414062 100.089844 243.433594 C 99.96875 243.636719 99.851562 243.835938 99.734375 244.039062 C 99.265625 244.859375 98.847656 245.707031 98.464844 246.570312 C 98.207031 247.191406 97.972656 247.8125 97.785156 248.457031 C 97.605469 249.128906 97.464844 249.804688 97.363281 250.496094 C 97.292969 251.058594 97.25 251.621094 97.238281 252.191406 C 97.242188 252.632812 97.265625 253.074219 97.3125 253.515625 C 97.347656 253.773438 97.390625 254.023438 97.449219 254.273438 C 97.535156 254.589844 97.636719 254.898438 97.75 255.203125 C 97.824219 255.375 97.898438 255.542969 97.984375 255.710938 C 98.066406 255.859375 98.160156 256.003906 98.257812 256.144531 C 98.339844 256.25 98.421875 256.34375 98.511719 256.445312 C 98.652344 256.582031 98.796875 256.71875 98.945312 256.84375 C 99.128906 256.980469 99.308594 257.105469 99.5 257.226562 C 99.925781 257.472656 100.367188 257.6875 100.820312 257.890625 C 101.242188 258.066406 101.664062 258.226562 102.101562 258.359375 C 102.628906 258.496094 103.15625 258.601562 103.695312 258.683594 C 104.214844 258.75 104.734375 258.785156 105.261719 258.796875 C 105.757812 258.792969 106.25 258.769531 106.746094 258.710938 C 107.171875 258.648438 107.589844 258.5625 108.003906 258.460938 C 108.414062 258.347656 108.8125 258.214844 109.210938 258.066406 C 109.601562 257.902344 109.980469 257.71875 110.355469 257.519531 C 110.726562 257.308594 111.089844 257.082031 111.441406 256.832031 C 111.894531 256.484375 112.320312 256.101562 112.738281 255.710938 C 113.339844 255.125 113.902344 254.507812 114.429688 253.855469 C 115 253.125 115.527344 252.363281 116.015625 251.570312 C 116.695312 250.429688 117.289062 249.25 117.824219 248.035156 C 118.636719 246.140625 119.289062 244.195312 119.855469 242.21875 C 120.472656 240.027344 120.988281 237.808594 121.585938 235.609375 C 122.152344 233.527344 122.796875 231.464844 123.53125 229.4375 C 124.183594 227.640625 124.910156 225.863281 125.808594 224.179688 C 126.628906 222.644531 127.632812 221.210938 128.765625 219.894531 C 129.839844 218.652344 131.09375 217.585938 132.472656 216.695312 C 133.796875 215.839844 135.234375 215.171875 136.707031 214.621094 C 139.359375 213.636719 142.199219 213.234375 145.019531 213.375 C 146.730469 213.460938 148.425781 213.742188 150.117188 213.980469 C 150.105469 213.976562 150.09375 213.976562 150.082031 213.976562 C 151.695312 214.203125 153.3125 214.414062 154.945312 214.4375 C 155.679688 214.441406 156.414062 214.410156 157.148438 214.332031 C 157.261719 214.320312 157.382812 214.296875 157.503906 214.292969 C 158.265625 214.199219 159.019531 214.046875 159.765625 213.859375 C 160.660156 213.625 161.53125 213.335938 162.390625 212.996094 C 163.4375 212.574219 164.445312 212.082031 165.433594 211.535156 C 165.421875 211.542969 165.410156 211.550781 165.402344 211.554688 C 166.175781 211.121094 166.9375 210.671875 167.679688 210.179688 C 168.5 209.636719 169.304688 209.066406 170.097656 208.484375 C 170.082031 208.496094 170.0625 208.507812 170.046875 208.519531 C 171.644531 207.335938 173.195312 206.089844 174.726562 204.820312 C 176.242188 203.5625 177.746094 202.285156 179.246094 201.007812 C 179.992188 200.375 180.734375 199.734375 181.492188 199.117188 C 182.246094 198.503906 183.023438 197.921875 183.804688 197.347656 C 185.683594 195.960938 187.605469 194.632812 189.609375 193.433594 C 191.527344 192.285156 193.488281 191.210938 195.511719 190.257812 C 196.449219 189.816406 197.394531 189.410156 198.359375 189.03125 C 199.339844 188.648438 200.355469 188.339844 201.371094 188.066406 C 203.414062 187.515625 205.507812 187.152344 207.601562 186.882812 C 209.414062 186.648438 211.238281 186.5 213.0625 186.453125 C 214.082031 186.425781 215.105469 186.433594 216.125 186.511719 C 217.042969 186.582031 217.957031 186.707031 218.863281 186.886719 C 219.222656 186.957031 219.460938 187.332031 219.386719 187.6875 C 219.308594 188.054688 218.945312 188.285156 218.585938 188.210938 C 218.191406 188.136719 217.796875 188.066406 217.398438 188.007812 C 216.390625 187.875 215.371094 187.804688 214.351562 187.792969 C 212.238281 187.785156 210.128906 187.9375 208.03125 188.191406 C 206.03125 188.441406 204.035156 188.789062 202.078125 189.277344 C 202.105469 189.269531 202.132812 189.261719 202.164062 189.253906 C 200.949219 189.574219 199.753906 189.941406 198.585938 190.398438 C 196.519531 191.226562 194.515625 192.210938 192.566406 193.289062 C 192.578125 193.28125 192.589844 193.273438 192.601562 193.265625 C 191.226562 194.035156 189.871094 194.835938 188.546875 195.691406 C 187.199219 196.558594 185.898438 197.488281 184.605469 198.433594 C 184.628906 198.417969 184.652344 198.402344 184.679688 198.382812 C 183.894531 198.957031 183.117188 199.542969 182.363281 200.15625 C 181.605469 200.773438 180.863281 201.410156 180.121094 202.046875 C 178.617188 203.320312 177.113281 204.597656 175.597656 205.855469 C 174.066406 207.136719 172.507812 208.386719 170.898438 209.570312 C 170.085938 210.175781 169.253906 210.757812 168.410156 211.320312 C 167.636719 211.839844 166.832031 212.3125 166.015625 212.761719 C 164.601562 213.539062 163.128906 214.214844 161.597656 214.730469 C 160.320312 215.160156 159.007812 215.464844 157.671875 215.632812 C 157.644531 215.640625 157.613281 215.644531 157.585938 215.644531 C 157.46875 215.660156 157.347656 215.675781 157.226562 215.6875 C 155.734375 215.84375 154.230469 215.816406 152.738281 215.671875 C 152.003906 215.601562 151.273438 215.507812 150.542969 215.40625 C 150.191406 215.355469 149.84375 215.308594 149.492188 215.257812 C 149.316406 215.234375 149.144531 215.207031 148.96875 215.183594 C 148.871094 215.167969 148.769531 215.160156 148.671875 215.140625 C 148.628906 215.136719 148.582031 215.128906 148.539062 215.121094 C 148.425781 215.105469 148.308594 215.089844 148.191406 215.074219 C 146.824219 214.882812 145.449219 214.722656 144.066406 214.699219 C 143.183594 214.695312 142.304688 214.746094 141.429688 214.847656 C 140.667969 214.949219 139.917969 215.09375 139.171875 215.277344 C 138.300781 215.5 137.449219 215.777344 136.613281 216.109375 C 136.636719 216.097656 136.664062 216.085938 136.691406 216.074219 C 135.835938 216.417969 135.003906 216.804688 134.195312 217.246094 C 133.535156 217.617188 132.898438 218.019531 132.285156 218.464844 C 131.765625 218.855469 131.273438 219.269531 130.804688 219.714844 C 130.808594 219.710938 130.808594 219.710938 130.8125 219.707031 C 130.257812 220.246094 129.742188 220.824219 129.253906 221.421875 C 128.632812 222.203125 128.0625 223.023438 127.542969 223.875 C 126.945312 224.882812 126.425781 225.925781 125.953125 226.992188 C 124.808594 229.652344 123.898438 232.410156 123.105469 235.195312 C 123.113281 235.167969 123.121094 235.136719 123.132812 235.109375 C 122.515625 237.300781 121.992188 239.515625 121.398438 241.714844 C 120.808594 243.902344 120.125 246.070312 119.242188 248.160156 C 118.386719 250.1875 117.367188 252.160156 116.066406 253.941406 C 115.4375 254.800781 114.75 255.621094 113.992188 256.375 C 113.273438 257.09375 112.511719 257.773438 111.652344 258.324219 C 110.089844 259.332031 108.289062 259.921875 106.441406 260.105469 C 105.488281 260.199219 104.515625 260.152344 103.566406 260.03125 C 102.566406 259.902344 101.582031 259.660156 100.648438 259.285156 C 99.703125 258.90625 98.765625 258.453125 97.976562 257.796875 C 97.292969 257.230469 96.796875 256.496094 96.480469 255.671875 C 96.332031 255.277344 96.199219 254.875 96.105469 254.464844 C 95.996094 254.003906 95.941406 253.527344 95.910156 253.054688 C 95.847656 252.039062 95.921875 251.03125 96.066406 250.027344 C 96.40625 247.617188 97.417969 245.378906 98.609375 243.28125 C 98.726562 243.074219 98.847656 242.875 98.972656 242.671875 C 98.972656 242.667969 98.976562 242.664062 98.976562 242.660156 C 98.988281 242.640625 99 242.621094 99.011719 242.601562 C 99.03125 242.574219 99.046875 242.542969 99.066406 242.515625 C 99.074219 242.5 99.082031 242.484375 99.09375 242.46875 C 99.203125 242.285156 99.320312 242.101562 99.429688 241.917969 C 99.675781 241.527344 99.929688 241.140625 100.1875 240.753906 C 100.699219 239.980469 101.238281 239.21875 101.785156 238.464844 C 102.964844 236.84375 104.1875 235.257812 105.421875 233.683594 C 106.707031 232.039062 108.019531 230.414062 109.253906 228.730469 C 110.417969 227.140625 111.546875 225.523438 112.570312 223.839844 C 113.167969 222.828125 113.710938 221.789062 114.183594 220.714844 C 114.378906 220.238281 114.558594 219.757812 114.707031 219.261719 C 114.773438 218.996094 114.828125 218.730469 114.871094 218.460938 C 114.929688 218.023438 114.960938 217.589844 114.96875 217.148438 C 114.96875 216.726562 114.949219 216.308594 114.902344 215.890625 C 114.859375 215.550781 114.796875 215.214844 114.71875 214.882812 C 114.660156 214.664062 114.589844 214.449219 114.515625 214.234375 C 114.460938 214.105469 114.402344 213.980469 114.339844 213.855469 C 114.285156 213.761719 114.226562 213.671875 114.167969 213.582031 C 114.117188 213.515625 114.066406 213.453125 114.007812 213.390625 C 113.949219 213.335938 113.886719 213.277344 113.820312 213.222656 C 113.722656 213.148438 113.621094 213.078125 113.519531 213.011719 C 113.410156 212.953125 113.300781 212.894531 113.191406 212.84375 C 113.046875 212.785156 112.902344 212.734375 112.75 212.6875 C 112.609375 212.652344 112.46875 212.625 112.328125 212.597656 C 112.140625 212.574219 111.953125 212.5625 111.761719 212.554688 C 111.554688 212.558594 111.347656 212.570312 111.140625 212.589844 C 110.867188 212.628906 110.601562 212.679688 110.332031 212.742188 C 110.003906 212.832031 109.683594 212.9375 109.367188 213.054688 C 108.953125 213.226562 108.554688 213.417969 108.160156 213.636719 C 107.6875 213.90625 107.230469 214.199219 106.785156 214.519531 C 106.074219 215.046875 105.398438 215.617188 104.757812 216.226562 C 103.871094 217.085938 103.042969 217.996094 102.265625 218.957031 C 101.035156 220.5 99.953125 222.148438 98.925781 223.832031 C 97.84375 225.605469 96.777344 227.386719 95.667969 229.144531 C 94.457031 231.0625 93.179688 232.9375 91.789062 234.730469 C 90.308594 236.648438 88.695312 238.464844 86.941406 240.136719 C 85.539062 241.464844 84.078125 242.71875 82.542969 243.890625 C 80.953125 245.101562 79.292969 246.214844 77.585938 247.253906 C 75.691406 248.410156 73.730469 249.460938 71.742188 250.445312 C 69.714844 251.449219 67.652344 252.371094 65.5625 253.230469 C 64.679688 253.589844 63.792969 253.9375 62.898438 254.269531 C 61.890625 254.648438 60.867188 254.984375 59.84375 255.320312 C 57.925781 255.945312 56.011719 256.558594 54.132812 257.296875 C 53.042969 257.730469 51.976562 258.214844 50.945312 258.777344 C 50.96875 258.761719 50.996094 258.75 51.019531 258.734375 C 50.261719 259.152344 49.523438 259.605469 48.804688 260.078125 C 48.949219 260.214844 49.09375 260.359375 49.226562 260.507812 C 49.902344 261.238281 50.484375 262.042969 51.023438 262.875 C 51.601562 263.753906 52.070312 264.699219 52.515625 265.652344 C 53.335938 267.414062 53.988281 269.273438 54.386719 271.179688 C 54.574219 272.0625 54.664062 272.96875 54.730469 273.867188 C 54.773438 274.414062 54.773438 274.964844 54.753906 275.515625 C 54.738281 275.96875 54.675781 276.417969 54.613281 276.863281 C 54.347656 278.691406 53.503906 280.375 52.585938 281.957031 C 52.046875 282.890625 51.425781 283.777344 50.738281 284.617188 C 50.015625 285.503906 49.140625 286.265625 48.175781 286.878906 C 47.277344 287.449219 46.296875 287.890625 45.28125 288.195312 C 45.179688 288.226562 45.078125 288.253906 44.972656 288.28125 C 44.140625 288.5 43.277344 288.574219 42.417969 288.527344 " fill-opacity="1" fill-rule="nonzero"/></g></g></g></g></g><g clip-path="url(#643c4be033)"><g clip-path="url(#715d575c21)"><g clip-path="url(#e9cda8dcca)"><g clip-path="url(#615b584737)"><g clip-path="url(#23ac3b189b)"><path fill="#578cb5" d="M 82.726562 60.515625 C 82.566406 60.367188 82.394531 60.230469 82.21875 60.097656 C 82.019531 59.960938 81.8125 59.832031 81.601562 59.710938 C 81.359375 59.585938 81.105469 59.46875 80.851562 59.367188 C 80.601562 59.277344 80.351562 59.199219 80.09375 59.132812 C 79.800781 59.0625 79.503906 59.011719 79.207031 58.976562 C 78.886719 58.945312 78.570312 58.933594 78.25 58.9375 C 77.875 58.949219 77.5 58.984375 77.128906 59.039062 C 76.800781 59.09375 76.480469 59.167969 76.160156 59.257812 C 75.851562 59.355469 75.550781 59.472656 75.257812 59.597656 C 74.917969 59.757812 74.59375 59.933594 74.273438 60.125 C 74.253906 60.140625 74.234375 60.152344 74.210938 60.164062 C 74.214844 60.164062 74.214844 60.164062 74.214844 60.164062 C 73.875 60.382812 73.550781 60.621094 73.238281 60.871094 C 72.925781 61.136719 72.632812 61.410156 72.351562 61.703125 C 72.175781 61.894531 72.011719 62.089844 71.855469 62.289062 C 72.550781 62.65625 73.261719 62.992188 73.996094 63.277344 C 74.53125 63.480469 75.074219 63.652344 75.628906 63.792969 C 76.15625 63.917969 76.691406 64.015625 77.230469 64.078125 C 77.644531 64.121094 78.0625 64.136719 78.480469 64.132812 C 78.941406 64.117188 79.398438 64.070312 79.851562 64 C 80.320312 63.921875 80.78125 63.824219 81.234375 63.6875 C 81.511719 63.601562 81.785156 63.5 82.054688 63.382812 C 82.21875 63.300781 82.378906 63.214844 82.535156 63.121094 C 82.652344 63.046875 82.761719 62.964844 82.871094 62.878906 C 82.949219 62.808594 83.027344 62.738281 83.101562 62.660156 C 83.152344 62.605469 83.199219 62.550781 83.242188 62.492188 C 83.277344 62.4375 83.3125 62.382812 83.34375 62.328125 C 83.367188 62.285156 83.386719 62.242188 83.402344 62.199219 C 83.417969 62.15625 83.433594 62.109375 83.449219 62.0625 C 83.457031 62.023438 83.460938 61.980469 83.46875 61.9375 C 83.472656 61.894531 83.472656 61.851562 83.472656 61.8125 C 83.472656 61.761719 83.46875 61.710938 83.460938 61.660156 C 83.453125 61.609375 83.4375 61.5625 83.425781 61.515625 C 83.40625 61.453125 83.382812 61.390625 83.355469 61.332031 C 83.320312 61.261719 83.285156 61.195312 83.246094 61.128906 C 83.183594 61.03125 83.117188 60.941406 83.042969 60.847656 C 82.945312 60.734375 82.835938 60.625 82.726562 60.515625 Z M 119.085938 84.535156 C 119.5625 85.714844 119.578125 87.0625 119.164062 88.261719 C 118.976562 88.796875 118.617188 89.246094 118.199219 89.621094 C 117.960938 89.832031 117.707031 90.035156 117.429688 90.191406 C 117.132812 90.363281 116.820312 90.496094 116.496094 90.613281 C 115.800781 90.871094 115.066406 90.980469 114.332031 91.054688 C 113.523438 91.128906 112.710938 91.144531 111.90625 91.132812 C 110.207031 91.109375 108.515625 90.949219 106.828125 90.78125 C 105.207031 90.625 103.585938 90.457031 101.957031 90.476562 C 101.382812 90.496094 100.8125 90.542969 100.242188 90.625 C 99.871094 90.691406 99.507812 90.769531 99.148438 90.875 C 99.152344 90.871094 99.15625 90.871094 99.160156 90.871094 C 99.15625 90.871094 99.148438 90.875 99.140625 90.875 C 99.117188 90.882812 99.097656 90.890625 99.074219 90.894531 C 99.09375 90.890625 99.109375 90.886719 99.128906 90.878906 C 98.828125 90.972656 98.539062 91.082031 98.25 91.203125 C 98 91.316406 97.761719 91.441406 97.523438 91.582031 C 97.308594 91.71875 97.097656 91.867188 96.894531 92.027344 C 96.742188 92.160156 96.589844 92.296875 96.449219 92.441406 C 96.3125 92.59375 96.179688 92.753906 96.058594 92.917969 C 95.9375 93.09375 95.824219 93.273438 95.714844 93.460938 C 95.617188 93.648438 95.527344 93.84375 95.441406 94.039062 C 95.390625 94.179688 95.34375 94.320312 95.300781 94.460938 C 95.269531 94.597656 95.246094 94.734375 95.226562 94.871094 C 95.21875 95.015625 95.214844 95.160156 95.21875 95.304688 C 95.230469 95.53125 95.253906 95.75 95.28125 95.972656 C 95.332031 96.253906 95.394531 96.535156 95.46875 96.8125 C 95.585938 97.175781 95.714844 97.527344 95.867188 97.875 C 96.046875 98.253906 96.246094 98.617188 96.460938 98.972656 C 96.765625 99.449219 97.097656 99.902344 97.449219 100.339844 C 97.921875 100.902344 98.425781 101.433594 98.957031 101.941406 C 99.730469 102.65625 100.546875 103.316406 101.402344 103.9375 C 102.480469 104.691406 103.601562 105.375 104.753906 106.007812 C 106.253906 106.816406 107.789062 107.570312 109.375 108.195312 C 113.085938 109.582031 116.945312 110.519531 120.789062 111.460938 C 120.773438 111.457031 120.753906 111.453125 120.734375 111.449219 C 120.800781 111.464844 120.863281 111.480469 120.929688 111.496094 C 120.925781 111.496094 120.925781 111.496094 120.925781 111.496094 C 121.3125 111.589844 121.695312 111.683594 122.082031 111.777344 C 122.277344 111.824219 122.472656 111.875 122.664062 111.921875 C 122.667969 111.921875 122.671875 111.921875 122.671875 111.921875 C 122.703125 111.925781 122.726562 111.933594 122.753906 111.941406 C 122.769531 111.949219 122.785156 111.949219 122.804688 111.957031 C 122.820312 111.960938 122.839844 111.964844 122.859375 111.96875 C 122.863281 111.96875 122.871094 111.96875 122.871094 111.972656 C 122.894531 111.976562 122.917969 111.980469 122.941406 111.988281 C 123.136719 112.035156 123.335938 112.085938 123.53125 112.132812 C 124.386719 112.34375 125.238281 112.554688 126.089844 112.773438 C 126.898438 112.980469 127.699219 113.207031 128.5 113.4375 C 129.300781 113.664062 130.09375 113.902344 130.878906 114.171875 C 132.519531 114.734375 134.140625 115.347656 135.738281 116.015625 C 136.644531 116.394531 137.542969 116.785156 138.4375 117.1875 C 139.324219 117.585938 140.191406 118.015625 141.050781 118.460938 C 142.773438 119.351562 144.464844 120.296875 146.105469 121.328125 C 147.640625 122.292969 149.160156 123.28125 150.65625 124.3125 C 152.246094 125.414062 153.824219 126.535156 155.359375 127.714844 C 156.824219 128.839844 158.269531 129.996094 159.691406 131.171875 C 161.078125 132.320312 162.382812 133.566406 163.6875 134.796875 C 164.378906 135.449219 165.070312 136.101562 165.738281 136.777344 C 166.40625 137.449219 167.050781 138.144531 167.6875 138.847656 C 168 139.195312 168.3125 139.546875 168.617188 139.898438 C 168.761719 140.0625 168.902344 140.230469 169.042969 140.394531 C 169.109375 140.472656 169.171875 140.546875 169.234375 140.621094 C 169.273438 140.671875 169.316406 140.71875 169.355469 140.769531 C 169.386719 140.804688 169.417969 140.84375 169.449219 140.882812 C 169.96875 141.511719 170.464844 142.160156 170.960938 142.804688 C 171.425781 143.410156 171.886719 144.023438 172.289062 144.667969 C 172.503906 145.011719 172.734375 145.367188 172.855469 145.757812 C 172.859375 145.773438 172.863281 145.789062 172.867188 145.804688 C 172.875 145.816406 172.875 145.832031 172.878906 145.84375 C 172.960938 146.15625 172.765625 146.5 172.46875 146.609375 C 172.144531 146.730469 171.71875 146.570312 171.613281 146.226562 C 171.59375 146.15625 171.566406 146.089844 171.539062 146.023438 C 171.425781 145.792969 171.296875 145.578125 171.160156 145.359375 C 170.765625 144.746094 170.328125 144.160156 169.886719 143.578125 C 169.398438 142.945312 168.910156 142.308594 168.398438 141.6875 C 168.324219 141.597656 168.25 141.507812 168.175781 141.417969 C 168.1875 141.433594 168.199219 141.449219 168.214844 141.464844 C 167.300781 140.382812 166.359375 139.316406 165.371094 138.296875 C 164.34375 137.230469 163.269531 136.214844 162.1875 135.203125 C 162.207031 135.222656 162.226562 135.242188 162.25 135.261719 C 161.5 134.5625 160.75 133.863281 159.988281 133.179688 C 159.183594 132.460938 158.34375 131.769531 157.503906 131.09375 C 155.78125 129.710938 154.042969 128.351562 152.253906 127.0625 C 152.277344 127.078125 152.300781 127.09375 152.324219 127.109375 C 150.710938 125.957031 149.089844 124.824219 147.429688 123.742188 C 146.609375 123.207031 145.777344 122.683594 144.945312 122.167969 C 144.015625 121.585938 143.0625 121.042969 142.101562 120.519531 C 142.105469 120.519531 142.109375 120.523438 142.113281 120.523438 C 140.675781 119.746094 139.226562 118.992188 137.730469 118.324219 C 136.296875 117.675781 134.847656 117.0625 133.378906 116.492188 C 133.40625 116.503906 133.433594 116.511719 133.460938 116.523438 C 131.890625 115.917969 130.308594 115.347656 128.695312 114.875 C 127.050781 114.390625 125.394531 113.957031 123.734375 113.546875 C 123.347656 113.449219 122.964844 113.355469 122.582031 113.261719 C 122.507812 113.246094 122.433594 113.222656 122.355469 113.207031 C 122.339844 113.203125 122.320312 113.199219 122.300781 113.191406 C 122.171875 113.164062 122.042969 113.128906 121.914062 113.097656 C 121.460938 112.988281 121.003906 112.878906 120.550781 112.765625 C 120.570312 112.769531 120.589844 112.773438 120.605469 112.777344 C 117.179688 111.941406 113.746094 111.097656 110.398438 109.964844 C 109.546875 109.675781 108.703125 109.367188 107.875 109.011719 C 107.105469 108.679688 106.351562 108.3125 105.597656 107.9375 C 104.089844 107.195312 102.636719 106.359375 101.234375 105.429688 C 99.761719 104.453125 98.390625 103.308594 97.171875 102.027344 C 96.050781 100.851562 95.097656 99.492188 94.476562 97.988281 C 94.171875 97.253906 93.980469 96.457031 93.914062 95.667969 C 93.882812 95.316406 93.882812 94.960938 93.925781 94.613281 C 93.972656 94.230469 94.082031 93.851562 94.234375 93.496094 C 94.519531 92.816406 94.902344 92.175781 95.398438 91.628906 C 95.890625 91.085938 96.480469 90.636719 97.117188 90.285156 C 99.285156 89.09375 101.839844 89.054688 104.246094 89.226562 C 105.679688 89.324219 107.105469 89.488281 108.535156 89.613281 C 110 89.746094 111.464844 89.832031 112.933594 89.804688 C 113.621094 89.785156 114.304688 89.738281 114.984375 89.640625 C 115.230469 89.597656 115.46875 89.542969 115.710938 89.476562 C 115.980469 89.394531 116.238281 89.300781 116.5 89.1875 C 116.597656 89.140625 116.691406 89.085938 116.789062 89.03125 C 116.917969 88.949219 117.039062 88.863281 117.160156 88.769531 C 117.292969 88.652344 117.421875 88.535156 117.542969 88.410156 C 117.597656 88.347656 117.652344 88.285156 117.699219 88.21875 C 117.738281 88.160156 117.777344 88.101562 117.8125 88.039062 C 117.847656 87.96875 117.878906 87.898438 117.910156 87.828125 C 117.949219 87.707031 117.984375 87.585938 118.019531 87.464844 C 118.054688 87.289062 118.089844 87.113281 118.113281 86.9375 C 118.128906 86.765625 118.136719 86.597656 118.136719 86.425781 C 118.125 86.230469 118.109375 86.035156 118.082031 85.84375 C 118.046875 85.667969 118.007812 85.496094 117.960938 85.324219 C 117.90625 85.160156 117.847656 85 117.777344 84.839844 C 117.667969 84.621094 117.554688 84.410156 117.425781 84.199219 C 117.261719 83.945312 117.085938 83.703125 116.894531 83.464844 C 116.640625 83.167969 116.375 82.886719 116.09375 82.621094 C 115.742188 82.300781 115.375 82 114.996094 81.714844 C 114.453125 81.328125 113.886719 80.976562 113.300781 80.65625 C 112.523438 80.242188 111.71875 79.878906 110.894531 79.554688 C 110.921875 79.566406 110.949219 79.574219 110.976562 79.585938 C 109.90625 79.175781 108.816406 78.839844 107.707031 78.566406 C 107.734375 78.574219 107.761719 78.582031 107.789062 78.585938 C 106.703125 78.328125 105.609375 78.140625 104.503906 78.015625 C 102.976562 77.859375 101.445312 77.8125 99.914062 77.792969 C 98.582031 77.773438 97.25 77.761719 95.921875 77.738281 C 94.585938 77.714844 93.253906 77.675781 91.921875 77.605469 C 90.578125 77.53125 89.238281 77.417969 87.898438 77.269531 C 87.90625 77.273438 87.910156 77.273438 87.914062 77.273438 C 86.429688 77.109375 84.953125 76.902344 83.476562 76.667969 C 81.941406 76.417969 80.40625 76.132812 78.894531 75.765625 C 77.023438 75.308594 75.210938 74.636719 73.554688 73.640625 C 72.824219 73.203125 72.144531 72.671875 71.535156 72.074219 C 70.980469 71.535156 70.507812 70.925781 70.105469 70.265625 C 69.523438 69.316406 69.183594 68.222656 69.050781 67.121094 C 68.917969 66.039062 69.078125 64.914062 69.453125 63.894531 C 69.597656 63.503906 69.769531 63.125 69.96875 62.761719 C 69.789062 62.65625 69.613281 62.554688 69.441406 62.449219 C 68.484375 61.878906 67.5625 61.261719 66.6875 60.570312 C 65.933594 59.976562 65.222656 59.324219 64.492188 58.699219 C 63.566406 57.898438 62.613281 57.132812 61.621094 56.414062 C 61.644531 56.429688 61.667969 56.445312 61.691406 56.460938 C 60.546875 55.644531 59.359375 54.902344 58.125 54.230469 C 56.609375 53.421875 55.046875 52.710938 53.445312 52.085938 C 53.472656 52.097656 53.496094 52.109375 53.523438 52.117188 C 51.34375 51.28125 49.105469 50.625 46.835938 50.066406 C 46.84375 50.070312 46.855469 50.070312 46.863281 50.074219 C 45.0625 49.636719 43.242188 49.25 41.445312 48.789062 C 40.582031 48.566406 39.726562 48.320312 38.878906 48.046875 C 38.0625 47.777344 37.257812 47.46875 36.464844 47.140625 C 34.976562 46.519531 33.53125 45.796875 32.125 45.003906 C 30.9375 44.335938 29.78125 43.613281 28.679688 42.8125 C 27.394531 41.882812 26.25 40.777344 25.328125 39.488281 C 24.347656 38.128906 23.59375 36.625 22.917969 35.101562 C 22.769531 34.769531 22.980469 34.367188 23.304688 34.246094 C 23.46875 34.183594 23.65625 34.191406 23.816406 34.265625 C 23.976562 34.339844 24.085938 34.46875 24.15625 34.632812 C 24.21875 34.765625 24.277344 34.898438 24.335938 35.03125 C 24.324219 35.003906 24.3125 34.980469 24.300781 34.949219 C 24.753906 35.941406 25.246094 36.90625 25.8125 37.835938 C 25.804688 37.816406 25.792969 37.800781 25.78125 37.785156 C 25.792969 37.804688 25.804688 37.820312 25.816406 37.839844 C 25.820312 37.847656 25.824219 37.851562 25.828125 37.855469 C 25.824219 37.851562 25.820312 37.847656 25.816406 37.839844 C 26.164062 38.386719 26.535156 38.917969 26.945312 39.421875 C 27.277344 39.816406 27.628906 40.191406 28.003906 40.546875 C 28.523438 41.023438 29.070312 41.464844 29.640625 41.878906 C 29.625 41.867188 29.609375 41.855469 29.59375 41.84375 C 30.804688 42.707031 32.082031 43.476562 33.386719 44.1875 C 33.363281 44.175781 33.335938 44.164062 33.3125 44.148438 C 34.738281 44.921875 36.203125 45.617188 37.710938 46.214844 C 39.285156 46.824219 40.902344 47.292969 42.542969 47.699219 C 44.34375 48.140625 46.15625 48.523438 47.953125 48.984375 C 49.792969 49.449219 51.617188 49.992188 53.394531 50.65625 C 55.15625 51.308594 56.871094 52.070312 58.53125 52.945312 C 60.152344 53.800781 61.691406 54.796875 63.15625 55.902344 C 64.191406 56.683594 65.175781 57.527344 66.152344 58.382812 C 66.839844 58.980469 67.527344 59.570312 68.265625 60.105469 C 69.042969 60.65625 69.855469 61.167969 70.683594 61.644531 C 71.464844 60.59375 72.460938 59.699219 73.570312 59.003906 C 74.085938 58.6875 74.625 58.417969 75.1875 58.195312 C 75.742188 57.972656 76.328125 57.828125 76.914062 57.730469 C 77.988281 57.558594 79.109375 57.558594 80.175781 57.792969 C 81.074219 57.988281 81.933594 58.335938 82.710938 58.832031 C 83.050781 59.050781 83.371094 59.304688 83.664062 59.582031 C 83.917969 59.820312 84.152344 60.082031 84.335938 60.375 C 84.695312 60.945312 84.894531 61.613281 84.753906 62.285156 C 84.605469 62.988281 84.15625 63.554688 83.601562 63.992188 C 82.949219 64.503906 82.160156 64.800781 81.375 65.027344 C 80.929688 65.152344 80.476562 65.242188 80.023438 65.3125 C 79.558594 65.386719 79.089844 65.4375 78.621094 65.449219 C 76.488281 65.511719 74.382812 64.949219 72.460938 64.066406 C 72.007812 63.859375 71.5625 63.636719 71.125 63.402344 C 71.117188 63.414062 71.113281 63.425781 71.105469 63.433594 C 70.96875 63.699219 70.847656 63.96875 70.734375 64.246094 C 70.648438 64.480469 70.574219 64.714844 70.507812 64.957031 C 70.453125 65.199219 70.40625 65.441406 70.375 65.6875 C 70.347656 65.96875 70.335938 66.25 70.335938 66.53125 C 70.347656 66.785156 70.371094 67.035156 70.40625 67.28125 C 70.460938 67.585938 70.527344 67.878906 70.613281 68.167969 C 70.695312 68.417969 70.785156 68.660156 70.886719 68.898438 C 71.023438 69.1875 71.171875 69.46875 71.335938 69.746094 C 71.519531 70.023438 71.71875 70.292969 71.925781 70.550781 C 72.160156 70.824219 72.40625 71.078125 72.667969 71.324219 C 72.957031 71.585938 73.257812 71.828125 73.570312 72.058594 C 73.976562 72.34375 74.394531 72.605469 74.828125 72.847656 C 75.417969 73.160156 76.027344 73.4375 76.648438 73.6875 C 76.628906 73.679688 76.613281 73.671875 76.59375 73.664062 C 77.394531 73.972656 78.207031 74.226562 79.039062 74.4375 C 80.515625 74.796875 82.011719 75.082031 83.511719 75.328125 C 85 75.574219 86.492188 75.78125 87.984375 75.949219 C 88.054688 75.957031 88.121094 75.964844 88.191406 75.972656 C 88.183594 75.972656 88.183594 75.96875 88.179688 75.972656 C 89.644531 76.128906 91.117188 76.242188 92.59375 76.3125 C 94.101562 76.382812 95.613281 76.410156 97.125 76.433594 C 98.605469 76.453125 100.082031 76.457031 101.558594 76.5 C 103.472656 76.550781 105.390625 76.71875 107.269531 77.113281 C 108.996094 77.472656 110.695312 78 112.316406 78.703125 C 113.800781 79.351562 115.238281 80.160156 116.488281 81.203125 C 116.660156 81.347656 116.832031 81.496094 117 81.652344 C 117.875 82.46875 118.636719 83.425781 119.085938 84.535156 " fill-opacity="1" fill-rule="nonzero"/></g></g></g></g></g><path fill="#ffc0cb" d="M 236.683594 53.855469 L 234.429688 53.957031 C 218.160156 53.847656 196.148438 58.265625 168.398438 67.214844 C 145.570312 75.359375 129.023438 83.632812 118.757812 92.039062 C 108.851562 100.0625 102.921875 105.675781 100.980469 108.878906 C 97.335938 113.515625 94.1875 118.511719 91.539062 123.859375 C 83.925781 140.316406 79.320312 158.09375 77.714844 177.179688 C 75.046875 201.457031 75.027344 224.167969 77.65625 245.3125 C 81.46875 264.21875 86.148438 276.238281 91.695312 281.375 C 95.292969 287.886719 106.46875 294.183594 125.222656 300.261719 L 181.703125 313.503906 C 193.429688 315.546875 202.40625 316.332031 208.636719 315.859375 C 233.132812 314.761719 260.808594 303.347656 291.664062 281.625 L 333.140625 251.5625 C 342.128906 244.339844 347.214844 239.824219 348.402344 238.011719 C 355.203125 229.515625 358.722656 224.128906 358.960938 221.839844 C 360.644531 217.457031 361.589844 213.59375 361.789062 210.25 C 363.144531 201.039062 359.453125 188.554688 350.710938 172.789062 C 334.574219 146.546875 317.09375 121.71875 298.265625 98.308594 C 283.617188 79.621094 273.25 68.394531 267.171875 64.628906 C 258.15625 57.71875 247.992188 54.128906 236.683594 53.855469 " fill-opacity="1" fill-rule="nonzero"/><path fill="#578cb5" d="M 261.578125 55.285156 C 261.527344 55.234375 247.183594 41.167969 238.1875 37.605469 C 237.476562 37.324219 236.757812 37.058594 236.03125 36.804688 C 220.285156 31.28125 200.570312 31.851562 186.578125 40.402344 C 176.734375 46.417969 171.269531 58.207031 166.496094 69.101562 C 164.285156 74.15625 162.238281 79.339844 160.1875 84.546875 C 158.128906 89.761719 156.0625 95.003906 153.8125 100.140625 C 149.808594 109.273438 145.214844 118.101562 139.019531 125.929688 C 129.902344 137.445312 117.117188 145.554688 104.535156 153.546875 C 91.992188 161.511719 79.652344 169.355469 70.9375 180.363281 C 69.441406 182.253906 68.054688 184.230469 66.792969 186.320312 C 56.925781 202.648438 62.0625 225.25 67.148438 244.152344 C 75.777344 276.203125 93.671875 312.582031 123.972656 325.179688 C 125.359375 325.753906 126.757812 326.289062 128.171875 326.785156 C 141.25 331.367188 155.503906 332.6875 169.472656 333.582031 C 196.152344 335.292969 223.09375 333.960938 249.648438 330.6875 C 267.414062 328.496094 285.199219 325.53125 302.214844 320.148438 C 314.75 316.179688 329.6875 309.28125 333.089844 297.160156 C 336.453125 285.1875 331.800781 271.851562 327.273438 259.871094 C 324.171875 251.667969 320.5625 243.671875 316.9375 235.640625 C 313.894531 228.898438 310.839844 222.128906 308.089844 215.242188 C 300.113281 195.253906 295.957031 174.019531 291.820312 152.914062 C 290.363281 145.472656 288.910156 138.058594 287.292969 130.695312 C 283.628906 114.035156 279.792969 97.378906 274.164062 81.332031 C 270.960938 72.199219 261.445312 55.121094 261.433594 55.097656 L 261.578125 55.285156 M 262.742188 54.097656 C 262.800781 54.152344 262.847656 54.21875 262.886719 54.285156 C 262.875 54.261719 272.472656 71.480469 275.734375 80.78125 C 281.402344 96.933594 285.253906 113.679688 288.917969 130.339844 C 290.539062 137.722656 291.996094 145.160156 293.453125 152.59375 C 297.59375 173.726562 301.726562 194.804688 309.636719 214.625 C 312.371094 221.476562 315.410156 228.207031 318.453125 234.957031 C 322.078125 242.980469 325.707031 251.019531 328.828125 259.285156 C 333.316406 271.164062 338.226562 285.027344 334.691406 297.609375 C 331.015625 310.695312 315.144531 317.800781 302.71875 321.734375 C 285.558594 327.160156 267.660156 330.140625 249.851562 332.339844 C 223.21875 335.625 196.167969 336.960938 169.367188 335.242188 C 155.394531 334.347656 140.933594 333.019531 127.621094 328.355469 C 126.175781 327.847656 124.75 327.304688 123.335938 326.714844 C 92.265625 313.796875 74.191406 276.710938 65.542969 244.585938 C 60.496094 225.84375 55.074219 202.5 65.367188 185.460938 C 66.667969 183.308594 68.097656 181.269531 69.632812 179.332031 C 78.550781 168.0625 91.148438 160.074219 103.640625 152.140625 C 116.273438 144.117188 128.800781 136.152344 137.714844 124.894531 C 143.785156 117.230469 148.3125 108.546875 152.289062 99.472656 C 154.523438 94.367188 156.578125 89.15625 158.636719 83.933594 C 160.691406 78.734375 162.746094 73.523438 164.972656 68.4375 C 169.703125 57.636719 175.34375 45.316406 185.707031 38.980469 C 200.21875 30.117188 220.472656 29.585938 236.582031 35.234375 C 237.332031 35.496094 238.070312 35.769531 238.800781 36.058594 C 248.183594 39.773438 262.792969 54.144531 262.742188 54.097656 Z M 262.742188 54.097656 " fill-opacity="0.961" fill-rule="nonzero"/><g clip-path="url(#fc1ebb5d8d)"><g clip-path="url(#905556cfc9)"><g clip-path="url(#074fd9602b)"><path fill="#578cb5" d="M 311.050781 13.535156 C 310.40625 15.164062 309.832031 16.699219 309.1875 18.210938 C 308.542969 19.722656 308.472656 21.316406 308.476562 22.914062 C 308.476562 24.046875 309.039062 24.910156 310.121094 25.335938 C 310.832031 25.621094 311.574219 25.902344 312.320312 26.070312 C 315.046875 26.679688 317.121094 25.53125 318.335938 23.042969 C 319.917969 19.804688 319.597656 18.105469 316.792969 14.832031 C 316.199219 14.140625 315.433594 13.609375 314.628906 12.90625 C 315.085938 12.503906 315.507812 12.042969 316.007812 11.695312 C 317.964844 10.324219 320.007812 9.1875 322.457031 8.882812 C 323.304688 8.769531 324.128906 8.285156 324.90625 7.875 C 325.421875 7.605469 325.363281 7.34375 324.816406 7.113281 C 323.433594 6.515625 321.878906 6.382812 320.410156 6.75 C 317.246094 7.523438 314.382812 8.820312 312.28125 11.445312 C 312.164062 11.59375 311.816406 11.695312 311.636719 11.628906 C 307.328125 10.183594 302.925781 9.878906 298.398438 10.042969 C 293.238281 10.226562 288.15625 11.441406 283.464844 13.621094 C 279.378906 15.5 275.167969 17.324219 271.539062 20.015625 C 265.972656 24.148438 261.375 29.226562 257.710938 35.144531 C 253.882812 41.308594 250.582031 47.746094 247.195312 54.136719 C 244.957031 58.375 242.738281 62.648438 239.78125 66.433594 C 237.511719 69.34375 235.011719 72.09375 232.484375 74.792969 C 230.472656 76.945312 228.34375 78.992188 226.117188 80.929688 C 223.441406 83.25 220.21875 84.703125 217.082031 86.261719 C 213.011719 88.300781 208.722656 89.097656 204.195312 88.441406 C 203.714844 88.375 203.21875 88.324219 203.03125 88.878906 C 202.84375 89.4375 203.285156 89.746094 203.683594 89.953125 C 204.855469 90.589844 206.1875 90.90625 207.527344 90.859375 C 211.285156 90.714844 214.9375 90.140625 218.339844 88.40625 C 221.664062 86.722656 225.082031 85.203125 227.949219 82.761719 C 229.800781 81.179688 231.605469 79.519531 233.3125 77.769531 C 235.820312 75.1875 238.320312 72.582031 240.652344 69.828125 C 244.09375 65.761719 246.597656 61.070312 249.136719 56.421875 C 251.980469 51.238281 254.652344 45.941406 257.554688 40.785156 C 259.9375 36.550781 262.492188 32.402344 265.851562 28.816406 C 268.226562 26.300781 270.492188 23.570312 273.453125 21.789062 C 279.53125 18.136719 285.5625 14.242188 292.660156 12.769531 C 298.277344 11.605469 303.9375 11.34375 309.539062 12.996094 C 310.046875 13.136719 310.527344 13.351562 311.050781 13.535156 Z M 313.507812 14.828125 C 314.949219 15.582031 315.808594 16.730469 316.558594 17.984375 C 317.535156 19.628906 317.242188 21.652344 315.847656 23.105469 C 314.632812 24.367188 313.21875 24.492188 311.355469 23.5 C 311.335938 23.492188 311.296875 23.488281 311.289062 23.46875 C 311.148438 23.199219 310.863281 22.921875 310.875 22.65625 C 310.972656 19.820312 312.144531 17.335938 313.507812 14.828125 Z M 313.507812 14.828125 " fill-opacity="1" fill-rule="nonzero"/></g></g></g></svg>