<svg xmlns="http://www.w3.org/2000/svg" xmlns:xlink="http://www.w3.org/1999/xlink" width="400" zoomAndPan="magnify" viewBox="0 0 300 374.999991" height="500" preserveAspectRatio="xMidYMid meet" version="1.0"><path fill="#ffc0cb" d="M 268.453125 319.261719 C 250.542969 327.070312 230.914062 326.699219 211.765625 326.402344 C 196.914062 326.171875 182.046875 326.304688 167.523438 329.730469 C 158.6875 331.8125 150.148438 334.953125 141.601562 337.960938 C 127.949219 342.769531 114.210938 347.28125 100.308594 351.3125 C 86.128906 355.421875 68.160156 362.445312 54.90625 352.238281 C 49.007812 347.695312 45.59375 341.027344 41.957031 333.441406 C 38.46875 326.160156 36.941406 319.886719 34.964844 311.59375 C 34.246094 308.5625 32.652344 300.199219 31.132812 290.339844 C 26.898438 262.109375 26.074219 233.777344 28.652344 205.347656 C 30.363281 185.53125 33.582031 165.964844 38.3125 146.648438 C 43.042969 127.332031 49.226562 108.488281 56.859375 90.125 C 64.390625 72.15625 74.898438 54.078125 89.035156 40.546875 C 94.0625 35.734375 99.742188 31.414062 106.171875 28.667969 C 117.152344 23.984375 126.601562 25.21875 135.992188 32.347656 C 153.34375 45.523438 170.367188 59.15625 187.542969 72.558594 C 204.164062 85.523438 221.171875 98.117188 237.332031 111.65625 C 253.9375 125.574219 266.039062 141.359375 273.152344 161.953125 C 279.984375 181.730469 284.390625 202.480469 289.664062 222.714844 C 294.25 240.28125 299.910156 258.492188 298.683594 276.863281 C 297.386719 296.34375 286.269531 311.496094 268.453125 319.261719 Z M 268.453125 319.261719 " fill-opacity="1" fill-rule="nonzero"/><path fill="#578cb5" d="M 271.0625 212.386719 C 268.503906 191.730469 267.046875 170.0625 258.6875 150.730469 C 250.804688 132.5 236.757812 118.195312 223.042969 104.230469 C 206.464844 87.355469 189.890625 70.480469 173.3125 53.605469 C 164.585938 44.722656 155.898438 35.804688 147.136719 26.960938 C 141.824219 21.597656 136.378906 16.726562 128.566406 15.808594 C 100.988281 12.558594 77.449219 41.183594 63.578125 61.238281 C 45.878906 86.824219 33.226562 116.589844 23.492188 145.988281 C 12.828125 178.199219 10.328125 200.992188 4.707031 246.371094 C 2.859375 261.292969 0.136719 286.496094 8.964844 313.941406 C 13.996094 329.589844 20.058594 337.613281 28.09375 341.488281 C 35.195312 344.914062 43.203125 345.175781 50.910156 344.371094 C 60.699219 343.355469 70.46875 341.6875 80.171875 340.046875 C 102.964844 336.1875 125.964844 328.804688 149.230469 328.824219 C 184.800781 328.851562 229.941406 348.226562 260.441406 320.667969 C 273.449219 308.914062 277.382812 291.640625 277.441406 274.726562 C 277.511719 253.921875 273.617188 232.980469 271.0625 212.386719 Z M 237.953125 329.171875 C 219.167969 334.554688 199.757812 331.601562 180.816406 328.785156 C 166.121094 326.601562 151.371094 324.777344 136.519531 326.261719 C 127.488281 327.164062 118.609375 329.148438 109.738281 331.007812 C 95.574219 333.976562 81.363281 336.640625 67.050781 338.804688 C 52.453125 341.011719 33.714844 345.609375 21.921875 333.746094 C 17.441406 329.238281 15.265625 323.644531 11.558594 313.40625 C 8.988281 306.089844 7.234375 298.585938 6.289062 290.886719 C 5.199219 282.339844 4.992188 273.765625 5.664062 265.175781 C 9.121094 215.785156 16.21875 184.480469 16.21875 184.480469 C 26.324219 139.917969 40.082031 109.5 44.472656 100.128906 C 47.25 94.195312 51.921875 85.199219 58.363281 74.171875 C 68.195312 57.351562 80.992188 40.8125 96.785156 29.261719 C 102.402344 25.152344 108.601562 21.617188 115.339844 19.742188 C 126.839844 16.542969 136.042969 19.015625 144.414062 27.316406 C 159.882812 42.660156 174.957031 58.417969 190.222656 73.960938 C 204.988281 89.003906 220.195312 103.726562 234.429688 119.277344 C 249.058594 135.257812 258.976562 152.5 263.316406 173.847656 C 267.484375 194.355469 269.121094 215.503906 271.6875 236.253906 C 273.917969 254.273438 277.132812 273.070312 273.5 291.121094 C 269.648438 310.257812 256.632812 323.820312 237.953125 329.171875 Z M 237.953125 329.171875 " fill-opacity="1" fill-rule="nonzero"/><path fill="#578cb5" d="M 115.414062 29.21875 C 107.949219 27.449219 101.757812 34.523438 96.734375 39.121094 C 89.789062 45.484375 82.800781 52.632812 77.90625 60.738281 C 77.558594 61.304688 78.273438 62.328125 78.855469 61.75 C 84.042969 56.609375 88.753906 50.96875 93.957031 45.816406 C 99.425781 40.402344 107.277344 30.777344 115.675781 31.53125 C 117.1875 31.667969 116.496094 29.476562 115.414062 29.21875 Z M 115.414062 29.21875 " fill-opacity="1" fill-rule="nonzero"/><path fill="#578cb5" d="M 69.480469 73.050781 C 66.796875 75.839844 64.519531 78.929688 62.644531 82.320312 C 60.953125 85.277344 58.730469 88.71875 59.011719 92.222656 C 59.050781 92.722656 59.8125 93.648438 60.378906 93.171875 C 62.632812 91.269531 63.367188 87.832031 64.746094 85.265625 C 66.742188 81.734375 68.980469 78.363281 71.453125 75.152344 C 72.300781 73.996094 70.632812 71.882812 69.480469 73.050781 Z M 69.480469 73.050781 " fill-opacity="1" fill-rule="nonzero"/><path fill="#578cb5" d="M 239.058594 110.742188 C 246.492188 117.363281 252.90625 124.863281 258.292969 133.234375 C 264.070312 142.4375 266.71875 152.171875 270.570312 162.160156 C 270.992188 163.253906 272.820312 163.640625 272.671875 162.058594 C 271.671875 151.625 266.066406 140.683594 260.519531 131.898438 C 254.984375 123.128906 248.175781 115.5 240.082031 109.015625 C 238.96875 108.121094 238.175781 109.9375 239.058594 110.742188 Z M 239.058594 110.742188 " fill-opacity="1" fill-rule="nonzero"/><path fill="#578cb5" d="M 58.683594 353.175781 C 68.511719 354.011719 78.378906 352.789062 88.03125 350.824219 C 99.148438 348.566406 109.546875 348.886719 120.785156 348.535156 C 122.597656 348.476562 121.9375 345.847656 120.460938 345.667969 C 99.28125 343.074219 79.441406 351.175781 58.40625 350.734375 C 56.871094 350.703125 57.417969 353.070312 58.683594 353.175781 Z M 58.683594 353.175781 " fill-opacity="1" fill-rule="nonzero"/><path fill="#578cb5" d="M 130.285156 348.371094 C 133.195312 347.167969 136.230469 346.609375 139.378906 346.691406 C 141.625 346.765625 143.832031 347.378906 146.074219 347.191406 C 147.007812 347.113281 146.527344 345.753906 146.074219 345.429688 C 141.214844 341.914062 133.714844 343.441406 128.628906 345.613281 C 127.113281 346.261719 128.75 348.988281 130.285156 348.371094 Z M 130.285156 348.371094 " fill-opacity="1" fill-rule="nonzero"/></svg>