<svg xmlns="http://www.w3.org/2000/svg" xmlns:xlink="http://www.w3.org/1999/xlink" width="500" zoomAndPan="magnify" viewBox="0 0 375 225" height="300" preserveAspectRatio="xMidYMid meet" version="1.0"><defs><clipPath id="b9ebf34b19"><path d="M 181 86 L 223 86 L 223 215.625 L 181 215.625 Z M 181 86 " clip-rule="nonzero"/></clipPath><clipPath id="cd95d81036"><path d="M 282 86 L 324 86 L 324 215.625 L 282 215.625 Z M 282 86 " clip-rule="nonzero"/></clipPath><clipPath id="37f0c928a0"><path d="M 1 127 L 90 127 L 90 215.625 L 1 215.625 Z M 1 127 " clip-rule="nonzero"/></clipPath></defs><path fill="#ffffff" d="M 154.320312 166.960938 L 146.246094 166.960938 C 137.355469 166.960938 130.121094 159.726562 130.121094 150.835938 C 130.121094 141.945312 137.355469 134.710938 146.246094 134.710938 L 154.320312 134.710938 C 156.652344 134.710938 158.542969 136.605469 158.542969 138.9375 C 158.542969 141.269531 156.652344 143.164062 154.320312 143.164062 L 146.246094 143.164062 C 142.011719 143.164062 138.574219 146.601562 138.574219 150.835938 C 138.574219 155.070312 142.011719 158.511719 146.246094 158.511719 L 154.320312 158.511719 C 156.652344 158.511719 158.542969 160.402344 158.542969 162.738281 C 158.542969 165.070312 156.652344 166.960938 154.320312 166.960938 Z M 154.320312 166.960938 " fill-opacity="1" fill-rule="nonzero"/><path fill="#ffffff" d="M 358.839844 166.960938 L 350.769531 166.960938 C 348.4375 166.960938 346.542969 165.070312 346.542969 162.738281 C 346.542969 160.402344 348.4375 158.511719 350.769531 158.511719 L 358.839844 158.511719 C 363.074219 158.511719 366.515625 155.070312 366.515625 150.835938 C 366.515625 146.601562 363.074219 143.164062 358.839844 143.164062 L 350.769531 143.164062 C 348.4375 143.164062 346.542969 141.269531 346.542969 138.9375 C 346.542969 136.605469 348.4375 134.710938 350.769531 134.710938 L 358.839844 134.710938 C 367.730469 134.710938 374.964844 141.945312 374.964844 150.835938 C 374.964844 159.726562 367.730469 166.960938 358.839844 166.960938 Z M 358.839844 166.960938 " fill-opacity="1" fill-rule="nonzero"/><path fill="#ffffff" d="M 287.144531 143.164062 L 217.933594 143.164062 C 215.601562 143.164062 213.707031 141.269531 213.707031 138.9375 C 213.707031 136.605469 215.601562 134.710938 217.933594 134.710938 L 287.144531 134.710938 C 289.476562 134.710938 291.371094 136.605469 291.371094 138.9375 C 291.371094 141.269531 289.476562 143.164062 287.144531 143.164062 Z M 287.144531 143.164062 " fill-opacity="1" fill-rule="nonzero"/><path fill="#ffffff" d="M 287.144531 166.960938 L 217.933594 166.960938 C 215.601562 166.960938 213.707031 165.070312 213.707031 162.738281 C 213.707031 160.402344 215.601562 158.511719 217.933594 158.511719 L 287.144531 158.511719 C 289.476562 158.511719 291.371094 160.402344 291.371094 162.738281 C 291.371094 165.070312 289.476562 166.960938 287.144531 166.960938 Z M 287.144531 166.960938 " fill-opacity="1" fill-rule="nonzero"/><g clip-path="url(#b9ebf34b19)"><path fill="#ffffff" d="M 207.488281 215.5 L 196.585938 215.5 C 188.488281 215.5 181.90625 208.917969 181.90625 200.820312 L 181.90625 116.328125 C 181.90625 113.996094 183.796875 112.101562 186.128906 112.101562 C 188.464844 112.101562 190.355469 113.996094 190.355469 116.328125 L 190.355469 200.820312 C 190.355469 204.25 193.144531 207.046875 196.585938 207.046875 L 207.488281 207.046875 C 210.917969 207.046875 213.71875 204.257812 213.71875 200.820312 L 213.71875 100.835938 C 213.71875 97.40625 210.929688 94.609375 207.488281 94.609375 L 196.585938 94.609375 C 193.152344 94.609375 190.355469 97.398438 190.355469 100.835938 L 190.355469 101.714844 C 190.355469 104.046875 188.464844 105.941406 186.128906 105.941406 C 183.796875 105.941406 181.90625 104.046875 181.90625 101.714844 L 181.90625 100.835938 C 181.90625 92.738281 188.488281 86.15625 196.585938 86.15625 L 207.488281 86.15625 C 215.585938 86.15625 222.167969 92.738281 222.167969 100.835938 L 222.167969 200.820312 C 222.160156 208.917969 215.578125 215.5 207.488281 215.5 Z M 207.488281 215.5 " fill-opacity="1" fill-rule="nonzero"/></g><path fill="#ffffff" d="M 175.675781 201.722656 L 164.773438 201.722656 C 156.675781 201.722656 150.09375 195.140625 150.09375 187.042969 L 150.09375 114.808594 C 150.09375 112.476562 151.984375 110.582031 154.320312 110.582031 C 156.652344 110.582031 158.542969 112.476562 158.542969 114.808594 L 158.542969 187.042969 C 158.542969 190.476562 161.332031 193.273438 164.773438 193.273438 L 175.675781 193.273438 C 179.109375 193.273438 181.90625 190.484375 181.90625 187.042969 C 181.90625 184.710938 183.796875 182.816406 186.128906 182.816406 C 188.464844 182.816406 190.355469 184.710938 190.355469 187.042969 C 190.355469 195.140625 183.773438 201.722656 175.675781 201.722656 Z M 175.675781 201.722656 " fill-opacity="1" fill-rule="nonzero"/><g clip-path="url(#cd95d81036)"><path fill="#ffffff" d="M 308.503906 215.5 L 297.601562 215.5 C 289.503906 215.5 282.917969 208.917969 282.917969 200.820312 L 282.917969 100.835938 C 282.917969 92.738281 289.503906 86.15625 297.601562 86.15625 L 308.503906 86.15625 C 316.597656 86.15625 323.183594 92.738281 323.183594 100.835938 L 323.183594 200.820312 C 323.183594 208.917969 316.597656 215.5 308.503906 215.5 Z M 297.601562 94.617188 C 294.167969 94.617188 291.371094 97.40625 291.371094 100.84375 L 291.371094 200.828125 C 291.371094 204.257812 294.160156 207.058594 297.601562 207.058594 L 308.503906 207.058594 C 311.933594 207.058594 314.730469 204.269531 314.730469 200.828125 L 314.730469 100.84375 C 314.730469 97.414062 311.941406 94.617188 308.503906 94.617188 Z M 297.601562 94.617188 " fill-opacity="1" fill-rule="nonzero"/></g><path fill="#ffffff" d="M 340.3125 201.722656 L 329.410156 201.722656 C 321.316406 201.722656 314.730469 195.140625 314.730469 187.042969 C 314.730469 184.710938 316.625 182.816406 318.957031 182.816406 C 321.289062 182.816406 323.183594 184.710938 323.183594 187.042969 C 323.183594 190.476562 325.972656 193.273438 329.410156 193.273438 L 340.3125 193.273438 C 343.746094 193.273438 346.542969 190.484375 346.542969 187.042969 L 346.542969 114.621094 C 346.542969 111.191406 343.753906 108.390625 340.3125 108.390625 L 329.410156 108.390625 C 325.980469 108.390625 323.183594 111.179688 323.183594 114.621094 C 323.183594 116.953125 321.289062 118.847656 318.957031 118.847656 C 316.625 118.847656 314.730469 116.953125 314.730469 114.621094 C 314.730469 106.523438 321.316406 99.941406 329.410156 99.941406 L 340.3125 99.941406 C 348.410156 99.941406 354.996094 106.523438 354.996094 114.621094 L 354.996094 187.042969 C 354.996094 195.140625 348.410156 201.722656 340.3125 201.722656 Z M 340.3125 201.722656 " fill-opacity="1" fill-rule="nonzero"/><path fill="#ffffff" d="M 28.574219 204.453125 C 24.441406 204.453125 20.316406 202.882812 17.171875 199.738281 C 14.140625 196.703125 12.464844 192.648438 12.464844 188.335938 C 12.464844 184.027344 14.140625 179.96875 17.171875 176.933594 L 22.878906 171.230469 C 24.527344 169.582031 27.207031 169.582031 28.855469 171.230469 C 30.503906 172.878906 30.503906 175.558594 28.855469 177.207031 L 23.148438 182.910156 C 21.710938 184.347656 20.917969 186.273438 20.917969 188.335938 C 20.917969 190.398438 21.710938 192.324219 23.148438 193.761719 C 26.140625 196.753906 31.007812 196.753906 34 193.761719 L 39.707031 188.058594 C 41.355469 186.410156 44.03125 186.410156 45.679688 188.058594 C 47.328125 189.707031 47.328125 192.386719 45.679688 194.035156 L 39.96875 199.746094 C 36.832031 202.882812 32.699219 204.453125 28.574219 204.453125 Z M 28.574219 204.453125 " fill-opacity="1" fill-rule="nonzero"/><path fill="#ffffff" d="M 181.609375 56.355469 C 180.527344 56.355469 179.445312 55.941406 178.617188 55.121094 C 176.96875 53.472656 176.96875 50.792969 178.617188 49.144531 L 184.320312 43.441406 C 187.3125 40.449219 187.3125 35.582031 184.320312 32.589844 C 181.332031 29.597656 176.460938 29.597656 173.46875 32.589844 L 167.765625 38.304688 C 166.117188 39.949219 163.4375 39.949219 161.789062 38.304688 C 160.140625 36.65625 160.140625 33.976562 161.789062 32.328125 L 167.496094 26.621094 C 170.527344 23.589844 174.578125 21.914062 178.894531 21.914062 C 183.214844 21.914062 187.261719 23.589844 190.296875 26.621094 C 196.585938 32.910156 196.585938 43.136719 190.296875 49.425781 L 184.59375 55.128906 C 183.773438 55.941406 182.691406 56.355469 181.609375 56.355469 Z M 181.609375 56.355469 " fill-opacity="1" fill-rule="nonzero"/><path fill="#ffffff" d="M 70.851562 133.453125 C 69.769531 133.453125 68.6875 133.039062 67.859375 132.21875 C 66.210938 130.570312 66.210938 127.890625 67.859375 126.242188 L 116.792969 77.308594 C 118.441406 75.660156 121.121094 75.660156 122.769531 77.308594 C 124.417969 78.957031 124.417969 81.632812 122.769531 83.28125 L 73.832031 132.21875 C 73.015625 133.039062 71.933594 133.453125 70.851562 133.453125 Z M 70.851562 133.453125 " fill-opacity="1" fill-rule="nonzero"/><path fill="#ffffff" d="M 87.6875 150.277344 C 86.605469 150.277344 85.523438 149.863281 84.695312 149.046875 C 83.046875 147.398438 83.046875 144.71875 84.695312 143.070312 L 133.628906 94.132812 C 135.277344 92.488281 137.957031 92.488281 139.605469 94.132812 C 141.253906 95.78125 141.253906 98.460938 139.605469 100.109375 L 90.667969 149.046875 C 89.839844 149.863281 88.757812 150.277344 87.6875 150.277344 Z M 87.6875 150.277344 " fill-opacity="1" fill-rule="nonzero"/><path fill="#ffffff" d="M 99.511719 202.753906 C 95.75 202.753906 91.996094 201.328125 89.132812 198.460938 L 18.433594 127.765625 C 12.710938 122.042969 12.710938 112.726562 18.433594 107.007812 L 26.148438 99.289062 C 31.871094 93.566406 41.183594 93.566406 46.90625 99.289062 L 117.605469 169.988281 C 123.328125 175.710938 123.328125 185.023438 117.605469 190.746094 L 109.886719 198.460938 C 107.03125 201.328125 103.269531 202.753906 99.511719 202.753906 Z M 36.527344 103.457031 C 34.929688 103.457031 33.339844 104.066406 32.125 105.273438 L 24.410156 112.988281 C 21.984375 115.414062 21.984375 119.371094 24.410156 121.796875 L 95.105469 192.496094 C 97.53125 194.921875 101.480469 194.921875 103.914062 192.496094 L 111.621094 184.785156 C 114.046875 182.363281 114.046875 178.40625 111.621094 175.980469 L 40.929688 105.273438 C 39.714844 104.066406 38.125 103.457031 36.527344 103.457031 Z M 36.527344 103.457031 " fill-opacity="1" fill-rule="nonzero"/><g clip-path="url(#37f0c928a0)"><path fill="#ffffff" d="M 67.273438 215.507812 C 63.515625 215.507812 59.761719 214.082031 56.898438 211.214844 L 5.6875 160.007812 C -0.0351562 154.285156 -0.0351562 144.972656 5.6875 139.25 L 13.394531 131.53125 C 19.117188 125.8125 28.429688 125.8125 34.152344 131.53125 C 35.800781 133.179688 35.800781 135.859375 34.152344 137.507812 C 32.503906 139.15625 29.824219 139.15625 28.179688 137.507812 C 25.753906 135.082031 21.796875 135.082031 19.371094 137.507812 L 11.664062 145.214844 C 9.238281 147.640625 9.238281 151.597656 11.664062 154.023438 L 62.871094 205.230469 C 65.296875 207.65625 69.246094 207.65625 71.679688 205.230469 L 79.386719 197.515625 C 80.554688 196.347656 81.195312 194.785156 81.195312 193.113281 C 81.195312 191.4375 80.554688 189.875 79.386719 188.707031 C 77.738281 187.058594 77.738281 184.382812 79.386719 182.734375 C 81.035156 181.085938 83.714844 181.085938 85.363281 182.734375 C 88.125 185.496094 89.648438 189.183594 89.648438 193.113281 C 89.648438 197.042969 88.125 200.726562 85.363281 203.492188 L 77.652344 211.199219 C 74.796875 214.070312 71.035156 215.507812 67.273438 215.507812 Z M 67.273438 215.507812 " fill-opacity="1" fill-rule="nonzero"/></g><path fill="#ffffff" d="M 170.941406 131.320312 C 167.011719 131.320312 163.328125 129.800781 160.566406 127.035156 L 89.867188 56.339844 C 84.144531 50.617188 84.144531 41.304688 89.867188 35.582031 L 97.582031 27.863281 C 103.304688 22.144531 112.617188 22.144531 118.339844 27.863281 L 189.039062 98.5625 C 194.761719 104.285156 194.761719 113.597656 189.039062 119.320312 L 181.320312 127.035156 C 178.558594 129.800781 174.875 131.320312 170.941406 131.320312 Z M 107.960938 32.023438 C 106.363281 32.023438 104.773438 32.632812 103.558594 33.839844 L 95.851562 41.558594 C 93.425781 43.984375 93.425781 47.929688 95.851562 50.363281 L 166.546875 121.0625 C 167.714844 122.226562 169.277344 122.871094 170.953125 122.871094 C 172.625 122.871094 174.1875 122.226562 175.355469 121.0625 L 183.070312 113.355469 C 185.496094 110.929688 185.496094 106.972656 183.070312 104.546875 L 112.375 33.847656 C 111.148438 32.632812 109.550781 32.023438 107.960938 32.023438 Z M 107.960938 32.023438 " fill-opacity="1" fill-rule="nonzero"/><path fill="#ffffff" d="M 183.695312 99.085938 C 179.9375 99.085938 176.183594 97.660156 173.316406 94.792969 C 171.671875 93.144531 171.671875 90.464844 173.316406 88.820312 C 174.964844 87.171875 177.644531 87.171875 179.292969 88.820312 C 181.71875 91.242188 185.675781 91.242188 188.101562 88.820312 L 195.816406 81.109375 C 198.242188 78.683594 198.242188 74.730469 195.816406 72.304688 L 144.609375 21.09375 C 142.183594 18.667969 138.234375 18.667969 135.800781 21.09375 L 128.085938 28.8125 C 126.917969 29.976562 126.277344 31.542969 126.277344 33.214844 C 126.277344 34.886719 126.917969 36.453125 128.085938 37.617188 C 129.734375 39.265625 129.734375 41.945312 128.085938 43.59375 C 126.4375 45.242188 123.757812 45.242188 122.109375 43.59375 C 119.347656 40.828125 117.824219 37.144531 117.824219 33.214844 C 117.824219 29.285156 119.347656 25.601562 122.109375 22.835938 L 129.816406 15.121094 C 135.539062 9.398438 144.851562 9.398438 150.574219 15.121094 L 201.785156 66.328125 C 207.503906 72.050781 207.503906 81.363281 201.785156 87.085938 L 194.066406 94.792969 C 191.210938 97.660156 187.449219 99.085938 183.695312 99.085938 Z M 183.695312 99.085938 " fill-opacity="1" fill-rule="nonzero"/></svg>