<svg xmlns="http://www.w3.org/2000/svg" xmlns:xlink="http://www.w3.org/1999/xlink" width="500" zoomAndPan="magnify" viewBox="0 0 375 337.499995" height="450" preserveAspectRatio="xMidYMid meet" version="1.0"><path fill="#578cb5" d="M 358.292969 229.425781 C 359.160156 238.28125 359.796875 247.605469 357.050781 256.21875 C 354.15625 265.285156 347.523438 271.820312 339.589844 276.683594 C 331.746094 281.496094 322.964844 284.800781 314.449219 288.210938 C 305.003906 291.992188 295.398438 295.546875 285.390625 297.535156 C 264.953125 301.59375 244.890625 296.023438 224.410156 296.019531 C 205.4375 296.011719 187.867188 302.78125 170.660156 310.128906 C 151.511719 318.300781 132.289062 325.574219 111.921875 330.109375 C 100.183594 332.707031 88.324219 334.53125 76.347656 335.582031 C 66.210938 336.480469 55.703125 336.855469 46.5 331.738281 C 36.277344 326.058594 31.53125 315.746094 27.257812 305.425781 C 22.921875 294.941406 19.359375 284.199219 16.578125 273.203125 C 13.773438 262.097656 8.046875 230.765625 10.460938 203.410156 C 15.878906 142.105469 66.011719 88.105469 113.175781 60.132812 C 133.714844 47.953125 162.917969 31.90625 203.375 32.699219 C 237.332031 33.367188 269.128906 49.488281 293.457031 72.550781 C 321.464844 99.105469 338.554688 134.929688 348.230469 171.863281 C 353.109375 190.785156 356.464844 209.972656 358.292969 229.425781 Z M 358.292969 229.425781 " fill-opacity="1" fill-rule="nonzero"/><path fill="#ffc0cb" d="M 364.339844 208.914062 C 362.898438 168.75 355.480469 127.945312 336.191406 92.289062 C 319.925781 62.222656 294.433594 36.445312 263.097656 22.289062 C 230.472656 7.550781 195.089844 9.4375 161.53125 19.871094 C 103.027344 38.058594 48.851562 80.199219 24.496094 137.34375 C 21.25 145.035156 18.554688 152.917969 16.417969 160.988281 C 12.949219 174.238281 11.136719 187.714844 10.988281 201.410156 C 10.960938 207.855469 11.265625 214.285156 11.898438 220.703125 C 13.5 240.453125 17.066406 261.328125 24.464844 279.796875 C 30.703125 295.367188 43.578125 304.445312 60.144531 306.09375 C 80.074219 308.078125 101.023438 306.285156 120.722656 303.105469 C 142.929688 299.519531 163.777344 291.722656 185.566406 286.523438 C 196.878906 283.820312 208.394531 282.332031 220.019531 283.496094 C 230.621094 284.554688 240.9375 287.320312 251.351562 289.4375 C 273.4375 293.921875 293.394531 291.140625 314.894531 285.082031 C 330.492188 280.683594 348.941406 276.140625 357.972656 261.300781 C 367.074219 246.339844 364.941406 225.652344 364.339844 208.914062 Z M 361.25 228.46875 C 361.132812 237.367188 360.730469 246.707031 357.042969 254.957031 C 353.160156 263.648438 345.847656 269.40625 337.421875 273.363281 C 329.09375 277.273438 320 279.585938 311.160156 282.027344 C 301.351562 284.738281 291.410156 287.207031 281.246094 288.074219 C 260.484375 289.84375 241.160156 282.082031 220.808594 279.804688 C 201.953125 277.695312 183.742188 282.476562 165.824219 287.867188 C 145.890625 293.867188 125.976562 298.96875 105.234375 301.210938 C 93.28125 302.492188 81.292969 302.992188 69.273438 302.707031 C 59.097656 302.480469 48.613281 301.683594 40.035156 295.582031 C 30.503906 288.800781 26.929688 278.023438 23.832031 267.292969 C 20.59375 256.414062 18.25 245.34375 16.789062 234.085938 C 14.734375 219.4375 12.992188 206.492188 14.085938 189.390625 C 14.671875 180.230469 15.980469 171.171875 18.011719 162.21875 C 23.597656 144.449219 31.445312 127.742188 41.566406 112.101562 C 47.753906 102.554688 77.304688 58.710938 136.414062 33.042969 C 160.894531 22.414062 190.453125 10.699219 229.097656 15.777344 C 262.773438 20.207031 292.585938 39.753906 314.207031 65.375 C 339.097656 94.867188 352.109375 132.363281 357.632812 170.148438 C 360.382812 189.492188 361.589844 208.929688 361.25 228.46875 Z M 361.25 228.46875 " fill-opacity="1" fill-rule="nonzero"/><path fill="#ffc0cb" d="M 25.539062 240.898438 C 25.949219 232.007812 24.023438 223.011719 24.273438 214.03125 C 24.527344 205.308594 25.578125 196.6875 27.421875 188.160156 C 31.597656 168.820312 40.292969 152.921875 50.308594 136.148438 C 50.988281 135.007812 49.453125 132.828125 48.378906 134.09375 C 36.550781 148.0625 29.289062 167.289062 25.191406 184.902344 C 22.949219 194.511719 21.726562 204.25 21.515625 214.117188 C 21.335938 222.738281 21.101562 232.597656 24.128906 240.761719 C 24.335938 241.324219 25.496094 241.859375 25.539062 240.898438 Z M 25.539062 240.898438 " fill-opacity="1" fill-rule="nonzero"/><path fill="#ffc0cb" d="M 56.808594 127.105469 C 59.472656 123.925781 61.660156 120.398438 64.382812 117.265625 C 67.160156 114.066406 70.78125 111.734375 73.523438 108.585938 C 74.515625 107.445312 72.949219 105.558594 71.644531 106.097656 C 67.917969 107.644531 64.445312 111.578125 61.894531 114.613281 C 58.980469 118.078125 56.671875 121.582031 55.507812 125.984375 C 55.339844 126.621094 56.15625 127.878906 56.808594 127.105469 Z M 56.808594 127.105469 " fill-opacity="1" fill-rule="nonzero"/><path fill="#ffc0cb" d="M 345.523438 192.007812 C 349.800781 202.691406 348.230469 217.148438 348.742188 228.5 C 349.039062 235.171875 350.039062 242.167969 347.457031 248.519531 C 346.164062 251.5 344.515625 254.269531 342.503906 256.824219 C 340.496094 259.378906 338.191406 261.632812 335.597656 263.589844 C 334.386719 264.453125 335.5 266.90625 336.957031 266.515625 C 342.277344 265.085938 346.242188 258.488281 348.859375 253.96875 C 352.101562 248.371094 352.59375 242.703125 352.382812 236.359375 C 352.097656 227.894531 351.652344 219.433594 351.253906 210.976562 C 350.929688 204.183594 351.210938 197.1875 347.492188 191.246094 C 346.769531 190.09375 344.933594 190.535156 345.523438 192.007812 Z M 345.523438 192.007812 " fill-opacity="1" fill-rule="nonzero"/><path fill="#ffc0cb" d="M 316.75 276.203125 C 321.636719 275.730469 328.757812 273.691406 330.601562 268.476562 C 330.949219 267.484375 329.972656 266.242188 328.929688 266.679688 C 326.757812 267.585938 325.027344 269.558594 323.015625 270.804688 C 320.832031 272.207031 318.496094 273.277344 316.003906 274.019531 C 314.71875 274.375 315.628906 276.3125 316.75 276.203125 Z M 316.75 276.203125 " fill-opacity="1" fill-rule="nonzero"/><path fill="#ffc0cb" d="M 227.738281 2.21875 C 236.332031 3.757812 245.09375 5.21875 253.46875 7.695312 C 261.039062 9.933594 267.964844 14.792969 275.464844 16.609375 C 276.582031 16.882812 276.792969 15.609375 276.164062 14.910156 C 270.882812 9.039062 261.269531 6.199219 253.914062 4.105469 C 245.28125 1.660156 236.476562 0.339844 227.507812 0.152344 C 226.171875 0.117188 226.722656 2.035156 227.738281 2.21875 Z M 227.738281 2.21875 " fill-opacity="1" fill-rule="nonzero"/><path fill="#ffc0cb" d="M 284.351562 23.132812 C 285.75 24.042969 287.027344 25.105469 288.171875 26.316406 C 289.21875 27.390625 290.125 28.785156 291.519531 29.421875 C 292.246094 29.75 292.8125 29.058594 292.742188 28.382812 C 292.550781 26.542969 290.976562 25 289.636719 23.855469 C 288.195312 22.667969 286.621094 21.699219 284.914062 20.941406 C 283.53125 20.296875 283.398438 22.53125 284.351562 23.132812 Z M 284.351562 23.132812 " fill-opacity="1" fill-rule="nonzero"/><path fill="#ffc0cb" d="M 64.65625 314.632812 C 82.726562 318.714844 100.296875 316.464844 118.203125 312.335938 C 127.144531 310.273438 135.988281 307.808594 144.921875 305.691406 C 154.300781 303.472656 163.71875 302.394531 173.1875 300.765625 C 174.78125 300.492188 173.855469 297.785156 172.511719 297.785156 C 155.179688 297.75 137.613281 304.105469 120.957031 308.296875 C 102.648438 312.902344 83.332031 316.378906 64.480469 313.074219 C 63.511719 312.902344 63.898438 314.460938 64.65625 314.632812 Z M 64.65625 314.632812 " fill-opacity="1" fill-rule="nonzero"/><path fill="#ffc0cb" d="M 60.605469 313.886719 C 58.453125 311.960938 55.398438 311.3125 52.703125 310.394531 C 50.273438 309.570312 47.144531 307.75 44.582031 308.433594 C 43.890625 308.617188 43.976562 309.53125 44.394531 309.949219 C 46.445312 311.996094 49.632812 312.511719 52.332031 313.398438 C 54.8125 314.214844 57.796875 315.78125 60.429688 315.300781 C 61.082031 315.183594 60.992188 314.234375 60.605469 313.886719 Z M 60.605469 313.886719 " fill-opacity="1" fill-rule="nonzero"/></svg>