<svg xmlns="http://www.w3.org/2000/svg" xmlns:xlink="http://www.w3.org/1999/xlink" width="200" zoomAndPan="magnify" viewBox="0 0 150 112.499997" height="150" preserveAspectRatio="xMidYMid meet" version="1.0"><defs><clipPath id="90b87212c2"><path d="M 5 0 L 147 0 L 147 111 L 5 111 Z M 5 0 " clip-rule="nonzero"/></clipPath><clipPath id="e4ea91a5a0"><path d="M -16.035156 8.847656 L 125 -37.929688 L 166.136719 86.09375 L 25.101562 132.871094 Z M -16.035156 8.847656 " clip-rule="nonzero"/></clipPath><clipPath id="53ba10f200"><path d="M -16.035156 8.847656 L 125 -37.929688 L 166.136719 86.09375 L 25.101562 132.871094 Z M -16.035156 8.847656 " clip-rule="nonzero"/></clipPath></defs><g clip-path="url(#90b87212c2)"><g clip-path="url(#e4ea91a5a0)"><g clip-path="url(#53ba10f200)"><path fill="#ffffff" d="M 9.988281 23.234375 C 8.128906 26.425781 6.800781 30.125 6.132812 34.410156 C 1.84375 62.054688 16.644531 107.363281 49.339844 110.074219 C 63.234375 111.226562 78.757812 108.480469 92.515625 106.546875 C 113.136719 103.652344 128.105469 95.386719 136.789062 75.523438 C 143.679688 59.765625 149.601562 39.871094 144.632812 22.75 C 141.941406 13.457031 135.269531 4.933594 126.074219 1.933594 C 118.496094 -0.539062 110.292969 0.890625 102.363281 1.699219 C 75.3125 4.445312 26.589844 -5.277344 9.988281 23.234375 " fill-opacity="1" fill-rule="nonzero"/></g></g></g></svg>