<svg xmlns="http://www.w3.org/2000/svg" xmlns:xlink="http://www.w3.org/1999/xlink" width="50" zoomAndPan="magnify" viewBox="0 0 37.5 37.499999" height="50" preserveAspectRatio="xMidYMid meet" version="1.0"><defs><clipPath id="1ac70ecf95"><path d="M 2 0 L 37 0 L 37 36.117188 L 2 36.117188 Z M 2 0 " clip-rule="nonzero"/></clipPath></defs><g clip-path="url(#1ac70ecf95)"><path fill="#ffc0cb" d="M 35.023438 32.15625 L 35.03125 32.15625 Z M 7.921875 2.074219 C 7.582031 2.074219 7.257812 2.226562 6.902344 2.535156 C 6.863281 2.574219 6.363281 3.050781 6.035156 3.363281 L 5.746094 3.632812 C 4.074219 5.195312 3.316406 8.007812 3.816406 10.800781 C 3.976562 11.703125 4.234375 12.636719 4.585938 13.578125 C 6.351562 18.324219 9.707031 22.449219 12.210938 25.074219 C 14.703125 27.71875 18.644531 31.289062 23.285156 33.308594 C 24.207031 33.707031 25.125 34.015625 26.019531 34.226562 C 28.78125 34.871094 31.628906 34.265625 33.277344 32.683594 L 33.554688 32.421875 C 33.871094 32.121094 34.371094 31.648438 34.445312 31.578125 C 35.46875 30.523438 34.957031 29.644531 32.898438 27.550781 L 32.382812 27.019531 C 31.078125 25.667969 28.886719 23.398438 27.039062 23.621094 C 26.535156 23.679688 26.007812 24.046875 25.453125 24.433594 C 24.902344 24.820312 24.332031 25.21875 23.648438 25.433594 C 21.808594 26.015625 19.949219 25.632812 18.398438 24.359375 C 17.472656 23.597656 16.53125 22.703125 15.675781 21.78125 C 14.8125 20.890625 13.972656 19.902344 13.261719 18.9375 C 12.070312 17.324219 11.789062 15.445312 12.46875 13.640625 C 12.722656 12.96875 13.148438 12.421875 13.5625 11.890625 C 13.980469 11.355469 14.375 10.851562 14.460938 10.351562 C 14.78125 8.511719 12.632812 6.207031 11.351562 4.832031 L 10.851562 4.289062 C 9.492188 2.804688 8.667969 2.074219 7.921875 2.074219 Z M 28.246094 36.117188 C 27.324219 36.117188 26.4375 36.003906 25.644531 35.820312 C 24.65625 35.589844 23.644531 35.25 22.632812 34.808594 C 17.734375 32.683594 13.617188 28.953125 11.023438 26.203125 C 8.414062 23.46875 4.914062 19.15625 3.050781 14.152344 C 2.667969 13.117188 2.382812 12.089844 2.203125 11.089844 C 1.730469 8.445312 2.121094 4.78125 4.628906 2.4375 L 4.90625 2.175781 C 5.253906 1.84375 5.796875 1.328125 5.820312 1.308594 C 8.332031 -0.894531 10.574219 1.558594 12.0625 3.183594 L 12.550781 3.714844 C 14.039062 5.3125 16.53125 7.988281 16.074219 10.628906 C 15.917969 11.535156 15.351562 12.257812 14.855469 12.898438 C 14.5 13.351562 14.164062 13.78125 14 14.21875 C 13.515625 15.5 13.71875 16.796875 14.578125 17.964844 C 15.246094 18.871094 16.039062 19.800781 16.867188 20.652344 C 17.683594 21.539062 18.570312 22.378906 19.441406 23.09375 C 20.5625 24.019531 21.84375 24.285156 23.152344 23.875 C 23.597656 23.730469 24.042969 23.421875 24.515625 23.089844 C 25.179688 22.628906 25.933594 22.101562 26.84375 21.992188 C 29.515625 21.679688 32.046875 24.3125 33.5625 25.882812 L 34.066406 26.402344 C 35.609375 27.972656 37.941406 30.34375 35.609375 32.730469 C 35.574219 32.765625 35.023438 33.285156 34.679688 33.609375 L 34.414062 33.863281 C 32.6875 35.523438 30.375 36.117188 28.246094 36.117188 " fill-opacity="1" fill-rule="nonzero"/></g></svg>