<svg xmlns="http://www.w3.org/2000/svg" xmlns:xlink="http://www.w3.org/1999/xlink" width="50" zoomAndPan="magnify" viewBox="0 0 37.5 37.499999" height="50" preserveAspectRatio="xMidYMid meet" version="1.0"><defs><clipPath id="2934494b06"><path d="M 1.414062 6.304688 L 35.457031 6.304688 L 35.457031 30.730469 L 1.414062 30.730469 Z M 1.414062 6.304688 " clip-rule="nonzero"/></clipPath></defs><g clip-path="url(#2934494b06)"><path fill="#ffc0cb" d="M 5.070312 6.304688 C 3.058594 6.304688 1.425781 7.941406 1.425781 9.96875 C 1.472656 15.523438 1.425781 21.402344 1.425781 27.066406 C 1.425781 29.015625 2.933594 30.59375 4.84375 30.710938 L 31.953125 30.730469 C 33.894531 30.648438 35.445312 29.039062 35.445312 27.066406 L 35.445312 9.339844 C 35.148438 7.613281 33.65625 6.304688 31.855469 6.304688 C 22.933594 6.308594 14 6.304688 5.070312 6.304688 Z M 5.015625 8.230469 L 31.96875 8.230469 L 18.929688 21.339844 C 18.691406 21.582031 18.3125 21.582031 18.074219 21.339844 Z M 33.621094 9.167969 L 33.621094 26.933594 C 33.621094 27.988281 33.242188 28.589844 32.484375 28.800781 L 23.296875 19.546875 Z M 3.457031 9.242188 L 13.613281 19.453125 L 4.332031 28.78125 C 3.695312 28.566406 3.472656 28.050781 3.457031 27.351562 Z M 14.90625 20.730469 L 18.074219 23.933594 C 18.3125 24.175781 18.691406 24.175781 18.929688 23.933594 L 22.003906 20.84375 L 30.015625 28.898438 L 6.78125 28.898438 Z M 14.90625 20.730469 " fill-opacity="1" fill-rule="nonzero"/></g></svg>