<svg xmlns="http://www.w3.org/2000/svg" xmlns:xlink="http://www.w3.org/1999/xlink" width="50" zoomAndPan="magnify" viewBox="0 0 37.5 37.499999" height="50" preserveAspectRatio="xMidYMid meet" version="1.0"><defs><clipPath id="d31c6f8ac7"><path d="M 1.179688 1 L 35.964844 1 L 35.964844 37 L 1.179688 37 Z M 1.179688 1 " clip-rule="nonzero"/></clipPath></defs><g clip-path="url(#d31c6f8ac7)"><path fill="#ffc0cb" d="M 24.03125 24.859375 L 27.914062 19.535156 C 28.332031 18.960938 28.699219 18.347656 29.007812 17.707031 C 29.316406 17.0625 29.5625 16.394531 29.75 15.707031 C 29.933594 15.015625 30.058594 14.316406 30.113281 13.601562 C 30.171875 12.890625 30.164062 12.179688 30.089844 11.46875 C 30.015625 10.757812 29.878906 10.0625 29.675781 9.375 C 29.472656 8.691406 29.210938 8.03125 28.886719 7.394531 C 28.5625 6.757812 28.183594 6.15625 27.75 5.589844 C 27.316406 5.019531 26.832031 4.5 26.304688 4.019531 C 25.773438 3.542969 25.203125 3.117188 24.59375 2.742188 C 23.984375 2.371094 23.347656 2.054688 22.679688 1.796875 C 22.015625 1.542969 21.332031 1.347656 20.628906 1.21875 C 19.925781 1.089844 19.21875 1.023438 18.503906 1.023438 C 17.789062 1.023438 17.082031 1.089844 16.378906 1.21875 C 15.675781 1.347656 14.992188 1.542969 14.324219 1.796875 C 13.660156 2.054688 13.019531 2.371094 12.414062 2.742188 C 11.804688 3.117188 11.234375 3.542969 10.703125 4.019531 C 10.171875 4.5 9.691406 5.019531 9.257812 5.589844 C 8.820312 6.15625 8.441406 6.757812 8.121094 7.394531 C 7.796875 8.03125 7.535156 8.691406 7.332031 9.375 C 7.128906 10.0625 6.992188 10.757812 6.917969 11.46875 C 6.84375 12.179688 6.835938 12.890625 6.894531 13.601562 C 6.949219 14.316406 7.070312 15.015625 7.257812 15.707031 C 7.445312 16.394531 7.691406 17.0625 8 17.707031 C 8.308594 18.347656 8.671875 18.960938 9.09375 19.535156 L 12.976562 24.859375 C 6.527344 25.578125 1.179688 27.574219 1.179688 30.765625 C 1.179688 34.84375 9.894531 36.976562 18.503906 36.976562 C 27.113281 36.976562 35.828125 34.84375 35.828125 30.765625 C 35.828125 27.574219 30.480469 25.574219 24.03125 24.859375 Z M 10.679688 18.378906 C 10.328125 17.902344 10.023438 17.394531 9.769531 16.859375 C 9.511719 16.320312 9.304688 15.769531 9.152344 15.195312 C 8.996094 14.621094 8.894531 14.039062 8.847656 13.445312 C 8.800781 12.855469 8.808594 12.261719 8.867188 11.671875 C 8.929688 11.082031 9.042969 10.5 9.210938 9.929688 C 9.378906 9.359375 9.597656 8.8125 9.867188 8.28125 C 10.136719 7.753906 10.453125 7.253906 10.8125 6.78125 C 11.175781 6.308594 11.574219 5.875 12.015625 5.476562 C 12.457031 5.078125 12.929688 4.726562 13.4375 4.414062 C 13.945312 4.101562 14.472656 3.839844 15.027344 3.628906 C 15.582031 3.414062 16.152344 3.253906 16.738281 3.144531 C 17.320312 3.039062 17.910156 2.984375 18.503906 2.984375 C 19.097656 2.984375 19.6875 3.039062 20.269531 3.144531 C 20.855469 3.253906 21.421875 3.414062 21.976562 3.628906 C 22.53125 3.839844 23.0625 4.101562 23.570312 4.414062 C 24.074219 4.722656 24.550781 5.078125 24.988281 5.476562 C 25.429688 5.875 25.832031 6.308594 26.195312 6.78125 C 26.554688 7.253906 26.871094 7.753906 27.140625 8.28125 C 27.40625 8.8125 27.625 9.359375 27.792969 9.929688 C 27.960938 10.5 28.078125 11.082031 28.136719 11.671875 C 28.199219 12.261719 28.207031 12.855469 28.160156 13.445312 C 28.113281 14.039062 28.011719 14.621094 27.855469 15.195312 C 27.699219 15.769531 27.496094 16.320312 27.238281 16.859375 C 26.980469 17.394531 26.679688 17.902344 26.328125 18.378906 L 18.503906 29.105469 Z M 18.503906 35.015625 C 9.125 35.015625 3.140625 32.5 3.140625 30.765625 C 3.140625 29.308594 7.390625 27.300781 14.320312 26.699219 L 17.710938 31.34375 C 17.804688 31.472656 17.917969 31.570312 18.058594 31.640625 C 18.199219 31.710938 18.347656 31.746094 18.503906 31.746094 C 18.660156 31.746094 18.808594 31.710938 18.949219 31.640625 C 19.085938 31.570312 19.203125 31.472656 19.296875 31.34375 L 22.683594 26.699219 C 29.617188 27.300781 33.867188 29.308594 33.867188 30.765625 C 33.867188 32.5 27.882812 35.015625 18.503906 35.015625 Z M 18.503906 35.015625 " fill-opacity="1" fill-rule="nonzero"/></g><path fill="#ffc0cb" d="M 24.21875 12.671875 C 24.21875 12.296875 24.183594 11.925781 24.109375 11.554688 C 24.035156 11.1875 23.925781 10.832031 23.785156 10.484375 C 23.640625 10.136719 23.464844 9.808594 23.253906 9.496094 C 23.046875 9.183594 22.808594 8.894531 22.546875 8.628906 C 22.28125 8.363281 21.992188 8.128906 21.679688 7.917969 C 21.367188 7.710938 21.039062 7.535156 20.691406 7.390625 C 20.34375 7.246094 19.988281 7.136719 19.617188 7.066406 C 19.25 6.992188 18.878906 6.957031 18.503906 6.957031 C 18.128906 6.957031 17.757812 6.992188 17.386719 7.066406 C 17.019531 7.136719 16.664062 7.246094 16.316406 7.390625 C 15.96875 7.535156 15.640625 7.710938 15.328125 7.917969 C 15.015625 8.128906 14.726562 8.363281 14.460938 8.628906 C 14.195312 8.894531 13.960938 9.183594 13.75 9.496094 C 13.542969 9.808594 13.367188 10.136719 13.222656 10.484375 C 13.078125 10.832031 12.972656 11.1875 12.898438 11.554688 C 12.824219 11.921875 12.789062 12.296875 12.789062 12.671875 C 12.789062 13.046875 12.824219 13.417969 12.898438 13.785156 C 12.972656 14.152344 13.078125 14.511719 13.222656 14.859375 C 13.367188 15.203125 13.542969 15.535156 13.75 15.847656 C 13.960938 16.15625 14.195312 16.445312 14.460938 16.710938 C 14.726562 16.976562 15.015625 17.214844 15.328125 17.421875 C 15.640625 17.632812 15.96875 17.808594 16.316406 17.949219 C 16.664062 18.09375 17.019531 18.203125 17.386719 18.277344 C 17.757812 18.351562 18.128906 18.386719 18.503906 18.386719 C 18.878906 18.386719 19.25 18.347656 19.617188 18.277344 C 19.984375 18.203125 20.34375 18.09375 20.691406 17.949219 C 21.035156 17.804688 21.367188 17.628906 21.675781 17.421875 C 21.988281 17.210938 22.277344 16.976562 22.542969 16.710938 C 22.808594 16.445312 23.046875 16.15625 23.253906 15.84375 C 23.460938 15.53125 23.636719 15.203125 23.78125 14.855469 C 23.925781 14.511719 24.035156 14.152344 24.109375 13.785156 C 24.179688 13.417969 24.21875 13.046875 24.21875 12.671875 Z M 14.75 12.671875 C 14.75 12.171875 14.84375 11.695312 15.035156 11.234375 C 15.226562 10.773438 15.496094 10.367188 15.847656 10.015625 C 16.199219 9.664062 16.605469 9.394531 17.066406 9.203125 C 17.527344 9.011719 18.003906 8.917969 18.503906 8.917969 C 19 8.917969 19.480469 9.011719 19.941406 9.203125 C 20.398438 9.394531 20.804688 9.664062 21.15625 10.015625 C 21.511719 10.367188 21.78125 10.773438 21.972656 11.234375 C 22.164062 11.695312 22.257812 12.171875 22.257812 12.671875 C 22.257812 13.167969 22.164062 13.648438 21.972656 14.109375 C 21.78125 14.566406 21.511719 14.972656 21.15625 15.324219 C 20.804688 15.675781 20.398438 15.949219 19.941406 16.140625 C 19.480469 16.328125 19 16.425781 18.503906 16.425781 C 18.003906 16.425781 17.527344 16.328125 17.066406 16.136719 C 16.609375 15.949219 16.203125 15.675781 15.851562 15.324219 C 15.5 14.972656 15.226562 14.566406 15.035156 14.105469 C 14.84375 13.648438 14.75 13.167969 14.75 12.671875 Z M 14.75 12.671875 " fill-opacity="1" fill-rule="nonzero"/></svg>