<svg xmlns="http://www.w3.org/2000/svg" xmlns:xlink="http://www.w3.org/1999/xlink" width="60" zoomAndPan="magnify" viewBox="0 0 75 74.999997" height="60" preserveAspectRatio="xMidYMid meet" version="1.0"><defs><clipPath id="ede111f359"><path d="M 9.078125 19.242188 L 70.691406 19.242188 L 70.691406 47.308594 L 9.078125 47.308594 Z M 9.078125 19.242188 " clip-rule="nonzero"/></clipPath></defs><path fill="#ffc0cb" d="M 33.355469 2.6875 C 58.566406 2.042969 88.632812 23.089844 66.566406 48.699219 C 53.722656 64.171875 32.148438 82.976562 14.59375 62.847656 C -8.871094 41.738281 -2.578125 4.285156 33.355469 2.6875 Z M 33.355469 2.6875 " fill-opacity="1" fill-rule="nonzero"/><g clip-path="url(#ede111f359)"><path fill="#ffffff" d="M 9.375 30.4375 C 9.542969 29.660156 10.078125 28.867188 10.007812 28.242188 C 9.742188 25.980469 11.113281 25.296875 12.835938 24.730469 C 20.078125 22.332031 27.453125 20.492188 35.046875 19.574219 C 37.761719 19.246094 38.429688 19.972656 37.832031 22.628906 C 37.753906 22.957031 37.628906 23.277344 37.539062 23.605469 C 37.242188 24.710938 36.414062 25.214844 35.390625 25.027344 C 34.390625 24.839844 33.492188 25.074219 32.582031 25.257812 C 30.238281 25.722656 27.917969 26.261719 25.589844 26.773438 C 25.519531 26.898438 25.507812 27.027344 25.554688 27.160156 C 28.070312 27.375 30.578125 27.671875 33.09375 27.785156 C 39.542969 28.070312 45.882812 29.613281 52.40625 29.308594 C 55.511719 29.171875 58.664062 29.683594 61.761719 30.125 C 64.199219 30.472656 66.671875 30.289062 69.082031 30.800781 C 70.308594 31.0625 70.535156 31.375 69.8125 32.371094 C 68.375 34.363281 66.871094 36.34375 63.890625 35.703125 C 63.367188 35.589844 62.804688 35.652344 62.257812 35.589844 C 57.171875 35.078125 52.066406 34.792969 46.96875 34.472656 C 41.457031 34.121094 35.949219 33.75 30.4375 33.371094 C 28.601562 33.246094 26.769531 33.074219 24.75 32.914062 C 25.3125 33.8125 26.042969 34.078125 26.644531 34.488281 C 28.675781 35.871094 30.480469 37.519531 32.347656 39.109375 C 35.195312 41.53125 33.976562 44.765625 32.585938 46.746094 C 32.324219 47.121094 31.992188 47.328125 31.628906 46.824219 C 30.53125 45.292969 28.898438 44.386719 27.402344 43.34375 C 23.105469 40.335938 18.609375 37.648438 14.109375 34.960938 C 12.941406 34.261719 11.769531 33.570312 10.59375 32.890625 C 9.636719 32.34375 9.085938 31.746094 9.375 30.4375 Z M 24.757812 26.871094 C 24.722656 26.855469 24.691406 26.847656 24.660156 26.820312 C 24.679688 26.847656 24.707031 26.863281 24.734375 26.878906 C 24.738281 26.878906 24.746094 26.875 24.757812 26.871094 Z M 24.757812 26.871094 " fill-opacity="1" fill-rule="nonzero"/></g></svg>