<svg xmlns="http://www.w3.org/2000/svg" xmlns:xlink="http://www.w3.org/1999/xlink" width="1000" zoomAndPan="magnify" viewBox="0 0 750 30.000001" height="40" preserveAspectRatio="xMidYMid meet" version="1.0"><path fill="#ffc0cb" d="M 27.710938 14.933594 C 29.8125 12.8125 31.972656 12.898438 34.035156 12.78125 C 81.757812 10.160156 129.507812 8.417969 177.300781 7.957031 C 216.71875 7.585938 256.132812 6.671875 295.554688 6.320312 C 345.75 5.871094 395.933594 6.078125 446.128906 6.875 C 479.292969 7.394531 512.460938 7.546875 545.625 7.871094 C 579.6875 8.199219 613.75 8.683594 647.792969 10.09375 C 667.195312 10.902344 686.632812 11.019531 705.972656 13.074219 C 709.820312 13.484375 713.640625 14.253906 717.46875 14.867188 C 719.585938 15.210938 722.140625 15.761719 722.21875 18.125 C 722.328125 21.34375 719.117188 21.175781 716.929688 21.753906 C 712.003906 23.050781 707.320312 21.382812 702.480469 20.808594 C 693.910156 19.792969 685.1875 20.042969 676.519531 19.894531 C 656.808594 19.566406 637.097656 19.273438 617.382812 19.0625 C 582.132812 18.671875 546.882812 18.375 511.636719 17.992188 C 489.230469 17.742188 466.820312 17.414062 444.417969 17.128906 C 398.714844 16.566406 353.015625 15.804688 307.316406 15.496094 C 261.628906 15.191406 215.9375 15.074219 170.25 15.359375 C 127.84375 15.621094 85.445312 16.523438 43.046875 17.164062 C 40.359375 17.210938 37.679688 17.546875 34.996094 17.65625 C 32.34375 17.757812 29.558594 18.109375 27.710938 14.933594 " fill-opacity="1" fill-rule="nonzero"/></svg>