<svg xmlns="http://www.w3.org/2000/svg" xmlns:xlink="http://www.w3.org/1999/xlink" width="200" zoomAndPan="magnify" viewBox="0 0 150 74.999997" height="100" preserveAspectRatio="xMidYMid meet" version="1.0"><defs><clipPath id="c3b51bbbd7"><path d="M 102 1.6875 L 150 1.6875 L 150 40 L 102 40 Z M 102 1.6875 " clip-rule="nonzero"/></clipPath><clipPath id="48076c596e"><path d="M 0 69 L 6 69 L 6 73.6875 L 0 73.6875 Z M 0 69 " clip-rule="nonzero"/></clipPath></defs><path fill="#ffffff" d="M 150 37.5 C 150 38.726562 149.96875 39.953125 149.910156 41.179688 C 149.847656 42.40625 149.757812 43.628906 149.640625 44.851562 C 149.519531 46.074219 149.367188 47.289062 149.1875 48.503906 C 149.007812 49.71875 148.796875 50.929688 148.558594 52.132812 C 148.320312 53.335938 148.050781 54.53125 147.753906 55.722656 C 147.453125 56.914062 147.125 58.097656 146.769531 59.269531 C 146.414062 60.445312 146.027344 61.609375 145.617188 62.765625 C 145.203125 63.921875 144.761719 65.066406 144.289062 66.203125 C 143.820312 67.335938 143.324219 68.457031 142.800781 69.566406 C 142.273438 70.675781 141.722656 71.773438 141.144531 72.855469 C 140.566406 73.9375 139.960938 75.003906 139.328125 76.058594 C 138.699219 77.109375 138.042969 78.148438 137.359375 79.167969 C 136.679688 80.1875 135.972656 81.191406 135.242188 82.175781 C 134.507812 83.164062 133.753906 84.128906 132.976562 85.078125 C 132.195312 86.027344 131.394531 86.957031 130.570312 87.867188 C 129.746094 88.777344 128.902344 89.664062 128.03125 90.53125 C 127.164062 91.402344 126.277344 92.246094 125.367188 93.070312 C 124.457031 93.894531 123.527344 94.695312 122.578125 95.476562 C 121.628906 96.253906 120.664062 97.007812 119.675781 97.742188 C 118.691406 98.472656 117.6875 99.179688 116.667969 99.859375 C 115.648438 100.542969 114.609375 101.199219 113.558594 101.828125 C 112.503906 102.460938 111.4375 103.066406 110.355469 103.644531 C 109.273438 104.222656 108.175781 104.773438 107.066406 105.300781 C 105.957031 105.824219 104.835938 106.320312 103.703125 106.789062 C 102.566406 107.261719 101.421875 107.703125 100.265625 108.117188 C 99.109375 108.527344 97.945312 108.914062 96.769531 109.269531 C 95.597656 109.625 94.414062 109.953125 93.222656 110.253906 C 92.03125 110.550781 90.835938 110.820312 89.632812 111.058594 C 88.429688 111.296875 87.21875 111.507812 86.003906 111.6875 C 84.789062 111.867188 83.574219 112.019531 82.351562 112.140625 C 81.128906 112.257812 79.90625 112.347656 78.679688 112.410156 C 77.453125 112.46875 76.226562 112.5 75 112.5 C 73.773438 112.5 72.546875 112.46875 71.320312 112.410156 C 70.09375 112.347656 68.871094 112.257812 67.648438 112.140625 C 66.425781 112.019531 65.210938 111.867188 63.996094 111.6875 C 62.78125 111.507812 61.570312 111.296875 60.367188 111.058594 C 59.164062 110.820312 57.96875 110.550781 56.777344 110.253906 C 55.585938 109.953125 54.402344 109.625 53.230469 109.269531 C 52.054688 108.914062 50.890625 108.527344 49.734375 108.117188 C 48.578125 107.703125 47.433594 107.261719 46.296875 106.789062 C 45.164062 106.320312 44.042969 105.824219 42.933594 105.300781 C 41.824219 104.773438 40.726562 104.222656 39.644531 103.644531 C 38.5625 103.066406 37.496094 102.460938 36.441406 101.828125 C 35.390625 101.199219 34.351562 100.542969 33.332031 99.859375 C 32.3125 99.179688 31.308594 98.472656 30.324219 97.742188 C 29.335938 97.007812 28.371094 96.253906 27.421875 95.476562 C 26.472656 94.695312 25.542969 93.894531 24.632812 93.070312 C 23.722656 92.246094 22.835938 91.402344 21.96875 90.53125 C 21.097656 89.664062 20.253906 88.777344 19.429688 87.867188 C 18.605469 86.957031 17.804688 86.027344 17.023438 85.078125 C 16.246094 84.128906 15.492188 83.164062 14.757812 82.175781 C 14.027344 81.191406 13.320312 80.1875 12.640625 79.167969 C 11.957031 78.148438 11.300781 77.109375 10.671875 76.058594 C 10.039062 75.003906 9.433594 73.9375 8.855469 72.855469 C 8.277344 71.773438 7.726562 70.675781 7.199219 69.566406 C 6.675781 68.457031 6.179688 67.335938 5.710938 66.203125 C 5.238281 65.066406 4.796875 63.921875 4.382812 62.765625 C 3.96875 61.609375 3.585938 60.445312 3.230469 59.269531 C 2.875 58.097656 2.546875 56.914062 2.246094 55.722656 C 1.949219 54.53125 1.679688 53.335938 1.441406 52.132812 C 1.203125 50.929688 0.992188 49.71875 0.8125 48.503906 C 0.632812 47.289062 0.480469 46.074219 0.359375 44.851562 C 0.242188 43.628906 0.152344 42.40625 0.0898438 41.179688 C 0.03125 39.953125 0 38.726562 0 37.5 C 0 36.273438 0.03125 35.046875 0.0898438 33.820312 C 0.152344 32.59375 0.242188 31.371094 0.359375 30.148438 C 0.480469 28.925781 0.632812 27.710938 0.8125 26.496094 C 0.992188 25.28125 1.203125 24.070312 1.441406 22.867188 C 1.679688 21.664062 1.949219 20.46875 2.246094 19.277344 C 2.546875 18.085938 2.875 16.902344 3.230469 15.730469 C 3.585938 14.554688 3.96875 13.390625 4.382812 12.234375 C 4.796875 11.078125 5.238281 9.933594 5.710938 8.796875 C 6.179688 7.664062 6.675781 6.542969 7.199219 5.433594 C 7.726562 4.324219 8.277344 3.226562 8.855469 2.144531 C 9.433594 1.0625 10.039062 -0.00390625 10.671875 -1.058594 C 11.300781 -2.109375 11.957031 -3.148438 12.640625 -4.167969 C 13.320312 -5.1875 14.027344 -6.191406 14.757812 -7.175781 C 15.492188 -8.164062 16.246094 -9.128906 17.023438 -10.078125 C 17.804688 -11.027344 18.605469 -11.957031 19.429688 -12.867188 C 20.253906 -13.777344 21.097656 -14.664062 21.96875 -15.53125 C 22.835938 -16.402344 23.722656 -17.246094 24.632812 -18.070312 C 25.542969 -18.894531 26.472656 -19.695312 27.421875 -20.476562 C 28.371094 -21.253906 29.335938 -22.007812 30.324219 -22.742188 C 31.308594 -23.472656 32.3125 -24.179688 33.332031 -24.859375 C 34.351562 -25.542969 35.390625 -26.199219 36.441406 -26.828125 C 37.496094 -27.460938 38.5625 -28.066406 39.644531 -28.644531 C 40.726562 -29.222656 41.824219 -29.773438 42.933594 -30.300781 C 44.042969 -30.824219 45.164062 -31.320312 46.296875 -31.789062 C 47.433594 -32.261719 48.578125 -32.703125 49.734375 -33.117188 C 50.890625 -33.53125 52.054688 -33.914062 53.230469 -34.269531 C 54.402344 -34.625 55.585938 -34.953125 56.777344 -35.253906 C 57.96875 -35.550781 59.164062 -35.820312 60.367188 -36.058594 C 61.570312 -36.296875 62.78125 -36.507812 63.996094 -36.6875 C 65.210938 -36.867188 66.425781 -37.019531 67.648438 -37.140625 C 68.871094 -37.257812 70.09375 -37.347656 71.320312 -37.410156 C 72.546875 -37.46875 73.773438 -37.5 75 -37.5 C 76.226562 -37.5 77.453125 -37.46875 78.679688 -37.410156 C 79.90625 -37.347656 81.128906 -37.257812 82.351562 -37.140625 C 83.574219 -37.019531 84.789062 -36.867188 86.003906 -36.6875 C 87.21875 -36.507812 88.429688 -36.296875 89.632812 -36.058594 C 90.835938 -35.820312 92.03125 -35.550781 93.222656 -35.253906 C 94.414062 -34.953125 95.597656 -34.625 96.769531 -34.269531 C 97.945312 -33.914062 99.109375 -33.53125 100.265625 -33.117188 C 101.421875 -32.703125 102.566406 -32.261719 103.703125 -31.789062 C 104.835938 -31.320312 105.957031 -30.824219 107.066406 -30.300781 C 108.175781 -29.773438 109.273438 -29.222656 110.355469 -28.644531 C 111.4375 -28.066406 112.503906 -27.460938 113.558594 -26.828125 C 114.609375 -26.199219 115.648438 -25.542969 116.667969 -24.859375 C 117.6875 -24.179688 118.691406 -23.472656 119.675781 -22.742188 C 120.664062 -22.007812 121.628906 -21.253906 122.578125 -20.476562 C 123.527344 -19.695312 124.457031 -18.894531 125.367188 -18.070312 C 126.277344 -17.246094 127.164062 -16.402344 128.03125 -15.53125 C 128.902344 -14.664062 129.746094 -13.777344 130.570312 -12.867188 C 131.394531 -11.957031 132.195312 -11.027344 132.976562 -10.078125 C 133.753906 -9.128906 134.507812 -8.164062 135.242188 -7.175781 C 135.972656 -6.191406 136.679688 -5.1875 137.359375 -4.167969 C 138.042969 -3.148438 138.699219 -2.109375 139.328125 -1.058594 C 139.960938 -0.00390625 140.566406 1.0625 141.144531 2.144531 C 141.722656 3.226562 142.273438 4.324219 142.800781 5.433594 C 143.324219 6.542969 143.820312 7.664062 144.289062 8.796875 C 144.761719 9.933594 145.203125 11.078125 145.617188 12.234375 C 146.027344 13.390625 146.414062 14.554688 146.769531 15.730469 C 147.125 16.902344 147.453125 18.085938 147.753906 19.277344 C 148.050781 20.46875 148.320312 21.664062 148.558594 22.867188 C 148.796875 24.070312 149.007812 25.28125 149.1875 26.496094 C 149.367188 27.710938 149.519531 28.925781 149.640625 30.148438 C 149.757812 31.371094 149.847656 32.59375 149.910156 33.820312 C 149.96875 35.046875 150 36.273438 150 37.5 Z M 150 37.5 " fill-opacity="1" fill-rule="nonzero"/><path fill="#578cb5" d="M 63.597656 55.726562 C 63.597656 55.726562 63.59375 55.726562 63.59375 55.726562 C 62.566406 56.460938 61.625 57.113281 60.722656 57.726562 C 60.714844 57.730469 60.710938 57.730469 60.710938 57.734375 C 60.304688 58.007812 60.199219 58.554688 60.472656 58.957031 C 60.640625 59.210938 60.917969 59.347656 61.203125 59.347656 C 61.371094 59.347656 61.542969 59.296875 61.695312 59.195312 C 62.617188 58.574219 63.570312 57.910156 64.617188 57.164062 C 64.617188 57.164062 64.621094 57.164062 64.621094 57.160156 C 65.019531 56.878906 65.109375 56.328125 64.828125 55.933594 C 64.546875 55.539062 63.992188 55.445312 63.597656 55.726562 Z M 63.597656 55.726562 " fill-opacity="1" fill-rule="nonzero"/><path fill="#578cb5" d="M 69.300781 51.554688 L 66.453125 53.65625 C 66.21875 53.832031 66.09375 54.097656 66.09375 54.371094 C 66.09375 54.550781 66.152344 54.734375 66.265625 54.890625 C 66.441406 55.125 66.707031 55.25 66.976562 55.25 C 67.160156 55.25 67.34375 55.195312 67.5 55.078125 L 70.347656 52.972656 C 70.582031 52.800781 70.703125 52.535156 70.703125 52.261719 C 70.703125 52.082031 70.648438 51.898438 70.53125 51.738281 C 70.246094 51.347656 69.695312 51.265625 69.300781 51.554688 Z M 69.300781 51.554688 " fill-opacity="1" fill-rule="nonzero"/><path fill="#578cb5" d="M 57.765625 59.648438 C 57.503906 59.8125 57.265625 59.960938 57.039062 60.097656 C 56.273438 60.5625 55.503906 61.011719 54.753906 61.429688 C 54.46875 61.589844 54.304688 61.890625 54.304688 62.199219 C 54.304688 62.34375 54.339844 62.492188 54.417969 62.628906 C 54.578125 62.917969 54.878906 63.078125 55.1875 63.078125 C 55.332031 63.078125 55.480469 63.046875 55.613281 62.96875 C 56.382812 62.539062 57.167969 62.082031 57.957031 61.601562 C 58.1875 61.460938 58.433594 61.308594 58.703125 61.140625 C 58.96875 60.972656 59.117188 60.6875 59.117188 60.394531 C 59.117188 60.234375 59.074219 60.070312 58.984375 59.925781 C 58.722656 59.515625 58.179688 59.390625 57.765625 59.648438 Z M 57.765625 59.648438 " fill-opacity="1" fill-rule="nonzero"/><path fill="#578cb5" d="M 75.054688 47.386719 C 74.542969 47.742188 74.132812 48.035156 73.757812 48.300781 C 73.273438 48.644531 72.753906 49.023438 72.160156 49.453125 C 71.921875 49.625 71.796875 49.894531 71.796875 50.164062 C 71.796875 50.347656 71.851562 50.527344 71.964844 50.683594 C 72.136719 50.921875 72.40625 51.046875 72.679688 51.046875 C 72.859375 51.046875 73.042969 50.992188 73.199219 50.878906 C 73.214844 50.867188 73.234375 50.851562 73.25 50.84375 C 73.261719 50.832031 73.273438 50.824219 73.289062 50.816406 C 73.292969 50.8125 73.296875 50.8125 73.296875 50.808594 C 73.300781 50.804688 73.304688 50.800781 73.308594 50.800781 C 73.351562 50.769531 73.390625 50.742188 73.433594 50.710938 C 73.433594 50.710938 73.433594 50.707031 73.4375 50.707031 C 73.925781 50.351562 74.367188 50.03125 74.785156 49.738281 C 75.15625 49.472656 75.5625 49.183594 76.058594 48.835938 L 76.070312 48.828125 C 76.3125 48.65625 76.445312 48.382812 76.445312 48.105469 C 76.445312 47.933594 76.390625 47.753906 76.285156 47.601562 C 76.003906 47.199219 75.449219 47.105469 75.054688 47.386719 Z M 75.054688 47.386719 " fill-opacity="1" fill-rule="nonzero"/><path fill="#578cb5" d="M 45.214844 65.621094 L 45.207031 65.621094 C 44.085938 65.972656 42.964844 66.269531 41.875 66.5 C 41.875 66.5 41.871094 66.5 41.867188 66.5 C 41.390625 66.601562 41.085938 67.070312 41.1875 67.546875 C 41.277344 67.960938 41.644531 68.246094 42.050781 68.246094 C 42.113281 68.246094 42.171875 68.238281 42.234375 68.222656 C 43.378906 67.980469 44.554688 67.671875 45.722656 67.308594 C 45.726562 67.304688 45.734375 67.304688 45.738281 67.300781 C 46.203125 67.15625 46.460938 66.664062 46.316406 66.199219 C 46.171875 65.734375 45.679688 65.476562 45.214844 65.621094 Z M 45.214844 65.621094 " fill-opacity="1" fill-rule="nonzero"/><path fill="#578cb5" d="M 38.480469 67.050781 L 38.324219 67.066406 C 37.332031 67.167969 36.335938 67.21875 35.355469 67.21875 L 35.023438 67.21875 C 34.539062 67.21875 34.144531 67.605469 34.140625 68.089844 L 34.140625 68.097656 C 34.140625 68.582031 34.53125 68.976562 35.015625 68.976562 L 35.355469 68.980469 C 36.40625 68.980469 37.464844 68.925781 38.507812 68.816406 L 38.636719 68.804688 C 39.09375 68.761719 39.441406 68.378906 39.441406 67.929688 C 39.441406 67.902344 39.4375 67.875 39.4375 67.847656 C 39.394531 67.363281 38.96875 67.003906 38.480469 67.050781 Z M 38.480469 67.050781 " fill-opacity="1" fill-rule="nonzero"/><path fill="#578cb5" d="M 51.664062 63.042969 C 50.601562 63.554688 49.539062 64.027344 48.5 64.445312 C 48.492188 64.449219 48.488281 64.449219 48.480469 64.453125 C 48.03125 64.632812 47.808594 65.144531 47.992188 65.597656 C 48.128906 65.945312 48.460938 66.152344 48.808594 66.152344 C 48.917969 66.152344 49.03125 66.132812 49.140625 66.085938 C 50.21875 65.652344 51.324219 65.164062 52.429688 64.625 C 52.746094 64.476562 52.929688 64.160156 52.929688 63.835938 C 52.929688 63.703125 52.898438 63.574219 52.839844 63.449219 C 52.628906 63.011719 52.105469 62.832031 51.664062 63.042969 Z M 51.664062 63.042969 " fill-opacity="1" fill-rule="nonzero"/><path fill="#578cb5" d="M 105.984375 29.902344 C 105.980469 29.90625 105.976562 29.90625 105.972656 29.910156 C 104.914062 30.378906 103.828125 30.871094 102.746094 31.378906 C 102.742188 31.378906 102.742188 31.378906 102.742188 31.378906 C 102.300781 31.585938 102.113281 32.109375 102.316406 32.550781 C 102.46875 32.871094 102.785156 33.058594 103.117188 33.058594 C 103.242188 33.058594 103.367188 33.035156 103.488281 32.976562 C 104.566406 32.472656 105.644531 31.984375 106.695312 31.515625 C 107.140625 31.316406 107.34375 30.796875 107.144531 30.351562 C 106.949219 29.90625 106.429688 29.707031 105.984375 29.902344 Z M 105.984375 29.902344 " fill-opacity="1" fill-rule="nonzero"/><path fill="#578cb5" d="M 99.535156 32.914062 C 98.457031 33.445312 97.386719 33.984375 96.359375 34.515625 C 96.054688 34.671875 95.878906 34.980469 95.878906 35.300781 C 95.878906 35.4375 95.910156 35.574219 95.976562 35.703125 C 96.136719 36.003906 96.441406 36.179688 96.761719 36.179688 C 96.898438 36.179688 97.035156 36.148438 97.164062 36.082031 C 98.1875 35.554688 99.242188 35.023438 100.308594 34.5 L 100.316406 34.496094 C 100.753906 34.28125 100.929688 33.753906 100.714844 33.316406 C 100.5 32.882812 99.976562 32.699219 99.535156 32.914062 Z M 99.535156 32.914062 " fill-opacity="1" fill-rule="nonzero"/><g clip-path="url(#c3b51bbbd7)"><path fill="#578cb5" d="M 149.832031 2.296875 C 149.621094 2 149.246094 1.863281 148.890625 1.960938 C 133.464844 6.097656 117.511719 10.375 102.730469 17.246094 C 102.449219 17.375 102.257812 17.644531 102.226562 17.953125 C 102.195312 18.261719 102.328125 18.566406 102.578125 18.75 C 106.445312 21.625 108.191406 22.949219 111.515625 26 C 111.175781 30.195312 111.054688 34.453125 111.167969 38.660156 C 111.179688 39.011719 111.394531 39.328125 111.722656 39.457031 C 111.832031 39.496094 111.9375 39.519531 112.050781 39.519531 C 112.28125 39.519531 112.507812 39.425781 112.675781 39.257812 L 119.316406 32.546875 C 121.609375 34.804688 123.542969 37.085938 124.898438 38.800781 C 125.066406 39.011719 125.320312 39.136719 125.589844 39.136719 C 125.601562 39.136719 125.613281 39.136719 125.628906 39.136719 C 125.910156 39.125 126.167969 38.976562 126.324219 38.742188 L 149.851562 3.292969 C 150.054688 2.992188 150.046875 2.59375 149.832031 2.296875 Z M 112.519531 24.53125 C 109.621094 21.882812 107.8125 20.457031 104.820312 18.226562 C 116.832031 12.796875 129.621094 9.019531 142.246094 5.578125 C 131.984375 11.296875 122.011719 17.648438 112.519531 24.53125 Z M 112.894531 35.101562 C 112.90625 32.117188 113.03125 29.121094 113.269531 26.160156 C 121.429688 20.230469 129.945312 14.695312 138.699219 9.617188 C 131.058594 15.542969 123.667969 21.84375 116.652344 28.445312 C 116.507812 28.582031 116.433594 28.761719 116.402344 28.945312 C 115.90625 29.835938 115.402344 30.699219 114.902344 31.558594 C 114.234375 32.710938 113.554688 33.890625 112.894531 35.101562 Z M 115.714844 33.679688 C 115.949219 33.269531 116.1875 32.863281 116.425781 32.445312 C 116.75 31.890625 117.074219 31.320312 117.398438 30.753906 C 117.613281 30.945312 117.828125 31.132812 118.039062 31.328125 Z M 125.523438 36.765625 C 123.742188 34.582031 121.253906 31.796875 118.375 29.257812 C 126.933594 21.238281 136.03125 13.664062 145.480469 6.691406 Z M 125.523438 36.765625 " fill-opacity="1" fill-rule="nonzero"/></g><path fill="#578cb5" d="M 80.960938 43.414062 C 79.953125 44.066406 78.953125 44.722656 77.992188 45.367188 C 77.988281 45.371094 77.988281 45.371094 77.988281 45.371094 C 77.988281 45.371094 77.988281 45.371094 77.984375 45.371094 C 77.582031 45.644531 77.472656 46.191406 77.746094 46.59375 C 77.914062 46.847656 78.191406 46.984375 78.476562 46.984375 C 78.644531 46.984375 78.816406 46.9375 78.96875 46.835938 C 79.921875 46.195312 80.914062 45.542969 81.914062 44.894531 C 82.175781 44.726562 82.316406 44.441406 82.316406 44.152344 C 82.316406 43.992188 82.273438 43.824219 82.175781 43.675781 C 81.914062 43.269531 81.367188 43.148438 80.960938 43.414062 Z M 80.960938 43.414062 " fill-opacity="1" fill-rule="nonzero"/><path fill="#578cb5" d="M 87.015625 39.675781 C 85.988281 40.285156 84.964844 40.902344 83.96875 41.515625 C 83.699219 41.683594 83.550781 41.972656 83.550781 42.269531 C 83.550781 42.429688 83.59375 42.585938 83.683594 42.730469 C 83.851562 43 84.136719 43.148438 84.433594 43.148438 C 84.59375 43.148438 84.753906 43.105469 84.898438 43.015625 C 85.882812 42.410156 86.898438 41.796875 87.914062 41.195312 C 88.191406 41.03125 88.347656 40.738281 88.347656 40.433594 C 88.347656 40.28125 88.308594 40.128906 88.226562 39.988281 C 87.976562 39.566406 87.4375 39.429688 87.015625 39.675781 Z M 87.015625 39.675781 " fill-opacity="1" fill-rule="nonzero"/><path fill="#578cb5" d="M 93.210938 36.175781 C 92.15625 36.746094 91.105469 37.324219 90.097656 37.894531 C 89.808594 38.058594 89.648438 38.355469 89.648438 38.664062 C 89.648438 38.808594 89.683594 38.960938 89.761719 39.097656 C 89.925781 39.382812 90.222656 39.546875 90.53125 39.546875 C 90.675781 39.546875 90.828125 39.507812 90.964844 39.433594 C 91.964844 38.867188 93 38.292969 94.050781 37.726562 C 94.34375 37.566406 94.511719 37.265625 94.511719 36.949219 C 94.511719 36.808594 94.476562 36.664062 94.40625 36.53125 C 94.175781 36.101562 93.640625 35.945312 93.210938 36.175781 Z M 93.210938 36.175781 " fill-opacity="1" fill-rule="nonzero"/><path fill="#578cb5" d="M 28.199219 49.730469 C 28.609375 48.476562 28.832031 47.222656 28.859375 46 L 28.859375 45.980469 C 28.859375 45.503906 28.476562 45.109375 28 45.101562 C 27.992188 45.101562 27.984375 45.101562 27.980469 45.101562 C 27.5 45.101562 27.109375 45.480469 27.097656 45.960938 C 27.074219 47.007812 26.882812 48.09375 26.527344 49.179688 C 26.496094 49.273438 26.484375 49.363281 26.484375 49.453125 C 26.484375 49.828125 26.71875 50.171875 27.089844 50.292969 C 27.179688 50.324219 27.273438 50.335938 27.363281 50.335938 C 27.734375 50.335938 28.078125 50.101562 28.199219 49.730469 Z M 28.199219 49.730469 " fill-opacity="1" fill-rule="nonzero"/><path fill="#578cb5" d="M 14.179688 52.960938 C 14.054688 52.492188 13.566406 52.214844 13.101562 52.339844 C 12.707031 52.445312 12.445312 52.800781 12.445312 53.1875 C 12.445312 53.265625 12.457031 53.339844 12.476562 53.417969 C 12.476562 53.421875 12.480469 53.425781 12.480469 53.429688 C 12.792969 54.605469 13.226562 55.765625 13.765625 56.875 C 13.769531 56.878906 13.769531 56.882812 13.769531 56.886719 C 13.773438 56.886719 13.773438 56.886719 13.773438 56.886719 C 13.925781 57.203125 14.238281 57.382812 14.566406 57.382812 C 14.695312 57.382812 14.828125 57.355469 14.953125 57.292969 C 15.390625 57.082031 15.574219 56.554688 15.359375 56.117188 C 14.867188 55.097656 14.472656 54.042969 14.1875 52.972656 C 14.179688 52.972656 14.179688 52.96875 14.179688 52.960938 Z M 14.179688 52.960938 " fill-opacity="1" fill-rule="nonzero"/><path fill="#578cb5" d="M 13.644531 43.597656 C 13.765625 43.65625 13.894531 43.683594 14.019531 43.683594 C 14.351562 43.683594 14.667969 43.496094 14.820312 43.179688 C 15.296875 42.171875 15.925781 41.25 16.640625 40.511719 C 16.644531 40.507812 16.644531 40.507812 16.648438 40.503906 C 16.984375 40.15625 16.976562 39.597656 16.628906 39.257812 C 16.28125 38.921875 15.722656 38.925781 15.382812 39.277344 C 15.378906 39.28125 15.375 39.28125 15.371094 39.285156 C 14.527344 40.15625 13.785156 41.238281 13.230469 42.417969 C 13.226562 42.417969 13.226562 42.421875 13.226562 42.421875 C 13.167969 42.542969 13.140625 42.675781 13.140625 42.800781 C 13.140625 43.128906 13.328125 43.445312 13.644531 43.597656 Z M 13.644531 43.597656 " fill-opacity="1" fill-rule="nonzero"/><g clip-path="url(#48076c596e)"><path fill="#578cb5" d="M 3.765625 69.78125 C 3.761719 69.785156 3.753906 69.785156 3.753906 69.789062 C 2.730469 70.347656 1.691406 70.890625 0.660156 71.398438 C 0.660156 71.398438 0.65625 71.402344 0.65625 71.402344 C 0.21875 71.617188 0.0390625 72.144531 0.257812 72.582031 C 0.410156 72.890625 0.722656 73.070312 1.046875 73.070312 C 1.179688 73.070312 1.308594 73.042969 1.4375 72.980469 C 2.488281 72.460938 3.554688 71.90625 4.613281 71.328125 C 5.039062 71.09375 5.195312 70.558594 4.960938 70.128906 C 4.726562 69.703125 4.191406 69.546875 3.765625 69.78125 Z M 3.765625 69.78125 " fill-opacity="1" fill-rule="nonzero"/></g><path fill="#578cb5" d="M 18.945312 38.847656 C 19.039062 38.847656 19.136719 38.832031 19.230469 38.796875 C 19.667969 38.648438 20.121094 38.554688 20.582031 38.527344 C 21.082031 38.492188 21.648438 38.542969 22.195312 38.6875 C 22.195312 38.6875 22.199219 38.691406 22.199219 38.691406 C 22.199219 38.691406 22.203125 38.691406 22.203125 38.691406 C 22.675781 38.816406 23.152344 38.539062 23.28125 38.066406 C 23.40625 37.597656 23.128906 37.117188 22.65625 36.988281 C 21.9375 36.792969 21.191406 36.71875 20.464844 36.765625 C 19.851562 36.808594 19.242188 36.929688 18.65625 37.132812 C 18.292969 37.261719 18.0625 37.601562 18.0625 37.96875 C 18.0625 38.0625 18.078125 38.160156 18.113281 38.253906 C 18.238281 38.617188 18.578125 38.847656 18.945312 38.847656 Z M 18.945312 38.847656 " fill-opacity="1" fill-rule="nonzero"/><path fill="#578cb5" d="M 24.863281 40.222656 C 25.636719 40.957031 26.234375 41.851562 26.59375 42.8125 C 26.726562 43.167969 27.058594 43.386719 27.417969 43.386719 C 27.519531 43.386719 27.625 43.367188 27.726562 43.332031 C 28.082031 43.199219 28.296875 42.859375 28.296875 42.503906 C 28.296875 42.402344 28.28125 42.296875 28.242188 42.195312 C 27.789062 40.984375 27.039062 39.855469 26.074219 38.945312 C 25.722656 38.609375 25.164062 38.625 24.828125 38.976562 C 24.496094 39.328125 24.507812 39.886719 24.863281 40.222656 Z M 24.863281 40.222656 " fill-opacity="1" fill-rule="nonzero"/><path fill="#578cb5" d="M 9.753906 66.148438 C 8.773438 66.804688 7.78125 67.4375 6.800781 68.03125 C 6.527344 68.195312 6.375 68.488281 6.375 68.785156 C 6.375 68.941406 6.414062 69.101562 6.503906 69.242188 C 6.667969 69.515625 6.960938 69.667969 7.257812 69.667969 C 7.414062 69.667969 7.570312 69.625 7.714844 69.539062 C 8.714844 68.933594 9.730469 68.285156 10.734375 67.617188 C 10.988281 67.449219 11.125 67.167969 11.125 66.882812 C 11.125 66.714844 11.078125 66.546875 10.976562 66.394531 C 10.703125 65.988281 10.15625 65.878906 9.753906 66.148438 Z M 9.753906 66.148438 " fill-opacity="1" fill-rule="nonzero"/><path fill="#578cb5" d="M 12.816406 50.582031 C 13.300781 50.554688 13.671875 50.140625 13.648438 49.65625 C 13.632812 49.386719 13.625 49.105469 13.625 48.824219 L 13.625 48.8125 C 13.625 47.976562 13.695312 47.144531 13.839844 46.332031 C 13.839844 46.332031 13.839844 46.332031 13.839844 46.328125 C 13.925781 45.847656 13.605469 45.390625 13.125 45.304688 C 12.644531 45.222656 12.191406 45.542969 12.105469 46.019531 C 11.945312 46.929688 11.863281 47.867188 11.863281 48.8125 L 11.863281 48.824219 C 11.863281 49.136719 11.871094 49.449219 11.886719 49.75 L 11.886719 49.753906 C 11.914062 50.222656 12.304688 50.585938 12.765625 50.585938 C 12.78125 50.582031 12.800781 50.582031 12.816406 50.582031 Z M 12.816406 50.582031 " fill-opacity="1" fill-rule="nonzero"/><path fill="#578cb5" d="M 25.035156 65.164062 C 23.980469 64.707031 22.972656 64.171875 22.035156 63.574219 C 21.621094 63.3125 21.078125 63.429688 20.816406 63.84375 C 20.722656 63.988281 20.679688 64.152344 20.679688 64.316406 C 20.675781 64.605469 20.820312 64.890625 21.085938 65.058594 C 22.105469 65.707031 23.195312 66.289062 24.335938 66.78125 C 24.449219 66.832031 24.566406 66.855469 24.683594 66.855469 C 25.027344 66.855469 25.351562 66.65625 25.492188 66.324219 C 25.542969 66.210938 25.566406 66.089844 25.566406 65.976562 C 25.566406 65.632812 25.367188 65.308594 25.035156 65.164062 Z M 25.035156 65.164062 " fill-opacity="1" fill-rule="nonzero"/><path fill="#578cb5" d="M 26.316406 51.898438 C 25.902344 51.640625 25.359375 51.769531 25.101562 52.183594 C 24.546875 53.082031 23.878906 53.972656 23.066406 54.902344 C 22.921875 55.070312 22.851562 55.277344 22.851562 55.484375 C 22.851562 55.730469 22.953125 55.972656 23.152344 56.148438 C 23.320312 56.292969 23.527344 56.363281 23.730469 56.363281 C 23.976562 56.363281 24.222656 56.261719 24.398438 56.0625 C 25.273438 55.058594 25.992188 54.09375 26.597656 53.113281 C 26.6875 52.96875 26.730469 52.808594 26.730469 52.652344 C 26.734375 52.355469 26.585938 52.066406 26.316406 51.898438 Z M 26.316406 51.898438 " fill-opacity="1" fill-rule="nonzero"/><path fill="#578cb5" d="M 19.039062 61.222656 C 19.113281 61.1875 19.183594 61.140625 19.246094 61.085938 C 19.996094 60.429688 20.75 59.746094 21.484375 59.050781 L 21.890625 58.667969 C 22.070312 58.492188 22.160156 58.261719 22.160156 58.03125 C 22.160156 57.8125 22.078125 57.589844 21.914062 57.421875 C 21.574219 57.070312 21.015625 57.058594 20.664062 57.394531 L 20.273438 57.769531 C 20.273438 57.769531 20.269531 57.769531 20.269531 57.773438 C 19.558594 58.445312 18.832031 59.109375 18.101562 59.746094 C 18.097656 59.75 18.089844 59.753906 18.085938 59.761719 C 18.003906 59.832031 17.941406 59.914062 17.890625 60 C 17.617188 59.679688 17.355469 59.347656 17.101562 59.007812 C 16.8125 58.617188 16.261719 58.535156 15.867188 58.824219 C 15.636719 58.996094 15.511719 59.261719 15.511719 59.53125 C 15.511719 59.714844 15.570312 59.898438 15.683594 60.054688 C 16.425781 61.058594 17.253906 61.984375 18.15625 62.8125 C 18.324219 62.96875 18.539062 63.046875 18.753906 63.046875 C 18.992188 63.046875 19.226562 62.953125 19.398438 62.761719 C 19.554688 62.59375 19.632812 62.378906 19.632812 62.164062 C 19.632812 61.929688 19.539062 61.691406 19.347656 61.515625 C 19.246094 61.421875 19.140625 61.320312 19.039062 61.222656 Z M 19.039062 61.222656 " fill-opacity="1" fill-rule="nonzero"/><path fill="#578cb5" d="M 15.402344 62.007812 C 14.492188 62.742188 13.554688 63.457031 12.621094 64.140625 C 12.386719 64.316406 12.261719 64.582031 12.261719 64.851562 C 12.261719 65.035156 12.316406 65.214844 12.433594 65.375 C 12.605469 65.609375 12.875 65.734375 13.144531 65.734375 C 13.328125 65.734375 13.507812 65.679688 13.667969 65.5625 C 14.617188 64.863281 15.574219 64.128906 16.507812 63.386719 C 16.726562 63.210938 16.839844 62.957031 16.839844 62.695312 C 16.839844 62.503906 16.773438 62.308594 16.644531 62.144531 C 16.339844 61.769531 15.785156 61.703125 15.402344 62.007812 Z M 15.402344 62.007812 " fill-opacity="1" fill-rule="nonzero"/><path fill="#578cb5" d="M 31.609375 66.96875 C 30.46875 66.816406 29.339844 66.585938 28.253906 66.292969 C 27.789062 66.167969 27.300781 66.441406 27.171875 66.914062 C 27.152344 66.988281 27.140625 67.066406 27.140625 67.144531 C 27.140625 67.53125 27.398438 67.886719 27.789062 67.996094 C 28.949219 68.3125 30.15625 68.554688 31.375 68.71875 C 31.414062 68.722656 31.453125 68.726562 31.492188 68.726562 C 31.925781 68.726562 32.304688 68.402344 32.363281 67.960938 C 32.367188 67.921875 32.371094 67.882812 32.371094 67.84375 C 32.375 67.40625 32.050781 67.027344 31.609375 66.96875 Z M 31.609375 66.96875 " fill-opacity="1" fill-rule="nonzero"/></svg>