<svg xmlns="http://www.w3.org/2000/svg" xmlns:xlink="http://www.w3.org/1999/xlink" width="300" zoomAndPan="magnify" viewBox="0 0 224.87999 60" height="80" preserveAspectRatio="xMidYMid meet" version="1.0"><defs><clipPath id="e760be75c6"><path d="M 0 3 L 224.761719 3 L 224.761719 53 L 0 53 Z M 0 3 " clip-rule="nonzero"/></clipPath><clipPath id="e67f62bc6f"><path d="M 227.851562 37.769531 L 21.101562 104.925781 L 0.257812 40.761719 L 207.011719 -26.394531 Z M 227.851562 37.769531 " clip-rule="nonzero"/></clipPath><clipPath id="8efbe9610f"><path d="M 207.085938 -26.160156 L 0.335938 40.996094 L 21.175781 105.160156 L 227.929688 38.003906 Z M 207.085938 -26.160156 " clip-rule="nonzero"/></clipPath></defs><g clip-path="url(#e760be75c6)"><g clip-path="url(#e67f62bc6f)"><g clip-path="url(#8efbe9610f)"><path fill="#578cb5" d="M 201.355469 26.367188 C 199.242188 28.003906 197.296875 29.570312 195.273438 31.050781 C 193.25 32.53125 191.914062 34.566406 190.679688 36.664062 C 189.800781 38.152344 189.863281 39.714844 190.953125 41.121094 C 191.667969 42.046875 192.417969 42.992188 193.265625 43.792969 C 196.367188 46.714844 199.984375 46.824219 203.507812 44.503906 C 208.105469 41.492188 209.011719 39.011719 207.875 32.535156 C 207.636719 31.171875 207.042969 29.875 206.539062 28.328125 C 207.449219 28.15625 208.359375 27.878906 209.289062 27.816406 C 212.921875 27.539062 216.484375 27.632812 219.9375 29.140625 C 221.132812 29.65625 222.59375 29.65625 223.929688 29.730469 C 224.816406 29.773438 224.945312 29.382812 224.40625 28.65625 C 223.058594 26.796875 221.121094 25.414062 218.910156 24.753906 C 214.160156 23.300781 209.394531 22.773438 204.59375 24.585938 C 204.328125 24.6875 203.789062 24.546875 203.605469 24.320312 C 199.082031 19.074219 193.546875 15.246094 187.480469 11.941406 C 180.566406 8.167969 172.957031 5.808594 165.109375 5.011719 C 158.289062 4.296875 151.347656 3.414062 144.496094 4.121094 C 133.980469 5.207031 124 8.289062 114.585938 13.203125 C 104.773438 18.304688 95.433594 24.175781 86.019531 29.925781 C 79.78125 33.742188 73.546875 37.621094 66.726562 40.28125 C 61.484375 42.332031 56.066406 43.996094 50.652344 45.566406 C 46.339844 46.824219 41.953125 47.851562 37.523438 48.65625 C 32.214844 49.621094 26.851562 49.015625 21.527344 48.625 C 14.605469 48.132812 8.359375 45.835938 2.929688 41.453125 C 2.351562 40.992188 1.746094 40.539062 1.0625 41.125 C 0.382812 41.710938 0.71875 42.453125 1.082031 43.035156 C 2.125 44.785156 3.625 46.230469 5.417969 47.21875 C 10.457031 49.953125 15.699219 52.039062 21.507812 52.417969 C 27.175781 52.792969 32.839844 53.457031 38.5 52.488281 C 42.160156 51.855469 45.820312 51.078125 49.421875 50.113281 C 54.722656 48.679688 60.027344 47.210938 65.226562 45.410156 C 72.902344 42.757812 79.839844 38.554688 86.785156 34.429688 C 94.550781 29.847656 102.171875 24.980469 109.992188 20.476562 C 116.410156 16.773438 122.992188 13.324219 130.1875 11.238281 C 135.257812 9.78125 140.355469 7.96875 145.621094 7.9375 C 156.441406 7.875 167.378906 7.460938 177.828125 11.050781 C 186.105469 13.894531 193.730469 17.960938 199.792969 24.484375 C 200.347656 25.0625 200.8125 25.71875 201.355469 26.367188 Z M 203.574219 29.972656 C 204.875 32.082031 205.105469 34.257812 205.117188 36.488281 C 205.117188 39.40625 203.164062 41.828125 200.195312 42.648438 C 197.621094 43.359375 195.671875 42.425781 194 39.671875 C 193.976562 39.648438 193.933594 39.613281 193.941406 39.582031 C 193.960938 39.113281 193.804688 38.53125 194.027344 38.191406 C 196.359375 34.546875 199.828125 32.203125 203.574219 29.972656 Z M 203.574219 29.972656 " fill-opacity="1" fill-rule="nonzero"/></g></g></g></svg>