<svg xmlns="http://www.w3.org/2000/svg" xmlns:xlink="http://www.w3.org/1999/xlink" width="400" zoomAndPan="magnify" viewBox="0 0 300 89.999999" height="120" preserveAspectRatio="xMidYMid meet" version="1.0"><defs><clipPath id="eccc1bf8f6"><path d="M 1 1 L 300 1 L 300 89 L 1 89 Z M 1 1 " clip-rule="nonzero"/></clipPath><clipPath id="bb846b9923"><path d="M -5.433594 50.09375 L 302.515625 -0.0195312 L 311.066406 52.539062 L 3.121094 102.652344 Z M -5.433594 50.09375 " clip-rule="nonzero"/></clipPath><clipPath id="984dd2a97b"><path d="M -5.433594 50.09375 L 302.515625 -0.0195312 L 311.066406 52.539062 L 3.121094 102.652344 Z M -5.433594 50.09375 " clip-rule="nonzero"/></clipPath><clipPath id="e5b25ce9f4"><path d="M -4.851562 50 L 302.113281 0.046875 L 310.777344 53.269531 L 3.8125 103.222656 Z M -4.851562 50 " clip-rule="nonzero"/></clipPath><clipPath id="0acab9e07d"><path d="M -4.851562 50 L 301.785156 0.0976562 L 310.347656 52.722656 L 3.714844 102.625 Z M -4.851562 50 " clip-rule="nonzero"/></clipPath></defs><g clip-path="url(#eccc1bf8f6)"><g clip-path="url(#bb846b9923)"><g clip-path="url(#984dd2a97b)"><g clip-path="url(#e5b25ce9f4)"><g clip-path="url(#0acab9e07d)"><path fill="#578cb5" d="M 206.84375 56.203125 C 207.210938 56.140625 207.566406 56.054688 207.917969 55.957031 C 208.308594 55.835938 208.6875 55.695312 209.0625 55.539062 C 209.480469 55.347656 209.890625 55.132812 210.285156 54.898438 C 210.660156 54.664062 211.019531 54.410156 211.371094 54.140625 C 211.761719 53.824219 212.136719 53.484375 212.488281 53.125 C 212.855469 52.738281 213.195312 52.328125 213.519531 51.90625 C 213.886719 51.394531 214.226562 50.867188 214.535156 50.320312 C 214.796875 49.832031 215.027344 49.332031 215.230469 48.816406 C 215.417969 48.308594 215.578125 47.796875 215.710938 47.273438 C 215.847656 46.664062 215.949219 46.054688 216.023438 45.433594 C 216.023438 45.394531 216.027344 45.355469 216.035156 45.3125 C 216.03125 45.316406 216.03125 45.316406 216.03125 45.320312 C 216.089844 44.648438 216.109375 43.972656 216.097656 43.300781 C 216.066406 42.621094 216.003906 41.949219 215.90625 41.277344 C 215.832031 40.855469 215.742188 40.4375 215.640625 40.023438 C 214.441406 40.570312 213.273438 41.164062 212.144531 41.839844 C 211.328125 42.339844 210.542969 42.882812 209.789062 43.472656 C 209.085938 44.039062 208.40625 44.640625 207.773438 45.292969 C 207.292969 45.796875 206.84375 46.332031 206.421875 46.886719 C 205.972656 47.511719 205.5625 48.160156 205.1875 48.835938 C 204.8125 49.53125 204.472656 50.242188 204.1875 50.980469 C 204.019531 51.4375 203.871094 51.902344 203.753906 52.378906 C 203.6875 52.675781 203.636719 52.976562 203.601562 53.28125 C 203.582031 53.507812 203.574219 53.738281 203.578125 53.96875 C 203.589844 54.144531 203.605469 54.324219 203.628906 54.5 C 203.652344 54.621094 203.679688 54.742188 203.710938 54.859375 C 203.746094 54.960938 203.78125 55.0625 203.820312 55.164062 C 203.855469 55.234375 203.890625 55.300781 203.929688 55.371094 C 203.972656 55.4375 204.019531 55.503906 204.066406 55.570312 C 204.113281 55.621094 204.160156 55.671875 204.210938 55.726562 C 204.261719 55.769531 204.316406 55.820312 204.371094 55.863281 C 204.441406 55.910156 204.511719 55.957031 204.582031 56 C 204.660156 56.035156 204.734375 56.070312 204.808594 56.101562 C 204.914062 56.140625 205.019531 56.167969 205.125 56.195312 C 205.253906 56.222656 205.378906 56.246094 205.503906 56.261719 C 205.699219 56.277344 205.890625 56.28125 206.082031 56.277344 C 206.339844 56.265625 206.59375 56.238281 206.84375 56.203125 Z M 137.882812 79.625 C 135.835938 79.046875 134.039062 77.6875 132.882812 75.910156 C 132.367188 75.117188 132.136719 74.179688 132.070312 73.246094 C 132.035156 72.714844 132.027344 72.171875 132.105469 71.644531 C 132.1875 71.078125 132.324219 70.527344 132.503906 69.980469 C 132.878906 68.796875 133.484375 67.714844 134.140625 66.667969 C 134.863281 65.527344 135.679688 64.441406 136.519531 63.386719 C 138.292969 61.167969 140.234375 59.097656 142.183594 57.035156 C 144.054688 55.058594 145.9375 53.089844 147.574219 50.917969 C 148.140625 50.136719 148.664062 49.335938 149.136719 48.496094 C 149.429688 47.941406 149.699219 47.375 149.929688 46.796875 C 149.929688 46.804688 149.925781 46.8125 149.921875 46.820312 C 149.925781 46.808594 149.929688 46.796875 149.933594 46.789062 C 149.945312 46.75 149.960938 46.714844 149.976562 46.679688 C 149.964844 46.707031 149.953125 46.738281 149.941406 46.765625 C 150.125 46.277344 150.28125 45.78125 150.414062 45.277344 C 150.519531 44.832031 150.601562 44.382812 150.660156 43.929688 C 150.699219 43.5 150.714844 43.074219 150.710938 42.644531 C 150.695312 42.304688 150.667969 41.960938 150.625 41.625 C 150.5625 41.289062 150.488281 40.957031 150.394531 40.625 C 150.285156 40.28125 150.164062 39.949219 150.027344 39.617188 C 149.878906 39.292969 149.71875 38.972656 149.542969 38.660156 C 149.410156 38.449219 149.273438 38.246094 149.128906 38.042969 C 148.980469 37.863281 148.828125 37.695312 148.664062 37.527344 C 148.480469 37.367188 148.296875 37.210938 148.101562 37.066406 C 147.792969 36.855469 147.476562 36.65625 147.15625 36.472656 C 146.730469 36.246094 146.296875 36.042969 145.851562 35.859375 C 145.257812 35.636719 144.65625 35.449219 144.039062 35.296875 C 143.359375 35.148438 142.675781 35.035156 141.980469 34.957031 C 141.042969 34.871094 140.105469 34.84375 139.164062 34.859375 C 137.9375 34.910156 136.722656 35.03125 135.507812 35.210938 C 133.769531 35.5 132.058594 35.902344 130.367188 36.398438 C 128.265625 37.046875 126.214844 37.828125 124.195312 38.703125 C 121.59375 39.859375 119.023438 41.109375 116.574219 42.566406 C 110.945312 46.050781 105.75 50.1875 100.570312 54.296875 C 100.59375 54.277344 100.617188 54.257812 100.644531 54.238281 C 100.554688 54.308594 100.46875 54.375 100.382812 54.445312 C 100.382812 54.445312 100.382812 54.445312 100.386719 54.445312 C 99.867188 54.855469 99.347656 55.269531 98.828125 55.683594 C 98.566406 55.890625 98.304688 56.097656 98.042969 56.308594 C 98.039062 56.308594 98.035156 56.3125 98.03125 56.3125 C 97.996094 56.347656 97.960938 56.375 97.921875 56.402344 C 97.898438 56.417969 97.878906 56.433594 97.855469 56.453125 C 97.832031 56.472656 97.804688 56.496094 97.777344 56.515625 C 97.773438 56.519531 97.769531 56.523438 97.761719 56.527344 C 97.734375 56.554688 97.703125 56.578125 97.671875 56.601562 C 97.40625 56.8125 97.140625 57.023438 96.871094 57.234375 C 95.722656 58.144531 94.566406 59.054688 93.40625 59.957031 C 92.304688 60.808594 91.1875 61.636719 90.066406 62.457031 C 88.945312 63.28125 87.816406 64.089844 86.65625 64.851562 C 84.234375 66.441406 81.761719 67.953125 79.242188 69.382812 C 77.816406 70.191406 76.378906 70.972656 74.929688 71.746094 C 73.5 72.507812 72.039062 73.210938 70.570312 73.894531 C 67.628906 75.257812 64.652344 76.523438 61.609375 77.632812 C 58.761719 78.675781 55.898438 79.664062 53.003906 80.585938 C 49.921875 81.558594 46.820312 82.496094 43.691406 83.3125 C 40.707031 84.09375 37.699219 84.824219 34.6875 85.496094 C 31.753906 86.148438 28.773438 86.597656 25.808594 87.0625 C 24.238281 87.308594 22.671875 87.550781 21.09375 87.742188 C 19.519531 87.933594 17.941406 88.074219 16.359375 88.195312 C 15.582031 88.253906 14.800781 88.304688 14.019531 88.347656 C 13.65625 88.375 13.289062 88.386719 12.929688 88.402344 C 12.761719 88.410156 12.59375 88.417969 12.433594 88.421875 C 12.324219 88.421875 12.21875 88.429688 12.117188 88.429688 C 12.035156 88.433594 11.953125 88.433594 11.871094 88.4375 C 10.507812 88.480469 9.144531 88.472656 7.78125 88.464844 C 6.507812 88.460938 5.226562 88.441406 3.957031 88.3125 C 3.285156 88.246094 2.582031 88.183594 1.945312 87.945312 C 1.917969 87.9375 1.890625 87.925781 1.867188 87.914062 C 1.84375 87.910156 1.824219 87.898438 1.804688 87.890625 C 1.304688 87.675781 1.054688 87.066406 1.214844 86.558594 C 1.382812 86.007812 2.03125 85.613281 2.59375 85.824219 C 2.707031 85.871094 2.824219 85.902344 2.941406 85.933594 C 3.359375 86.019531 3.777344 86.070312 4.203125 86.113281 C 5.417969 86.222656 6.636719 86.246094 7.859375 86.25 C 9.199219 86.257812 10.539062 86.265625 11.878906 86.226562 C 12.078125 86.21875 12.273438 86.214844 12.46875 86.210938 C 12.433594 86.210938 12.398438 86.210938 12.367188 86.210938 C 14.730469 86.113281 17.105469 85.957031 19.460938 85.703125 C 21.921875 85.433594 24.363281 85.054688 26.808594 84.664062 C 26.761719 84.671875 26.71875 84.679688 26.667969 84.6875 C 28.359375 84.414062 30.050781 84.140625 31.730469 83.832031 C 33.511719 83.503906 35.277344 83.105469 37.035156 82.683594 C 40.625 81.828125 44.199219 80.925781 47.738281 79.882812 C 47.691406 79.898438 47.648438 79.910156 47.601562 79.925781 C 50.773438 78.976562 53.933594 77.988281 57.0625 76.90625 C 58.609375 76.371094 60.152344 75.8125 61.6875 75.242188 C 63.410156 74.609375 65.101562 73.902344 66.78125 73.171875 C 66.773438 73.175781 66.765625 73.179688 66.757812 73.183594 C 69.261719 72.078125 71.738281 70.933594 74.15625 69.648438 C 76.476562 68.414062 78.773438 67.128906 81.027344 65.777344 C 80.988281 65.800781 80.949219 65.824219 80.90625 65.851562 C 83.3125 64.394531 85.683594 62.890625 87.964844 61.246094 C 90.289062 59.570312 92.554688 57.824219 94.800781 56.050781 C 95.320312 55.644531 95.835938 55.234375 96.355469 54.820312 C 96.453125 54.738281 96.558594 54.664062 96.660156 54.582031 C 96.683594 54.558594 96.707031 54.542969 96.734375 54.523438 C 96.90625 54.382812 97.082031 54.246094 97.257812 54.105469 C 97.867188 53.621094 98.480469 53.132812 99.089844 52.648438 C 99.066406 52.667969 99.042969 52.6875 99.019531 52.707031 C 103.636719 49.039062 108.265625 45.371094 113.1875 42.105469 C 114.441406 41.277344 115.714844 40.480469 117.03125 39.75 C 118.257812 39.070312 119.519531 38.453125 120.78125 37.839844 C 123.308594 36.609375 125.902344 35.542969 128.5625 34.648438 C 131.367188 33.703125 134.277344 33.0625 137.21875 32.765625 C 139.925781 32.488281 142.691406 32.621094 145.316406 33.34375 C 146.597656 33.691406 147.847656 34.253906 148.960938 34.976562 C 149.457031 35.292969 149.921875 35.65625 150.339844 36.074219 C 150.796875 36.527344 151.1875 37.058594 151.5 37.621094 C 152.101562 38.695312 152.558594 39.859375 152.773438 41.074219 C 152.984375 42.277344 152.976562 43.515625 152.785156 44.71875 C 152.140625 48.804688 149.574219 52.214844 146.886719 55.222656 C 145.285156 57.011719 143.609375 58.730469 141.976562 60.488281 C 140.308594 62.289062 138.691406 64.140625 137.222656 66.105469 C 136.546875 67.03125 135.90625 67.980469 135.335938 68.976562 C 135.144531 69.347656 134.96875 69.71875 134.808594 70.105469 C 134.644531 70.542969 134.503906 70.988281 134.386719 71.441406 C 134.351562 71.621094 134.320312 71.804688 134.292969 71.988281 C 134.273438 72.242188 134.261719 72.492188 134.261719 72.746094 C 134.277344 73.042969 134.304688 73.328125 134.34375 73.625 C 134.371094 73.757812 134.398438 73.890625 134.4375 74.027344 C 134.472656 74.136719 134.511719 74.246094 134.554688 74.355469 C 134.613281 74.472656 134.675781 74.585938 134.738281 74.703125 C 134.855469 74.878906 134.976562 75.050781 135.105469 75.214844 C 135.296875 75.445312 135.496094 75.667969 135.703125 75.878906 C 135.914062 76.074219 136.132812 76.261719 136.359375 76.433594 C 136.625 76.625 136.898438 76.796875 137.183594 76.957031 C 137.445312 77.09375 137.714844 77.214844 137.988281 77.332031 C 138.261719 77.429688 138.539062 77.511719 138.820312 77.582031 C 139.21875 77.667969 139.617188 77.730469 140.023438 77.777344 C 140.527344 77.820312 141.03125 77.835938 141.542969 77.828125 C 142.191406 77.796875 142.832031 77.730469 143.476562 77.636719 C 144.261719 77.5 145.03125 77.320312 145.796875 77.109375 C 146.863281 76.789062 147.90625 76.402344 148.929688 75.960938 C 150.277344 75.355469 151.578125 74.667969 152.847656 73.910156 C 152.808594 73.933594 152.765625 73.957031 152.726562 73.984375 C 154.359375 72.988281 155.921875 71.894531 157.421875 70.707031 C 157.382812 70.738281 157.347656 70.765625 157.308594 70.796875 C 158.757812 69.628906 160.128906 68.375 161.429688 67.042969 C 163.199219 65.1875 164.828125 63.210938 166.425781 61.207031 C 167.8125 59.46875 169.191406 57.722656 170.582031 55.988281 C 171.984375 54.253906 173.402344 52.53125 174.859375 50.84375 C 176.328125 49.140625 177.855469 47.488281 179.417969 45.871094 C 179.410156 45.878906 179.40625 45.882812 179.402344 45.890625 C 181.136719 44.097656 182.921875 42.355469 184.746094 40.652344 C 186.648438 38.878906 188.59375 37.136719 190.628906 35.523438 C 193.148438 33.515625 195.894531 31.808594 198.90625 30.644531 C 200.230469 30.128906 201.632812 29.773438 203.042969 29.582031 C 204.324219 29.402344 205.609375 29.402344 206.894531 29.542969 C 208.75 29.746094 210.539062 30.417969 212.128906 31.371094 C 213.695312 32.304688 215.015625 33.667969 215.980469 35.207031 C 216.347656 35.800781 216.671875 36.414062 216.953125 37.050781 C 217.269531 36.921875 217.585938 36.796875 217.902344 36.671875 C 219.632812 35.992188 221.398438 35.40625 223.203125 34.957031 C 224.761719 34.574219 226.347656 34.300781 227.925781 33.980469 C 229.929688 33.570312 231.917969 33.09375 233.882812 32.523438 C 233.839844 32.535156 233.792969 32.550781 233.75 32.566406 C 236 31.894531 238.199219 31.085938 240.351562 30.140625 C 242.972656 28.96875 245.507812 27.628906 247.972656 26.15625 C 247.933594 26.179688 247.890625 26.203125 247.851562 26.230469 C 251.191406 24.207031 254.347656 21.917969 257.410156 19.496094 C 257.398438 19.503906 257.382812 19.515625 257.371094 19.527344 C 259.796875 17.59375 262.167969 15.582031 264.621094 13.683594 C 265.796875 12.773438 266.996094 11.890625 268.230469 11.054688 C 269.421875 10.25 270.652344 9.503906 271.902344 8.792969 C 274.242188 7.460938 276.679688 6.296875 279.164062 5.25 C 281.261719 4.367188 283.402344 3.578125 285.589844 2.941406 C 288.132812 2.199219 290.765625 1.820312 293.417969 1.917969 C 296.210938 2.019531 298.96875 2.5625 301.675781 3.230469 C 302.265625 3.375 302.578125 4.0625 302.410156 4.613281 C 302.324219 4.898438 302.125 5.136719 301.863281 5.273438 C 301.59375 5.410156 301.3125 5.417969 301.027344 5.347656 C 300.789062 5.289062 300.554688 5.234375 300.3125 5.175781 C 300.363281 5.1875 300.410156 5.199219 300.457031 5.210938 C 298.6875 4.792969 296.90625 4.457031 295.097656 4.257812 C 295.132812 4.257812 295.164062 4.261719 295.199219 4.265625 C 295.160156 4.261719 295.125 4.257812 295.089844 4.253906 C 295.078125 4.253906 295.066406 4.25 295.054688 4.25 C 295.066406 4.25 295.078125 4.253906 295.089844 4.253906 C 294.011719 4.152344 292.929688 4.101562 291.84375 4.125 C 290.980469 4.164062 290.125 4.242188 289.273438 4.371094 C 288.113281 4.566406 286.96875 4.84375 285.839844 5.171875 C 285.867188 5.164062 285.898438 5.152344 285.929688 5.144531 C 283.546875 5.859375 281.226562 6.757812 278.949219 7.75 C 278.992188 7.730469 279.035156 7.710938 279.078125 7.691406 C 276.597656 8.785156 274.175781 10.007812 271.84375 11.386719 C 269.425781 12.84375 267.148438 14.5 264.933594 16.25 C 262.507812 18.179688 260.140625 20.179688 257.695312 22.082031 C 255.195312 24.035156 252.613281 25.886719 249.914062 27.558594 C 247.25 29.210938 244.484375 30.699219 241.632812 31.992188 C 238.839844 33.261719 235.949219 34.269531 232.988281 35.074219 C 230.894531 35.644531 228.769531 36.078125 226.644531 36.496094 C 225.152344 36.789062 223.664062 37.097656 222.203125 37.519531 C 220.675781 37.980469 219.171875 38.53125 217.695312 39.136719 C 218.28125 41.246094 218.441406 43.476562 218.222656 45.65625 C 218.113281 46.664062 217.921875 47.648438 217.636719 48.621094 C 217.359375 49.578125 216.953125 50.5 216.476562 51.375 C 215.609375 52.972656 214.457031 54.453125 213.058594 55.621094 C 211.875 56.609375 210.539062 57.382812 209.089844 57.902344 C 208.449219 58.132812 207.789062 58.292969 207.121094 58.398438 C 206.550781 58.488281 205.960938 58.53125 205.382812 58.472656 C 204.261719 58.359375 203.179688 57.941406 202.433594 57.066406 C 201.65625 56.152344 201.371094 54.976562 201.363281 53.796875 C 201.351562 52.414062 201.769531 51.066406 202.277344 49.792969 C 202.5625 49.078125 202.910156 48.390625 203.28125 47.714844 C 203.660156 47.027344 204.074219 46.355469 204.535156 45.722656 C 206.636719 42.84375 209.535156 40.640625 212.675781 39 C 213.410156 38.617188 214.160156 38.257812 214.917969 37.917969 C 214.910156 37.898438 214.902344 37.882812 214.894531 37.863281 C 214.6875 37.410156 214.457031 36.972656 214.203125 36.542969 C 213.980469 36.1875 213.746094 35.847656 213.492188 35.511719 C 213.234375 35.191406 212.960938 34.882812 212.667969 34.585938 C 212.324219 34.261719 211.96875 33.960938 211.589844 33.671875 C 211.246094 33.433594 210.890625 33.207031 210.527344 32.996094 C 210.074219 32.757812 209.617188 32.546875 209.144531 32.363281 C 208.734375 32.214844 208.324219 32.085938 207.902344 31.976562 C 207.378906 31.859375 206.855469 31.765625 206.324219 31.703125 C 205.765625 31.660156 205.210938 31.644531 204.65625 31.65625 C 204.054688 31.6875 203.464844 31.75 202.875 31.839844 C 202.234375 31.957031 201.605469 32.109375 200.980469 32.285156 C 200.1875 32.527344 199.414062 32.8125 198.652344 33.136719 C 197.628906 33.597656 196.644531 34.117188 195.675781 34.683594 C 195.703125 34.664062 195.734375 34.648438 195.761719 34.632812 C 194.535156 35.375 193.367188 36.191406 192.238281 37.070312 C 190.246094 38.652344 188.339844 40.339844 186.476562 42.070312 C 184.632812 43.78125 182.832031 45.539062 181.078125 47.339844 C 180.996094 47.421875 180.917969 47.503906 180.835938 47.585938 C 180.84375 47.582031 180.847656 47.578125 180.847656 47.574219 C 179.136719 49.351562 177.480469 51.179688 175.878906 53.054688 C 174.238281 54.980469 172.652344 56.945312 171.074219 58.917969 C 169.535156 60.847656 168.015625 62.796875 166.449219 64.703125 C 164.417969 67.179688 162.234375 69.542969 159.789062 71.617188 C 157.542969 73.53125 155.109375 75.234375 152.519531 76.652344 C 150.140625 77.957031 147.601562 79.027344 144.945312 79.609375 C 144.574219 79.6875 144.203125 79.761719 143.828125 79.824219 C 141.855469 80.144531 139.804688 80.167969 137.882812 79.625 " fill-opacity="1" fill-rule="nonzero"/></g></g></g></g></g></svg>