<svg xmlns="http://www.w3.org/2000/svg" xmlns:xlink="http://www.w3.org/1999/xlink" width="400" zoomAndPan="magnify" viewBox="0 0 300 239.999995" height="320" preserveAspectRatio="xMidYMid meet" version="1.0"><defs><clipPath id="d0be7d7839"><path d="M 83.039062 46.808594 L 227.789062 46.808594 L 227.789062 191.558594 L 83.039062 191.558594 Z M 83.039062 46.808594 " clip-rule="nonzero"/></clipPath></defs><path fill="#ffc0cb" d="M 266.375 20.324219 C 272.0625 25.34375 277.046875 31.691406 281.113281 39.613281 C 307.351562 90.726562 307.792969 188.605469 245.816406 215.027344 C 219.472656 226.257812 187.445312 230.9375 159.378906 236.070312 C 117.3125 243.757812 82.792969 237.316406 53.023438 204.21875 C 29.410156 177.957031 5.007812 143.007812 3.617188 106.425781 C 2.863281 86.570312 10.355469 65.648438 26.339844 53.851562 C 39.507812 44.132812 56.429688 41.621094 72.402344 38.066406 C 126.902344 25.9375 215.585938 -24.519531 266.375 20.324219 " fill-opacity="1" fill-rule="nonzero"/><g clip-path="url(#d0be7d7839)"><path fill="#ffffff" d="M 125.011719 46.808594 C 101.894531 46.808594 83.039062 65.667969 83.039062 88.78125 L 83.039062 149.480469 C 83.039062 172.550781 101.894531 191.40625 125.011719 191.40625 L 185.707031 191.40625 C 208.777344 191.40625 227.636719 172.550781 227.636719 149.4375 L 227.636719 88.78125 C 227.636719 65.667969 208.777344 46.808594 185.664062 46.808594 Z M 125.011719 57.933594 L 185.664062 57.933594 C 202.78125 57.933594 216.511719 71.664062 216.511719 88.78125 L 216.511719 149.4375 C 216.511719 166.554688 202.78125 180.285156 185.707031 180.285156 L 125.011719 180.285156 C 107.890625 180.285156 94.160156 166.554688 94.160156 149.480469 L 94.160156 88.78125 C 94.160156 71.664062 107.890625 57.933594 125.011719 57.933594 Z M 199.828125 69.054688 C 196.742188 69.054688 194.265625 71.53125 194.265625 74.617188 C 194.265625 77.703125 196.742188 80.179688 199.828125 80.179688 C 202.914062 80.179688 205.390625 77.703125 205.390625 74.617188 C 205.390625 71.53125 202.914062 69.054688 199.828125 69.054688 Z M 155.335938 80.179688 C 133.917969 80.179688 116.40625 97.6875 116.40625 119.109375 C 116.40625 140.527344 133.917969 158.039062 155.335938 158.039062 C 176.757812 158.039062 194.265625 140.527344 194.265625 119.109375 C 194.265625 97.6875 176.757812 80.179688 155.335938 80.179688 Z M 155.335938 91.300781 C 170.761719 91.300781 183.144531 103.683594 183.144531 119.109375 C 183.144531 134.53125 170.761719 146.914062 155.335938 146.914062 C 139.914062 146.914062 127.53125 134.53125 127.53125 119.109375 C 127.53125 103.683594 139.914062 91.300781 155.335938 91.300781 Z M 155.335938 91.300781 " fill-opacity="1" fill-rule="nonzero"/></g></svg>