<svg xmlns="http://www.w3.org/2000/svg" xmlns:xlink="http://www.w3.org/1999/xlink" width="300" zoomAndPan="magnify" viewBox="0 0 224.87999 187.499995" height="250" preserveAspectRatio="xMidYMid meet" version="1.0"><defs><clipPath id="23060f5d41"><path d="M 108 26.222656 L 176 26.222656 L 176 114 L 108 114 Z M 108 26.222656 " clip-rule="nonzero"/></clipPath><clipPath id="e379dcc7d5"><path d="M 98.28125 101 L 186.546875 101 L 186.546875 128.699219 L 98.28125 128.699219 Z M 98.28125 101 " clip-rule="nonzero"/></clipPath></defs><path fill="#ffc0cb" d="M 34.082031 40.09375 C 27.722656 40.082031 20.945312 39.582031 15.460938 43.039062 C 7.203125 48.242188 5.292969 60.683594 8.191406 70.480469 C 11.09375 80.273438 17.578125 88.269531 23.128906 96.644531 C 28.679688 105.015625 33.589844 114.808594 32.5625 125.027344 C 31.890625 131.707031 28.703125 137.9375 28.453125 144.652344 C 28.105469 153.871094 33.46875 162.46875 40.390625 167.941406 C 47.3125 173.410156 55.664062 176.304688 63.851562 179.109375 C 75.042969 182.945312 86.894531 186.820312 98.34375 184.015625 C 117.925781 179.222656 130.148438 156.570312 149.570312 151.070312 C 162.691406 147.355469 176.976562 152.167969 190.023438 148.152344 C 204.082031 143.824219 214.203125 129.40625 216.910156 113.980469 C 219.617188 98.558594 215.808594 82.46875 209.097656 68.523438 C 202.382812 54.578125 192.902344 42.425781 183.503906 30.398438 C 175.664062 20.367188 167.28125 9.917969 155.804688 5.472656 C 142.074219 0.152344 126.460938 4.148438 113.226562 9.289062 C 104.480469 12.691406 97.289062 19.152344 89.394531 24.226562 C 80.929688 29.664062 71.324219 33.613281 61.796875 36.277344 C 52.761719 38.800781 43.421875 40.113281 34.082031 40.09375 " fill-opacity="1" fill-rule="nonzero"/><g clip-path="url(#23060f5d41)"><path fill="#ffffff" d="M 140.828125 112.917969 C 141.253906 113.277344 141.777344 113.457031 142.300781 113.457031 C 142.824219 113.457031 143.347656 113.28125 143.773438 112.917969 C 145.085938 111.8125 175.882812 85.5 175.882812 59.804688 C 175.882812 41.289062 160.820312 26.222656 142.300781 26.222656 C 123.785156 26.222656 108.722656 41.289062 108.722656 59.804688 C 108.722656 85.5 139.519531 111.8125 140.828125 112.917969 Z M 142.300781 30.789062 C 158.304688 30.789062 171.320312 43.804688 171.320312 59.804688 C 171.320312 80.34375 148.398438 102.578125 142.300781 108.125 C 136.203125 102.578125 113.285156 80.34375 113.285156 59.804688 C 113.285156 43.804688 126.300781 30.789062 142.300781 30.789062 Z M 142.300781 30.789062 " fill-opacity="1" fill-rule="nonzero"/></g><path fill="#ffffff" d="M 158.84375 59.054688 C 158.84375 49.933594 151.421875 42.515625 142.300781 42.515625 C 133.183594 42.515625 125.761719 49.933594 125.761719 59.054688 C 125.761719 68.175781 133.183594 75.59375 142.300781 75.59375 C 151.421875 75.59375 158.84375 68.175781 158.84375 59.054688 Z M 130.324219 59.054688 C 130.324219 52.449219 135.699219 47.078125 142.300781 47.078125 C 148.90625 47.078125 154.28125 52.449219 154.28125 59.054688 C 154.28125 65.660156 148.90625 71.03125 142.300781 71.03125 C 135.699219 71.03125 130.324219 65.660156 130.324219 59.054688 Z M 130.324219 59.054688 " fill-opacity="1" fill-rule="nonzero"/><g clip-path="url(#e379dcc7d5)"><path fill="#ffffff" d="M 160.792969 101.460938 C 159.542969 101.277344 158.394531 102.15625 158.21875 103.40625 C 158.046875 104.652344 158.917969 105.804688 160.164062 105.976562 C 175.855469 108.160156 181.699219 112.398438 181.699219 114.558594 C 181.699219 118.542969 166.355469 124.324219 142.308594 124.324219 C 118.253906 124.324219 102.902344 118.542969 102.902344 114.558594 C 102.902344 112.40625 108.753906 108.171875 124.453125 105.976562 C 125.699219 105.804688 126.570312 104.652344 126.394531 103.402344 C 126.222656 102.15625 125.066406 101.273438 123.820312 101.460938 C 116.160156 102.527344 98.339844 105.949219 98.339844 114.558594 C 98.339844 123.964844 120.457031 128.886719 142.308594 128.886719 C 164.152344 128.886719 186.261719 123.964844 186.261719 114.558594 C 186.261719 105.929688 168.453125 102.523438 160.792969 101.460938 Z M 160.792969 101.460938 " fill-opacity="1" fill-rule="nonzero"/></g></svg>