<svg xmlns="http://www.w3.org/2000/svg" xmlns:xlink="http://www.w3.org/1999/xlink" width="400" zoomAndPan="magnify" viewBox="0 0 300 239.999995" height="320" preserveAspectRatio="xMidYMid meet" version="1.0"><defs><clipPath id="7aacd10df8"><path d="M 72.179688 60.128906 L 240 60.128906 L 240 180 L 72.179688 180 Z M 72.179688 60.128906 " clip-rule="nonzero"/></clipPath></defs><path fill="#578cb5" d="M 265.082031 219.402344 C 270.667969 214.472656 275.5625 208.238281 279.554688 200.460938 C 305.316406 150.277344 305.746094 54.175781 244.894531 28.230469 C 219.03125 17.207031 187.585938 12.609375 160.027344 7.570312 C 118.722656 0.0234375 84.832031 6.34375 55.601562 38.84375 C 32.414062 64.628906 8.453125 98.945312 7.089844 134.863281 C 6.347656 154.359375 13.703125 174.898438 29.398438 186.484375 C 42.328125 196.023438 58.945312 198.492188 74.625 201.980469 C 128.140625 213.890625 215.214844 263.429688 265.082031 219.402344 " fill-opacity="1" fill-rule="nonzero"/><g clip-path="url(#7aacd10df8)"><path fill="#ffffff" d="M 90.203125 60.128906 C 80.285156 60.128906 72.246094 68.15625 72.246094 78.089844 C 72.46875 105.324219 72.246094 134.148438 72.246094 161.898438 C 72.246094 171.457031 79.679688 179.195312 89.082031 179.765625 L 222.65625 179.859375 C 232.234375 179.472656 239.867188 171.582031 239.867188 161.898438 L 239.867188 75.003906 C 238.414062 66.535156 231.0625 60.128906 222.1875 60.128906 C 178.21875 60.148438 134.191406 60.128906 90.203125 60.128906 Z M 89.921875 69.578125 L 222.75 69.578125 L 158.488281 133.839844 C 157.316406 135.011719 155.449219 135.011719 154.277344 133.839844 Z M 230.886719 74.160156 L 230.886719 161.246094 C 230.886719 166.433594 229.019531 169.363281 225.277344 170.414062 L 180.003906 125.046875 Z M 82.253906 74.535156 L 132.300781 124.578125 L 86.558594 170.316406 C 83.425781 169.261719 82.335938 166.742188 82.257812 163.300781 L 82.257812 74.535156 Z M 138.660156 130.84375 L 154.28125 146.558594 C 155.453125 147.730469 157.316406 147.730469 158.492188 146.558594 L 173.644531 131.40625 L 213.117188 170.878906 L 98.625 170.878906 Z M 138.660156 130.84375 " fill-opacity="1" fill-rule="nonzero"/></g></svg>