<svg xmlns="http://www.w3.org/2000/svg" xmlns:xlink="http://www.w3.org/1999/xlink" width="400" zoomAndPan="magnify" viewBox="0 0 300 299.999988" height="400" preserveAspectRatio="xMidYMid meet" version="1.0"><path fill="#ffc0cb" d="M 61.476562 3.890625 C 85.992188 0.390625 108.949219 16.34375 126.847656 33.851562 C 144.746094 50.972656 161.476562 71.207031 185.214844 79.378906 C 201.945312 85.214844 220.230469 84.046875 237.742188 85.601562 C 255.25 87.160156 274.316406 92.21875 285.214844 106.226562 C 296.886719 121.402344 295.71875 143.191406 286.378906 159.921875 C 277.042969 176.652344 261.089844 188.328125 244.355469 197.277344 C 227.625 206.226562 209.726562 212.839844 192.996094 221.789062 C 170.816406 233.851562 149.804688 251.363281 124.511719 252.527344 C 102.722656 253.695312 82.488281 242.023438 63.421875 230.738281 C 45.136719 219.84375 24.902344 206.226562 22.566406 185.601562 C 20.621094 170.039062 29.570312 155.253906 36.1875 141.246094 C 43.191406 127.238281 48.636719 109.726562 40.464844 96.5 C 29.960938 78.988281 3.113281 70.039062 16.339844 45.523438 C 27.234375 26.460938 38.519531 7.003906 61.476562 3.890625 Z M 215.953125 55.640625 C 235.40625 49.804688 227.234375 11.671875 205.835938 17.898438 C 183.65625 24.511719 195.71875 61.480469 215.953125 55.640625 Z M 35.40625 294.164062 C 54.863281 288.328125 46.691406 250.195312 25.289062 256.421875 C 3.113281 263.035156 15.175781 300 35.40625 294.164062 Z M 35.40625 294.164062 " fill-opacity="1" fill-rule="nonzero"/><path fill="#578cb5" d="M 181.710938 261.867188 C 154.472656 261.867188 127.625 251.363281 108.171875 232.296875 C 104.277344 228.40625 100.386719 224.125 96.886719 219.84375 C 90.660156 212.453125 84.046875 204.667969 75.875 199.222656 C 68.480469 194.164062 59.53125 191.050781 51.359375 187.9375 C 49.414062 187.160156 47.859375 186.769531 45.914062 185.992188 C 35.40625 182.101562 24.511719 177.433594 16.730469 168.871094 C 8.171875 159.144531 5.445312 145.914062 10.503906 136.1875 C 10.894531 135.410156 12.0625 135.019531 13.226562 135.410156 C 14.007812 135.796875 14.394531 136.964844 14.007812 138.132812 C 8.949219 147.859375 13.226562 159.53125 19.453125 166.535156 C 26.847656 174.707031 36.964844 178.988281 47.082031 182.878906 C 48.636719 183.65625 50.582031 184.046875 52.527344 184.824219 C 61.089844 187.9375 70.039062 191.050781 77.820312 196.496094 C 86.378906 202.335938 93.382812 210.117188 99.609375 217.898438 C 103.113281 222.179688 106.613281 226.460938 110.503906 229.960938 C 138.910156 257.976562 184.046875 266.535156 220.621094 250.582031 C 226.847656 247.859375 240.855469 240.46875 241.242188 228.015625 C 241.242188 221.402344 237.742188 215.175781 233.460938 208.949219 C 228.792969 201.945312 224.511719 194.550781 225.289062 185.992188 C 226.457031 176.652344 233.851562 170.816406 241.242188 165.371094 C 246.691406 161.089844 252.527344 156.421875 255.25 150.582031 C 260.308594 139.300781 252.527344 125.679688 242.410156 119.066406 C 233.074219 113.230469 221.398438 110.894531 210.503906 108.558594 C 208.558594 108.171875 207.003906 107.78125 205.058594 107.394531 C 192.21875 104.667969 177.820312 100.777344 168.480469 89.882812 C 160.308594 80.15625 158.363281 67.703125 156.417969 55.253906 C 154.863281 44.746094 152.917969 33.464844 147.082031 24.902344 C 135.796875 7.78125 111.671875 4.28125 93.773438 9.726562 C 74.707031 15.5625 58.363281 29.570312 43.96875 43.96875 C 36.964844 50.972656 29.570312 58.753906 25.679688 67.703125 C 22.179688 75.488281 20.621094 86.769531 26.457031 95.332031 C 27.234375 96.109375 26.847656 97.277344 26.070312 98.054688 C 25.289062 98.832031 24.125 98.445312 23.34375 97.664062 C 17.898438 89.105469 17.507812 77.042969 22.179688 66.148438 C 26.457031 56.421875 33.851562 48.636719 41.242188 41.246094 C 56.03125 26.460938 72.371094 12.0625 92.605469 6.226562 C 112.0625 0.390625 138.132812 4.28125 150.582031 22.957031 C 156.808594 32.296875 158.753906 43.96875 160.699219 54.863281 C 162.644531 67.316406 164.589844 78.597656 171.984375 87.546875 C 180.542969 97.664062 194.164062 101.554688 206.222656 103.890625 C 208.171875 104.28125 209.726562 104.667969 211.671875 105.058594 C 222.957031 107.394531 235.019531 109.339844 245.136719 115.953125 C 256.808594 123.347656 265.367188 139.300781 259.53125 152.527344 C 256.417969 159.53125 250.195312 164.203125 244.355469 168.871094 C 237.351562 174.320312 231.128906 179.378906 229.960938 187.160156 C 229.183594 194.164062 233.074219 200.777344 237.351562 207.394531 C 241.632812 214.007812 245.914062 220.621094 245.523438 228.792969 C 245.136719 243.578125 229.570312 252.140625 222.566406 254.863281 C 209.726562 258.753906 195.71875 261.867188 181.710938 261.867188 Z M 226.070312 44.746094 C 237.351562 41.246094 240.464844 28.40625 237.351562 17.898438 C 234.628906 8.171875 226.457031 0 214.785156 3.5 C 208.171875 5.449219 203.5 10.117188 201.945312 16.730469 C 200 24.902344 202.722656 34.628906 208.949219 40.855469 C 212.449219 44.359375 216.339844 45.914062 221.011719 45.914062 C 222.957031 45.136719 224.511719 45.136719 226.070312 44.746094 Z M 233.851562 18.675781 C 236.574219 27.625 234.238281 38.132812 225.289062 40.855469 C 219.453125 42.414062 214.785156 40.078125 212.449219 37.355469 C 207.390625 32.296875 204.667969 23.734375 206.226562 17.121094 C 207.003906 13.617188 209.726562 8.949219 216.339844 7.003906 C 217.898438 6.613281 219.066406 6.226562 220.230469 6.226562 C 227.234375 6.226562 231.90625 12.453125 233.851562 18.675781 Z M 45.523438 282.878906 C 56.808594 279.378906 59.921875 266.535156 56.808594 256.03125 C 54.085938 246.304688 45.914062 238.132812 34.238281 241.632812 C 27.625 243.578125 22.957031 248.25 21.398438 254.863281 C 19.453125 263.035156 22.179688 272.761719 28.402344 278.988281 C 31.90625 282.492188 35.796875 284.046875 40.464844 284.046875 C 42.410156 283.65625 43.96875 283.65625 45.523438 282.878906 Z M 45.136719 281.324219 Z M 53.304688 257.199219 C 56.03125 266.148438 53.695312 276.652344 44.746094 279.378906 C 38.910156 280.933594 34.238281 278.597656 31.90625 275.875 C 26.847656 270.816406 24.125 262.257812 25.679688 255.640625 C 26.457031 252.140625 29.183594 247.472656 35.796875 245.523438 C 37.351562 245.136719 38.519531 244.746094 39.6875 244.746094 C 46.691406 244.746094 51.359375 250.972656 53.304688 257.199219 Z M 53.304688 257.199219 " fill-opacity="1" fill-rule="nonzero"/></svg>