<svg xmlns="http://www.w3.org/2000/svg" xmlns:xlink="http://www.w3.org/1999/xlink" width="400" zoomAndPan="magnify" viewBox="0 0 300 225" height="300" preserveAspectRatio="xMidYMid meet" version="1.0"><defs><clipPath id="17c76a4760"><path d="M 16 2 L 292.957031 2 L 292.957031 225 L 16 225 Z M 16 2 " clip-rule="nonzero"/></clipPath><clipPath id="4ce0a64128"><path d="M 78 55 L 206 55 L 206 187.171875 L 78 187.171875 Z M 78 55 " clip-rule="nonzero"/></clipPath></defs><g clip-path="url(#17c76a4760)"><path fill="#ffc0cb" d="M 46.003906 19.300781 C 40.675781 24.003906 36.007812 29.949219 32.199219 37.367188 C 7.628906 85.238281 7.214844 176.902344 65.261719 201.648438 C 89.929688 212.167969 119.925781 216.550781 146.210938 221.355469 C 185.609375 228.554688 217.9375 222.527344 245.816406 191.527344 C 267.933594 166.933594 290.789062 134.199219 292.089844 99.9375 C 292.796875 81.34375 285.78125 61.75 270.808594 50.699219 C 258.476562 41.601562 242.628906 39.246094 227.671875 35.917969 C 176.625 24.558594 93.570312 -22.695312 46.003906 19.300781 " fill-opacity="1" fill-rule="nonzero"/></g><g clip-path="url(#4ce0a64128)"><path fill="#ffffff" d="M 199.707031 172.582031 L 199.734375 172.582031 Z M 99.855469 61.816406 C 98.605469 61.816406 97.425781 62.382812 96.148438 63.503906 C 96.003906 63.640625 94.191406 65.359375 92.984375 66.503906 L 91.890625 67.546875 C 85.75 73.285156 82.964844 83.621094 84.796875 93.886719 C 85.390625 97.207031 86.34375 100.640625 87.632812 104.105469 C 94.136719 121.574219 106.492188 136.769531 115.710938 146.4375 C 124.882812 156.175781 139.398438 169.324219 156.492188 176.753906 C 159.878906 178.226562 163.265625 179.359375 166.546875 180.132812 C 176.703125 182.511719 187.171875 180.28125 193.230469 174.460938 L 194.59375 173.164062 C 195.75 172.070312 197.273438 170.625 197.515625 170.394531 C 201.253906 166.550781 199.363281 163.332031 191.820312 155.65625 L 189.925781 153.714844 C 185.125 148.734375 177.085938 140.398438 170.292969 141.207031 C 168.457031 141.421875 166.53125 142.765625 164.488281 144.191406 C 162.453125 145.613281 160.347656 147.085938 157.8125 147.886719 C 151.019531 150.035156 144.128906 148.625 138.40625 143.910156 C 135 141.097656 131.527344 137.808594 128.367188 134.398438 C 125.1875 131.121094 122.089844 127.480469 119.460938 123.921875 C 115.058594 117.957031 114.015625 110.996094 116.527344 104.332031 C 117.464844 101.84375 119.046875 99.820312 120.578125 97.859375 C 122.109375 95.898438 123.554688 94.046875 123.871094 92.226562 C 125.035156 85.480469 117.144531 77.011719 112.425781 71.953125 L 110.585938 69.953125 C 105.597656 64.496094 102.570312 61.816406 99.855469 61.816406 Z M 174.730469 187.25 C 171.328125 187.25 168.054688 186.839844 165.132812 186.15625 C 161.492188 185.300781 157.753906 184.046875 154.027344 182.425781 C 135.96875 174.578125 120.78125 160.839844 111.21875 150.695312 C 101.613281 140.617188 88.703125 124.71875 81.835938 106.265625 C 80.417969 102.453125 79.363281 98.65625 78.707031 94.96875 C 76.960938 85.207031 78.398438 71.683594 87.664062 63.023438 L 88.726562 62.015625 C 90.019531 60.789062 91.984375 58.925781 92.0625 58.859375 C 101.359375 50.695312 109.660156 59.769531 115.15625 65.777344 L 116.957031 67.734375 C 122.453125 73.632812 131.65625 83.503906 129.964844 93.28125 C 129.386719 96.628906 127.296875 99.304688 125.453125 101.667969 C 124.152344 103.332031 122.925781 104.90625 122.320312 106.511719 C 120.546875 111.214844 121.28125 115.964844 124.441406 120.246094 C 126.90625 123.585938 129.816406 127.007812 132.859375 130.144531 C 135.878906 133.40625 139.144531 136.496094 142.34375 139.132812 C 146.449219 142.515625 151.148438 143.503906 155.945312 141.988281 C 157.578125 141.46875 159.21875 140.328125 160.949219 139.117188 C 163.40625 137.402344 166.1875 135.457031 169.566406 135.058594 C 179.40625 133.871094 188.785156 143.609375 194.378906 149.421875 L 196.230469 151.316406 C 201.941406 157.125 210.5625 165.898438 201.917969 174.746094 L 201.917969 174.742188 C 201.789062 174.867188 200.109375 176.464844 198.847656 177.660156 L 197.519531 178.917969 C 191.140625 185.050781 182.59375 187.25 174.730469 187.25 " fill-opacity="1" fill-rule="nonzero"/></g><path fill="#ffffff" d="M 179.976562 122.816406 C 178.351562 122.816406 176.992188 121.550781 176.894531 119.90625 C 176.398438 111.578125 172.972656 103.65625 167.242188 97.609375 C 161.503906 91.5625 153.777344 87.710938 145.488281 86.773438 C 143.789062 86.582031 142.566406 85.050781 142.761719 83.351562 C 142.953125 81.652344 144.492188 80.433594 146.183594 80.625 C 155.917969 81.730469 164.992188 86.25 171.726562 93.351562 C 178.464844 100.457031 182.492188 109.757812 183.070312 119.542969 C 183.171875 121.246094 181.871094 122.710938 180.164062 122.8125 C 180.101562 122.816406 180.039062 122.816406 179.976562 122.816406 " fill-opacity="1" fill-rule="nonzero"/><path fill="#ffffff" d="M 203.121094 126.320312 C 201.496094 126.320312 200.136719 125.050781 200.039062 123.40625 C 199.144531 108.339844 192.941406 94.015625 182.574219 83.074219 C 172.203125 72.132812 158.230469 65.171875 143.230469 63.476562 C 141.53125 63.285156 140.3125 61.753906 140.503906 60.054688 C 140.695312 58.359375 142.230469 57.128906 143.925781 57.328125 C 160.375 59.1875 175.691406 66.820312 187.0625 78.816406 C 198.433594 90.816406 205.238281 106.519531 206.214844 123.042969 C 206.316406 124.75 205.015625 126.214844 203.308594 126.3125 C 203.246094 126.316406 203.183594 126.320312 203.121094 126.320312 " fill-opacity="1" fill-rule="nonzero"/></svg>