<svg xmlns="http://www.w3.org/2000/svg" xmlns:xlink="http://www.w3.org/1999/xlink" width="210" zoomAndPan="magnify" viewBox="0 0 157.5 262.500001" height="350" preserveAspectRatio="xMidYMid meet" version="1.0"><defs><clipPath id="116c4275fc"><path d="M 1 1 L 150 1 L 150 261.835938 L 1 261.835938 Z M 1 1 " clip-rule="nonzero"/></clipPath><clipPath id="fe176024dd"><path d="M -8.761719 258.683594 L 64.085938 -20.554688 L 150.171875 1.90625 L 77.324219 281.144531 Z M -8.761719 258.683594 " clip-rule="nonzero"/></clipPath><clipPath id="8ed693ae7a"><path d="M 77.515625 281.191406 L 150.363281 1.957031 L 64.277344 -20.503906 L -8.570312 258.734375 Z M 77.515625 281.191406 " clip-rule="nonzero"/></clipPath></defs><g clip-path="url(#116c4275fc)"><g clip-path="url(#fe176024dd)"><g clip-path="url(#8ed693ae7a)"><path fill="#ffc0cb" d="M 22.921875 237.246094 C 22.601562 233.714844 22.242188 230.417969 22.035156 227.097656 C 21.828125 223.78125 20.507812 220.835938 19.050781 217.953125 C 18.015625 215.90625 16.222656 214.863281 13.871094 215.074219 C 12.328125 215.210938 10.738281 215.371094 9.234375 215.746094 C 3.753906 217.125 1.046875 221.085938 1.113281 226.683594 C 1.195312 233.972656 3.320312 236.757812 11.367188 240.117188 C 13.0625 240.828125 14.933594 241.089844 17.023438 241.636719 C 16.5625 242.773438 16.222656 243.988281 15.632812 245.074219 C 13.34375 249.332031 10.691406 253.246094 6.535156 256.023438 C 5.105469 256.992188 4.0625 258.621094 3.023438 260.066406 C 2.339844 261.023438 2.683594 261.445312 3.882812 261.363281 C 6.925781 261.1875 9.855469 260.007812 12.171875 258.011719 C 17.191406 253.742188 21.1875 248.796875 22.59375 242.140625 C 22.671875 241.765625 23.214844 241.265625 23.597656 241.222656 C 32.695312 239.917969 40.929688 236.46875 48.957031 232.058594 C 58.121094 227.03125 66.199219 220.214844 72.695312 212.015625 C 78.371094 204.902344 84.320312 197.78125 88.433594 189.617188 C 94.738281 177.09375 98.429688 163.738281 99.671875 149.707031 C 100.984375 135.09375 101.105469 120.460938 101.410156 105.832031 C 101.605469 96.132812 101.730469 86.394531 103.632812 76.871094 C 105.089844 69.546875 107.105469 62.304688 109.222656 55.132812 C 110.902344 49.414062 112.886719 43.777344 115.15625 38.253906 C 117.875 31.628906 122.382812 26.074219 126.628906 20.40625 C 132.128906 13.019531 139.160156 7.683594 147.941406 4.75 C 148.871094 4.433594 149.808594 4.082031 149.640625 2.902344 C 149.472656 1.722656 148.398438 1.566406 147.492188 1.554688 C 144.789062 1.46875 142.101562 2.109375 139.71875 3.410156 C 133.058594 7.085938 126.980469 11.449219 122.40625 17.671875 C 117.929688 23.734375 113.140625 29.589844 110.171875 36.605469 C 108.265625 41.144531 106.515625 45.792969 105.019531 50.503906 C 102.835938 57.453125 100.683594 64.429688 98.976562 71.527344 C 96.449219 82 96.1875 92.757812 95.828125 103.46875 C 95.398438 115.417969 95.386719 127.417969 94.828125 139.375 C 94.375 149.191406 93.527344 159.011719 90.710938 168.542969 C 88.710938 175.25 87.09375 182.246094 83.363281 188.152344 C 75.695312 200.28125 68.339844 212.800781 56.851562 221.910156 C 47.761719 229.121094 37.765625 234.734375 26.144531 236.847656 C 25.097656 237.050781 24.03125 237.101562 22.921875 237.246094 Z M 17.308594 237.144531 C 14.015625 237.089844 11.421875 235.792969 8.921875 234.214844 C 5.664062 232.125 4.351562 228.207031 5.554688 224.308594 C 6.605469 220.925781 9.042969 219.414062 13.3125 219.515625 C 13.355469 219.503906 13.425781 219.480469 13.457031 219.511719 C 13.964844 219.871094 14.726562 220.109375 14.949219 220.601562 C 17.351562 225.816406 17.492188 231.367188 17.308594 237.144531 Z M 17.308594 237.144531 " fill-opacity="1" fill-rule="nonzero"/></g></g></g></svg>