<svg xmlns="http://www.w3.org/2000/svg" xmlns:xlink="http://www.w3.org/1999/xlink" width="200" zoomAndPan="magnify" viewBox="0 0 150 299.999988" height="400" preserveAspectRatio="xMidYMid meet" version="1.0"><path fill="#ffc0cb" d="M -69.980469 289.820312 C -93.425781 273.5625 -79.828125 235.230469 -88.3125 207.992188 C -95.757812 184.101562 -114.347656 165.027344 -116.617188 140.105469 C -119.347656 110.125 -120.371094 76.949219 -102.453125 52.757812 C -84.097656 27.976562 -51.332031 19.9375 -21.585938 11.800781 C 8.613281 3.539062 40.441406 -4.140625 70.21875 5.519531 C 100.101562 15.214844 132.511719 34.410156 141.167969 64.609375 C 149.972656 95.316406 114.734375 122.238281 112.828125 154.125 C 111.402344 177.980469 134.925781 198.070312 131.773438 221.757812 C 128.113281 249.28125 119.261719 282.261719 94.195312 294.210938 C 68.820312 306.308594 41.210938 279.078125 13.109375 278.324219 C -15.417969 277.5625 -46.53125 306.082031 -69.980469 289.820312 Z M -69.980469 289.820312 " fill-opacity="1" fill-rule="evenodd"/><path fill="#578cb5" d="M -83.3125 289.820312 C -106.753906 273.5625 -93.15625 235.230469 -101.640625 207.992188 C -109.085938 184.101562 -127.675781 165.027344 -129.945312 140.105469 C -132.679688 110.125 -133.699219 76.949219 -115.78125 52.757812 C -97.425781 27.976562 -64.660156 19.9375 -34.914062 11.800781 C -4.714844 3.539062 27.113281 -4.140625 56.890625 5.519531 C 86.769531 15.214844 119.183594 34.410156 127.839844 64.609375 C 136.644531 95.316406 101.40625 122.238281 99.5 154.125 C 98.074219 177.980469 121.59375 198.070312 118.445312 221.757812 C 114.785156 249.28125 105.933594 282.261719 80.867188 294.210938 C 55.492188 306.308594 27.882812 279.078125 -0.21875 278.324219 C -28.746094 277.5625 -59.859375 306.082031 -83.3125 289.820312 Z M -81.484375 286.835938 C -104.414062 270.933594 -91.113281 233.4375 -99.414062 206.792969 C -106.695312 183.425781 -124.882812 164.765625 -127.101562 140.386719 C -129.773438 111.058594 -130.773438 78.609375 -113.246094 54.945312 C -95.289062 30.699219 -63.238281 22.839844 -34.140625 14.878906 C -4.601562 6.796875 26.53125 -0.714844 55.664062 8.734375 C 84.890625 18.21875 116.597656 36.996094 125.066406 66.535156 C 133.679688 96.574219 99.207031 122.90625 97.34375 154.101562 C 95.949219 177.433594 118.957031 197.085938 115.875 220.257812 C 112.292969 247.183594 103.636719 279.441406 79.117188 291.132812 C 54.292969 302.964844 27.289062 276.328125 -0.203125 275.59375 C -28.109375 274.847656 -58.542969 302.746094 -81.484375 286.835938 Z M -81.484375 286.835938 " fill-opacity="1" fill-rule="evenodd"/></svg>