<svg xmlns="http://www.w3.org/2000/svg" xmlns:xlink="http://www.w3.org/1999/xlink" width="200" zoomAndPan="magnify" viewBox="0 0 150 299.999988" height="400" preserveAspectRatio="xMidYMid meet" version="1.0"><defs><clipPath id="fc4914fa1f"><path d="M 0 2 L 150 2 L 150 298 L 0 298 Z M 0 2 " clip-rule="nonzero"/></clipPath><clipPath id="2dd5e00d58"><path d="M -32.117188 275.707031 L 151.792969 -0.101562 L 199.214844 31.523438 L 15.308594 307.332031 Z M -32.117188 275.707031 " clip-rule="nonzero"/></clipPath><clipPath id="9e2080c602"><path d="M -32.117188 275.707031 L 151.792969 -0.101562 L 199.214844 31.523438 L 15.308594 307.332031 Z M -32.117188 275.707031 " clip-rule="nonzero"/></clipPath><clipPath id="1977875ea9"><path d="M -31.757812 275.171875 L 151.550781 0.257812 L 199.21875 32.042969 L 15.90625 306.953125 Z M -31.757812 275.171875 " clip-rule="nonzero"/></clipPath><clipPath id="7c1b547d80"><path d="M -31.757812 275.171875 L 151.355469 0.550781 L 198.484375 31.976562 L 15.371094 306.597656 Z M -31.757812 275.171875 " clip-rule="nonzero"/></clipPath></defs><g clip-path="url(#fc4914fa1f)"><g clip-path="url(#2dd5e00d58)"><g clip-path="url(#9e2080c602)"><g clip-path="url(#1977875ea9)"><g clip-path="url(#7c1b547d80)"><path fill="#ffc0cb" d="M 126.28125 115 C 126.496094 114.671875 126.6875 114.335938 126.867188 113.988281 C 127.054688 113.597656 127.21875 113.203125 127.367188 112.796875 C 127.523438 112.332031 127.652344 111.859375 127.753906 111.382812 C 127.84375 110.921875 127.910156 110.457031 127.953125 109.992188 C 127.988281 109.453125 127.996094 108.921875 127.972656 108.386719 C 127.933594 107.820312 127.863281 107.257812 127.765625 106.699219 C 127.636719 106.046875 127.472656 105.402344 127.269531 104.765625 C 127.078125 104.207031 126.859375 103.664062 126.605469 103.132812 C 126.347656 102.621094 126.0625 102.125 125.75 101.644531 C 125.375 101.097656 124.976562 100.578125 124.546875 100.070312 C 124.519531 100.039062 124.488281 100.007812 124.460938 99.972656 C 124.460938 99.976562 124.460938 99.976562 124.464844 99.980469 C 123.984375 99.449219 123.472656 98.945312 122.941406 98.46875 C 122.390625 98 121.824219 97.5625 121.230469 97.152344 C 120.847656 96.90625 120.457031 96.671875 120.0625 96.453125 C 119.621094 97.777344 119.234375 99.121094 118.945312 100.484375 C 118.742188 101.480469 118.597656 102.484375 118.511719 103.496094 C 118.441406 104.457031 118.417969 105.421875 118.46875 106.382812 C 118.511719 107.125 118.601562 107.859375 118.730469 108.589844 C 118.890625 109.390625 119.097656 110.179688 119.351562 110.960938 C 119.621094 111.753906 119.929688 112.535156 120.292969 113.289062 C 120.527344 113.753906 120.785156 114.203125 121.066406 114.636719 C 121.253906 114.90625 121.449219 115.164062 121.660156 115.410156 C 121.824219 115.589844 121.996094 115.761719 122.179688 115.925781 C 122.324219 116.046875 122.476562 116.160156 122.628906 116.269531 C 122.742188 116.339844 122.851562 116.40625 122.96875 116.46875 C 123.070312 116.515625 123.175781 116.558594 123.285156 116.601562 C 123.363281 116.625 123.441406 116.648438 123.523438 116.667969 C 123.609375 116.683594 123.691406 116.695312 123.777344 116.703125 C 123.851562 116.707031 123.925781 116.707031 124 116.707031 C 124.078125 116.699219 124.152344 116.691406 124.226562 116.679688 C 124.3125 116.660156 124.398438 116.640625 124.484375 116.613281 C 124.570312 116.582031 124.648438 116.546875 124.726562 116.511719 C 124.832031 116.457031 124.933594 116.398438 125.03125 116.332031 C 125.144531 116.253906 125.25 116.171875 125.355469 116.085938 C 125.507812 115.949219 125.648438 115.800781 125.789062 115.648438 C 125.964844 115.441406 126.125 115.222656 126.28125 115 Z M 94.585938 185.59375 C 92.65625 186.765625 90.296875 187.179688 88.078125 186.792969 C 87.085938 186.621094 86.191406 186.121094 85.417969 185.496094 C 84.980469 185.140625 84.550781 184.753906 84.199219 184.3125 C 83.816406 183.835938 83.488281 183.332031 83.191406 182.796875 C 82.542969 181.648438 82.136719 180.394531 81.800781 179.125 C 81.4375 177.738281 81.183594 176.316406 80.96875 174.898438 C 80.527344 171.914062 80.324219 168.90625 80.128906 165.894531 C 79.945312 163.015625 79.777344 160.125 79.273438 157.277344 C 79.074219 156.273438 78.832031 155.285156 78.519531 154.308594 C 78.300781 153.683594 78.054688 153.0625 77.769531 152.464844 C 77.777344 152.46875 77.78125 152.476562 77.78125 152.488281 C 77.777344 152.476562 77.773438 152.464844 77.765625 152.453125 C 77.75 152.417969 77.730469 152.382812 77.714844 152.34375 C 77.726562 152.371094 77.742188 152.402344 77.757812 152.433594 C 77.507812 151.9375 77.238281 151.457031 76.941406 150.988281 C 76.671875 150.582031 76.382812 150.195312 76.070312 149.820312 C 75.765625 149.480469 75.445312 149.15625 75.109375 148.847656 C 74.832031 148.613281 74.546875 148.390625 74.253906 148.179688 C 73.945312 147.984375 73.632812 147.800781 73.308594 147.636719 C 72.964844 147.472656 72.617188 147.324219 72.261719 147.191406 C 71.898438 147.070312 71.535156 146.964844 71.164062 146.875 C 70.902344 146.824219 70.644531 146.785156 70.382812 146.75 C 70.136719 146.734375 69.894531 146.734375 69.644531 146.738281 C 69.386719 146.765625 69.132812 146.796875 68.882812 146.84375 C 68.492188 146.929688 68.113281 147.03125 67.734375 147.148438 C 67.25 147.316406 66.78125 147.503906 66.3125 147.71875 C 65.710938 148.019531 65.128906 148.351562 64.566406 148.722656 C 63.953125 149.144531 63.375 149.59375 62.8125 150.074219 C 62.066406 150.746094 61.367188 151.453125 60.695312 152.199219 C 59.847656 153.1875 59.0625 154.21875 58.324219 155.296875 C 57.289062 156.859375 56.367188 158.480469 55.527344 160.152344 C 54.507812 162.257812 53.632812 164.417969 52.851562 166.621094 C 51.867188 169.480469 50.980469 172.386719 50.339844 175.34375 C 48.976562 182.246094 48.433594 189.28125 47.882812 196.285156 C 47.882812 196.253906 47.886719 196.21875 47.890625 196.183594 C 47.878906 196.300781 47.867188 196.421875 47.863281 196.539062 C 47.863281 196.535156 47.863281 196.535156 47.863281 196.53125 C 47.808594 197.234375 47.753906 197.9375 47.699219 198.644531 C 47.671875 198.996094 47.640625 199.351562 47.617188 199.703125 C 47.613281 199.710938 47.617188 199.714844 47.613281 199.71875 C 47.613281 199.769531 47.609375 199.820312 47.601562 199.867188 C 47.597656 199.894531 47.597656 199.925781 47.59375 199.953125 C 47.589844 199.988281 47.589844 200.023438 47.585938 200.0625 C 47.585938 200.066406 47.585938 200.078125 47.585938 200.082031 C 47.582031 200.125 47.578125 200.164062 47.574219 200.207031 C 47.546875 200.566406 47.519531 200.925781 47.492188 201.285156 C 47.367188 202.839844 47.238281 204.398438 47.097656 205.953125 C 46.964844 207.425781 46.800781 208.894531 46.628906 210.363281 C 46.457031 211.828125 46.265625 213.292969 46.019531 214.746094 C 45.503906 217.777344 44.890625 220.796875 44.179688 223.789062 C 43.773438 225.484375 43.34375 227.171875 42.898438 228.855469 C 42.453125 230.519531 41.945312 232.164062 41.414062 233.800781 C 40.34375 237.074219 39.171875 240.308594 37.835938 243.476562 C 36.585938 246.445312 35.28125 249.390625 33.902344 252.304688 C 32.429688 255.410156 30.914062 258.496094 29.285156 261.523438 C 27.730469 264.414062 26.125 267.28125 24.464844 270.109375 C 22.851562 272.863281 21.042969 275.507812 19.257812 278.148438 C 18.3125 279.546875 17.367188 280.941406 16.375 282.308594 C 15.386719 283.671875 14.351562 284.996094 13.300781 286.316406 C 12.78125 286.964844 12.257812 287.609375 11.726562 288.25 C 11.480469 288.550781 11.230469 288.84375 10.976562 289.136719 C 10.863281 289.269531 10.75 289.40625 10.632812 289.535156 C 10.558594 289.621094 10.488281 289.707031 10.410156 289.785156 C 10.355469 289.851562 10.296875 289.917969 10.238281 289.984375 C 9.285156 291.074219 8.292969 292.128906 7.300781 293.183594 C 6.375 294.171875 5.433594 295.15625 4.417969 296.046875 C 3.875 296.523438 3.320312 297.023438 2.671875 297.347656 C 2.648438 297.359375 2.621094 297.375 2.59375 297.386719 C 2.570312 297.398438 2.546875 297.40625 2.527344 297.417969 C 2 297.652344 1.34375 297.402344 1.066406 296.914062 C 0.757812 296.382812 0.921875 295.59375 1.496094 295.308594 C 1.613281 295.25 1.71875 295.1875 1.828125 295.117188 C 2.199219 294.855469 2.542969 294.5625 2.882812 294.265625 C 3.847656 293.398438 4.746094 292.464844 5.636719 291.519531 C 6.609375 290.484375 7.585938 289.445312 8.527344 288.375 C 8.664062 288.21875 8.800781 288.0625 8.9375 287.90625 C 8.914062 287.933594 8.890625 287.960938 8.867188 287.988281 C 10.503906 286.078125 12.097656 284.117188 13.605469 282.101562 C 15.175781 279.992188 16.652344 277.816406 18.117188 275.632812 C 18.089844 275.675781 18.0625 275.714844 18.035156 275.757812 C 19.042969 274.246094 20.054688 272.734375 21.03125 271.203125 C 22.066406 269.582031 23.035156 267.917969 23.980469 266.246094 C 25.910156 262.835938 27.796875 259.402344 29.546875 255.894531 C 29.523438 255.941406 29.5 255.984375 29.480469 256.03125 C 31.035156 252.875 32.554688 249.707031 33.980469 246.488281 C 34.679688 244.894531 35.363281 243.292969 36.03125 241.6875 C 36.785156 239.890625 37.460938 238.0625 38.105469 236.226562 C 38.105469 236.234375 38.101562 236.242188 38.097656 236.253906 C 39.050781 233.507812 39.957031 230.75 40.703125 227.941406 C 41.425781 225.242188 42.085938 222.523438 42.667969 219.789062 C 42.65625 219.839844 42.648438 219.886719 42.636719 219.9375 C 43.246094 217.015625 43.792969 214.082031 44.164062 211.117188 C 44.542969 208.097656 44.824219 205.070312 45.074219 202.039062 C 45.128906 201.339844 45.183594 200.640625 45.238281 199.941406 C 45.246094 199.808594 45.261719 199.667969 45.273438 199.53125 C 45.273438 199.496094 45.277344 199.464844 45.28125 199.429688 C 45.296875 199.195312 45.316406 198.957031 45.335938 198.722656 C 45.398438 197.894531 45.464844 197.070312 45.527344 196.242188 C 45.527344 196.273438 45.523438 196.308594 45.523438 196.339844 C 46.011719 190.09375 46.507812 183.835938 47.53125 177.648438 C 47.792969 176.070312 48.09375 174.503906 48.484375 172.953125 C 48.839844 171.503906 49.273438 170.078125 49.710938 168.652344 C 50.582031 165.796875 51.628906 163.007812 52.859375 160.289062 C 54.152344 157.425781 55.761719 154.695312 57.65625 152.195312 C 59.402344 149.886719 61.507812 147.835938 63.96875 146.3125 C 65.167969 145.570312 66.507812 145.003906 67.875 144.660156 C 68.484375 144.507812 69.101562 144.40625 69.730469 144.382812 C 70.410156 144.355469 71.109375 144.4375 71.773438 144.601562 C 73.042969 144.910156 74.277344 145.398438 75.378906 146.109375 C 76.46875 146.816406 77.425781 147.71875 78.222656 148.738281 C 80.933594 152.195312 81.730469 156.664062 82.121094 160.929688 C 82.355469 163.46875 82.480469 166.015625 82.664062 168.558594 C 82.855469 171.160156 83.128906 173.757812 83.59375 176.320312 C 83.824219 177.519531 84.097656 178.703125 84.464844 179.867188 C 84.609375 180.285156 84.773438 180.691406 84.957031 181.09375 C 85.179688 181.539062 85.421875 181.96875 85.691406 182.390625 C 85.804688 182.546875 85.925781 182.703125 86.046875 182.855469 C 86.230469 183.058594 86.417969 183.246094 86.617188 183.429688 C 86.855469 183.632812 87.101562 183.820312 87.359375 184.003906 C 87.480469 184.078125 87.605469 184.152344 87.738281 184.222656 C 87.851562 184.273438 87.964844 184.320312 88.082031 184.367188 C 88.214844 184.40625 88.347656 184.441406 88.484375 184.476562 C 88.707031 184.511719 88.925781 184.539062 89.148438 184.5625 C 89.464844 184.578125 89.78125 184.585938 90.097656 184.578125 C 90.402344 184.554688 90.703125 184.519531 91.003906 184.46875 C 91.34375 184.398438 91.675781 184.308594 92.003906 184.207031 C 92.304688 184.101562 92.59375 183.980469 92.878906 183.851562 C 93.152344 183.707031 93.417969 183.554688 93.675781 183.386719 C 94.03125 183.136719 94.371094 182.871094 94.699219 182.59375 C 95.097656 182.230469 95.472656 181.847656 95.835938 181.445312 C 96.285156 180.917969 96.699219 180.371094 97.089844 179.804688 C 97.550781 179.09375 97.96875 178.367188 98.359375 177.617188 C 98.882812 176.558594 99.335938 175.464844 99.730469 174.347656 C 100.238281 172.863281 100.644531 171.351562 100.972656 169.816406 C 100.960938 169.867188 100.953125 169.914062 100.941406 169.964844 C 101.351562 167.972656 101.632812 165.96875 101.792969 163.941406 C 101.789062 163.992188 101.785156 164.042969 101.78125 164.09375 C 101.921875 162.121094 101.9375 160.148438 101.84375 158.175781 C 101.679688 155.453125 101.320312 152.757812 100.921875 150.0625 C 100.574219 147.726562 100.207031 145.390625 99.867188 143.050781 C 99.53125 140.707031 99.21875 138.355469 98.960938 136 C 98.703125 133.628906 98.523438 131.246094 98.394531 128.859375 C 98.394531 128.867188 98.398438 128.875 98.398438 128.882812 C 98.257812 126.238281 98.195312 123.585938 98.191406 120.933594 C 98.1875 118.171875 98.242188 115.398438 98.457031 112.648438 C 98.722656 109.234375 99.382812 105.863281 100.65625 102.679688 C 101.214844 101.277344 101.953125 99.925781 102.820312 98.695312 C 103.609375 97.566406 104.539062 96.566406 105.582031 95.667969 C 107.082031 94.375 108.898438 93.46875 110.789062 92.917969 C 112.648438 92.378906 114.667969 92.335938 116.5625 92.703125 C 117.289062 92.84375 118.003906 93.035156 118.699219 93.277344 C 118.828125 92.941406 118.960938 92.601562 119.09375 92.265625 C 119.816406 90.429688 120.636719 88.632812 121.59375 86.902344 C 122.425781 85.410156 123.363281 83.980469 124.25 82.523438 C 125.386719 80.667969 126.453125 78.777344 127.433594 76.835938 C 127.410156 76.878906 127.390625 76.921875 127.367188 76.96875 C 128.476562 74.734375 129.4375 72.4375 130.261719 70.082031 C 131.246094 67.191406 132.039062 64.25 132.675781 61.265625 C 132.664062 61.316406 132.652344 61.363281 132.644531 61.414062 C 133.488281 57.351562 133.996094 53.242188 134.324219 49.105469 C 134.324219 49.121094 134.324219 49.140625 134.320312 49.160156 C 134.574219 45.871094 134.726562 42.574219 135.023438 39.289062 C 135.167969 37.714844 135.351562 36.144531 135.59375 34.582031 C 135.828125 33.074219 136.140625 31.578125 136.488281 30.089844 C 137.148438 27.304688 138.007812 24.5625 138.992188 21.878906 C 139.824219 19.605469 140.757812 17.371094 141.84375 15.207031 C 143.109375 12.691406 144.71875 10.371094 146.714844 8.378906 C 148.816406 6.277344 151.234375 4.527344 153.714844 2.902344 C 154.25 2.550781 155.015625 2.804688 155.320312 3.335938 C 155.476562 3.605469 155.519531 3.9375 155.4375 4.238281 C 155.351562 4.546875 155.152344 4.769531 154.890625 4.941406 C 154.671875 5.085938 154.457031 5.226562 154.242188 5.371094 C 154.285156 5.339844 154.328125 5.3125 154.371094 5.285156 C 152.765625 6.359375 151.214844 7.5 149.75 8.761719 C 149.777344 8.738281 149.804688 8.714844 149.832031 8.691406 C 149.800781 8.714844 149.769531 8.742188 149.742188 8.769531 C 149.734375 8.773438 149.722656 8.785156 149.714844 8.792969 C 149.722656 8.785156 149.730469 8.777344 149.742188 8.769531 C 148.878906 9.53125 148.058594 10.335938 147.292969 11.199219 C 146.699219 11.894531 146.140625 12.621094 145.625 13.375 C 144.933594 14.421875 144.320312 15.511719 143.761719 16.628906 C 143.777344 16.597656 143.789062 16.566406 143.808594 16.535156 C 142.636719 18.90625 141.65625 21.363281 140.78125 23.851562 C 140.796875 23.804688 140.8125 23.757812 140.828125 23.710938 C 139.882812 26.429688 139.082031 29.195312 138.464844 32.011719 C 137.847656 34.945312 137.488281 37.914062 137.246094 40.90625 C 136.992188 44.1875 136.835938 47.476562 136.542969 50.757812 C 136.253906 54.113281 135.824219 57.460938 135.171875 60.769531 C 134.527344 64.039062 133.6875 67.265625 132.628906 70.421875 C 131.59375 73.515625 130.285156 76.492188 128.769531 79.375 C 127.695312 81.417969 126.496094 83.382812 125.28125 85.339844 C 124.429688 86.710938 123.59375 88.089844 122.863281 89.535156 C 122.117188 91.058594 121.457031 92.625 120.859375 94.214844 C 122.921875 95.28125 124.773438 96.773438 126.308594 98.519531 C 127.015625 99.335938 127.644531 100.199219 128.195312 101.121094 C 128.738281 102.03125 129.160156 103.011719 129.496094 104.015625 C 130.113281 105.851562 130.425781 107.816406 130.324219 109.746094 C 130.238281 111.382812 129.875 112.984375 129.226562 114.488281 C 128.941406 115.152344 128.589844 115.78125 128.1875 116.375 C 127.84375 116.886719 127.449219 117.375 126.988281 117.78125 C 126.089844 118.570312 124.980469 119.113281 123.757812 119.058594 C 122.484375 119 121.363281 118.375 120.441406 117.527344 C 119.359375 116.53125 118.609375 115.234375 117.988281 113.917969 C 117.640625 113.179688 117.355469 112.410156 117.097656 111.632812 C 116.839844 110.839844 116.617188 110.03125 116.457031 109.210938 C 115.738281 105.496094 116.125 101.644531 117.121094 98.019531 C 117.355469 97.167969 117.617188 96.324219 117.898438 95.488281 C 117.878906 95.480469 117.863281 95.476562 117.839844 95.46875 C 117.339844 95.304688 116.832031 95.164062 116.316406 95.046875 C 115.878906 94.964844 115.441406 94.902344 115 94.855469 C 114.5625 94.828125 114.125 94.816406 113.679688 94.828125 C 113.179688 94.859375 112.6875 94.917969 112.191406 95.003906 C 111.753906 95.097656 111.324219 95.210938 110.898438 95.34375 C 110.382812 95.523438 109.886719 95.726562 109.402344 95.960938 C 108.992188 96.171875 108.59375 96.398438 108.203125 96.644531 C 107.730469 96.964844 107.28125 97.308594 106.847656 97.679688 C 106.410156 98.078125 105.996094 98.5 105.601562 98.941406 C 105.195312 99.429688 104.816406 99.933594 104.457031 100.460938 C 104.085938 101.042969 103.746094 101.636719 103.429688 102.253906 C 103.046875 103.042969 102.710938 103.851562 102.410156 104.679688 C 102.027344 105.808594 101.71875 106.953125 101.460938 108.113281 C 101.464844 108.082031 101.472656 108.042969 101.480469 108.011719 C 101.171875 109.5 100.960938 111 100.824219 112.515625 C 100.617188 115.210938 100.550781 117.914062 100.546875 120.613281 C 100.542969 123.289062 100.605469 125.960938 100.738281 128.628906 C 100.742188 128.753906 100.75 128.875 100.757812 128.996094 C 100.757812 128.988281 100.757812 128.980469 100.753906 128.976562 C 100.898438 131.59375 101.121094 134.207031 101.421875 136.808594 C 101.730469 139.476562 102.109375 142.136719 102.503906 144.789062 C 102.890625 147.386719 103.304688 149.976562 103.65625 152.578125 C 104.113281 155.949219 104.367188 159.355469 104.214844 162.757812 C 104.074219 165.890625 103.640625 169.019531 102.867188 172.058594 C 102.160156 174.851562 101.15625 177.601562 99.683594 180.089844 C 99.480469 180.433594 99.265625 180.777344 99.042969 181.113281 C 97.863281 182.878906 96.402344 184.492188 94.585938 185.59375 " fill-opacity="1" fill-rule="nonzero"/></g></g></g></g></g></svg>