<svg xmlns="http://www.w3.org/2000/svg" xmlns:xlink="http://www.w3.org/1999/xlink" width="500" zoomAndPan="magnify" viewBox="0 0 375 299.999988" height="400" preserveAspectRatio="xMidYMid meet" version="1.0"><defs><clipPath id="3ea3f891c5"><path d="M 3 0 L 370 0 L 370 300 L 3 300 Z M 3 0 " clip-rule="nonzero"/></clipPath><clipPath id="2d4e389e04"><path d="M 47.851562 -76.988281 L 425.472656 44.722656 L 319.402344 373.804688 L -58.214844 252.089844 Z M 47.851562 -76.988281 " clip-rule="nonzero"/></clipPath><clipPath id="ec672b183a"><path d="M 47.851562 -76.988281 L 425.472656 44.722656 L 319.402344 373.804688 L -58.214844 252.089844 Z M 47.851562 -76.988281 " clip-rule="nonzero"/></clipPath></defs><g clip-path="url(#3ea3f891c5)"><g clip-path="url(#2d4e389e04)"><g clip-path="url(#ec672b183a)"><path fill="#ffc0cb" d="M 75.820312 9.957031 C 64.632812 6.324219 52.976562 1.601562 41.359375 4.570312 C 23.871094 9.046875 13.4375 29.875 12.988281 48.765625 C 12.539062 67.65625 19.417969 85.417969 24.441406 103.3125 C 29.464844 121.203125 32.550781 141.234375 24.9375 158.640625 C 19.964844 170.023438 10.820312 179.1875 6.566406 190.867188 C 0.722656 206.898438 5.285156 225.085938 14.371094 238.648438 C 23.457031 252.207031 36.519531 262.042969 49.339844 271.632812 C 66.867188 284.734375 85.535156 298.285156 107.289062 299.84375 C 144.492188 302.515625 178.867188 269.566406 216.183594 270.90625 C 241.394531 271.8125 263.824219 288.394531 289.070312 288.726562 C 316.28125 289.082031 342.285156 269.441406 355.808594 243.820312 C 369.328125 218.195312 371.753906 187.707031 367.847656 159.34375 C 363.941406 130.976562 354.148438 104.199219 344.421875 77.683594 C 336.3125 55.574219 327.480469 32.414062 309.796875 18.078125 C 288.640625 0.917969 258.882812 -0.910156 232.660156 0.636719 C 215.328125 1.660156 199 8.953125 182.214844 13.40625 C 164.230469 18.179688 145.074219 19.683594 126.785156 18.964844 C 109.441406 18.28125 92.253906 15.289062 75.820312 9.957031 " fill-opacity="1" fill-rule="nonzero"/></g></g></g></svg>