<svg xmlns="http://www.w3.org/2000/svg" xmlns:xlink="http://www.w3.org/1999/xlink" width="400" zoomAndPan="magnify" viewBox="0 0 300 299.999988" height="400" preserveAspectRatio="xMidYMid meet" version="1.0"><defs><clipPath id="6ceb8d27ae"><path d="M 2 10 L 299 10 L 299 292 L 2 292 Z M 2 10 " clip-rule="nonzero"/></clipPath><clipPath id="fabcb0d2a2"><path d="M 285.960938 -15.0625 L 317.207031 266.710938 L 19.78125 299.695312 L -11.46875 17.921875 Z M 285.960938 -15.0625 " clip-rule="nonzero"/></clipPath><clipPath id="fe520de24c"><path d="M 285.960938 -15.0625 L 317.207031 266.710938 L 19.78125 299.695312 L -11.46875 17.921875 Z M 285.960938 -15.0625 " clip-rule="nonzero"/></clipPath></defs><g clip-path="url(#6ceb8d27ae)"><g clip-path="url(#fabcb0d2a2)"><g clip-path="url(#fe520de24c)"><path fill="#578cb5" d="M 10.847656 221.109375 C 10.792969 220.597656 10.734375 220.085938 10.679688 219.574219 C 10.429688 217.339844 10.179688 215.109375 9.929688 212.875 C 9.679688 210.773438 9.90625 208.671875 10.117188 206.589844 C 10.632812 201.511719 11.40625 196.46875 12.574219 191.492188 C 13.359375 188.148438 14.316406 184.851562 15.335938 181.570312 C 17.640625 174.148438 20.371094 166.859375 22.425781 159.359375 C 23.746094 154.550781 24.601562 149.664062 24.773438 144.660156 C 24.855469 142.261719 24.890625 139.871094 24.777344 137.46875 C 24.710938 136.054688 24.726562 134.632812 24.480469 133.238281 C 24.023438 130.625 23.554688 128.015625 22.953125 125.425781 C 22.261719 122.421875 21.445312 119.453125 20.585938 116.496094 C 19.878906 114.0625 19.027344 111.683594 18.132812 109.324219 C 16.492188 104.988281 14.660156 100.726562 12.617188 96.566406 C 10.210938 91.671875 8.035156 86.683594 6.242188 81.53125 C 5.285156 78.777344 4.589844 75.960938 4.011719 73.097656 C 3.289062 69.503906 2.949219 65.867188 2.621094 62.234375 C 2.179688 57.40625 2.71875 52.65625 4.253906 48.03125 C 4.890625 46.113281 5.632812 44.242188 6.414062 42.378906 C 7.164062 40.578125 8.253906 38.984375 9.324219 37.378906 C 10.371094 35.808594 11.492188 34.285156 12.675781 32.808594 C 15.25 29.601562 18.285156 26.882812 21.542969 24.421875 C 26.707031 20.519531 32.34375 17.402344 38.28125 14.84375 C 41.191406 13.589844 44.222656 12.664062 47.34375 12.015625 C 48.394531 11.796875 49.445312 11.589844 50.503906 11.4375 C 52.140625 11.398438 53.714844 10.972656 55.308594 10.664062 C 57.125 10.3125 58.988281 10.695312 60.800781 10.296875 C 63.375 10.128906 65.941406 10.3125 68.503906 10.507812 C 71.625 10.746094 74.742188 11.027344 77.824219 11.644531 C 80.734375 12.226562 83.597656 12.984375 86.421875 13.878906 C 89.128906 14.730469 91.832031 15.605469 94.484375 16.605469 C 99.875 18.644531 105.199219 20.839844 110.46875 23.175781 C 115.261719 25.296875 120.117188 27.289062 124.910156 29.410156 C 129.125 31.273438 133.402344 32.96875 137.753906 34.46875 C 143.328125 36.386719 148.980469 38 154.859375 38.695312 C 157.886719 39.054688 160.914062 39.214844 163.964844 39.203125 C 166.261719 39.191406 168.527344 38.96875 170.765625 38.589844 C 173.167969 38.179688 175.582031 37.789062 177.945312 37.148438 C 180.34375 36.496094 182.796875 36.050781 185.210938 35.472656 C 187.339844 34.96875 189.449219 34.414062 191.566406 33.867188 C 194.140625 33.203125 196.707031 32.519531 199.277344 31.851562 C 201.472656 31.28125 203.667969 30.699219 205.871094 30.160156 C 207.535156 29.75 209.199219 29.3125 210.890625 29.042969 C 214.535156 28.457031 218.148438 27.625 221.828125 27.304688 C 229.667969 26.621094 237.429688 26.992188 245.035156 29.226562 C 249.050781 30.40625 252.898438 32 256.667969 33.800781 C 260.125 35.453125 263.394531 37.410156 266.464844 39.71875 C 270.394531 42.675781 273.878906 46.078125 277.191406 49.695312 C 281.851562 54.789062 285.351562 60.644531 288.488281 66.726562 C 290.90625 71.417969 293.164062 76.199219 294.894531 81.203125 C 295.722656 83.589844 296.4375 86.007812 296.957031 88.492188 C 297.601562 91.5625 298.121094 94.644531 298.460938 97.761719 C 298.742188 100.324219 298.769531 102.894531 298.859375 105.46875 C 298.941406 107.703125 298.847656 109.921875 298.765625 112.148438 C 298.667969 114.773438 298.230469 117.351562 297.652344 119.902344 C 296.835938 123.519531 295.640625 127.019531 294.261719 130.453125 C 293.042969 133.484375 291.710938 136.464844 290.488281 139.492188 C 289.34375 142.324219 288.394531 145.226562 287.378906 148.105469 C 285.714844 152.824219 284.6875 157.6875 283.785156 162.59375 C 283.085938 166.402344 282.886719 170.253906 282.582031 174.097656 C 282.445312 175.824219 282.375 177.617188 283.011719 179.324219 C 283.128906 179.636719 283.125 180 283.164062 180.34375 C 283.417969 182.566406 283.660156 184.789062 283.921875 187.015625 C 284.273438 190 284.339844 193 284.464844 196.003906 C 284.558594 198.316406 284.609375 200.632812 284.597656 202.945312 C 284.578125 206.15625 284.234375 209.355469 283.714844 212.535156 C 283.070312 216.484375 282.214844 220.390625 280.847656 224.152344 C 279.296875 228.4375 277.554688 232.652344 275.136719 236.542969 C 272.308594 241.089844 268.441406 244.542969 263.777344 247.171875 C 260.953125 248.761719 258.03125 250.097656 254.886719 250.859375 C 251.925781 251.578125 248.914062 251.964844 245.839844 252.027344 C 240.609375 252.132812 235.617188 250.933594 230.628906 249.644531 C 225.128906 248.222656 219.550781 247.222656 213.894531 246.75 C 211.855469 246.582031 209.785156 246.539062 207.726562 246.800781 C 205.292969 247.109375 202.839844 247.296875 200.414062 247.652344 C 198.335938 247.953125 196.300781 248.492188 194.257812 248.984375 C 191.507812 249.648438 188.792969 250.441406 186.097656 251.289062 C 182.613281 252.378906 179.148438 253.539062 175.875 255.164062 C 171.683594 257.242188 167.542969 259.433594 163.402344 261.617188 C 161.730469 262.5 160.09375 263.457031 158.488281 264.449219 C 155.488281 266.304688 152.515625 268.203125 149.542969 270.105469 C 146.097656 272.304688 142.691406 274.5625 139.226562 276.726562 C 134.816406 279.476562 130.421875 282.265625 125.65625 284.398438 C 121.578125 286.21875 117.421875 287.855469 113.089844 288.949219 C 110.304688 289.652344 107.484375 290.246094 104.609375 290.496094 C 102.546875 290.722656 100.488281 290.953125 98.425781 291.179688 C 90.554688 291.898438 83.066406 290.402344 75.839844 287.304688 C 71.507812 285.445312 67.585938 282.9375 63.78125 280.191406 C 60.257812 277.652344 56.734375 275.117188 53.441406 272.289062 C 50.929688 270.128906 48.382812 268.015625 45.746094 266.019531 C 42.320312 263.429688 38.839844 260.910156 35.488281 258.222656 C 32.304688 255.664062 29.339844 252.878906 26.519531 249.921875 C 23.667969 246.933594 20.980469 243.8125 18.6875 240.378906 C 15.570312 235.710938 13.15625 230.710938 11.792969 225.234375 C 11.449219 223.867188 11.105469 222.496094 10.847656 221.109375 Z M 10.847656 221.109375 " fill-opacity="1" fill-rule="nonzero"/></g></g></g></svg>