<svg xmlns="http://www.w3.org/2000/svg" xmlns:xlink="http://www.w3.org/1999/xlink" width="380" zoomAndPan="magnify" viewBox="0 0 285 299.999988" height="400" preserveAspectRatio="xMidYMid meet" version="1.0"><defs><clipPath id="2da4c10973"><path d="M 72.136719 54.683594 L 213 54.683594 L 213 245.183594 L 72.136719 245.183594 Z M 72.136719 54.683594 " clip-rule="nonzero"/></clipPath></defs><path fill="#ffc0cb" d="M 219.589844 13.113281 C 242.722656 29.15625 229.304688 66.972656 237.675781 93.84375 C 245.019531 117.417969 263.363281 136.238281 265.605469 160.824219 C 268.296875 190.40625 269.308594 223.132812 251.628906 247.003906 C 233.515625 271.453125 201.191406 279.382812 171.839844 287.414062 C 142.046875 295.5625 110.648438 303.140625 81.265625 293.609375 C 51.785156 284.042969 19.808594 265.105469 11.265625 235.3125 C 2.578125 205.015625 37.347656 178.453125 39.226562 146.992188 C 40.632812 123.457031 17.429688 103.636719 20.535156 80.265625 C 24.148438 53.109375 32.878906 20.574219 57.609375 8.785156 C 82.644531 -3.152344 109.886719 23.714844 137.613281 24.453125 C 165.757812 25.207031 196.453125 -2.929688 219.589844 13.113281 Z M 219.589844 13.113281 " fill-opacity="1" fill-rule="evenodd"/><path fill="#578cb5" d="M 232.742188 13.113281 C 255.871094 29.15625 242.457031 66.972656 250.828125 93.84375 C 258.171875 117.417969 276.515625 136.238281 278.753906 160.824219 C 281.449219 190.40625 282.457031 223.132812 264.777344 247.003906 C 246.667969 271.453125 214.34375 279.382812 184.992188 287.414062 C 155.199219 295.5625 123.796875 303.140625 94.417969 293.609375 C 64.9375 284.042969 32.960938 265.105469 24.417969 235.3125 C 15.730469 205.015625 50.496094 178.453125 52.378906 146.992188 C 53.785156 123.457031 30.578125 103.636719 33.6875 80.265625 C 37.300781 53.109375 46.03125 20.574219 70.761719 8.785156 C 95.796875 -3.152344 123.035156 23.714844 150.761719 24.453125 C 178.910156 25.207031 209.605469 -2.929688 232.742188 13.113281 Z M 230.9375 16.058594 C 253.5625 31.746094 240.441406 68.742188 248.628906 95.027344 C 255.8125 118.085938 273.757812 136.496094 275.949219 160.546875 C 278.582031 189.480469 279.570312 221.5 262.277344 244.847656 C 244.558594 268.765625 212.941406 276.519531 184.230469 284.375 C 155.085938 292.347656 124.367188 299.761719 95.628906 290.4375 C 66.792969 281.078125 35.511719 262.554688 27.15625 233.410156 C 18.65625 203.773438 52.667969 177.792969 54.507812 147.015625 C 55.882812 123.996094 33.183594 104.605469 36.222656 81.746094 C 39.757812 55.179688 48.296875 23.351562 72.488281 11.820312 C 96.980469 0.144531 123.625 26.425781 150.746094 27.148438 C 178.277344 27.886719 208.304688 0.363281 230.9375 16.058594 Z M 230.9375 16.058594 " fill-opacity="1" fill-rule="evenodd"/><g clip-path="url(#2da4c10973)"><path fill="#ffffff" d="M 103.222656 183.257812 L 83.8125 226.464844 C 83.445312 227.289062 83.550781 228.253906 84.097656 228.972656 C 84.644531 229.695312 85.539062 230.0625 86.433594 229.933594 L 106.714844 226.957031 C 106.714844 226.957031 117.960938 244.09375 117.960938 244.09375 C 118.457031 244.851562 119.324219 245.277344 120.226562 245.203125 C 121.128906 245.132812 121.921875 244.574219 122.292969 243.75 L 142.476562 198.8125 L 162.664062 243.75 C 163.035156 244.574219 163.824219 245.132812 164.726562 245.203125 C 165.628906 245.277344 166.5 244.851562 166.996094 244.09375 L 178.242188 226.957031 C 178.242188 226.957031 198.519531 229.933594 198.519531 229.933594 C 199.414062 230.0625 200.3125 229.695312 200.855469 228.972656 C 201.402344 228.253906 201.511719 227.289062 201.140625 226.464844 L 181.730469 183.257812 C 200.449219 170.625 212.769531 149.214844 212.769531 124.953125 C 212.769531 86.160156 181.273438 54.664062 142.476562 54.664062 C 103.683594 54.664062 72.1875 86.160156 72.1875 124.953125 C 72.1875 149.214844 84.503906 170.625 103.222656 183.257812 Z M 177.488281 185.90625 C 168.207031 191.253906 157.589844 194.542969 146.261719 195.144531 L 165.332031 237.59375 L 174.964844 222.917969 C 175.492188 222.109375 176.441406 221.683594 177.394531 221.824219 C 177.394531 221.824219 194.765625 224.371094 194.765625 224.371094 Z M 107.46875 185.90625 L 90.1875 224.371094 L 107.558594 221.824219 C 108.511719 221.683594 109.460938 222.109375 109.992188 222.917969 C 109.992188 222.917969 119.625 237.59375 119.625 237.59375 L 138.691406 195.144531 C 127.367188 194.542969 116.75 191.253906 107.46875 185.90625 Z M 142.476562 59.621094 C 178.535156 59.621094 207.8125 88.894531 207.8125 124.953125 C 207.8125 161.011719 178.535156 190.289062 142.476562 190.289062 C 106.417969 190.289062 77.144531 161.011719 77.144531 124.953125 C 77.144531 88.894531 106.417969 59.621094 142.476562 59.621094 Z M 142.476562 66.488281 C 110.210938 66.488281 84.011719 92.6875 84.011719 124.953125 C 84.011719 157.21875 110.210938 183.417969 142.476562 183.417969 C 174.746094 183.417969 200.941406 157.21875 200.941406 124.953125 C 200.941406 92.6875 174.746094 66.488281 142.476562 66.488281 Z M 142.476562 71.445312 C 172.007812 71.445312 195.984375 95.421875 195.984375 124.953125 C 195.984375 154.484375 172.007812 178.460938 142.476562 178.460938 C 112.945312 178.460938 88.96875 154.484375 88.96875 124.953125 C 88.96875 95.421875 112.945312 71.445312 142.476562 71.445312 Z M 144.730469 84.242188 C 144.328125 83.359375 143.449219 82.792969 142.476562 82.792969 C 141.507812 82.792969 140.625 83.359375 140.222656 84.242188 L 129.691406 107.285156 C 129.691406 107.285156 104.519531 110.183594 104.519531 110.183594 C 103.554688 110.292969 102.746094 110.957031 102.445312 111.878906 C 102.144531 112.800781 102.410156 113.816406 103.125 114.472656 L 121.785156 131.609375 C 121.785156 131.609375 116.765625 156.445312 116.765625 156.445312 C 116.570312 157.394531 116.953125 158.371094 117.738281 158.941406 C 118.519531 159.511719 119.566406 159.570312 120.410156 159.09375 L 142.476562 146.644531 C 142.476562 146.644531 164.542969 159.09375 164.542969 159.09375 C 165.390625 159.570312 166.433594 159.511719 167.21875 158.941406 C 168.003906 158.371094 168.382812 157.394531 168.191406 156.445312 L 163.167969 131.609375 C 163.167969 131.609375 181.828125 114.472656 181.828125 114.472656 C 182.542969 113.816406 182.808594 112.800781 182.507812 111.878906 C 182.210938 110.957031 181.398438 110.292969 180.4375 110.183594 L 155.265625 107.285156 C 155.265625 107.285156 144.730469 84.242188 144.730469 84.242188 Z M 142.476562 91.234375 L 151.339844 110.617188 C 151.699219 111.410156 152.445312 111.953125 153.308594 112.050781 L 174.480469 114.488281 C 174.480469 114.488281 158.785156 128.90625 158.785156 128.90625 C 158.144531 129.492188 157.859375 130.371094 158.03125 131.222656 L 162.257812 152.113281 C 162.257812 152.113281 143.695312 141.636719 143.695312 141.636719 C 142.941406 141.210938 142.015625 141.210938 141.257812 141.636719 L 122.699219 152.113281 C 122.699219 152.113281 126.921875 131.222656 126.921875 131.222656 C 127.09375 130.371094 126.808594 129.492188 126.167969 128.90625 L 110.472656 114.488281 C 110.472656 114.488281 131.644531 112.050781 131.644531 112.050781 C 132.507812 111.953125 133.253906 111.410156 133.617188 110.617188 Z M 142.476562 91.234375 " fill-opacity="1" fill-rule="evenodd"/></g></svg>