<svg xmlns="http://www.w3.org/2000/svg" xmlns:xlink="http://www.w3.org/1999/xlink" width="400" zoomAndPan="magnify" viewBox="0 0 300 487.499991" height="650" preserveAspectRatio="xMidYMid meet" version="1.0"><path fill="#ffc0cb" d="M 68.492188 478.859375 C 6.472656 463.527344 -6.746094 399.648438 11.855469 344.988281 C 20.121094 320.699219 35.625 300.398438 49.597656 279.210938 C 77.441406 236.996094 86.5 190.90625 85.847656 140.800781 C 85.53125 116.789062 82.933594 89.847656 92.273438 67.082031 C 100.394531 47.28125 117.828125 32.378906 136.785156 23.289062 C 153.835938 15.109375 172.417969 10.953125 190.941406 7.699219 C 208.644531 4.585938 226.625 0.140625 243.910156 7.972656 C 271.808594 20.613281 277.910156 55.324219 271.855469 82.40625 C 265.835938 109.335938 250.136719 132.554688 238.511719 157.199219 C 227.925781 179.652344 220.625 202.429688 217.664062 227.113281 C 212.054688 273.886719 213.519531 325.015625 188.359375 366.699219 C 180.535156 379.664062 169.191406 391.324219 163.253906 405.304688 C 152.207031 431.332031 155.238281 459.273438 127.695312 475.679688 C 108.949219 486.847656 88.609375 483.835938 68.492188 478.859375 Z M 68.492188 478.859375 " fill-opacity="1" fill-rule="nonzero"/><path fill="#578cb5" d="M 241.710938 447.699219 C 248.171875 443.09375 253.105469 436.015625 255.824219 428.402344 C 259.925781 416.933594 259.757812 404.367188 258.660156 392.222656 C 254.761719 349.0625 248.382812 305.21875 248.003906 261.828125 C 247.574219 213.171875 250.445312 164.890625 253.300781 116.34375 C 254.679688 92.894531 262.050781 62.5 246.824219 42.136719 C 238.570312 31.097656 226.851562 28.117188 213.867188 29.984375 C 199.570312 32.03125 186.039062 35.546875 171.5 35.753906 C 155.503906 35.984375 139.480469 34.128906 123.945312 30.257812 C 106.445312 25.894531 85.703125 19.511719 68.523438 28.355469 C 55.347656 35.136719 48.179688 50.191406 45.699219 64.949219 C 42.15625 86.035156 43.308594 108.605469 44.492188 129.867188 C 47.125 177.113281 54.347656 222.816406 51.089844 270.289062 C 49.230469 297.335938 44.03125 323.875 41.6875 350.835938 C 39.941406 370.90625 39.335938 391.160156 41.582031 411.21875 C 43.480469 428.144531 46.597656 448.78125 62.921875 457.886719 C 80.300781 467.582031 101.246094 460.816406 119.027344 456.050781 C 147.859375 448.316406 177.921875 445.796875 207.410156 450.941406 C 215.164062 452.292969 223.09375 454.125 230.804688 452.546875 C 234.773438 451.730469 238.4375 450.03125 241.710938 447.699219 Z M 241.710938 447.699219 " fill-opacity="1" fill-rule="nonzero"/><path fill="#ffc0cb" d="M 291.707031 358.054688 C 291.210938 358.34375 290.667969 358.636719 290.074219 358.929688 C 285.808594 361.023438 280.019531 358.804688 278.777344 354.011719 C 275.589844 341.695312 306.757812 349.265625 291.707031 358.054688 Z M 291.707031 358.054688 " fill-opacity="1" fill-rule="nonzero"/><path fill="#ffc0cb" d="M 274.898438 309.070312 C 285.351562 308.957031 292.171875 319.945312 291.035156 328.488281 C 290.890625 329.601562 290.058594 334.785156 285.8125 337.570312 C 277.332031 343.125 259.859375 336.074219 258.960938 325.496094 C 258.34375 318.265625 265.464844 309.171875 274.898438 309.070312 Z M 274.898438 309.070312 " fill-opacity="1" fill-rule="nonzero"/><path fill="#ffc0cb" d="M 45.199219 19.296875 C 45.398438 23.367188 43.085938 26.246094 41.738281 27.925781 C 38.023438 32.546875 30.148438 37.796875 24.78125 34.796875 C 21.890625 33.183594 20.472656 29.605469 20.367188 26.710938 C 20.015625 17.277344 33.285156 7.628906 40.125 10.664062 C 43.179688 12.015625 45.039062 15.9375 45.199219 19.296875 Z M 45.199219 19.296875 " fill-opacity="1" fill-rule="nonzero"/><path fill="#ffc0cb" d="M 19.621094 55.339844 C 17.871094 51.011719 23.707031 44.222656 27.472656 45.035156 C 29.925781 45.558594 31.953125 49.40625 31.269531 52.882812 C 30.707031 55.738281 28.269531 58.632812 25.042969 58.675781 C 22.761719 58.707031 20.417969 57.3125 19.621094 55.339844 Z M 19.621094 55.339844 " fill-opacity="1" fill-rule="nonzero"/></svg>