<svg xmlns="http://www.w3.org/2000/svg" xmlns:xlink="http://www.w3.org/1999/xlink" width="60" zoomAndPan="magnify" viewBox="0 0 45 225" height="300" preserveAspectRatio="xMidYMid meet" version="1.0"><defs><clipPath id="6faa440c44"><path d="M 3 0 L 40 0 L 40 225 L 3 225 Z M 3 0 " clip-rule="nonzero"/></clipPath><clipPath id="93d3b4d648"><path d="M 62.941406 5.628906 L 19.558594 224.875 L -17.964844 217.453125 L 25.417969 -1.796875 Z M 62.941406 5.628906 " clip-rule="nonzero"/></clipPath><clipPath id="0cb2821743"><path d="M 62.941406 5.628906 L 19.558594 224.875 L -17.964844 217.453125 L 25.417969 -1.796875 Z M 62.941406 5.628906 " clip-rule="nonzero"/></clipPath><clipPath id="dfc97b6148"><path d="M 62.859375 6.042969 L 19.574219 224.796875 L -18.355469 217.292969 L 24.929688 -1.460938 Z M 62.859375 6.042969 " clip-rule="nonzero"/></clipPath><clipPath id="ba8ceef204"><path d="M 62.859375 6.042969 L 19.621094 224.5625 L -17.878906 217.140625 L 25.355469 -1.378906 Z M 62.859375 6.042969 " clip-rule="nonzero"/></clipPath></defs><g clip-path="url(#6faa440c44)"><g clip-path="url(#93d3b4d648)"><g clip-path="url(#0cb2821743)"><g clip-path="url(#dfc97b6148)"><g clip-path="url(#ba8ceef204)"><path fill="#578cb5" d="M 5.695312 146.726562 C 5.644531 146.988281 5.613281 147.25 5.589844 147.511719 C 5.574219 147.804688 5.574219 148.089844 5.585938 148.382812 C 5.609375 148.710938 5.648438 149.039062 5.710938 149.367188 C 5.773438 149.675781 5.851562 149.980469 5.945312 150.285156 C 6.0625 150.628906 6.195312 150.960938 6.347656 151.289062 C 6.519531 151.632812 6.707031 151.964844 6.910156 152.285156 C 7.160156 152.664062 7.429688 153.023438 7.722656 153.367188 C 7.984375 153.664062 8.261719 153.945312 8.558594 154.210938 C 8.851562 154.464844 9.15625 154.699219 9.476562 154.917969 C 9.847656 155.164062 10.234375 155.382812 10.632812 155.589844 C 10.65625 155.601562 10.683594 155.613281 10.710938 155.628906 C 10.707031 155.625 10.707031 155.625 10.707031 155.625 C 11.144531 155.832031 11.589844 156.011719 12.046875 156.171875 C 12.511719 156.324219 12.976562 156.449219 13.453125 156.550781 C 13.757812 156.609375 14.058594 156.652344 14.363281 156.6875 C 14.296875 155.746094 14.1875 154.808594 14.015625 153.882812 C 13.886719 153.210938 13.71875 152.546875 13.511719 151.894531 C 13.304688 151.277344 13.070312 150.671875 12.792969 150.082031 C 12.570312 149.632812 12.328125 149.199219 12.058594 148.777344 C 11.75 148.316406 11.417969 147.878906 11.058594 147.457031 C 10.683594 147.03125 10.292969 146.625 9.871094 146.25 C 9.601562 146.019531 9.328125 145.804688 9.039062 145.609375 C 8.855469 145.488281 8.664062 145.378906 8.46875 145.277344 C 8.320312 145.210938 8.167969 145.148438 8.011719 145.089844 C 7.890625 145.054688 7.765625 145.019531 7.644531 144.992188 C 7.554688 144.976562 7.46875 144.964844 7.378906 144.957031 C 7.304688 144.953125 7.226562 144.953125 7.148438 144.957031 C 7.09375 144.960938 7.039062 144.96875 6.980469 144.976562 C 6.925781 144.988281 6.871094 145.003906 6.816406 145.019531 C 6.769531 145.035156 6.722656 145.054688 6.675781 145.074219 C 6.628906 145.101562 6.585938 145.125 6.542969 145.152344 C 6.492188 145.183594 6.445312 145.21875 6.398438 145.257812 C 6.351562 145.300781 6.3125 145.34375 6.273438 145.382812 C 6.21875 145.445312 6.171875 145.511719 6.128906 145.574219 C 6.078125 145.652344 6.03125 145.730469 5.988281 145.8125 C 5.929688 145.9375 5.878906 146.066406 5.832031 146.195312 C 5.777344 146.371094 5.734375 146.550781 5.695312 146.726562 Z M 7.21875 94.527344 C 8.121094 93.296875 9.484375 92.429688 10.96875 92.097656 C 11.632812 91.949219 12.320312 92.03125 12.964844 92.21875 C 13.328125 92.328125 13.695312 92.457031 14.027344 92.644531 C 14.390625 92.839844 14.726562 93.070312 15.046875 93.328125 C 15.75 93.875 16.324219 94.554688 16.863281 95.257812 C 17.449219 96.03125 17.976562 96.851562 18.472656 97.679688 C 19.519531 99.425781 20.421875 101.246094 21.324219 103.074219 C 22.179688 104.824219 23.03125 106.582031 24.085938 108.226562 C 24.464844 108.800781 24.871094 109.355469 25.320312 109.882812 C 25.617188 110.21875 25.929688 110.539062 26.261719 110.839844 C 26.257812 110.839844 26.253906 110.832031 26.25 110.828125 C 26.253906 110.832031 26.261719 110.839844 26.265625 110.84375 C 26.289062 110.863281 26.308594 110.882812 26.328125 110.902344 C 26.3125 110.886719 26.296875 110.871094 26.28125 110.855469 C 26.5625 111.101562 26.855469 111.332031 27.160156 111.546875 C 27.433594 111.730469 27.714844 111.894531 28.007812 112.046875 C 28.285156 112.183594 28.566406 112.300781 28.855469 112.40625 C 29.089844 112.480469 29.324219 112.546875 29.5625 112.601562 C 29.804688 112.644531 30.046875 112.679688 30.292969 112.699219 C 30.550781 112.710938 30.804688 112.714844 31.0625 112.703125 C 31.316406 112.6875 31.570312 112.65625 31.828125 112.617188 C 32 112.582031 32.171875 112.542969 32.34375 112.496094 C 32.503906 112.441406 32.652344 112.378906 32.808594 112.3125 C 32.960938 112.230469 33.109375 112.140625 33.257812 112.050781 C 33.476562 111.894531 33.6875 111.730469 33.894531 111.5625 C 34.152344 111.332031 34.394531 111.09375 34.632812 110.839844 C 34.929688 110.496094 35.207031 110.136719 35.464844 109.761719 C 35.734375 109.34375 35.980469 108.910156 36.207031 108.464844 C 36.5 107.855469 36.75 107.230469 36.976562 106.59375 C 37.25 105.757812 37.472656 104.914062 37.65625 104.050781 C 37.898438 102.808594 38.054688 101.558594 38.148438 100.300781 C 38.238281 98.726562 38.226562 97.152344 38.144531 95.574219 C 38.019531 93.539062 37.820312 91.496094 37.457031 89.488281 C 36.523438 84.832031 35.046875 80.308594 33.578125 75.796875 C 33.585938 75.820312 33.59375 75.839844 33.601562 75.863281 C 33.578125 75.785156 33.550781 75.710938 33.527344 75.636719 C 33.527344 75.636719 33.527344 75.636719 33.527344 75.640625 C 33.378906 75.1875 33.230469 74.734375 33.085938 74.28125 C 33.011719 74.050781 32.9375 73.824219 32.863281 73.597656 C 32.859375 73.59375 32.859375 73.589844 32.859375 73.585938 C 32.847656 73.554688 32.835938 73.523438 32.828125 73.492188 C 32.824219 73.472656 32.816406 73.453125 32.8125 73.433594 C 32.804688 73.414062 32.796875 73.390625 32.789062 73.367188 C 32.785156 73.363281 32.785156 73.359375 32.785156 73.355469 C 32.773438 73.328125 32.765625 73.300781 32.757812 73.273438 C 32.683594 73.042969 32.609375 72.8125 32.53125 72.578125 C 32.207031 71.578125 31.886719 70.574219 31.570312 69.566406 C 31.273438 68.617188 30.996094 67.65625 30.726562 66.699219 C 30.453125 65.738281 30.191406 64.777344 29.972656 63.808594 C 29.511719 61.78125 29.113281 59.742188 28.785156 57.691406 C 28.597656 56.53125 28.429688 55.371094 28.273438 54.203125 C 28.121094 53.050781 28.015625 51.894531 27.921875 50.734375 C 27.742188 48.417969 27.636719 46.101562 27.652344 43.78125 C 27.667969 41.605469 27.71875 39.433594 27.824219 37.257812 C 27.941406 34.945312 28.089844 32.625 28.324219 30.320312 C 28.546875 28.117188 28.808594 25.914062 29.109375 23.722656 C 29.40625 21.585938 29.851562 19.472656 30.28125 17.363281 C 30.507812 16.25 30.738281 15.132812 31.003906 14.027344 C 31.269531 12.921875 31.570312 11.824219 31.886719 10.734375 C 32.042969 10.195312 32.203125 9.65625 32.367188 9.121094 C 32.441406 8.871094 32.523438 8.621094 32.605469 8.375 C 32.640625 8.261719 32.679688 8.148438 32.71875 8.035156 C 32.742188 7.964844 32.765625 7.890625 32.792969 7.820312 C 32.808594 7.765625 32.828125 7.710938 32.847656 7.652344 C 33.160156 6.726562 33.507812 5.816406 33.851562 4.902344 C 34.175781 4.046875 34.507812 3.191406 34.910156 2.371094 C 35.125 1.933594 35.34375 1.476562 35.664062 1.109375 C 35.675781 1.09375 35.6875 1.078125 35.703125 1.0625 C 35.710938 1.050781 35.726562 1.042969 35.734375 1.027344 C 36.003906 0.746094 36.476562 0.730469 36.777344 0.964844 C 37.105469 1.214844 37.207031 1.75 36.921875 2.078125 C 36.867188 2.140625 36.816406 2.210938 36.765625 2.28125 C 36.601562 2.542969 36.464844 2.8125 36.328125 3.085938 C 35.949219 3.875 35.628906 4.6875 35.320312 5.507812 C 34.980469 6.40625 34.640625 7.304688 34.332031 8.214844 C 34.285156 8.347656 34.242188 8.480469 34.195312 8.613281 C 34.203125 8.589844 34.210938 8.566406 34.21875 8.542969 C 33.691406 10.160156 33.203125 11.792969 32.785156 13.4375 C 32.347656 15.160156 31.992188 16.894531 31.640625 18.636719 C 31.648438 18.605469 31.65625 18.570312 31.660156 18.535156 C 31.421875 19.742188 31.183594 20.945312 30.96875 22.152344 C 30.742188 23.429688 30.570312 24.71875 30.410156 26.003906 C 30.089844 28.628906 29.800781 31.257812 29.613281 33.894531 C 29.617188 33.859375 29.621094 33.828125 29.621094 33.792969 C 29.464844 36.164062 29.335938 38.53125 29.28125 40.90625 C 29.253906 42.082031 29.242188 43.253906 29.238281 44.429688 C 29.234375 45.746094 29.285156 47.058594 29.355469 48.371094 C 29.355469 48.363281 29.355469 48.359375 29.355469 48.351562 C 29.472656 50.308594 29.617188 52.261719 29.878906 54.207031 C 30.125 56.078125 30.414062 57.941406 30.757812 59.796875 C 30.75 59.761719 30.746094 59.730469 30.738281 59.695312 C 31.117188 61.675781 31.53125 63.644531 32.066406 65.589844 C 32.609375 67.570312 33.214844 69.53125 33.84375 71.484375 C 33.988281 71.933594 34.136719 72.382812 34.28125 72.835938 C 34.3125 72.921875 34.339844 73.011719 34.367188 73.101562 C 34.375 73.121094 34.382812 73.140625 34.390625 73.164062 C 34.441406 73.316406 34.488281 73.46875 34.539062 73.621094 C 34.710938 74.152344 34.886719 74.683594 35.058594 75.21875 C 35.050781 75.195312 35.042969 75.175781 35.039062 75.15625 C 36.34375 79.175781 37.652344 83.203125 38.613281 87.328125 C 38.855469 88.378906 39.074219 89.433594 39.230469 90.5 C 39.382812 91.496094 39.480469 92.496094 39.578125 93.5 C 39.769531 95.503906 39.839844 97.515625 39.773438 99.527344 C 39.707031 101.644531 39.40625 103.761719 38.871094 105.8125 C 38.382812 107.703125 37.597656 109.527344 36.457031 111.109375 C 35.902344 111.882812 35.210938 112.582031 34.449219 113.148438 C 34.109375 113.402344 33.75 113.625 33.363281 113.800781 C 32.945312 113.996094 32.488281 114.121094 32.035156 114.195312 C 31.160156 114.328125 30.265625 114.34375 29.394531 114.183594 C 28.53125 114.023438 27.703125 113.710938 26.941406 113.277344 C 24.359375 111.824219 22.710938 109.246094 21.363281 106.6875 C 20.5625 105.164062 19.824219 103.605469 19.054688 102.070312 C 18.261719 100.496094 17.421875 98.949219 16.46875 97.46875 C 16.015625 96.78125 15.539062 96.117188 15.011719 95.484375 C 14.8125 95.261719 14.605469 95.050781 14.386719 94.84375 C 14.132812 94.625 13.871094 94.417969 13.59375 94.226562 C 13.480469 94.15625 13.367188 94.09375 13.25 94.027344 C 13.085938 93.949219 12.921875 93.878906 12.75 93.816406 C 12.546875 93.753906 12.347656 93.699219 12.140625 93.652344 C 12.042969 93.636719 11.945312 93.621094 11.847656 93.613281 C 11.761719 93.613281 11.679688 93.609375 11.59375 93.609375 C 11.5 93.621094 11.410156 93.632812 11.316406 93.648438 C 11.167969 93.683594 11.023438 93.722656 10.878906 93.765625 C 10.675781 93.835938 10.476562 93.914062 10.285156 94 C 10.097656 94.09375 9.917969 94.195312 9.746094 94.304688 C 9.550781 94.433594 9.367188 94.574219 9.1875 94.722656 C 9.03125 94.867188 8.882812 95.019531 8.734375 95.175781 C 8.601562 95.332031 8.476562 95.496094 8.359375 95.667969 C 8.203125 95.914062 8.058594 96.167969 7.925781 96.429688 C 7.769531 96.757812 7.636719 97.09375 7.511719 97.4375 C 7.371094 97.878906 7.253906 98.328125 7.15625 98.785156 C 7.054688 99.34375 6.980469 99.90625 6.929688 100.472656 C 6.878906 101.269531 6.878906 102.070312 6.917969 102.867188 C 6.988281 103.925781 7.121094 104.972656 7.3125 106.015625 C 7.308594 105.980469 7.300781 105.945312 7.292969 105.914062 C 7.554688 107.261719 7.898438 108.582031 8.320312 109.886719 C 8.308594 109.855469 8.300781 109.824219 8.289062 109.789062 C 8.710938 111.058594 9.210938 112.292969 9.777344 113.496094 C 10.582031 115.152344 11.503906 116.742188 12.449219 118.316406 C 13.269531 119.683594 14.101562 121.046875 14.914062 122.417969 C 15.730469 123.792969 16.535156 125.175781 17.300781 126.578125 C 18.078125 127.992188 18.804688 129.429688 19.5 130.886719 C 19.5 130.878906 19.496094 130.875 19.492188 130.871094 C 20.265625 132.484375 20.988281 134.121094 21.675781 135.773438 C 22.390625 137.492188 23.070312 139.238281 23.648438 141.007812 C 24.367188 143.207031 24.824219 145.476562 24.855469 147.792969 C 24.867188 148.8125 24.757812 149.84375 24.53125 150.835938 C 24.332031 151.742188 24.011719 152.605469 23.59375 153.4375 C 22.992188 154.628906 22.09375 155.664062 21.054688 156.496094 C 20.035156 157.3125 18.789062 157.859375 17.511719 158.121094 C 17.023438 158.222656 16.527344 158.285156 16.03125 158.3125 C 16.039062 158.558594 16.042969 158.800781 16.046875 159.046875 C 16.070312 160.378906 16.023438 161.710938 15.871094 163.035156 C 15.742188 164.179688 15.527344 165.316406 15.347656 166.453125 C 15.121094 167.902344 14.941406 169.359375 14.832031 170.824219 C 14.835938 170.789062 14.835938 170.753906 14.839844 170.722656 C 14.726562 172.402344 14.71875 174.082031 14.816406 175.761719 C 14.949219 177.816406 15.210938 179.859375 15.585938 181.882812 C 15.582031 181.847656 15.574219 181.816406 15.566406 181.78125 C 16.089844 184.535156 16.835938 187.226562 17.699219 189.890625 C 17.695312 189.878906 17.691406 189.867188 17.6875 189.855469 C 18.378906 191.972656 19.136719 194.066406 19.796875 196.191406 C 20.117188 197.210938 20.40625 198.238281 20.660156 199.273438 C 20.902344 200.273438 21.09375 201.289062 21.261719 202.304688 C 21.570312 204.214844 21.742188 206.144531 21.824219 208.074219 C 21.890625 209.703125 21.886719 211.339844 21.765625 212.96875 C 21.628906 214.863281 21.222656 216.726562 20.492188 218.484375 C 19.726562 220.335938 18.671875 222.050781 17.542969 223.707031 C 17.300781 224.0625 16.757812 224.101562 16.429688 223.851562 C 16.261719 223.722656 16.152344 223.527344 16.125 223.320312 C 16.101562 223.105469 16.164062 222.914062 16.285156 222.738281 C 16.382812 222.59375 16.480469 222.449219 16.578125 222.300781 C 16.558594 222.332031 16.539062 222.359375 16.519531 222.390625 C 17.242188 221.304688 17.914062 220.191406 18.5 219.027344 C 18.492188 219.050781 18.480469 219.070312 18.472656 219.09375 C 18.484375 219.070312 18.496094 219.046875 18.503906 219.023438 C 18.507812 219.015625 18.511719 219.007812 18.515625 219 C 18.511719 219.007812 18.511719 219.015625 18.507812 219.023438 C 18.84375 218.324219 19.148438 217.609375 19.402344 216.875 C 19.597656 216.285156 19.757812 215.691406 19.882812 215.085938 C 20.042969 214.257812 20.144531 213.417969 20.203125 212.578125 C 20.203125 212.601562 20.203125 212.625 20.199219 212.644531 C 20.316406 210.867188 20.292969 209.082031 20.195312 207.304688 C 20.199219 207.335938 20.203125 207.371094 20.203125 207.40625 C 20.089844 205.464844 19.875 203.53125 19.535156 201.617188 C 19.160156 199.628906 18.617188 197.683594 17.996094 195.757812 C 17.304688 193.648438 16.554688 191.554688 15.890625 189.433594 C 15.203125 187.265625 14.605469 185.070312 14.15625 182.835938 C 13.714844 180.632812 13.40625 178.402344 13.25 176.160156 C 13.097656 173.964844 13.144531 171.773438 13.34375 169.582031 C 13.484375 168.035156 13.726562 166.496094 13.980469 164.964844 C 14.15625 163.886719 14.320312 162.8125 14.402344 161.722656 C 14.472656 160.582031 14.480469 159.433594 14.445312 158.289062 C 12.878906 158.15625 11.339844 157.703125 9.933594 157.011719 C 9.28125 156.6875 8.667969 156.308594 8.085938 155.875 C 7.511719 155.449219 6.996094 154.945312 6.527344 154.40625 C 5.667969 153.421875 4.964844 152.28125 4.53125 151.046875 C 4.160156 150.007812 3.976562 148.914062 3.988281 147.808594 C 3.996094 147.320312 4.054688 146.835938 4.148438 146.363281 C 4.230469 145.957031 4.351562 145.550781 4.535156 145.175781 C 4.890625 144.453125 5.441406 143.828125 6.21875 143.546875 C 7.027344 143.253906 7.886719 143.355469 8.683594 143.644531 C 9.613281 143.984375 10.417969 144.601562 11.144531 145.261719 C 11.550781 145.632812 11.929688 146.039062 12.289062 146.457031 C 12.65625 146.882812 13.003906 147.332031 13.316406 147.800781 C 14.722656 149.929688 15.476562 152.429688 15.792969 154.949219 C 15.863281 155.539062 15.917969 156.136719 15.960938 156.730469 C 15.972656 156.726562 15.984375 156.726562 16 156.726562 C 16.355469 156.699219 16.710938 156.65625 17.0625 156.59375 C 17.355469 156.53125 17.644531 156.460938 17.929688 156.375 C 18.210938 156.277344 18.488281 156.171875 18.761719 156.050781 C 19.0625 155.902344 19.355469 155.738281 19.644531 155.554688 C 19.890625 155.386719 20.132812 155.203125 20.363281 155.011719 C 20.636719 154.765625 20.894531 154.511719 21.136719 154.242188 C 21.335938 154.003906 21.527344 153.757812 21.707031 153.503906 C 21.917969 153.179688 22.109375 152.851562 22.285156 152.507812 C 22.453125 152.148438 22.601562 151.777344 22.734375 151.402344 C 22.863281 150.988281 22.96875 150.578125 23.054688 150.15625 C 23.136719 149.699219 23.195312 149.238281 23.234375 148.773438 C 23.269531 148.179688 23.269531 147.589844 23.242188 146.996094 C 23.191406 146.195312 23.085938 145.402344 22.949219 144.609375 C 22.953125 144.632812 22.957031 144.65625 22.960938 144.679688 C 22.769531 143.671875 22.515625 142.679688 22.207031 141.703125 C 21.640625 139.96875 20.984375 138.265625 20.289062 136.582031 C 19.601562 134.910156 18.871094 133.261719 18.101562 131.632812 C 18.0625 131.558594 18.027344 131.484375 17.992188 131.410156 C 17.996094 131.414062 17.996094 131.417969 18 131.421875 C 17.234375 129.828125 16.421875 128.253906 15.5625 126.710938 C 14.679688 125.125 13.753906 123.566406 12.824219 122.011719 C 11.914062 120.496094 10.984375 118.988281 10.09375 117.457031 C 8.9375 115.472656 7.898438 113.414062 7.117188 111.253906 C 6.394531 109.261719 5.859375 107.199219 5.554688 105.105469 C 5.273438 103.179688 5.191406 101.207031 5.464844 99.277344 C 5.503906 99.007812 5.546875 98.738281 5.601562 98.472656 C 5.878906 97.066406 6.375 95.683594 7.21875 94.527344 " fill-opacity="1" fill-rule="nonzero"/></g></g></g></g></g></svg>