<svg xmlns="http://www.w3.org/2000/svg" xmlns:xlink="http://www.w3.org/1999/xlink" width="70" zoomAndPan="magnify" viewBox="0 0 52.5 52.499999" height="70" preserveAspectRatio="xMidYMid meet" version="1.0"><defs><clipPath id="0e76eabdd3"><path d="M 0 0 L 52.003906 0 L 52.003906 52.003906 L 0 52.003906 Z M 0 0 " clip-rule="nonzero"/></clipPath><clipPath id="4bc7d0ab35"><path d="M 16 7.640625 L 36 7.640625 L 36 44.5 L 16 44.5 Z M 16 7.640625 " clip-rule="nonzero"/></clipPath></defs><g clip-path="url(#0e76eabdd3)"><path fill="#ffffff" d="M 52.15625 26.078125 C 52.15625 26.933594 52.113281 27.785156 52.03125 28.632812 C 51.945312 29.484375 51.820312 30.328125 51.65625 31.164062 C 51.488281 32.003906 51.28125 32.832031 51.03125 33.648438 C 50.785156 34.464844 50.496094 35.269531 50.171875 36.058594 C 49.84375 36.847656 49.480469 37.617188 49.078125 38.371094 C 48.671875 39.125 48.234375 39.855469 47.761719 40.566406 C 47.285156 41.277344 46.777344 41.960938 46.234375 42.621094 C 45.695312 43.28125 45.121094 43.914062 44.515625 44.515625 C 43.914062 45.121094 43.28125 45.695312 42.621094 46.234375 C 41.960938 46.777344 41.277344 47.285156 40.566406 47.761719 C 39.855469 48.234375 39.125 48.671875 38.371094 49.078125 C 37.617188 49.480469 36.847656 49.84375 36.058594 50.171875 C 35.269531 50.496094 34.464844 50.785156 33.648438 51.03125 C 32.832031 51.28125 32.003906 51.488281 31.164062 51.65625 C 30.328125 51.820312 29.484375 51.945312 28.632812 52.03125 C 27.785156 52.113281 26.933594 52.15625 26.078125 52.15625 C 25.222656 52.15625 24.371094 52.113281 23.523438 52.03125 C 22.671875 51.945312 21.828125 51.820312 20.988281 51.65625 C 20.152344 51.488281 19.324219 51.28125 18.507812 51.03125 C 17.691406 50.785156 16.886719 50.496094 16.097656 50.171875 C 15.308594 49.84375 14.539062 49.480469 13.785156 49.078125 C 13.03125 48.671875 12.300781 48.234375 11.589844 47.761719 C 10.878906 47.285156 10.195312 46.777344 9.535156 46.234375 C 8.875 45.695312 8.242188 45.121094 7.636719 44.515625 C 7.035156 43.914062 6.460938 43.28125 5.917969 42.621094 C 5.378906 41.960938 4.871094 41.277344 4.394531 40.566406 C 3.921875 39.855469 3.480469 39.125 3.078125 38.371094 C 2.675781 37.617188 2.3125 36.847656 1.984375 36.058594 C 1.660156 35.269531 1.371094 34.464844 1.121094 33.648438 C 0.875 32.832031 0.667969 32.003906 0.5 31.164062 C 0.335938 30.328125 0.210938 29.484375 0.125 28.632812 C 0.0429688 27.785156 0 26.933594 0 26.078125 C 0 25.222656 0.0429688 24.371094 0.125 23.523438 C 0.210938 22.671875 0.335938 21.828125 0.5 20.988281 C 0.667969 20.152344 0.875 19.324219 1.121094 18.507812 C 1.371094 17.691406 1.660156 16.886719 1.984375 16.097656 C 2.3125 15.308594 2.675781 14.539062 3.078125 13.785156 C 3.480469 13.03125 3.921875 12.300781 4.394531 11.589844 C 4.871094 10.878906 5.378906 10.195312 5.917969 9.535156 C 6.460938 8.875 7.035156 8.242188 7.636719 7.636719 C 8.242188 7.035156 8.875 6.460938 9.535156 5.917969 C 10.195312 5.378906 10.878906 4.871094 11.589844 4.394531 C 12.300781 3.921875 13.03125 3.480469 13.785156 3.078125 C 14.539062 2.675781 15.308594 2.3125 16.097656 1.984375 C 16.886719 1.660156 17.691406 1.371094 18.507812 1.121094 C 19.324219 0.875 20.152344 0.667969 20.988281 0.5 C 21.828125 0.335938 22.671875 0.210938 23.523438 0.125 C 24.371094 0.0429688 25.222656 0 26.078125 0 C 26.933594 0 27.785156 0.0429688 28.632812 0.125 C 29.484375 0.210938 30.328125 0.335938 31.164062 0.5 C 32.003906 0.667969 32.832031 0.875 33.648438 1.121094 C 34.464844 1.371094 35.269531 1.660156 36.058594 1.984375 C 36.847656 2.3125 37.617188 2.675781 38.371094 3.078125 C 39.125 3.480469 39.855469 3.921875 40.566406 4.394531 C 41.277344 4.871094 41.960938 5.378906 42.621094 5.917969 C 43.28125 6.460938 43.914062 7.035156 44.515625 7.636719 C 45.121094 8.242188 45.695312 8.875 46.234375 9.535156 C 46.777344 10.195312 47.285156 10.878906 47.761719 11.589844 C 48.234375 12.300781 48.671875 13.03125 49.078125 13.785156 C 49.480469 14.539062 49.84375 15.308594 50.171875 16.097656 C 50.496094 16.886719 50.785156 17.691406 51.03125 18.507812 C 51.28125 19.324219 51.488281 20.152344 51.65625 20.988281 C 51.820312 21.828125 51.945312 22.671875 52.03125 23.523438 C 52.113281 24.371094 52.15625 25.222656 52.15625 26.078125 Z M 52.15625 26.078125 " fill-opacity="1" fill-rule="nonzero"/></g><g clip-path="url(#4bc7d0ab35)"><path fill="#ffc0cb" d="M 35.6875 20.492188 L 29.214844 20.492188 L 29.214844 16.820312 C 29.214844 14.925781 29.367188 13.734375 32.082031 13.734375 L 35.511719 13.734375 L 35.511719 7.894531 C 33.84375 7.722656 32.167969 7.636719 30.488281 7.640625 C 25.503906 7.640625 21.871094 10.683594 21.871094 16.269531 L 21.871094 20.492188 L 16.363281 20.492188 L 16.363281 27.839844 L 21.871094 27.835938 L 21.871094 44.363281 L 29.214844 44.363281 L 29.214844 27.832031 L 34.84375 27.832031 Z M 35.6875 20.492188 " fill-opacity="1" fill-rule="nonzero"/></g></svg>