<svg xmlns="http://www.w3.org/2000/svg" xmlns:xlink="http://www.w3.org/1999/xlink" width="70" zoomAndPan="magnify" viewBox="0 0 52.5 52.499999" height="70" preserveAspectRatio="xMidYMid meet" version="1.0"><defs><clipPath id="4a94a80029"><path d="M 0 0 L 52.003906 0 L 52.003906 52.003906 L 0 52.003906 Z M 0 0 " clip-rule="nonzero"/></clipPath></defs><g clip-path="url(#4a94a80029)"><path fill="#ffffff" d="M 26.003906 -0.00390625 C 11.640625 -0.00390625 -0.00390625 11.640625 -0.00390625 26.003906 C -0.00390625 40.367188 11.640625 52.007812 26.003906 52.007812 C 40.367188 52.007812 52.007812 40.367188 52.007812 26.003906 C 52.007812 11.640625 40.367188 -0.00390625 26.003906 -0.00390625 Z M 42.667969 29.542969 C 41.070312 37.464844 34.214844 43.417969 26.003906 43.417969 C 16.601562 43.417969 8.984375 35.617188 8.984375 26 C 8.984375 16.382812 16.605469 8.585938 26.003906 8.585938 C 29.640625 8.585938 33.015625 9.753906 35.785156 11.75 C 36.863281 12.527344 36.984375 14.082031 36.046875 15.019531 L 34.304688 16.761719 C 33.582031 17.484375 32.453125 17.59375 31.597656 17.035156 C 29.992188 15.988281 28.085938 15.378906 26.039062 15.378906 C 20.332031 15.378906 15.707031 20.101562 15.707031 25.929688 C 15.707031 31.757812 20.332031 36.476562 26.039062 36.476562 C 30.503906 36.476562 34.304688 33.585938 35.753906 29.539062 L 28.285156 29.539062 C 27.242188 29.539062 26.398438 28.695312 26.398438 27.652344 L 26.398438 24.777344 C 26.398438 23.734375 27.242188 22.890625 28.285156 22.890625 L 42.75 22.890625 C 42.925781 23.898438 43.019531 24.9375 43.019531 26 C 43.019531 27.214844 42.898438 28.402344 42.667969 29.542969 Z M 42.667969 29.542969 " fill-opacity="1" fill-rule="nonzero"/></g><path fill="#ffc0cb" d="M 28.285156 22.894531 C 27.242188 22.894531 26.398438 23.738281 26.398438 24.78125 L 26.398438 27.65625 C 26.398438 28.699219 27.242188 29.542969 28.285156 29.542969 L 35.75 29.542969 C 34.304688 33.589844 30.5 36.480469 26.035156 36.480469 C 20.328125 36.480469 15.703125 31.757812 15.703125 25.929688 C 15.703125 20.105469 20.328125 15.382812 26.035156 15.382812 C 28.082031 15.382812 29.988281 15.988281 31.597656 17.039062 C 32.453125 17.597656 33.578125 17.488281 34.300781 16.765625 L 36.046875 15.019531 C 36.984375 14.082031 36.859375 12.527344 35.785156 11.753906 C 33.015625 9.757812 29.640625 8.589844 26 8.589844 C 16.601562 8.589844 8.980469 16.386719 8.980469 26.003906 C 8.980469 35.621094 16.601562 43.417969 26 43.417969 C 34.210938 43.417969 41.066406 37.464844 42.664062 29.546875 C 42.894531 28.402344 43.015625 27.21875 43.015625 26.003906 C 43.015625 24.945312 42.921875 23.90625 42.746094 22.898438 L 28.285156 22.898438 Z M 28.285156 22.894531 " fill-opacity="1" fill-rule="nonzero"/></svg>