<svg xmlns="http://www.w3.org/2000/svg" xmlns:xlink="http://www.w3.org/1999/xlink" width="500" zoomAndPan="magnify" viewBox="0 0 375 123.750003" height="165" preserveAspectRatio="xMidYMid meet" version="1.0"><defs><clipPath id="e2e6a417a5"><path d="M 0.378906 0 L 374 0 L 374 123.5 L 0.378906 123.5 Z M 0.378906 0 " clip-rule="nonzero"/></clipPath></defs><g clip-path="url(#e2e6a417a5)"><path d="M 25.933594 14.675781 L 25.15625 15.191406 C 8.191406 26.210938 -0.203125 44.691406 -0.0234375 70.625 C 0.671875 80.335938 3.914062 88.921875 9.695312 96.375 C 13.476562 101.695312 20.34375 105.949219 30.300781 109.140625 C 45.46875 113.414062 66.046875 116.195312 92.042969 117.484375 C 99.472656 118.335938 139.953125 119.308594 213.488281 120.410156 L 279.433594 123.039062 C 294.570312 123.335938 309.097656 122.503906 323.023438 120.550781 C 337.988281 118.332031 348.261719 115.28125 353.84375 111.402344 C 370.886719 97.726562 377.054688 78.449219 372.34375 53.566406 C 370.480469 45.007812 366.804688 37.640625 361.3125 31.457031 C 353.707031 23.851562 344.394531 18.683594 333.375 15.957031 C 313.101562 11.339844 289.472656 7.890625 262.488281 5.613281 C 231.890625 3.21875 191.234375 1.589844 140.523438 0.71875 C 80.644531 0.253906 42.449219 4.90625 25.933594 14.675781 " fill-opacity="1" fill-rule="nonzero"/></g></svg>