<svg xmlns="http://www.w3.org/2000/svg" xmlns:xlink="http://www.w3.org/1999/xlink" width="100" zoomAndPan="magnify" viewBox="0 0 75 74.999997" height="100" preserveAspectRatio="xMidYMid meet" version="1.0"><defs><clipPath id="401e2fb1f4"><path d="M 2 0 L 73.839844 0 L 73.839844 75 L 2 75 Z M 2 0 " clip-rule="nonzero"/></clipPath><clipPath id="b81b7a538c"><path d="M 23.40625 11.21875 L 51.90625 11.21875 L 51.90625 63.71875 L 23.40625 63.71875 Z M 23.40625 11.21875 " clip-rule="nonzero"/></clipPath></defs><g clip-path="url(#401e2fb1f4)"><path fill="#ffc0cb" d="M 61.597656 3.921875 C 67.195312 7.578125 70.589844 14.585938 72.175781 21.460938 C 73.761719 28.289062 73.542969 34.988281 72.484375 41.464844 C 71.46875 47.988281 69.664062 54.289062 66.003906 59.753906 C 62.347656 65.21875 56.929688 69.84375 50.496094 72.269531 C 44.015625 74.734375 36.613281 75 30.269531 72.664062 C 23.96875 70.285156 18.722656 65.304688 13.921875 59.839844 C 9.117188 54.421875 4.710938 48.558594 2.992188 41.820312 C 1.230469 35.078125 2.109375 27.453125 5.195312 20.886719 C 8.28125 14.320312 13.566406 8.8125 19.824219 5.464844 C 26.039062 2.113281 33.265625 0.925781 40.757812 0.484375 C 48.246094 0 56.003906 0.308594 61.597656 3.921875 Z M 61.597656 3.921875 " fill-opacity="1" fill-rule="nonzero"/></g><g clip-path="url(#b81b7a538c)"><path fill="#ffffff" d="M 44.542969 11.21875 C 37.144531 11.21875 32.804688 15.125 32.804688 24.03125 L 32.804688 31.867188 L 23.421875 31.867188 L 23.421875 41.253906 L 32.804688 41.253906 L 32.804688 63.777344 L 42.191406 63.777344 L 42.191406 41.253906 L 49.699219 41.253906 L 51.578125 31.867188 L 42.191406 31.867188 L 42.191406 25.621094 C 42.191406 22.265625 43.285156 20.605469 46.433594 20.605469 L 51.578125 20.605469 L 51.578125 11.601562 C 50.6875 11.484375 48.09375 11.21875 44.542969 11.21875 Z M 44.542969 11.21875 " fill-opacity="1" fill-rule="nonzero"/></g></svg>