<svg xmlns="http://www.w3.org/2000/svg" xmlns:xlink="http://www.w3.org/1999/xlink" width="500" zoomAndPan="magnify" viewBox="0 0 375 299.999988" height="400" preserveAspectRatio="xMidYMid meet" version="1.0"><defs><g/><clipPath id="5768a0051f"><path d="M 51 114.441406 L 216.5625 114.441406 L 216.5625 235 L 51 235 Z M 51 114.441406 " clip-rule="nonzero"/></clipPath><clipPath id="6ab7009e74"><path d="M 244 0 L 365 0 L 365 256.589844 L 244 256.589844 Z M 244 0 " clip-rule="nonzero"/></clipPath><clipPath id="29ecfea70f"><path d="M 9 233 L 328 233 L 328 283 L 9 283 Z M 9 233 " clip-rule="nonzero"/></clipPath><clipPath id="cc336bcf3c"><path d="M 13.070312 213.203125 L 328.257812 246.171875 L 322.640625 299.898438 L 7.449219 266.929688 Z M 13.070312 213.203125 " clip-rule="nonzero"/></clipPath><clipPath id="184f904239"><path d="M 13.070312 213.203125 L 328.257812 246.171875 L 322.640625 299.898438 L 7.449219 266.929688 Z M 13.070312 213.203125 " clip-rule="nonzero"/></clipPath><clipPath id="e3cc435569"><path d="M 13.667969 213.265625 L 327.824219 246.128906 L 322.128906 300.597656 L 7.96875 267.738281 Z M 13.667969 213.265625 " clip-rule="nonzero"/></clipPath><clipPath id="a67f0c4197"><path d="M 13.667969 213.265625 L 327.488281 246.09375 L 321.855469 299.949219 L 8.035156 267.125 Z M 13.667969 213.265625 " clip-rule="nonzero"/></clipPath></defs><g clip-path="url(#5768a0051f)"><path fill="#578cb5" d="M 210.109375 135.097656 C 207.042969 137.445312 203.402344 139.226562 199.917969 140.390625 C 203.988281 140.09375 207.34375 138.03125 210.109375 135.097656 Z M 212.484375 130.886719 C 208.421875 133.785156 204.101562 136.300781 199.855469 138.921875 C 204.375 137.191406 209.179688 134.492188 212.484375 130.886719 Z M 199.402344 137.648438 C 203.351562 134.917969 207.332031 132.214844 211.570312 129.984375 C 207.015625 131.84375 202.738281 133.929688 199.402344 137.648438 Z M 204.960938 131.476562 C 201.800781 132.898438 199.085938 134.96875 197.292969 138.375 C 199.289062 135.414062 201.964844 133.203125 204.960938 131.476562 Z M 204.402344 146.867188 C 201.09375 146.9375 197.886719 147.40625 194.6875 148.113281 C 197.964844 148.03125 201.113281 147.734375 204.402344 146.867188 Z M 193.148438 147.070312 C 196.792969 146.109375 200.574219 145.746094 204.289062 145.75 C 200.523438 144.84375 196.800781 145.605469 193.148438 147.070312 Z M 114.996094 189.757812 C 112.523438 192.539062 110.355469 195.394531 108.597656 198.535156 C 110.617188 195.527344 112.757812 192.59375 114.996094 189.757812 Z M 114.8125 195.300781 C 112.886719 198.558594 110.507812 201.566406 107.851562 204.210938 C 110.992188 202.117188 113.203125 198.882812 114.8125 195.300781 Z M 114.121094 193.300781 C 111.671875 196.605469 109.296875 199.960938 106.960938 203.359375 C 109.875 200.265625 112.179688 196.9375 114.121094 193.300781 Z M 106.109375 200.382812 C 106.929688 198.441406 107.914062 196.570312 109.0625 194.816406 C 107.652344 196.550781 106.75 198.40625 106.109375 200.382812 Z M 100.195312 194.894531 C 97.195312 196.605469 94.066406 198.085938 90.851562 199.398438 C 94.335938 198.574219 97.386719 196.980469 100.195312 194.894531 Z M 103.195312 191.214844 C 99.765625 192.777344 92.765625 196.402344 89.492188 198.246094 C 92.949219 196.734375 99.9375 193.078125 103.195312 191.214844 Z M 89.933594 196.386719 C 90.980469 195.800781 92.039062 195.238281 93.109375 194.695312 C 94.175781 194.148438 95.253906 193.625 96.34375 193.121094 C 96.867188 192.882812 97.40625 192.679688 97.929688 192.445312 C 98.300781 192.277344 99.695312 191.550781 100.625 190.980469 C 99.527344 191.203125 97.0625 192.4375 96.035156 192.855469 C 94.929688 193.304688 93.835938 193.78125 92.773438 194.308594 C 90.667969 195.347656 88.671875 196.59375 86.898438 198.140625 C 87.738281 197.40625 88.960938 196.925781 89.933594 196.386719 Z M 95.21875 136.523438 C 89.441406 142.019531 85.414062 148.917969 85.316406 157.226562 C 85.097656 175.859375 105.640625 182.761719 120.207031 174.683594 C 123.441406 172.886719 126.171875 170.726562 128.523438 168.292969 C 124.164062 171.054688 119.050781 172.515625 113.632812 172.148438 C 104.421875 171.523438 96.074219 165.613281 92.886719 156.898438 C 90.296875 149.8125 91.433594 142.539062 95.21875 136.523438 Z M 215.023438 130.566406 C 214.050781 132.238281 212.820312 133.832031 211.535156 135.289062 C 207.558594 139.789062 201.988281 142.824219 195.882812 141.207031 C 195.652344 141.1875 195.480469 141.132812 195.332031 141.058594 C 183.675781 144.746094 173.015625 151.09375 164.234375 159.5 C 163.621094 160.214844 173.300781 152.5 188.570312 148.351562 C 195.265625 144.371094 201.3125 142.734375 207.324219 145.773438 C 208.214844 146.222656 208.542969 146.527344 207.707031 146.9375 C 202.085938 149.695312 194.683594 149.902344 188.722656 149.140625 C 178.136719 152.28125 166.867188 159.363281 158.457031 166.464844 C 156.316406 169.085938 155.640625 169.980469 153.585938 172.6875 C 159.710938 171.980469 165.929688 171.140625 171.679688 169.164062 C 174.609375 167.070312 177.8125 165.441406 181.191406 164.445312 C 182.914062 163.941406 183.71875 166.332031 182.195312 167.121094 C 170.175781 173.851562 162.195312 182.421875 158.097656 195.753906 C 157.707031 197.03125 155.335938 196.996094 155.539062 195.480469 C 156.691406 186.921875 161.367188 178.308594 168.015625 172.15625 C 162.859375 173.335938 157.578125 174 152.125 174.613281 C 150.753906 176.445312 149.394531 178.296875 148.0625 180.179688 C 139.589844 192.148438 131.285156 204.367188 120.632812 214.550781 C 102.777344 231.625 75.007812 242.699219 52.199219 228.078125 C 50.898438 227.246094 52.292969 225.285156 53.515625 226.046875 C 67.585938 234.785156 85.195312 233.222656 99.464844 225.777344 C 120.613281 214.746094 133.316406 194.246094 146.90625 175.210938 C 136.605469 176.476562 126.605469 177.539062 119.078125 184.878906 C 119.253906 185.523438 119.085938 186.625 119.03125 186.96875 C 118.925781 187.617188 118.800781 188.257812 118.652344 188.898438 C 118.34375 190.25 117.941406 191.585938 117.464844 192.890625 C 116.476562 195.578125 115.152344 198.171875 113.429688 200.46875 C 112.25 202.054688 110.863281 203.5 109.25 204.648438 C 107.898438 205.613281 106.40625 206.179688 104.890625 206.828125 C 104.753906 206.890625 104.597656 206.949219 104.453125 206.898438 C 104.253906 206.828125 104.1875 206.585938 104.15625 206.378906 C 103.84375 204.316406 104.253906 202.339844 104.742188 200.347656 C 105.25 198.277344 106.167969 196.449219 107.351562 194.640625 C 108.910156 192.242188 111.796875 187.835938 118.363281 184.433594 C 118.390625 184.417969 118.414062 184.421875 118.441406 184.414062 C 119.25 183.4375 120.148438 182.554688 121.125 181.753906 C 117.589844 183.101562 114.136719 184.636719 110.769531 186.363281 C 110.746094 186.800781 108.507812 189.617188 107.617188 190.613281 C 107.214844 191.058594 106.8125 191.5 106.394531 191.925781 C 105.5625 192.796875 104.695312 193.628906 103.792969 194.421875 C 101.992188 196.003906 100.050781 197.425781 97.960938 198.582031 C 95.910156 199.722656 93.710938 200.605469 91.390625 201.097656 C 90.238281 201.34375 89.058594 201.496094 87.863281 201.535156 C 86.710938 201.570312 82.660156 201.601562 82.585938 201.113281 C 82.5625 200.980469 82.597656 200.828125 82.65625 200.679688 C 82.792969 200.339844 83.574219 199.328125 83.722656 199.105469 C 84.085938 198.570312 84.527344 198.078125 84.957031 197.605469 C 85.824219 196.652344 86.78125 195.792969 87.800781 195.015625 C 89.878906 193.421875 92.199219 192.179688 94.585938 191.113281 C 99.386719 188.980469 110.070312 185.488281 110.238281 185.550781 C 114.703125 183.257812 119.308594 181.28125 124.0625 179.644531 C 124.113281 179.625 124.15625 179.628906 124.195312 179.625 C 130.210938 176.105469 137.90625 174.707031 144.296875 173.804688 C 145.609375 173.617188 146.941406 173.453125 148.285156 173.292969 C 151.109375 169.378906 153.988281 165.539062 157 161.878906 C 165.808594 151.171875 175.511719 140.550781 186.097656 131.5625 C 191.929688 126.609375 198.46875 122.171875 205.660156 119.613281 C 192.539062 119.625 179.382812 118.601562 166.289062 118.164062 C 149.957031 117.621094 133.164062 118.097656 117.582031 123.519531 C 114.3125 124.660156 110.902344 126.105469 107.578125 127.851562 C 105.339844 129.144531 103.21875 130.628906 101.3125 132.390625 C 94.796875 138.417969 91.859375 147.128906 94.800781 155.703125 C 97.746094 164.296875 106.089844 170.035156 115.078125 170.402344 C 121.613281 170.671875 127.835938 167.925781 132.484375 163.492188 C 138.703125 154.675781 141.757812 143.609375 145.609375 133.332031 C 145.890625 132.578125 147.363281 132.535156 147.207031 133.5 C 144.308594 151.542969 134.773438 172.761719 116.3125 179.339844 C 102.558594 184.242188 85.375 177.796875 82.597656 162.394531 C 79.53125 145.382812 93.074219 131.789062 106.964844 124.613281 C 116.527344 119.679688 127.003906 116.875 137.671875 115.671875 C 148.335938 114.46875 159.101562 114.769531 169.789062 115.449219 C 180.625 116.140625 191.429688 117.238281 202.277344 117.6875 C 204.585938 117.785156 206.890625 117.871094 209.203125 117.882812 C 211.070312 117.886719 213.050781 117.5625 214.894531 117.832031 C 215.28125 117.886719 215.765625 118.121094 216.066406 118.398438 C 216.453125 118.753906 216.53125 119.175781 215.671875 119.347656 C 214.453125 119.59375 213.242188 119.886719 212.050781 120.230469 C 209.714844 120.898438 207.4375 121.746094 205.222656 122.753906 C 200.839844 124.753906 196.757812 127.355469 192.953125 130.292969 C 187.726562 134.324219 183.007812 138.96875 178.460938 143.742188 C 174.984375 147.394531 172.835938 149.683594 169.527344 153.425781 C 177.40625 146.972656 184.605469 143.796875 195.019531 140.316406 C 195.433594 138.804688 196.03125 137.339844 196.855469 136.003906 C 200.714844 129.75 208.765625 128.113281 215.464844 126.839844 C 215.890625 126.757812 216.136719 126.84375 216.253906 127.039062 C 216.707031 127.769531 215.328125 130.046875 215.023438 130.566406 " fill-opacity="1" fill-rule="nonzero"/></g><g clip-path="url(#6ab7009e74)"><path fill="#578cb5" d="M 244.148438 200.679688 C 244.09375 200.492188 244.09375 200.300781 244.148438 200.113281 C 244.742188 197.453125 245.675781 194.917969 246.949219 192.507812 C 248.222656 190.097656 249.789062 187.898438 251.648438 185.90625 C 253.183594 184.261719 254.890625 182.667969 256.480469 181.078125 C 258.070312 179.488281 260.457031 177.441406 262.160156 175.394531 C 264.507812 172.601562 266.535156 169.589844 268.242188 166.363281 C 270.160156 162.820312 271.882812 159.183594 273.410156 155.453125 C 274.386719 153.09375 275.160156 150.667969 275.742188 148.179688 C 275.855469 147.554688 276.023438 146.761719 276.082031 146.078125 C 276.148438 145.777344 276.183594 145.476562 276.195312 145.167969 C 276.195312 145.054688 276.253906 144.941406 276.253906 144.828125 C 276.441406 142.191406 276.40625 139.558594 276.136719 136.929688 C 275.902344 135.007812 275.523438 133.113281 275.003906 131.25 C 274.660156 130.074219 274.261719 128.882812 273.808594 127.667969 C 273.683594 127.242188 273.53125 126.828125 273.355469 126.417969 C 273.234375 126.21875 273.101562 126.03125 272.957031 125.851562 C 272.898438 125.792969 272.898438 125.679688 272.84375 125.625 L 271.933594 124.488281 L 271.761719 124.089844 C 271.28125 123.410156 270.863281 122.691406 270.511719 121.929688 C 269.332031 119.371094 268.667969 116.679688 268.523438 113.863281 C 268.410156 112.160156 268.355469 110.453125 268.296875 108.75 C 268.15625 106.683594 268.15625 104.621094 268.296875 102.554688 C 268.386719 100.804688 269.027344 99.289062 270.230469 98.011719 C 271.421875 96.816406 273.183594 96.417969 274.832031 96.136719 L 276.023438 95.964844 L 276.023438 95.851562 C 275.878906 93.796875 276.050781 91.773438 276.535156 89.773438 C 276.992188 87.441406 277.21875 84.941406 277.898438 82.667969 C 278.664062 80.351562 279.988281 78.417969 281.878906 76.875 C 284.09375 75 286.820312 73.917969 289.492188 73.066406 C 291.234375 72.519531 293.015625 72.140625 294.832031 71.929688 L 294.886719 71.929688 C 295.910156 70 297.386719 68.636719 298.980469 67.101562 C 300.625 65.4375 302.484375 64.058594 304.546875 62.953125 C 308.355469 60.964844 313.125 60.226562 316.421875 57.328125 C 317.265625 56.625 317.945312 55.792969 318.46875 54.828125 C 318.46875 54.773438 318.523438 54.714844 318.523438 54.660156 C 317.398438 54.878906 316.261719 55.011719 315.117188 55.054688 C 313.394531 55.21875 311.671875 55.292969 309.945312 55.285156 C 306.707031 55.398438 303.410156 55.398438 300.117188 55.285156 C 298.417969 55.195312 296.730469 55.308594 295.058594 55.625 C 292.714844 56.214844 290.535156 57.183594 288.523438 58.523438 C 286.988281 59.472656 285.550781 60.554688 284.207031 61.761719 C 282.832031 63.03125 281.394531 64.226562 279.886719 65.339844 L 279.546875 65.796875 C 279.035156 66.421875 278.921875 64.714844 279.035156 64.488281 C 281.195312 59.660156 285.003906 54.601562 289.886719 52.386719 C 292.730469 51.195312 295.664062 50.324219 298.695312 49.773438 C 301.945312 49.109375 305.222656 48.617188 308.523438 48.296875 C 310.058594 48.179688 311.648438 48.011719 313.242188 47.953125 L 315.570312 47.839844 C 316.367188 47.839844 316.707031 48.296875 317.332031 48.804688 C 319.035156 50.339844 320 52.273438 319.546875 54.546875 C 318.46875 59.660156 313.242188 61.421875 308.867188 62.839844 C 306.144531 63.730469 303.625 65.019531 301.308594 66.703125 C 299.949219 67.644531 298.757812 68.761719 297.730469 70.054688 C 297.222656 70.636719 296.75 71.242188 296.308594 71.875 L 296.933594 71.761719 C 297.957031 71.589844 299.035156 71.535156 300.117188 71.417969 C 302.160156 71.214844 304.1875 70.890625 306.195312 70.453125 C 307.878906 70.042969 309.488281 69.4375 311.023438 68.636719 C 311.789062 68.203125 312.527344 67.730469 313.242188 67.214844 L 314.320312 66.363281 L 315.285156 65.679688 C 315.855469 65.171875 315.910156 66.648438 315.742188 66.929688 C 315.246094 67.8125 314.640625 68.609375 313.921875 69.316406 C 313.160156 69.992188 312.328125 70.558594 311.421875 71.023438 C 309.683594 71.984375 307.847656 72.6875 305.910156 73.125 C 303.585938 73.613281 301.238281 73.9375 298.867188 74.089844 C 297.960938 74.226562 297.050781 74.28125 296.136719 74.261719 L 296.082031 74.261719 L 294.09375 74.660156 C 291.746094 75 289.453125 75.566406 287.21875 76.363281 C 284.832031 77.273438 282.386719 78.578125 280.742188 80.566406 C 279.09375 82.554688 278.695312 83.410156 278.410156 84.886719 C 277.898438 87.667969 277.160156 90.453125 276.820312 93.238281 C 276.734375 94.117188 276.789062 94.988281 276.992188 95.851562 C 285.058594 94.773438 293.523438 95 301.195312 97.785156 C 304.796875 99.09375 308.09375 100.949219 311.082031 103.351562 C 313.980469 105.679688 316.875 108.691406 317.957031 112.328125 C 318.234375 113.128906 318.382812 113.957031 318.410156 114.804688 C 318.433594 115.652344 318.332031 116.484375 318.105469 117.300781 C 317.875 118.117188 317.53125 118.882812 317.070312 119.59375 C 316.609375 120.308594 316.050781 120.933594 315.398438 121.476562 C 312.671875 123.804688 308.921875 124.601562 305.398438 124.203125 C 297.386719 123.292969 291.308594 116.929688 286.195312 111.304688 C 283.199219 108.070312 280.472656 104.625 278.011719 100.964844 C 277.449219 100.121094 276.976562 99.234375 276.59375 98.292969 L 275.570312 98.464844 C 273.921875 98.691406 272.160156 98.917969 270.796875 100 C 269.433594 101.078125 269.09375 103.351562 269.148438 105.339844 C 269.207031 107.328125 269.207031 108.917969 269.320312 110.738281 C 269.355469 113.34375 269.734375 115.902344 270.457031 118.40625 C 270.875 119.636719 271.445312 120.792969 272.160156 121.875 C 272.519531 122.46875 272.917969 123.035156 273.355469 123.578125 C 273.460938 123.648438 273.539062 123.742188 273.582031 123.863281 C 273.773438 123.90625 273.90625 124.019531 273.980469 124.203125 L 274.320312 124.65625 L 275.117188 125.398438 C 279.273438 129.222656 283.933594 132.292969 289.09375 134.601562 L 292.160156 136.078125 L 296.195312 136.816406 C 305.054688 138.332031 313.976562 139.28125 322.957031 139.65625 C 329.246094 140.039062 335.53125 140.019531 341.820312 139.601562 C 344.886719 139.375 347.957031 138.976562 350.96875 138.523438 C 352.445312 138.292969 353.863281 138.066406 355.34375 137.726562 C 356.820312 137.386719 358.980469 136.929688 359.886719 135.28125 C 360.796875 133.636719 360.910156 131.703125 361.136719 130 C 361.308594 128.03125 361.363281 126.0625 361.308594 124.089844 C 361.074219 120.242188 360.636719 116.414062 360 112.613281 C 359.773438 110.792969 359.488281 108.917969 359.320312 107.101562 C 359.304688 107.714844 359.226562 108.320312 359.09375 108.917969 C 358.355469 112.667969 355.796875 114.828125 352.332031 116.078125 C 348.867188 117.328125 344.886719 118.066406 341.367188 117.554688 C 338.230469 117.214844 335.199219 116.457031 332.273438 115.28125 C 332.183594 115.207031 332.128906 115.113281 332.105469 115 L 330.855469 116.078125 C 330.398438 116.53125 330.34375 115.167969 330.570312 114.886719 C 331.707031 113.351562 332.617188 111.589844 333.75 110 L 336.933594 105.511719 C 337.738281 104.238281 338.757812 103.179688 340 102.328125 C 341.136719 101.671875 342.347656 101.214844 343.636719 100.964844 L 342.386719 100.398438 C 340.886719 99.625 339.542969 98.640625 338.355469 97.441406 C 337.1875 96.285156 336.257812 94.957031 335.570312 93.464844 C 335.441406 93.167969 335.289062 92.886719 335.117188 92.613281 L 334.886719 92.386719 C 333.769531 92.476562 332.785156 92.152344 331.933594 91.417969 C 330.878906 90.652344 330.214844 89.628906 329.945312 88.351562 C 329.773438 87.554688 329.832031 86.363281 330.796875 86.136719 C 331.761719 85.910156 333.921875 86.929688 334.660156 87.953125 C 335.136719 88.761719 335.382812 89.632812 335.398438 90.566406 L 335.96875 90.285156 C 336.761719 89.773438 336.761719 89.203125 337.105469 88.410156 C 338.011719 86.535156 340 85.285156 342.046875 86.191406 C 342.785156 86.476562 343.296875 87.101562 344.035156 87.328125 C 345.449219 87.722656 346.871094 87.742188 348.296875 87.386719 C 351.535156 86.589844 354.546875 84.035156 353.070312 80.453125 C 352.273438 78.707031 351.097656 77.265625 349.546875 76.136719 C 346.421875 73.75 343.808594 70.625 341.25 67.671875 C 338.695312 64.714844 337.386719 63.238281 336.023438 60.511719 C 334.558594 57.734375 333.726562 54.78125 333.523438 51.648438 C 333.289062 51.433594 333.195312 51.167969 333.242188 50.851562 C 333.542969 47.671875 334.382812 44.640625 335.757812 41.761719 C 337.136719 38.878906 338.964844 36.320312 341.25 34.089844 C 342.019531 33.328125 342.929688 32.820312 343.980469 32.554688 C 343.347656 29.902344 342.484375 27.324219 341.386719 24.824219 C 340.292969 22.324219 338.980469 19.945312 337.449219 17.683594 C 335.921875 15.421875 334.203125 13.316406 332.292969 11.367188 C 330.382812 9.414062 328.3125 7.652344 326.082031 6.078125 C 323.953125 4.605469 321.71875 3.316406 319.375 2.214844 C 318.867188 1.933594 319.09375 0 319.660156 0.285156 C 322.640625 1.683594 325.4375 3.390625 328.046875 5.398438 C 330.65625 7.40625 333.023438 9.667969 335.140625 12.191406 C 337.261719 14.710938 339.082031 17.429688 340.613281 20.347656 C 342.140625 23.265625 343.339844 26.3125 344.207031 29.488281 C 344.488281 30.480469 344.714844 31.484375 344.886719 32.5 C 345.394531 32.492188 345.867188 32.613281 346.308594 32.867188 C 346.746094 33.125 347.089844 33.472656 347.332031 33.921875 C 348.125 35.171875 347.785156 38.125 346.136719 38.523438 C 345.917969 40.6875 346.070312 42.828125 346.59375 44.941406 C 347.070312 47.03125 347.695312 49.078125 348.46875 51.078125 C 350.171875 55 352.273438 58.75 354.207031 62.554688 C 356.136719 66.363281 358.183594 69.941406 359.832031 73.75 C 361.46875 77.390625 362.09375 81.195312 361.707031 85.167969 C 361.363281 89.375 360.34375 93.523438 360.230469 97.785156 C 360.238281 101.785156 360.5625 105.761719 361.195312 109.714844 C 362.273438 117.5 363.695312 125.453125 362.21875 133.238281 C 361.933594 134.941406 361.535156 136.648438 360.457031 138.011719 C 359.375 139.375 357.84375 139.941406 356.195312 140.339844 C 353.214844 141.027344 350.203125 141.539062 347.160156 141.875 C 340.769531 142.441406 334.367188 142.613281 327.957031 142.386719 C 317.785156 142.082031 307.671875 141.15625 297.617188 139.601562 C 295.34375 139.261719 293.011719 139.03125 290.796875 138.578125 C 288.019531 137.921875 285.398438 136.878906 282.929688 135.445312 C 280.464844 134.015625 278.257812 132.253906 276.308594 130.167969 C 276.628906 131.199219 276.894531 132.238281 277.105469 133.292969 C 277.707031 136.296875 277.972656 139.324219 277.898438 142.386719 C 277.820312 146.042969 277.25 149.621094 276.195312 153.125 C 273.929688 160.433594 270.539062 167.175781 266.023438 173.351562 C 265.003906 174.769531 263.921875 176.136719 262.84375 177.5 C 261.761719 178.863281 261.023438 179.941406 260.003906 181.078125 C 258.980469 182.214844 256.367188 184.714844 254.546875 186.53125 C 252.527344 188.433594 250.691406 190.5 249.035156 192.726562 C 247.734375 194.660156 246.597656 196.6875 245.628906 198.804688 C 255.398438 186.988281 267.445312 177.214844 281.367188 170.738281 C 289.207031 167.152344 297.347656 164.5 305.796875 162.78125 C 318.867188 160.054688 333.582031 159.03125 345.910156 164.886719 C 358.238281 170.738281 367.445312 185 363.75 199.03125 C 362.671875 203.292969 360.738281 207.328125 358.863281 211.304688 C 356.988281 215.28125 355.230469 219.089844 353.695312 223.125 C 350.535156 231.167969 348.09375 239.425781 346.363281 247.894531 C 345.855469 250.453125 345.34375 253.066406 344.945312 255.679688 C 344.832031 256.589844 342.671875 256.078125 342.785156 255.054688 C 344.246094 245.972656 346.441406 237.070312 349.375 228.351562 C 352.046875 220.625 355.683594 213.351562 358.921875 205.851562 C 360.570312 202.15625 361.988281 198.292969 362.386719 194.261719 C 362.792969 189.898438 362.070312 185.734375 360.230469 181.761719 C 359.007812 179.0625 357.449219 176.582031 355.546875 174.316406 C 353.648438 172.046875 351.476562 170.078125 349.035156 168.40625 C 337.898438 160.90625 323.125 161.363281 310.457031 163.578125 C 301.925781 165.039062 293.667969 167.445312 285.683594 170.792969 C 272.445312 176.363281 260.683594 185.054688 251.082031 195.679688 C 249.378906 197.554688 247.785156 199.488281 246.195312 201.417969 C 245.683594 202.101562 243.867188 201.476562 244.148438 200.679688 Z M 317.046875 50.566406 C 316.582031 50.035156 315.992188 49.769531 315.285156 49.773438 C 314.582031 49.753906 313.882812 49.792969 313.183594 49.886719 L 308.46875 50.398438 C 305.613281 50.738281 302.792969 51.25 300.003906 51.929688 C 297.0625 52.523438 294.164062 53.28125 291.308594 54.203125 C 288.511719 55.160156 286.164062 56.769531 284.261719 59.035156 L 284.148438 59.148438 C 285.019531 58.414062 285.929688 57.734375 286.878906 57.101562 C 288.976562 55.628906 291.246094 54.511719 293.695312 53.75 C 298.296875 52.386719 303.011719 52.839844 307.785156 52.671875 C 309.832031 52.613281 311.875 52.441406 313.921875 52.273438 L 316.535156 52.160156 C 317.160156 52.101562 317.730469 51.988281 318.355469 51.988281 C 317.980469 51.460938 317.542969 50.984375 317.046875 50.566406 Z M 282.332031 104.261719 C 286.933594 109.941406 292.105469 115.910156 298.582031 119.488281 C 301.59375 121.136719 304.945312 122.15625 308.410156 121.875 C 311.875 121.589844 315.625 120 317.105469 116.816406 C 318.582031 113.636719 314.773438 109.148438 312.445312 106.988281 C 309.972656 104.652344 307.1875 102.777344 304.09375 101.363281 C 297.046875 98.011719 289.148438 97.160156 281.421875 97.726562 L 277.84375 98.066406 C 278.980469 100.339844 280.855469 102.386719 282.332031 104.261719 Z M 335 114.542969 C 336.355469 115.117188 337.753906 115.511719 339.207031 115.738281 C 342.386719 116.304688 345.796875 115.910156 348.921875 115.226562 C 352.046875 114.542969 355.230469 113.636719 356.988281 111.136719 C 357.785156 110.054688 358.523438 108.523438 358.410156 107.160156 C 358.386719 106.554688 358.160156 106.046875 357.730469 105.625 C 357.332031 105.226562 356.707031 105.113281 356.25 104.773438 C 355.40625 105.394531 354.496094 105.90625 353.523438 106.304688 C 350.910156 107.328125 348.183594 107.785156 345.457031 108.464844 C 341.089844 109.472656 337.09375 111.292969 333.46875 113.917969 Z M 336.933594 107.667969 C 336.023438 108.976562 335.117188 110.226562 334.261719 111.535156 C 337.058594 109.222656 340.203125 107.574219 343.695312 106.589844 C 346.535156 105.851562 349.488281 105.625 352.273438 104.660156 C 353.421875 104.320312 354.519531 103.867188 355.570312 103.292969 C 356.082031 102.953125 356.707031 102.160156 357.332031 101.875 C 355.570312 99.941406 353.183594 97.898438 350.570312 99.488281 C 349.433594 100.113281 348.523438 101.078125 347.332031 101.648438 C 346.175781 102.15625 344.980469 102.554688 343.75 102.839844 C 343.03125 102.941406 342.332031 103.125 341.65625 103.394531 C 340.984375 103.660156 340.347656 104.003906 339.753906 104.425781 C 339.160156 104.84375 338.625 105.328125 338.148438 105.878906 C 337.671875 106.425781 337.265625 107.023438 336.933594 107.667969 Z M 334.546875 90.453125 C 334.308594 89.574219 333.816406 88.871094 333.070312 88.351562 C 332.511719 87.941406 331.886719 87.734375 331.195312 87.726562 C 331.136719 87.726562 330.511719 87.785156 330.570312 87.667969 C 330.625 87.554688 330.910156 88.523438 330.96875 88.578125 C 331.191406 89.160156 331.546875 89.644531 332.035156 90.03125 C 332.523438 90.417969 333.078125 90.65625 333.695312 90.738281 L 334.546875 90.738281 Z M 343.921875 34.316406 C 341.875 34.714844 340.34375 36.929688 339.148438 38.464844 C 337.164062 41.117188 335.707031 44.035156 334.773438 47.214844 C 337.160156 43.296875 341.023438 40.398438 344.832031 37.785156 C 344.71875 36.601562 344.550781 35.425781 344.320312 34.261719 Z M 346.363281 34.828125 C 346.035156 34.550781 345.65625 34.378906 345.230469 34.316406 L 345.570312 36.761719 C 345.8125 36.792969 346.042969 36.75 346.253906 36.628906 C 346.46875 36.503906 346.621094 36.328125 346.714844 36.101562 C 346.808594 35.875 346.820312 35.644531 346.757812 35.40625 C 346.691406 35.167969 346.5625 34.976562 346.367188 34.828125 Z M 359.488281 76.761719 C 358.070312 72.898438 356.023438 69.203125 354.207031 65.511719 C 352.386719 61.816406 350.457031 58.011719 348.75 54.203125 C 347.046875 50.398438 345.625 47.273438 345.171875 43.410156 C 345.019531 42.199219 344.984375 40.988281 345.058594 39.773438 C 340.511719 42.726562 335.910156 46.023438 334.035156 51.304688 C 334.035156 51.363281 334.035156 51.421875 333.980469 51.421875 C 335.058594 58.464844 339.660156 64.375 344.433594 69.375 C 346.023438 70.964844 347.613281 72.554688 349.320312 73.976562 C 350.679688 74.980469 351.816406 76.191406 352.730469 77.613281 C 354.261719 80.167969 354.886719 83.75 352.785156 86.136719 C 350.683594 88.523438 347.445312 89.261719 344.546875 88.863281 C 344.164062 88.855469 343.804688 88.761719 343.46875 88.578125 C 342.957031 88.351562 342.617188 87.953125 342.105469 87.785156 C 341.722656 87.644531 341.328125 87.574219 340.921875 87.574219 C 340.515625 87.570312 340.121094 87.636719 339.738281 87.773438 C 339.355469 87.90625 339.007812 88.101562 338.691406 88.359375 C 338.375 88.613281 338.109375 88.914062 337.898438 89.261719 C 337.160156 90.453125 337.332031 91.589844 335.796875 92.160156 L 335.683594 92.160156 L 336.136719 93.066406 C 336.933594 94.382812 337.898438 95.558594 339.035156 96.589844 C 340.152344 97.59375 341.382812 98.425781 342.730469 99.089844 C 343.390625 99.386719 344.074219 99.632812 344.773438 99.828125 C 345.332031 99.945312 345.882812 100.097656 346.421875 100.285156 C 346.984375 100.160156 347.515625 99.949219 348.011719 99.660156 C 349.207031 99.035156 350.171875 98.011719 351.480469 97.667969 C 354.207031 96.988281 356.421875 99.660156 357.898438 101.535156 C 358.003906 101.800781 357.96875 102.046875 357.785156 102.273438 C 357.738281 102.664062 357.605469 103.023438 357.386719 103.351562 C 358.027344 103.71875 358.523438 104.230469 358.863281 104.886719 C 358.992188 105.199219 359.089844 105.519531 359.148438 105.851562 C 358.980469 104.203125 358.863281 102.613281 358.808594 101.023438 C 358.675781 97.0625 358.996094 93.144531 359.773438 89.261719 C 360.570312 85 361.023438 80.964844 359.488281 76.761719 Z M 359.488281 76.761719 " fill-opacity="1" fill-rule="nonzero"/></g><g clip-path="url(#29ecfea70f)"><g clip-path="url(#cc336bcf3c)"><g clip-path="url(#184f904239)"><g clip-path="url(#e3cc435569)"><g clip-path="url(#a67f0c4197)"><path fill="#ffc0cb" d="M 219.488281 275.769531 C 219.863281 275.808594 220.234375 275.816406 220.605469 275.816406 C 221.019531 275.800781 221.425781 275.765625 221.835938 275.710938 C 222.296875 275.632812 222.757812 275.535156 223.207031 275.410156 C 223.636719 275.277344 224.058594 275.128906 224.472656 274.957031 C 224.941406 274.75 225.398438 274.515625 225.839844 274.261719 C 226.300781 273.976562 226.742188 273.667969 227.171875 273.335938 C 227.671875 272.9375 228.144531 272.511719 228.589844 272.054688 C 228.980469 271.644531 229.339844 271.21875 229.675781 270.769531 C 229.996094 270.320312 230.285156 269.859375 230.554688 269.382812 C 230.851562 268.824219 231.113281 268.253906 231.351562 267.664062 C 231.363281 267.625 231.378906 267.585938 231.394531 267.546875 C 231.394531 267.550781 231.394531 267.550781 231.390625 267.554688 C 231.628906 266.910156 231.824219 266.253906 231.992188 265.59375 C 232.144531 264.917969 232.265625 264.242188 232.34375 263.558594 C 232.386719 263.125 232.410156 262.691406 232.417969 262.257812 C 231.101562 262.476562 229.792969 262.746094 228.507812 263.105469 C 227.578125 263.378906 226.664062 263.703125 225.769531 264.078125 C 224.925781 264.449219 224.097656 264.855469 223.304688 265.328125 C 222.699219 265.695312 222.117188 266.09375 221.558594 266.53125 C 220.949219 267.019531 220.371094 267.550781 219.828125 268.109375 C 219.273438 268.691406 218.75 269.296875 218.273438 269.941406 C 217.988281 270.347656 217.71875 270.761719 217.476562 271.199219 C 217.332031 271.472656 217.203125 271.753906 217.085938 272.042969 C 217.007812 272.261719 216.941406 272.484375 216.882812 272.710938 C 216.84375 272.886719 216.8125 273.066406 216.789062 273.246094 C 216.78125 273.371094 216.773438 273.496094 216.773438 273.621094 C 216.78125 273.730469 216.789062 273.835938 216.800781 273.945312 C 216.816406 274.023438 216.832031 274.101562 216.851562 274.179688 C 216.878906 274.257812 216.902344 274.335938 216.933594 274.410156 C 216.964844 274.472656 216.996094 274.535156 217.03125 274.601562 C 217.074219 274.660156 217.109375 274.722656 217.15625 274.777344 C 217.207031 274.84375 217.265625 274.90625 217.324219 274.96875 C 217.390625 275.027344 217.453125 275.078125 217.519531 275.128906 C 217.613281 275.195312 217.707031 275.25 217.804688 275.308594 C 217.921875 275.367188 218.039062 275.421875 218.160156 275.472656 C 218.34375 275.539062 218.53125 275.59375 218.71875 275.640625 C 218.976562 275.699219 219.230469 275.738281 219.488281 275.769531 Z M 145.65625 280.347656 C 143.804688 279.230469 142.40625 277.421875 141.746094 275.371094 C 141.453125 274.457031 141.480469 273.476562 141.664062 272.542969 C 141.765625 272.011719 141.902344 271.480469 142.121094 270.984375 C 142.355469 270.449219 142.636719 269.949219 142.957031 269.457031 C 143.640625 268.398438 144.519531 267.5 145.445312 266.648438 C 146.457031 265.722656 147.546875 264.875 148.652344 264.066406 C 150.976562 262.363281 153.433594 260.855469 155.894531 259.351562 C 158.253906 257.914062 160.621094 256.488281 162.808594 254.792969 C 163.570312 254.179688 164.296875 253.535156 164.984375 252.835938 C 165.417969 252.371094 165.832031 251.890625 166.214844 251.382812 C 166.210938 251.386719 166.203125 251.394531 166.199219 251.402344 C 166.207031 251.394531 166.214844 251.382812 166.21875 251.375 C 166.242188 251.34375 166.265625 251.3125 166.289062 251.277344 C 166.273438 251.304688 166.25 251.332031 166.234375 251.355469 C 166.542969 250.925781 166.828125 250.484375 167.09375 250.023438 C 167.316406 249.613281 167.515625 249.195312 167.691406 248.765625 C 167.847656 248.359375 167.976562 247.945312 168.089844 247.519531 C 168.164062 247.183594 168.226562 246.84375 168.273438 246.5 C 168.300781 246.152344 168.316406 245.804688 168.3125 245.457031 C 168.300781 245.09375 168.269531 244.734375 168.226562 244.375 C 168.164062 244.015625 168.09375 243.660156 168.003906 243.304688 C 167.933594 243.0625 167.851562 242.824219 167.765625 242.589844 C 167.667969 242.375 167.558594 242.167969 167.445312 241.960938 C 167.308594 241.753906 167.167969 241.554688 167.015625 241.359375 C 166.769531 241.070312 166.511719 240.792969 166.246094 240.523438 C 165.890625 240.191406 165.523438 239.875 165.132812 239.574219 C 164.609375 239.199219 164.070312 238.855469 163.507812 238.542969 C 162.878906 238.214844 162.238281 237.921875 161.582031 237.660156 C 160.683594 237.328125 159.773438 237.050781 158.84375 236.8125 C 157.628906 236.535156 156.40625 236.332031 155.167969 236.183594 C 153.386719 236.003906 151.601562 235.945312 149.8125 235.976562 C 147.582031 236.050781 145.359375 236.269531 143.148438 236.589844 C 140.292969 237.027344 137.4375 237.570312 134.652344 238.34375 C 128.207031 240.261719 122.011719 242.929688 115.839844 245.578125 C 115.867188 245.566406 115.898438 245.550781 115.929688 245.539062 C 115.824219 245.582031 115.71875 245.625 115.617188 245.671875 C 115.617188 245.671875 115.617188 245.671875 115.621094 245.671875 C 115 245.9375 114.382812 246.203125 113.761719 246.46875 C 113.449219 246.605469 113.136719 246.738281 112.828125 246.871094 C 112.820312 246.875 112.820312 246.875 112.8125 246.875 C 112.769531 246.898438 112.726562 246.917969 112.683594 246.933594 C 112.65625 246.941406 112.628906 246.953125 112.605469 246.964844 C 112.574219 246.980469 112.542969 246.992188 112.511719 247.007812 C 112.507812 247.007812 112.5 247.011719 112.496094 247.015625 C 112.457031 247.03125 112.421875 247.046875 112.382812 247.0625 C 112.066406 247.199219 111.75 247.332031 111.433594 247.46875 C 110.0625 248.058594 108.6875 248.640625 107.308594 249.214844 C 106.003906 249.753906 104.6875 250.269531 103.367188 250.777344 C 102.050781 251.285156 100.726562 251.773438 99.390625 252.210938 C 96.59375 253.125 93.765625 253.945312 90.917969 254.675781 C 89.304688 255.085938 87.683594 255.472656 86.0625 255.84375 C 84.453125 256.207031 82.835938 256.507812 81.214844 256.789062 C 77.96875 257.339844 74.710938 257.785156 71.4375 258.0625 C 68.367188 258.324219 65.296875 258.53125 62.21875 258.664062 C 58.9375 258.796875 55.648438 258.886719 52.363281 258.855469 C 49.226562 258.824219 46.085938 258.738281 42.953125 258.59375 C 39.90625 258.453125 36.863281 258.097656 33.835938 257.761719 C 32.234375 257.585938 30.628906 257.40625 29.035156 257.171875 C 27.441406 256.941406 25.855469 256.65625 24.273438 256.351562 C 23.496094 256.203125 22.714844 256.042969 21.9375 255.878906 C 21.574219 255.808594 21.214844 255.722656 20.855469 255.640625 C 20.691406 255.605469 20.523438 255.566406 20.363281 255.527344 C 20.257812 255.5 20.152344 255.480469 20.050781 255.449219 C 19.972656 255.433594 19.890625 255.414062 19.808594 255.394531 C 18.460938 255.070312 17.128906 254.703125 15.792969 254.332031 C 14.546875 253.988281 13.296875 253.628906 12.085938 253.164062 C 11.445312 252.917969 10.773438 252.667969 10.214844 252.265625 C 10.191406 252.25 10.167969 252.234375 10.144531 252.214844 C 10.125 252.203125 10.109375 252.1875 10.089844 252.175781 C 9.65625 251.832031 9.574219 251.167969 9.863281 250.710938 C 10.175781 250.21875 10.917969 250.003906 11.414062 250.363281 C 11.515625 250.433594 11.617188 250.5 11.722656 250.558594 C 12.113281 250.753906 12.511719 250.917969 12.914062 251.074219 C 14.078125 251.503906 15.265625 251.851562 16.460938 252.183594 C 17.773438 252.546875 19.085938 252.910156 20.40625 253.230469 C 20.601562 253.273438 20.796875 253.320312 20.988281 253.371094 C 20.957031 253.359375 20.921875 253.351562 20.886719 253.34375 C 23.234375 253.878906 25.597656 254.359375 27.976562 254.734375 C 30.460938 255.128906 32.957031 255.410156 35.457031 255.679688 C 35.410156 255.671875 35.363281 255.667969 35.3125 255.664062 C 37.042969 255.847656 38.769531 256.027344 40.5 256.171875 C 42.332031 256.328125 44.171875 256.40625 46.007812 256.464844 C 49.75 256.582031 53.496094 256.648438 57.242188 256.570312 C 57.191406 256.574219 57.144531 256.574219 57.09375 256.574219 C 60.457031 256.488281 63.816406 256.367188 67.171875 256.140625 C 68.832031 256.023438 70.492188 255.890625 72.148438 255.742188 C 74.003906 255.578125 75.851562 255.339844 77.691406 255.070312 C 77.683594 255.070312 77.675781 255.070312 77.667969 255.074219 C 80.414062 254.65625 83.148438 254.199219 85.859375 253.582031 C 88.464844 252.992188 91.058594 252.34375 93.628906 251.617188 C 93.582031 251.632812 93.539062 251.644531 93.488281 251.660156 C 96.234375 250.871094 98.960938 250.03125 101.632812 249.027344 C 104.355469 248.003906 107.042969 246.898438 109.71875 245.757812 C 110.335938 245.496094 110.953125 245.234375 111.566406 244.96875 C 111.6875 244.914062 111.8125 244.867188 111.933594 244.8125 C 111.960938 244.796875 111.988281 244.785156 112.019531 244.773438 C 112.226562 244.683594 112.4375 244.597656 112.644531 244.503906 C 113.371094 244.195312 114.101562 243.878906 114.828125 243.566406 C 114.800781 243.578125 114.769531 243.59375 114.746094 243.605469 C 120.246094 241.242188 125.761719 238.878906 131.453125 236.992188 C 132.90625 236.515625 134.363281 236.070312 135.851562 235.710938 C 137.234375 235.367188 138.636719 235.101562 140.035156 234.835938 C 142.839844 234.304688 145.667969 233.949219 148.511719 233.78125 C 151.511719 233.601562 154.535156 233.75 157.496094 234.242188 C 160.222656 234.691406 162.898438 235.5625 165.28125 236.964844 C 166.441406 237.652344 167.519531 238.535156 168.414062 239.539062 C 168.816406 239.984375 169.175781 240.460938 169.476562 240.980469 C 169.800781 241.550781 170.039062 242.175781 170.199219 242.808594 C 170.503906 244.023438 170.636719 245.285156 170.527344 246.53125 C 170.414062 247.769531 170.074219 248.980469 169.566406 250.109375 C 167.847656 253.9375 164.421875 256.597656 160.984375 258.828125 C 158.941406 260.15625 156.839844 261.394531 154.773438 262.679688 C 152.65625 264 150.578125 265.382812 148.613281 266.917969 C 147.703125 267.648438 146.824219 268.40625 146 269.230469 C 145.710938 269.542969 145.441406 269.859375 145.179688 270.195312 C 144.902344 270.582031 144.648438 270.980469 144.410156 271.394531 C 144.328125 271.5625 144.25 271.730469 144.175781 271.902344 C 144.085938 272.144531 144.007812 272.386719 143.941406 272.636719 C 143.878906 272.933594 143.828125 273.222656 143.789062 273.519531 C 143.777344 273.660156 143.773438 273.796875 143.773438 273.9375 C 143.78125 274.058594 143.789062 274.175781 143.800781 274.292969 C 143.828125 274.425781 143.855469 274.550781 143.886719 274.683594 C 143.957031 274.886719 144.03125 275.085938 144.113281 275.285156 C 144.238281 275.5625 144.371094 275.828125 144.519531 276.09375 C 144.675781 276.339844 144.839844 276.582031 145.015625 276.8125 C 145.226562 277.070312 145.449219 277.308594 145.679688 277.546875 C 145.90625 277.75 146.136719 277.941406 146.375 278.125 C 146.617188 278.292969 146.863281 278.449219 147.121094 278.59375 C 147.488281 278.78125 147.863281 278.953125 148.246094 279.105469 C 148.730469 279.28125 149.21875 279.429688 149.722656 279.558594 C 150.367188 279.703125 151.015625 279.808594 151.667969 279.886719 C 152.472656 279.960938 153.277344 279.992188 154.082031 279.988281 C 155.214844 279.960938 156.339844 279.859375 157.460938 279.699219 C 158.941406 279.464844 160.402344 279.136719 161.847656 278.734375 C 161.800781 278.746094 161.753906 278.757812 161.707031 278.773438 C 163.574219 278.234375 165.398438 277.578125 167.183594 276.8125 C 167.136719 276.832031 167.09375 276.851562 167.050781 276.871094 C 168.78125 276.113281 170.457031 275.25 172.085938 274.292969 C 174.316406 272.945312 176.4375 271.441406 178.539062 269.902344 C 180.363281 268.570312 182.179688 267.222656 184.003906 265.894531 C 185.839844 264.566406 187.691406 263.257812 189.570312 261.992188 C 191.460938 260.71875 193.398438 259.503906 195.359375 258.335938 C 195.351562 258.339844 195.347656 258.34375 195.339844 258.351562 C 197.519531 257.054688 199.734375 255.824219 201.976562 254.640625 C 204.3125 253.40625 206.683594 252.222656 209.105469 251.179688 C 212.113281 249.886719 215.257812 248.945312 218.519531 248.605469 C 219.957031 248.457031 221.425781 248.480469 222.855469 248.667969 C 224.160156 248.832031 225.421875 249.175781 226.644531 249.65625 C 228.40625 250.351562 229.980469 251.484375 231.285156 252.84375 C 232.570312 254.175781 233.503906 255.863281 234.035156 257.628906 C 234.242188 258.308594 234.394531 258.996094 234.5 259.695312 C 234.84375 259.652344 235.1875 259.613281 235.53125 259.578125 C 237.40625 259.375 239.292969 259.269531 241.183594 259.308594 C 242.8125 259.347656 244.441406 259.507812 246.070312 259.609375 C 248.144531 259.742188 250.21875 259.808594 252.296875 259.773438 C 252.25 259.773438 252.203125 259.773438 252.15625 259.777344 C 254.539062 259.71875 256.910156 259.511719 259.269531 259.160156 C 262.152344 258.710938 264.996094 258.074219 267.804688 257.285156 C 267.757812 257.296875 267.710938 257.308594 267.664062 257.324219 C 271.476562 256.234375 275.179688 254.832031 278.828125 253.273438 C 278.8125 253.277344 278.796875 253.289062 278.78125 253.292969 C 281.675781 252.046875 284.535156 250.707031 287.445312 249.5 C 288.839844 248.921875 290.25 248.378906 291.679688 247.886719 C 293.0625 247.414062 294.46875 247.011719 295.882812 246.648438 C 298.53125 245.964844 301.234375 245.472656 303.945312 245.113281 C 306.238281 244.804688 308.542969 244.601562 310.859375 244.558594 C 313.550781 244.511719 316.226562 244.839844 318.800781 245.644531 C 321.515625 246.488281 324.070312 247.753906 326.546875 249.132812 C 327.082031 249.429688 327.210938 250.191406 326.898438 250.683594 C 326.734375 250.9375 326.476562 251.121094 326.183594 251.183594 C 325.886719 251.246094 325.609375 251.179688 325.34375 251.035156 C 325.128906 250.914062 324.914062 250.796875 324.691406 250.675781 C 324.738281 250.699219 324.78125 250.722656 324.824219 250.75 C 323.203125 249.867188 321.542969 249.0625 319.828125 248.382812 C 319.859375 248.394531 319.890625 248.410156 319.921875 248.417969 C 319.886719 248.40625 319.855469 248.390625 319.816406 248.382812 C 319.808594 248.375 319.796875 248.371094 319.785156 248.367188 C 319.796875 248.371094 319.804688 248.375 319.816406 248.378906 C 318.789062 247.992188 317.742188 247.652344 316.671875 247.390625 C 315.816406 247.195312 314.957031 247.042969 314.085938 246.945312 C 312.898438 246.824219 311.703125 246.792969 310.507812 246.8125 C 310.539062 246.8125 310.574219 246.8125 310.605469 246.8125 C 308.078125 246.875 305.566406 247.136719 303.070312 247.503906 C 303.113281 247.496094 303.164062 247.488281 303.210938 247.480469 C 300.488281 247.894531 297.789062 248.441406 295.136719 249.171875 C 292.375 249.957031 289.703125 250.972656 287.066406 252.097656 C 284.175781 253.34375 281.324219 254.671875 278.417969 255.882812 C 275.445312 257.132812 272.425781 258.257812 269.335938 259.179688 C 266.28125 260.085938 263.175781 260.808594 260.035156 261.316406 C 256.957031 261.816406 253.855469 262.035156 250.742188 262.035156 C 248.539062 262.035156 246.339844 261.890625 244.144531 261.734375 C 242.601562 261.621094 241.066406 261.527344 239.519531 261.554688 C 237.898438 261.601562 236.277344 261.738281 234.667969 261.9375 C 234.679688 264.160156 234.242188 266.390625 233.449219 268.464844 C 233.074219 269.425781 232.621094 270.339844 232.085938 271.21875 C 231.554688 272.082031 230.914062 272.875 230.214844 273.609375 C 228.9375 274.941406 227.414062 276.085938 225.730469 276.855469 C 224.3125 277.511719 222.792969 277.914062 221.234375 278.035156 C 220.546875 278.089844 219.855469 278.070312 219.171875 277.996094 C 218.589844 277.933594 218 277.816406 217.449219 277.605469 C 216.382812 277.195312 215.429688 276.5 214.933594 275.441406 C 214.414062 274.335938 214.449219 273.109375 214.753906 271.949219 C 215.113281 270.59375 215.882812 269.382812 216.71875 268.273438 C 217.1875 267.648438 217.710938 267.066406 218.257812 266.503906 C 218.8125 265.929688 219.394531 265.382812 220.019531 264.882812 C 222.84375 262.621094 226.273438 261.238281 229.785156 260.46875 C 230.609375 260.289062 231.441406 260.136719 232.273438 260 C 232.269531 259.980469 232.265625 259.964844 232.261719 259.941406 C 232.179688 259.445312 232.070312 258.953125 231.941406 258.464844 C 231.816406 258.058594 231.675781 257.660156 231.519531 257.265625 C 231.347656 256.882812 231.164062 256.507812 230.957031 256.136719 C 230.707031 255.726562 230.4375 255.335938 230.144531 254.957031 C 229.871094 254.628906 229.582031 254.3125 229.28125 254.011719 C 228.902344 253.65625 228.507812 253.328125 228.09375 253.019531 C 227.734375 252.765625 227.363281 252.53125 226.980469 252.308594 C 226.5 252.054688 226.011719 251.824219 225.503906 251.621094 C 224.972656 251.429688 224.433594 251.269531 223.882812 251.128906 C 223.285156 251.003906 222.691406 250.90625 222.089844 250.835938 C 221.429688 250.78125 220.777344 250.761719 220.113281 250.765625 C 219.273438 250.792969 218.441406 250.867188 217.605469 250.980469 C 216.480469 251.160156 215.375 251.40625 214.277344 251.703125 C 214.308594 251.695312 214.34375 251.6875 214.375 251.675781 C 212.976562 252.078125 211.613281 252.566406 210.269531 253.125 C 207.898438 254.148438 205.578125 255.292969 203.292969 256.492188 C 201.027344 257.675781 198.792969 258.917969 196.59375 260.21875 C 196.492188 260.277344 196.394531 260.335938 196.292969 260.394531 C 196.300781 260.390625 196.308594 260.390625 196.308594 260.382812 C 194.160156 261.671875 192.046875 263.019531 189.980469 264.433594 C 187.859375 265.882812 185.777344 267.382812 183.707031 268.898438 C 181.683594 270.378906 179.675781 271.882812 177.628906 273.335938 C 174.976562 275.222656 172.210938 276.953125 169.261719 278.339844 C 166.550781 279.613281 163.710938 280.632812 160.792969 281.335938 C 158.113281 281.976562 155.339844 282.351562 152.582031 282.210938 C 152.199219 282.191406 151.8125 282.164062 151.429688 282.125 C 149.410156 281.910156 147.398438 281.390625 145.65625 280.347656 " fill-opacity="1" fill-rule="nonzero"/></g></g></g></g></g><g fill="#578cb5" fill-opacity="1"><g transform="translate(183.023344, 193.797575)"><g><path d="M 6.5 -31.6875 C 6.894531 -31.65625 7.238281 -31.601562 7.53125 -31.53125 C 7.832031 -31.46875 8.113281 -31.363281 8.375 -31.21875 C 8.09375 -30.59375 7.800781 -29.84375 7.5 -28.96875 C 7.195312 -28.101562 6.960938 -27.253906 6.796875 -26.421875 C 6.484375 -26.367188 6.082031 -26.332031 5.59375 -26.3125 C 5.113281 -26.300781 4.613281 -26.3125 4.09375 -26.34375 C 4.039062 -26.601562 4.003906 -26.835938 3.984375 -27.046875 C 3.972656 -27.265625 3.96875 -27.488281 3.96875 -27.71875 C 3.96875 -28.3125 4.03125 -28.945312 4.15625 -29.625 C 4.289062 -30.3125 4.472656 -30.898438 4.703125 -31.390625 C 5.015625 -31.535156 5.296875 -31.628906 5.546875 -31.671875 C 5.804688 -31.710938 6.125 -31.71875 6.5 -31.6875 Z M 3.203125 -21.296875 C 3.546875 -21.492188 3.894531 -21.640625 4.25 -21.734375 C 4.601562 -21.835938 4.976562 -21.890625 5.375 -21.890625 C 5.601562 -21.890625 5.8125 -21.875 6 -21.84375 C 6.1875 -21.820312 6.378906 -21.78125 6.578125 -21.71875 C 6.003906 -18.726562 5.601562 -15.222656 5.375 -11.203125 C 5.144531 -7.179688 5.144531 -3.429688 5.375 0.046875 C 5.175781 0.160156 4.921875 0.242188 4.609375 0.296875 C 4.296875 0.359375 3.984375 0.390625 3.671875 0.390625 C 3.523438 0.390625 3.390625 0.378906 3.265625 0.359375 C 3.140625 0.347656 2.988281 0.328125 2.8125 0.296875 C 2.332031 -3.316406 2.125 -7.054688 2.1875 -10.921875 C 2.257812 -14.785156 2.597656 -18.242188 3.203125 -21.296875 Z M 3.203125 -21.296875 "/></g></g></g><g fill="#578cb5" fill-opacity="1"><g transform="translate(191.831962, 193.797575)"><g><path d="M 16.46875 -2.09375 C 16.4375 -1.632812 16.363281 -1.171875 16.25 -0.703125 C 16.132812 -0.234375 15.960938 0.253906 15.734375 0.765625 C 12.742188 0.742188 10.054688 0.601562 7.671875 0.34375 C 5.296875 0.0820312 2.96875 -0.328125 0.6875 -0.890625 C 0.65625 -1.328125 0.65625 -1.726562 0.6875 -2.09375 C 0.71875 -2.46875 0.757812 -2.8125 0.8125 -3.125 C 3.238281 -6.375 5.503906 -9.242188 7.609375 -11.734375 C 9.722656 -14.234375 11.9375 -16.648438 14.25 -18.984375 C 12.625 -19.296875 11.039062 -19.546875 9.5 -19.734375 C 7.957031 -19.921875 5.734375 -20.128906 2.828125 -20.359375 C 2.878906 -20.984375 2.945312 -21.476562 3.03125 -21.84375 C 3.125 -22.21875 3.269531 -22.648438 3.46875 -23.140625 C 6.207031 -22.910156 8.609375 -22.609375 10.671875 -22.234375 C 12.742188 -21.867188 15.046875 -21.300781 17.578125 -20.53125 C 17.578125 -20.15625 17.539062 -19.757812 17.46875 -19.34375 C 17.394531 -18.9375 17.304688 -18.578125 17.203125 -18.265625 C 14.546875 -15.523438 12.179688 -12.945312 10.109375 -10.53125 C 8.046875 -8.125 5.914062 -5.453125 3.71875 -2.515625 C 6.144531 -2.203125 8.320312 -2.015625 10.25 -1.953125 C 12.175781 -1.898438 14.25 -1.945312 16.46875 -2.09375 Z M 16.46875 -2.09375 "/></g></g></g><g fill="#578cb5" fill-opacity="1"><g transform="translate(210.689237, 193.797575)"><g><path d="M 5.46875 -31.5625 C 5.21875 -30.90625 4.976562 -30.128906 4.75 -29.234375 C 4.519531 -28.335938 4.347656 -27.472656 4.234375 -26.640625 C 3.953125 -26.554688 3.585938 -26.492188 3.140625 -26.453125 C 2.703125 -26.410156 2.171875 -26.375 1.546875 -26.34375 C 1.429688 -26.71875 1.347656 -27.070312 1.296875 -27.40625 C 1.253906 -27.75 1.234375 -28.066406 1.234375 -28.359375 C 1.179688 -28.953125 1.179688 -29.507812 1.234375 -30.03125 C 1.296875 -30.5625 1.398438 -31.070312 1.546875 -31.5625 C 1.828125 -31.707031 2.125 -31.8125 2.4375 -31.875 C 2.75 -31.945312 3.101562 -31.984375 3.5 -31.984375 C 3.957031 -31.960938 4.328125 -31.921875 4.609375 -31.859375 C 4.898438 -31.804688 5.1875 -31.707031 5.46875 -31.5625 Z M 7.015625 -8.375 C 7.015625 -2.988281 6.394531 1.132812 5.15625 4 C 3.914062 6.863281 2.140625 8.296875 -0.171875 8.296875 C -1.367188 8.296875 -2.441406 7.984375 -3.390625 7.359375 C -4.347656 6.734375 -5.171875 5.804688 -5.859375 4.578125 C -5.660156 4.117188 -5.40625 3.695312 -5.09375 3.3125 C -4.78125 2.925781 -4.453125 2.609375 -4.109375 2.359375 C -3.585938 3.441406 -3.035156 4.238281 -2.453125 4.75 C -1.867188 5.257812 -1.207031 5.515625 -0.46875 5.515625 C 0.894531 5.515625 1.929688 4.492188 2.640625 2.453125 C 3.359375 0.421875 3.71875 -2.546875 3.71875 -6.453125 C 3.71875 -8.484375 3.5625 -10.640625 3.25 -12.921875 C 2.9375 -15.203125 2.296875 -18.421875 1.328125 -22.578125 C 1.867188 -22.773438 2.46875 -22.898438 3.125 -22.953125 C 3.78125 -23.015625 4.476562 -23.019531 5.21875 -22.96875 C 5.875 -19.570312 6.335938 -16.757812 6.609375 -14.53125 C 6.878906 -12.3125 7.015625 -10.257812 7.015625 -8.375 Z M 7.015625 -8.375 "/></g></g></g><g fill="#578cb5" fill-opacity="1"><g transform="translate(220.481335, 193.797575)"><g><path d="M 1.28125 -10.34375 C 1.28125 -14.050781 2.128906 -17.070312 3.828125 -19.40625 C 5.523438 -21.75 7.710938 -22.921875 10.390625 -22.921875 C 12.585938 -22.921875 14.328125 -22.085938 15.609375 -20.421875 C 16.890625 -18.753906 17.53125 -16.507812 17.53125 -13.6875 C 17.53125 -9.550781 16.722656 -6.164062 15.109375 -3.53125 C 13.503906 -0.894531 11.375 0.421875 8.71875 0.421875 C 6.4375 0.421875 4.625 -0.566406 3.28125 -2.546875 C 1.945312 -4.523438 1.28125 -7.125 1.28125 -10.34375 Z M 14.109375 -11.890625 C 14.109375 -14.796875 13.738281 -16.960938 13 -18.390625 C 12.257812 -19.816406 11.132812 -20.53125 9.625 -20.53125 C 8.25 -20.53125 7.054688 -19.585938 6.046875 -17.703125 C 5.035156 -15.816406 4.53125 -13.507812 4.53125 -10.78125 C 4.53125 -8.269531 4.957031 -6.164062 5.8125 -4.46875 C 6.664062 -2.769531 7.820312 -1.921875 9.28125 -1.921875 C 10.5625 -1.921875 11.6875 -2.894531 12.65625 -4.84375 C 13.625 -6.800781 14.109375 -9.148438 14.109375 -11.890625 Z M 14.109375 -11.890625 "/></g></g></g><g fill="#ffc0cb" fill-opacity="1"><g transform="translate(159.910799, 234.717211)"><g><path d="M 15.46875 -1.453125 C 15.101562 -1.335938 14.632812 -1.242188 14.0625 -1.171875 C 13.488281 -1.097656 12.90625 -1.050781 12.3125 -1.03125 C 12.457031 -5.613281 12.398438 -10.507812 12.140625 -15.71875 C 11.878906 -20.9375 11.4375 -25.753906 10.8125 -30.171875 C 9.363281 -30.023438 7.863281 -29.84375 6.3125 -29.625 C 4.757812 -29.414062 3.082031 -29.1875 1.28125 -28.9375 C 1.164062 -29.414062 1.078125 -29.894531 1.015625 -30.375 C 0.960938 -30.863281 0.953125 -31.304688 0.984375 -31.703125 C 5.253906 -32.421875 9.050781 -32.9375 12.375 -33.25 C 15.695312 -33.5625 19.476562 -33.742188 23.71875 -33.796875 C 23.800781 -33.597656 23.863281 -33.367188 23.90625 -33.109375 C 23.957031 -32.859375 23.992188 -32.578125 24.015625 -32.265625 C 24.015625 -32.148438 24.015625 -32.019531 24.015625 -31.875 C 24.015625 -31.738281 23.988281 -31.398438 23.9375 -30.859375 C 22.226562 -30.828125 20.617188 -30.78125 19.109375 -30.71875 C 17.597656 -30.664062 16.101562 -30.582031 14.625 -30.46875 C 14.988281 -26.769531 15.253906 -23.285156 15.421875 -20.015625 C 15.597656 -16.753906 15.6875 -13.359375 15.6875 -9.828125 C 15.6875 -8.597656 15.671875 -7.300781 15.640625 -5.9375 C 15.617188 -4.570312 15.5625 -3.078125 15.46875 -1.453125 Z M 15.46875 -1.453125 "/></g></g></g><g fill="#ffc0cb" fill-opacity="1"><g transform="translate(185.122111, 234.717211)"><g><path d="M 6.5 0.078125 C 6.269531 0.171875 6 0.242188 5.6875 0.296875 C 5.375 0.359375 5.0625 0.390625 4.75 0.390625 C 4.519531 0.410156 4.3125 0.40625 4.125 0.375 C 3.9375 0.351562 3.757812 0.3125 3.59375 0.25 C 2.875 -3.363281 2.394531 -7.148438 2.15625 -11.109375 C 1.914062 -15.066406 1.894531 -19.054688 2.09375 -23.078125 C 2.289062 -23.160156 2.53125 -23.222656 2.8125 -23.265625 C 3.101562 -23.304688 3.535156 -23.328125 4.109375 -23.328125 C 4.390625 -23.328125 4.664062 -23.304688 4.9375 -23.265625 C 5.207031 -23.222656 5.484375 -23.160156 5.765625 -23.078125 C 5.597656 -21.847656 5.46875 -20.804688 5.375 -19.953125 C 5.289062 -19.097656 5.238281 -18.285156 5.21875 -17.515625 C 5.875 -19.742188 6.738281 -21.5 7.8125 -22.78125 C 8.894531 -24.0625 10.023438 -24.703125 11.203125 -24.703125 C 12.335938 -24.703125 13.175781 -24.28125 13.71875 -23.4375 C 14.257812 -22.59375 14.53125 -21.304688 14.53125 -19.578125 C 14.53125 -19.234375 14.515625 -18.859375 14.484375 -18.453125 C 14.453125 -18.054688 14.425781 -17.628906 14.40625 -17.171875 C 14.0625 -17.085938 13.65625 -17.023438 13.1875 -16.984375 C 12.71875 -16.941406 12.210938 -16.9375 11.671875 -16.96875 C 11.722656 -17.394531 11.765625 -17.800781 11.796875 -18.1875 C 11.828125 -18.570312 11.84375 -18.945312 11.84375 -19.3125 C 11.84375 -20.226562 11.726562 -20.90625 11.5 -21.34375 C 11.269531 -21.789062 10.925781 -22.015625 10.46875 -22.015625 C 9.5 -22.015625 8.53125 -20.992188 7.5625 -18.953125 C 6.59375 -16.910156 5.820312 -14.269531 5.25 -11.03125 C 5.34375 -9.40625 5.488281 -7.671875 5.6875 -5.828125 C 5.882812 -3.992188 6.15625 -2.023438 6.5 0.078125 Z M 6.5 0.078125 "/></g></g></g><g fill="#ffc0cb" fill-opacity="1"><g transform="translate(200.462552, 234.717211)"><g><path d="M 5.078125 -13.375 C 5.910156 -13.09375 6.800781 -12.875 7.75 -12.71875 C 8.707031 -12.5625 9.710938 -12.484375 10.765625 -12.484375 C 11.054688 -12.484375 11.390625 -12.492188 11.765625 -12.515625 C 12.148438 -12.546875 12.429688 -12.59375 12.609375 -12.65625 C 12.835938 -13.476562 13 -14.238281 13.09375 -14.9375 C 13.195312 -15.632812 13.25 -16.269531 13.25 -16.84375 C 13.25 -18.09375 13.039062 -18.988281 12.625 -19.53125 C 12.21875 -20.070312 11.554688 -20.34375 10.640625 -20.34375 C 9.441406 -20.34375 8.34375 -19.703125 7.34375 -18.421875 C 6.351562 -17.140625 5.597656 -15.457031 5.078125 -13.375 Z M 14.609375 -7.265625 C 15.066406 -7.179688 15.53125 -7.007812 16 -6.75 C 16.46875 -6.5 16.875 -6.203125 17.21875 -5.859375 C 16.675781 -4.234375 15.570312 -2.769531 13.90625 -1.46875 C 12.238281 -0.175781 10.507812 0.46875 8.71875 0.46875 C 6.40625 0.46875 4.585938 -0.425781 3.265625 -2.21875 C 1.941406 -4.019531 1.28125 -6.425781 1.28125 -9.4375 C 1.28125 -12.832031 2.226562 -15.882812 4.125 -18.59375 C 6.019531 -21.300781 8.273438 -22.65625 10.890625 -22.65625 C 12.578125 -22.65625 13.910156 -22.117188 14.890625 -21.046875 C 15.878906 -19.972656 16.375 -18.523438 16.375 -16.703125 C 16.375 -15.734375 16.28125 -14.757812 16.09375 -13.78125 C 15.90625 -12.800781 15.65625 -11.867188 15.34375 -10.984375 C 14.769531 -10.785156 14.078125 -10.632812 13.265625 -10.53125 C 12.453125 -10.4375 11.445312 -10.390625 10.25 -10.390625 C 9.34375 -10.390625 8.410156 -10.46875 7.453125 -10.625 C 6.503906 -10.78125 5.585938 -11.015625 4.703125 -11.328125 C 4.640625 -10.984375 4.601562 -10.644531 4.59375 -10.3125 C 4.582031 -9.988281 4.578125 -9.671875 4.578125 -9.359375 C 4.578125 -7.109375 4.96875 -5.289062 5.75 -3.90625 C 6.53125 -2.53125 7.578125 -1.84375 8.890625 -1.84375 C 10.023438 -1.84375 11.160156 -2.375 12.296875 -3.4375 C 13.441406 -4.507812 14.210938 -5.785156 14.609375 -7.265625 Z M 14.609375 -7.265625 "/></g></g></g><g fill="#ffc0cb" fill-opacity="1"><g transform="translate(219.050547, 234.717211)"><g><path d="M 5.390625 -7.140625 C 5.390625 -5.796875 5.414062 -4.273438 5.46875 -2.578125 C 5.53125 -0.890625 5.601562 0.335938 5.6875 1.109375 C 5.3125 1.222656 4.867188 1.320312 4.359375 1.40625 C 3.847656 1.488281 3.347656 1.53125 2.859375 1.53125 C 2.660156 -1.457031 2.488281 -5.328125 2.34375 -10.078125 C 2.207031 -14.835938 2.140625 -18.867188 2.140625 -22.171875 C 2.421875 -22.316406 2.757812 -22.429688 3.15625 -22.515625 C 3.5625 -22.609375 3.976562 -22.65625 4.40625 -22.65625 C 4.6875 -22.65625 4.960938 -22.640625 5.234375 -22.609375 C 5.503906 -22.578125 5.78125 -22.535156 6.0625 -22.484375 C 6.007812 -21.960938 5.945312 -21.140625 5.875 -20.015625 C 5.800781 -18.890625 5.75 -18.15625 5.71875 -17.8125 C 6.664062 -19.382812 7.664062 -20.554688 8.71875 -21.328125 C 9.769531 -22.097656 10.878906 -22.484375 12.046875 -22.484375 C 13.816406 -22.484375 15.109375 -21.832031 15.921875 -20.53125 C 16.734375 -19.238281 17.140625 -17.207031 17.140625 -14.4375 C 17.140625 -12.21875 16.957031 -9.726562 16.59375 -6.96875 C 16.238281 -4.207031 15.863281 -2.039062 15.46875 -0.46875 C 15.007812 -0.5 14.503906 -0.5625 13.953125 -0.65625 C 13.398438 -0.757812 12.894531 -0.882812 12.4375 -1.03125 C 12.945312 -3.820312 13.316406 -6.296875 13.546875 -8.453125 C 13.773438 -10.617188 13.890625 -12.660156 13.890625 -14.578125 C 13.890625 -16.367188 13.664062 -17.660156 13.21875 -18.453125 C 12.78125 -19.253906 12.0625 -19.65625 11.0625 -19.65625 C 10.070312 -19.65625 9.082031 -19.15625 8.09375 -18.15625 C 7.113281 -17.164062 6.269531 -15.800781 5.5625 -14.0625 C 5.5 -12.007812 5.453125 -10.507812 5.421875 -9.5625 C 5.398438 -8.625 5.390625 -7.816406 5.390625 -7.140625 Z M 5.390625 -7.140625 "/></g></g></g><g fill="#ffc0cb" fill-opacity="1"><g transform="translate(238.749557, 234.717211)"><g><path d="M 5.078125 -13.375 C 5.910156 -13.09375 6.800781 -12.875 7.75 -12.71875 C 8.707031 -12.5625 9.710938 -12.484375 10.765625 -12.484375 C 11.054688 -12.484375 11.390625 -12.492188 11.765625 -12.515625 C 12.148438 -12.546875 12.429688 -12.59375 12.609375 -12.65625 C 12.835938 -13.476562 13 -14.238281 13.09375 -14.9375 C 13.195312 -15.632812 13.25 -16.269531 13.25 -16.84375 C 13.25 -18.09375 13.039062 -18.988281 12.625 -19.53125 C 12.21875 -20.070312 11.554688 -20.34375 10.640625 -20.34375 C 9.441406 -20.34375 8.34375 -19.703125 7.34375 -18.421875 C 6.351562 -17.140625 5.597656 -15.457031 5.078125 -13.375 Z M 14.609375 -7.265625 C 15.066406 -7.179688 15.53125 -7.007812 16 -6.75 C 16.46875 -6.5 16.875 -6.203125 17.21875 -5.859375 C 16.675781 -4.234375 15.570312 -2.769531 13.90625 -1.46875 C 12.238281 -0.175781 10.507812 0.46875 8.71875 0.46875 C 6.40625 0.46875 4.585938 -0.425781 3.265625 -2.21875 C 1.941406 -4.019531 1.28125 -6.425781 1.28125 -9.4375 C 1.28125 -12.832031 2.226562 -15.882812 4.125 -18.59375 C 6.019531 -21.300781 8.273438 -22.65625 10.890625 -22.65625 C 12.578125 -22.65625 13.910156 -22.117188 14.890625 -21.046875 C 15.878906 -19.972656 16.375 -18.523438 16.375 -16.703125 C 16.375 -15.734375 16.28125 -14.757812 16.09375 -13.78125 C 15.90625 -12.800781 15.65625 -11.867188 15.34375 -10.984375 C 14.769531 -10.785156 14.078125 -10.632812 13.265625 -10.53125 C 12.453125 -10.4375 11.445312 -10.390625 10.25 -10.390625 C 9.34375 -10.390625 8.410156 -10.46875 7.453125 -10.625 C 6.503906 -10.78125 5.585938 -11.015625 4.703125 -11.328125 C 4.640625 -10.984375 4.601562 -10.644531 4.59375 -10.3125 C 4.582031 -9.988281 4.578125 -9.671875 4.578125 -9.359375 C 4.578125 -7.109375 4.96875 -5.289062 5.75 -3.90625 C 6.53125 -2.53125 7.578125 -1.84375 8.890625 -1.84375 C 10.023438 -1.84375 11.160156 -2.375 12.296875 -3.4375 C 13.441406 -4.507812 14.210938 -5.785156 14.609375 -7.265625 Z M 14.609375 -7.265625 "/></g></g></g><g fill="#ffc0cb" fill-opacity="1"><g transform="translate(257.337552, 234.717211)"><g><path d="M 6.5 0.078125 C 6.269531 0.171875 6 0.242188 5.6875 0.296875 C 5.375 0.359375 5.0625 0.390625 4.75 0.390625 C 4.519531 0.410156 4.3125 0.40625 4.125 0.375 C 3.9375 0.351562 3.757812 0.3125 3.59375 0.25 C 2.875 -3.363281 2.394531 -7.148438 2.15625 -11.109375 C 1.914062 -15.066406 1.894531 -19.054688 2.09375 -23.078125 C 2.289062 -23.160156 2.53125 -23.222656 2.8125 -23.265625 C 3.101562 -23.304688 3.535156 -23.328125 4.109375 -23.328125 C 4.390625 -23.328125 4.664062 -23.304688 4.9375 -23.265625 C 5.207031 -23.222656 5.484375 -23.160156 5.765625 -23.078125 C 5.597656 -21.847656 5.46875 -20.804688 5.375 -19.953125 C 5.289062 -19.097656 5.238281 -18.285156 5.21875 -17.515625 C 5.875 -19.742188 6.738281 -21.5 7.8125 -22.78125 C 8.894531 -24.0625 10.023438 -24.703125 11.203125 -24.703125 C 12.335938 -24.703125 13.175781 -24.28125 13.71875 -23.4375 C 14.257812 -22.59375 14.53125 -21.304688 14.53125 -19.578125 C 14.53125 -19.234375 14.515625 -18.859375 14.484375 -18.453125 C 14.453125 -18.054688 14.425781 -17.628906 14.40625 -17.171875 C 14.0625 -17.085938 13.65625 -17.023438 13.1875 -16.984375 C 12.71875 -16.941406 12.210938 -16.9375 11.671875 -16.96875 C 11.722656 -17.394531 11.765625 -17.800781 11.796875 -18.1875 C 11.828125 -18.570312 11.84375 -18.945312 11.84375 -19.3125 C 11.84375 -20.226562 11.726562 -20.90625 11.5 -21.34375 C 11.269531 -21.789062 10.925781 -22.015625 10.46875 -22.015625 C 9.5 -22.015625 8.53125 -20.992188 7.5625 -18.953125 C 6.59375 -16.910156 5.820312 -14.269531 5.25 -11.03125 C 5.34375 -9.40625 5.488281 -7.671875 5.6875 -5.828125 C 5.882812 -3.992188 6.15625 -2.023438 6.5 0.078125 Z M 6.5 0.078125 "/></g></g></g><g fill="#ffc0cb" fill-opacity="1"><g transform="translate(272.677993, 234.717211)"><g><path d="M 5.25 -10.078125 C 5.25 -7.972656 5.304688 -5.953125 5.421875 -4.015625 C 5.535156 -2.078125 5.722656 -0.140625 5.984375 1.796875 C 5.492188 1.910156 4.976562 1.992188 4.4375 2.046875 C 3.894531 2.109375 3.425781 2.140625 3.03125 2.140625 C 2.6875 -1.253906 2.457031 -4.03125 2.34375 -6.1875 C 2.226562 -8.351562 2.171875 -10.617188 2.171875 -12.984375 C 2.171875 -16.117188 2.28125 -19.28125 2.5 -22.46875 C 2.71875 -25.664062 3.023438 -28.628906 3.421875 -31.359375 C 4.046875 -31.421875 4.6875 -31.421875 5.34375 -31.359375 C 6 -31.304688 6.539062 -31.207031 6.96875 -31.0625 C 6.476562 -28.039062 6.09375 -25.054688 5.8125 -22.109375 C 5.53125 -19.160156 5.359375 -16.234375 5.296875 -13.328125 C 7.316406 -15.097656 9.03125 -16.800781 10.4375 -18.4375 C 11.851562 -20.070312 13.375 -22.160156 15 -24.703125 C 15.425781 -24.503906 15.832031 -24.238281 16.21875 -23.90625 C 16.601562 -23.582031 16.9375 -23.234375 17.21875 -22.859375 C 15.769531 -20.671875 14.394531 -18.847656 13.09375 -17.390625 C 11.800781 -15.941406 10.226562 -14.445312 8.375 -12.90625 C 9.65625 -11.019531 11.019531 -9.382812 12.46875 -8 C 13.925781 -6.625 15.851562 -5.125 18.25 -3.5 C 17.757812 -2.789062 17.347656 -2.265625 17.015625 -1.921875 C 16.691406 -1.578125 16.347656 -1.304688 15.984375 -1.109375 C 14.160156 -2.535156 12.5625 -3.984375 11.1875 -5.453125 C 9.820312 -6.921875 8.226562 -8.878906 6.40625 -11.328125 C 6.207031 -11.179688 6.015625 -11.03125 5.828125 -10.875 C 5.648438 -10.71875 5.457031 -10.566406 5.25 -10.421875 C 5.25 -10.367188 5.25 -10.3125 5.25 -10.25 C 5.25 -10.195312 5.25 -10.140625 5.25 -10.078125 Z M 5.25 -10.078125 "/></g></g></g><g fill="#ffc0cb" fill-opacity="1"><g transform="translate(291.778765, 234.717211)"><g><path d="M 16.875 -14.578125 C 16.875 -12.691406 16.617188 -10.195312 16.109375 -7.09375 C 15.597656 -3.988281 14.984375 -1.140625 14.265625 1.453125 C 13.835938 1.453125 13.378906 1.410156 12.890625 1.328125 C 12.410156 1.242188 11.945312 1.128906 11.5 0.984375 C 11.519531 0.867188 11.546875 0.734375 11.578125 0.578125 C 11.609375 0.421875 11.664062 0.210938 11.75 -0.046875 C 11.832031 -0.492188 11.898438 -0.828125 11.953125 -1.046875 C 12.015625 -1.265625 12.0625 -1.457031 12.09375 -1.625 C 11.5 -1.195312 10.820312 -0.867188 10.0625 -0.640625 C 9.3125 -0.410156 8.507812 -0.296875 7.65625 -0.296875 C 5.71875 -0.296875 4.148438 -0.816406 2.953125 -1.859375 C 1.753906 -2.898438 1.15625 -4.273438 1.15625 -5.984375 C 1.15625 -7.835938 1.9375 -9.25 3.5 -10.21875 C 5.070312 -11.1875 7.378906 -11.671875 10.421875 -11.671875 C 10.878906 -11.671875 11.320312 -11.660156 11.75 -11.640625 C 12.175781 -11.628906 12.75 -11.609375 13.46875 -11.578125 C 13.488281 -11.867188 13.5 -12.179688 13.5 -12.515625 C 13.5 -12.859375 13.5 -13.398438 13.5 -14.140625 C 13.5 -16.421875 13.222656 -18.070312 12.671875 -19.09375 C 12.117188 -20.125 11.203125 -20.640625 9.921875 -20.640625 C 8.609375 -20.640625 7.507812 -20.0625 6.625 -18.90625 C 5.738281 -17.75 5.269531 -16.289062 5.21875 -14.53125 C 4.414062 -14.644531 3.769531 -14.835938 3.28125 -15.109375 C 2.800781 -15.378906 2.429688 -15.742188 2.171875 -16.203125 C 2.515625 -18.078125 3.460938 -19.671875 5.015625 -20.984375 C 6.566406 -22.296875 8.34375 -22.953125 10.34375 -22.953125 C 12.507812 -22.953125 14.140625 -22.242188 15.234375 -20.828125 C 16.328125 -19.421875 16.875 -17.335938 16.875 -14.578125 Z M 4.53125 -5.890625 C 4.53125 -4.835938 4.867188 -4.003906 5.546875 -3.390625 C 6.234375 -2.785156 7.132812 -2.484375 8.25 -2.484375 C 9.039062 -2.484375 9.800781 -2.601562 10.53125 -2.84375 C 11.257812 -3.082031 11.9375 -3.445312 12.5625 -3.9375 C 12.789062 -5.101562 12.96875 -6.140625 13.09375 -7.046875 C 13.226562 -7.960938 13.320312 -8.875 13.375 -9.78125 C 10.4375 -9.957031 8.226562 -9.722656 6.75 -9.078125 C 5.269531 -8.441406 4.53125 -7.378906 4.53125 -5.890625 Z M 4.53125 -5.890625 "/></g></g></g></svg>