<svg xmlns="http://www.w3.org/2000/svg" xmlns:xlink="http://www.w3.org/1999/xlink" width="100" zoomAndPan="magnify" viewBox="0 0 75 74.999997" height="100" preserveAspectRatio="xMidYMid meet" version="1.0"><defs><clipPath id="a4589c81d9"><path d="M 2 0 L 73.839844 0 L 73.839844 75 L 2 75 Z M 2 0 " clip-rule="nonzero"/></clipPath><clipPath id="6c7ee7349e"><path d="M 15.5625 15.5625 L 59.0625 15.5625 L 59.0625 59.0625 L 15.5625 59.0625 Z M 15.5625 15.5625 " clip-rule="nonzero"/></clipPath></defs><g clip-path="url(#a4589c81d9)"><path fill="#ffc0cb" d="M 61.597656 71.078125 C 67.195312 67.421875 70.589844 60.414062 72.175781 53.539062 C 73.761719 46.710938 73.542969 40.011719 72.484375 33.535156 C 71.46875 27.011719 69.664062 20.710938 66.003906 15.246094 C 62.347656 9.78125 56.929688 5.15625 50.496094 2.730469 C 44.015625 0.265625 36.613281 0 30.269531 2.335938 C 23.96875 4.714844 18.722656 9.695312 13.921875 15.160156 C 9.117188 20.578125 4.710938 26.441406 2.992188 33.179688 C 1.230469 39.921875 2.109375 47.546875 5.195312 54.113281 C 8.28125 60.679688 13.566406 66.1875 19.824219 69.535156 C 26.039062 72.886719 33.265625 74.074219 40.757812 74.515625 C 48.246094 75 56.003906 74.691406 61.597656 71.078125 Z M 61.597656 71.078125 " fill-opacity="1" fill-rule="nonzero"/></g><g clip-path="url(#6c7ee7349e)"><path fill="#ffffff" d="M 28.460938 15.5625 C 21.382812 15.5625 15.5625 21.375 15.5625 28.460938 L 15.5625 46.527344 C 15.5625 53.609375 21.375 59.425781 28.460938 59.425781 L 46.527344 59.425781 C 53.609375 59.425781 59.425781 53.617188 59.425781 46.527344 L 59.425781 28.460938 C 59.425781 21.382812 53.617188 15.5625 46.527344 15.5625 Z M 28.460938 19.550781 L 46.527344 19.550781 C 51.460938 19.550781 55.4375 23.53125 55.4375 28.460938 L 55.4375 46.527344 C 55.4375 51.460938 51.460938 55.4375 46.527344 55.4375 L 28.460938 55.4375 C 23.53125 55.4375 19.550781 51.460938 19.550781 46.527344 L 19.550781 28.460938 C 19.550781 23.53125 23.53125 19.550781 28.460938 19.550781 Z M 49.269531 23.910156 C 48.265625 23.910156 47.464844 24.714844 47.464844 25.71875 C 47.464844 26.722656 48.265625 27.527344 49.269531 27.527344 C 50.273438 27.527344 51.078125 26.722656 51.078125 25.71875 C 51.078125 24.714844 50.273438 23.910156 49.269531 23.910156 Z M 37.496094 25.53125 C 30.914062 25.53125 25.53125 30.914062 25.53125 37.496094 C 25.53125 44.074219 30.914062 49.457031 37.496094 49.457031 C 44.074219 49.457031 49.457031 44.074219 49.457031 37.496094 C 49.457031 30.914062 44.074219 25.53125 37.496094 25.53125 Z M 37.496094 29.519531 C 41.925781 29.519531 45.46875 33.0625 45.46875 37.496094 C 45.46875 41.925781 41.925781 45.46875 37.496094 45.46875 C 33.0625 45.46875 29.519531 41.925781 29.519531 37.496094 C 29.519531 33.0625 33.0625 29.519531 37.496094 29.519531 Z M 37.496094 29.519531 " fill-opacity="1" fill-rule="nonzero"/></g></svg>