<svg xmlns="http://www.w3.org/2000/svg" xmlns:xlink="http://www.w3.org/1999/xlink" width="300" zoomAndPan="magnify" viewBox="0 0 224.87999 225" height="300" preserveAspectRatio="xMidYMid meet" version="1.0"><defs><clipPath id="62ab9e49e7"><path d="M 0 0.0585938 L 224.761719 0.0585938 L 224.761719 224.9375 L 0 224.9375 Z M 0 0.0585938 " clip-rule="nonzero"/></clipPath></defs><g clip-path="url(#62ab9e49e7)"><path fill="#578cb5" d="M 112.441406 0.0585938 C 50.445312 0.0585938 0 50.503906 0 112.5 C 0 174.496094 50.445312 224.941406 112.441406 224.941406 C 174.4375 224.941406 224.878906 174.496094 224.878906 112.5 C 224.878906 50.503906 174.4375 0.0585938 112.441406 0.0585938 Z M 49.289062 187.84375 C 50.339844 153.878906 78.222656 126.554688 112.441406 126.554688 C 146.65625 126.554688 174.542969 153.878906 175.589844 187.84375 C 158.484375 202.199219 136.46875 210.886719 112.441406 210.886719 C 88.414062 210.886719 66.394531 202.199219 49.289062 187.84375 Z M 77.300781 77.363281 C 77.300781 57.988281 93.066406 42.226562 112.441406 42.226562 C 131.816406 42.226562 147.578125 57.988281 147.578125 77.363281 C 147.578125 96.738281 131.816406 112.5 112.441406 112.5 C 93.066406 112.5 77.300781 96.738281 77.300781 77.363281 Z M 188.292969 175.078125 C 183.207031 148.8125 164.78125 127.308594 140.375 117.796875 C 153.199219 108.914062 161.632812 94.109375 161.632812 77.363281 C 161.632812 50.242188 139.558594 28.171875 112.441406 28.171875 C 85.320312 28.171875 63.246094 50.242188 63.246094 77.363281 C 63.246094 94.109375 71.679688 108.914062 84.503906 117.804688 C 60.097656 127.3125 41.671875 148.816406 36.578125 175.085938 C 22.515625 158.066406 14.054688 136.253906 14.054688 112.5 C 14.054688 58.246094 58.1875 14.113281 112.441406 14.113281 C 166.691406 14.113281 210.824219 58.246094 210.824219 112.5 C 210.824219 136.253906 202.363281 158.066406 188.292969 175.078125 Z M 188.292969 175.078125 " fill-opacity="1" fill-rule="nonzero"/></g></svg>