<svg xmlns="http://www.w3.org/2000/svg" xmlns:xlink="http://www.w3.org/1999/xlink" width="50" zoomAndPan="magnify" viewBox="0 0 37.5 37.499999" height="50" preserveAspectRatio="xMidYMid meet" version="1.0"><defs><clipPath id="50f1044f3b"><path d="M 0 2.21875 L 37.007812 2.21875 L 37.007812 34.785156 L 0 34.785156 Z M 0 2.21875 " clip-rule="nonzero"/></clipPath></defs><g clip-path="url(#50f1044f3b)"><path fill="#578cb5" d="M 35.09375 15.824219 L 35.09375 10.710938 L 27.621094 2.234375 L 9.570312 2.234375 L 9.570312 29.03125 L 0.636719 29.03125 C 0.289062 29.03125 0 29.316406 0 29.667969 C 0 32.484375 2.289062 34.773438 5.105469 34.773438 L 29.351562 34.773438 L 29.351562 34.734375 C 29.558594 34.757812 29.773438 34.773438 29.988281 34.773438 C 32.804688 34.773438 35.09375 32.484375 35.09375 29.667969 L 35.09375 24.375 C 36.265625 23.320312 37.007812 21.796875 37.007812 20.097656 C 37.007812 18.398438 36.265625 16.875 35.09375 15.824219 Z M 27.96875 4.640625 C 28.558594 5.328125 29.375 6.277344 30.394531 7.464844 C 31.375 8.597656 32.363281 9.738281 33.050781 10.527344 L 29.40625 10.527344 C 28.617188 10.527344 27.96875 9.882812 27.96875 9.09375 Z M 5.105469 33.496094 C 3.214844 33.496094 1.636719 32.117188 1.332031 30.308594 L 24.921875 30.308594 C 25.082031 31.574219 25.707031 32.691406 26.613281 33.496094 Z M 33.816406 29.667969 C 33.816406 31.78125 32.101562 33.496094 29.988281 33.496094 C 27.875 33.496094 26.160156 31.78125 26.160156 29.667969 C 26.160156 29.316406 25.871094 29.03125 25.523438 29.03125 L 10.847656 29.03125 L 10.847656 3.507812 L 26.695312 3.507812 L 26.695312 9.09375 C 26.695312 10.589844 27.914062 11.804688 29.40625 11.804688 L 33.816406 11.804688 L 33.816406 14.953125 C 33.050781 14.570312 32.179688 14.355469 31.265625 14.355469 C 28.097656 14.355469 25.523438 16.933594 25.523438 20.097656 C 25.523438 23.265625 28.097656 25.839844 31.265625 25.839844 C 32.179688 25.839844 33.050781 25.625 33.816406 25.242188 Z M 31.265625 24.566406 C 28.800781 24.566406 26.796875 22.5625 26.796875 20.097656 C 26.796875 17.632812 28.800781 15.632812 31.265625 15.632812 C 33.730469 15.632812 35.730469 17.632812 35.730469 20.097656 C 35.730469 22.5625 33.730469 24.566406 31.265625 24.566406 Z M 31.265625 24.566406 " fill-opacity="1" fill-rule="nonzero"/></g><path fill="#578cb5" d="M 13.398438 9.890625 L 25.523438 9.890625 L 25.523438 11.164062 L 13.398438 11.164062 Z M 13.398438 9.890625 " fill-opacity="1" fill-rule="nonzero"/><path fill="#578cb5" d="M 13.398438 14.355469 L 25.523438 14.355469 L 25.523438 15.632812 L 13.398438 15.632812 Z M 13.398438 14.355469 " fill-opacity="1" fill-rule="nonzero"/><path fill="#578cb5" d="M 13.398438 18.824219 L 23.609375 18.824219 L 23.609375 20.097656 L 13.398438 20.097656 Z M 13.398438 18.824219 " fill-opacity="1" fill-rule="nonzero"/><path fill="#578cb5" d="M 13.398438 23.289062 L 25.523438 23.289062 L 25.523438 24.566406 L 13.398438 24.566406 Z M 13.398438 23.289062 " fill-opacity="1" fill-rule="nonzero"/><path fill="#578cb5" d="M 31.980469 17.242188 L 31.980469 16.726562 C 31.980469 16.476562 31.78125 16.277344 31.535156 16.277344 C 31.289062 16.277344 31.089844 16.476562 31.089844 16.726562 L 31.089844 17.242188 C 30.441406 17.441406 29.996094 18.03125 29.996094 18.71875 C 29.996094 19.371094 30.363281 19.960938 30.945312 20.257812 L 31.566406 20.570312 C 31.941406 20.761719 32.179688 21.136719 32.179688 21.558594 C 32.179688 21.804688 32.046875 22.019531 31.832031 22.132812 C 31.65625 22.21875 31.441406 22.21875 31.257812 22.132812 C 31.039062 22.019531 30.90625 21.804688 30.90625 21.558594 C 30.90625 21.3125 30.707031 21.109375 30.457031 21.109375 C 30.210938 21.109375 30.011719 21.3125 30.011719 21.558594 L 30.011719 21.683594 C 30.011719 21.734375 30.019531 21.78125 30.035156 21.828125 C 30.117188 22.308594 30.417969 22.722656 30.867188 22.9375 C 30.945312 22.976562 31.023438 23.007812 31.105469 23.035156 L 31.105469 23.480469 C 31.105469 23.726562 31.304688 23.925781 31.550781 23.925781 C 31.796875 23.925781 31.996094 23.726562 31.996094 23.480469 L 31.996094 23.035156 C 32.078125 23.007812 32.15625 22.976562 32.238281 22.9375 C 32.761719 22.675781 33.089844 22.148438 33.089844 21.558594 C 33.089844 20.792969 32.667969 20.105469 31.980469 19.761719 L 31.359375 19.453125 C 31.082031 19.308594 30.90625 19.03125 30.90625 18.71875 C 30.90625 18.421875 31.105469 18.167969 31.390625 18.097656 C 31.496094 18.074219 31.597656 18.074219 31.703125 18.097656 C 31.988281 18.167969 32.1875 18.421875 32.1875 18.71875 L 32.1875 18.980469 C 32.1875 19.230469 32.390625 19.429688 32.636719 19.429688 C 32.882812 19.429688 33.082031 19.230469 33.082031 18.980469 L 33.082031 18.71875 C 33.074219 18.03125 32.628906 17.433594 31.980469 17.242188 Z M 31.980469 17.242188 " fill-opacity="1" fill-rule="nonzero"/></svg>