<svg xmlns="http://www.w3.org/2000/svg" xmlns:xlink="http://www.w3.org/1999/xlink" width="200" zoomAndPan="magnify" viewBox="0 0 150 225" height="300" preserveAspectRatio="xMidYMid meet" version="1.0"><defs><clipPath id="6c429684da"><path d="M 82 87 L 149.972656 87 L 149.972656 158 L 82 158 Z M 82 87 " clip-rule="nonzero"/></clipPath></defs><path fill="#578cb5" d="M 75.253906 113.617188 C 76.144531 112.753906 77.039062 111.910156 77.9375 111.082031 C 77.855469 110.972656 77.777344 110.863281 77.695312 110.75 C 76.882812 111.445312 75.96875 112.25 74.953125 113.183594 C 74.964844 113.195312 74.972656 113.210938 74.984375 113.226562 L 75.253906 113.617188 " fill-opacity="1" fill-rule="nonzero"/><path fill="#578cb5" d="M 77.269531 112.214844 C 77.152344 112.0625 77.039062 111.910156 76.917969 111.757812 C 76.070312 112.339844 75.617188 112.613281 75.617188 112.613281 C 76.152344 112.503906 76.703125 112.371094 77.269531 112.214844 " fill-opacity="1" fill-rule="nonzero"/><g clip-path="url(#6c429684da)"><path fill="#578cb5" d="M 149.707031 130.894531 L 149.730469 130.6875 L 149.78125 130.265625 C 149.796875 130.125 149.816406 129.984375 149.828125 129.84375 L 149.855469 129.425781 L 149.882812 129.003906 C 149.890625 128.863281 149.90625 128.722656 149.902344 128.582031 L 149.914062 127.746094 C 149.914062 127.675781 149.917969 127.605469 149.914062 127.535156 L 149.90625 127.328125 L 149.890625 126.910156 C 149.878906 126.632812 149.875 126.355469 149.847656 126.082031 L 149.773438 125.257812 C 149.761719 125.121094 149.738281 124.988281 149.722656 124.851562 L 149.667969 124.445312 C 149.601562 123.898438 149.492188 123.367188 149.394531 122.832031 L 149.355469 122.632812 L 149.3125 122.433594 L 149.222656 122.039062 C 149.160156 121.777344 149.101562 121.511719 149.035156 121.25 L 148.820312 120.476562 L 148.714844 120.089844 C 148.675781 119.960938 148.636719 119.835938 148.59375 119.707031 C 148.433594 119.199219 148.277344 118.6875 148.089844 118.195312 L 147.820312 117.449219 C 147.726562 117.199219 147.625 116.957031 147.53125 116.714844 C 146.746094 114.761719 145.828125 112.890625 144.828125 111.089844 L 144.453125 110.417969 L 144.359375 110.246094 L 144.257812 110.082031 L 144.0625 109.75 L 143.671875 109.089844 L 143.472656 108.761719 L 143.269531 108.4375 C 142.996094 108.003906 142.726562 107.570312 142.453125 107.144531 C 142.171875 106.71875 141.890625 106.296875 141.609375 105.875 C 140.464844 104.199219 139.273438 102.566406 138.042969 100.984375 C 137.734375 100.585938 137.421875 100.199219 137.109375 99.808594 L 136.640625 99.21875 L 136.164062 98.644531 C 135.847656 98.257812 135.527344 97.875 135.210938 97.492188 C 134.882812 97.113281 134.558594 96.734375 134.238281 96.359375 L 133.75 95.792969 L 133.257812 95.238281 C 132.925781 94.867188 132.597656 94.496094 132.269531 94.128906 C 131.9375 93.757812 131.601562 93.398438 131.269531 93.035156 L 130.765625 92.488281 L 130.515625 92.214844 L 130.261719 91.945312 C 128.726562 90.3125 127.164062 88.722656 125.585938 87.160156 C 124.945312 88.464844 124.292969 89.777344 123.632812 91.101562 C 124.066406 91.546875 124.492188 91.996094 124.921875 92.449219 L 125.480469 93.039062 L 125.757812 93.335938 L 126.03125 93.632812 C 126.398438 94.03125 126.765625 94.429688 127.132812 94.828125 L 127.410156 95.128906 L 127.679688 95.429688 L 128.222656 96.035156 C 128.582031 96.441406 128.949219 96.84375 129.300781 97.257812 C 132.152344 100.53125 134.882812 103.929688 137.328125 107.519531 C 138.550781 109.3125 139.703125 111.152344 140.738281 113.042969 C 141.777344 114.929688 142.707031 116.871094 143.460938 118.855469 C 143.511719 118.976562 143.554688 119.105469 143.597656 119.226562 L 143.929688 120.164062 L 143.988281 120.351562 C 144.144531 120.855469 144.308594 121.355469 144.4375 121.863281 L 144.539062 122.242188 C 144.570312 122.367188 144.609375 122.492188 144.632812 122.621094 L 144.804688 123.382812 L 144.847656 123.574219 L 144.878906 123.765625 L 144.949219 124.144531 L 145.015625 124.527344 L 145.035156 124.625 L 145.046875 124.71875 L 145.070312 124.910156 L 145.171875 125.675781 L 145.234375 126.4375 L 145.25 126.628906 C 145.253906 126.691406 145.253906 126.753906 145.257812 126.816406 L 145.269531 127.195312 L 145.285156 127.578125 C 145.285156 127.703125 145.28125 127.828125 145.277344 127.953125 L 145.273438 128.332031 L 145.269531 128.519531 C 145.269531 128.582031 145.261719 128.644531 145.257812 128.710938 L 145.207031 129.457031 L 145.113281 130.199219 C 145.101562 130.324219 145.074219 130.445312 145.054688 130.566406 L 144.988281 130.933594 C 144.609375 132.878906 143.871094 134.734375 142.769531 136.410156 C 142.21875 137.25 141.589844 138.046875 140.894531 138.800781 C 140.71875 138.984375 140.546875 139.179688 140.359375 139.355469 L 140.082031 139.625 C 139.988281 139.71875 139.898438 139.808594 139.800781 139.894531 L 139.222656 140.421875 L 138.621094 140.925781 C 137.804688 141.585938 136.9375 142.207031 136.039062 142.789062 L 135.351562 143.214844 C 135.121094 143.355469 134.886719 143.488281 134.65625 143.625 C 134.425781 143.765625 134.183594 143.894531 133.945312 144.023438 C 133.707031 144.15625 133.46875 144.289062 133.226562 144.410156 C 132.261719 144.917969 131.261719 145.378906 130.25 145.820312 C 129.238281 146.265625 128.199219 146.664062 127.148438 147.050781 C 125.328125 147.710938 123.46875 148.289062 121.589844 148.808594 C 119.707031 149.324219 117.808594 149.773438 115.894531 150.175781 C 112.066406 150.984375 108.199219 151.589844 104.320312 152.058594 C 98.300781 152.789062 92.269531 153.207031 86.261719 153.417969 C 85.132812 154.90625 83.996094 156.367188 82.855469 157.792969 C 83.378906 157.789062 83.898438 157.785156 84.417969 157.777344 C 86.636719 157.746094 88.863281 157.683594 91.101562 157.589844 C 93.335938 157.496094 95.574219 157.371094 97.820312 157.203125 C 100.070312 157.039062 102.320312 156.835938 104.578125 156.582031 C 106.832031 156.332031 109.097656 156.035156 111.355469 155.675781 C 113.621094 155.316406 115.882812 154.910156 118.144531 154.414062 L 118.992188 154.226562 L 119.839844 154.03125 L 120.265625 153.929688 L 120.6875 153.828125 L 121.535156 153.617188 L 122.378906 153.398438 L 122.804688 153.285156 L 124.070312 152.933594 L 124.910156 152.6875 L 125.335938 152.558594 L 125.753906 152.429688 L 126.59375 152.164062 L 127.433594 151.886719 C 127.570312 151.839844 127.710938 151.792969 127.851562 151.746094 L 128.269531 151.597656 C 129.382812 151.210938 130.492188 150.777344 131.59375 150.324219 C 133.792969 149.402344 135.960938 148.335938 138.046875 147.046875 C 138.304688 146.882812 138.566406 146.726562 138.824219 146.554688 L 139.589844 146.039062 C 140.09375 145.679688 140.601562 145.324219 141.089844 144.933594 C 142.070312 144.164062 143.015625 143.332031 143.90625 142.421875 C 144.789062 141.503906 145.617188 140.511719 146.351562 139.441406 C 147.089844 138.371094 147.734375 137.226562 148.261719 136.019531 C 148.367188 135.753906 148.480469 135.492188 148.585938 135.226562 L 148.875 134.417969 C 148.898438 134.351562 148.921875 134.285156 148.945312 134.21875 L 149.003906 134.011719 L 149.246094 133.191406 L 149.34375 132.777344 L 149.441406 132.359375 C 149.472656 132.222656 149.503906 132.082031 149.527344 131.945312 L 149.675781 131.105469 C 149.6875 131.035156 149.699219 130.964844 149.707031 130.894531 " fill-opacity="1" fill-rule="nonzero"/></g><path fill="#578cb5" d="M 98.816406 52.011719 C 96.96875 48.949219 95.289062 45.8125 93.867188 42.59375 C 93.15625 40.988281 92.511719 39.363281 91.949219 37.71875 C 91.382812 36.070312 90.898438 34.410156 90.523438 32.730469 C 89.773438 29.378906 89.441406 25.960938 89.730469 22.613281 C 89.875 20.941406 90.1875 19.289062 90.660156 17.691406 C 91.132812 16.097656 91.773438 14.554688 92.566406 13.097656 C 93.355469 11.636719 94.304688 10.265625 95.367188 8.992188 C 96.425781 7.714844 97.609375 6.542969 98.867188 5.460938 C 100.121094 4.378906 101.457031 3.394531 102.839844 2.484375 C 103.1875 2.261719 103.535156 2.039062 103.882812 1.816406 C 104.238281 1.605469 104.59375 1.394531 104.949219 1.1875 C 105.300781 0.96875 105.664062 0.777344 106.027344 0.582031 C 106.390625 0.382812 106.746094 0.179688 107.117188 0 C 105.46875 0.746094 103.839844 1.574219 102.265625 2.519531 C 100.691406 3.457031 99.167969 4.515625 97.730469 5.703125 C 97.375 6.003906 97.027344 6.316406 96.675781 6.621094 C 96.332031 6.941406 95.996094 7.265625 95.65625 7.589844 C 95.492188 7.757812 95.332031 7.925781 95.167969 8.097656 L 94.921875 8.351562 C 94.839844 8.4375 94.757812 8.519531 94.683594 8.609375 C 94.527344 8.785156 94.371094 8.964844 94.214844 9.140625 L 93.980469 9.410156 C 93.902344 9.496094 93.832031 9.59375 93.757812 9.683594 C 92.5625 11.152344 91.511719 12.761719 90.65625 14.488281 C 89.804688 16.214844 89.164062 18.058594 88.71875 19.960938 C 88.6875 20.082031 88.667969 20.203125 88.644531 20.320312 L 88.570312 20.679688 L 88.5 21.039062 L 88.464844 21.222656 L 88.433594 21.402344 C 88.363281 21.886719 88.273438 22.371094 88.226562 22.859375 C 88.203125 23.105469 88.171875 23.347656 88.144531 23.59375 C 88.128906 23.839844 88.109375 24.085938 88.09375 24.332031 L 88.066406 24.699219 C 88.058594 24.824219 88.054688 24.949219 88.054688 25.070312 C 88.046875 25.316406 88.035156 25.5625 88.03125 25.8125 C 87.992188 27.789062 88.148438 29.773438 88.441406 31.75 C 88.472656 31.996094 88.519531 32.242188 88.558594 32.488281 C 88.601562 32.730469 88.644531 32.980469 88.6875 33.226562 C 88.734375 33.472656 88.785156 33.714844 88.835938 33.960938 C 88.882812 34.207031 88.929688 34.453125 88.988281 34.695312 C 89.105469 35.183594 89.207031 35.671875 89.339844 36.15625 C 89.402344 36.402344 89.464844 36.644531 89.523438 36.886719 C 89.59375 37.128906 89.660156 37.371094 89.730469 37.613281 C 90.832031 41.480469 92.375 45.246094 94.171875 48.90625 C 95.101562 50.800781 96.105469 52.667969 97.167969 54.507812 C 97.773438 53.761719 98.378906 53.023438 98.988281 52.289062 C 98.929688 52.199219 98.875 52.105469 98.816406 52.011719 " fill-opacity="1" fill-rule="nonzero"/><path fill="#578cb5" d="M 37.34375 154.695312 C 36.867188 154.730469 36.390625 154.773438 35.914062 154.8125 C 34.007812 154.984375 32.109375 155.210938 30.222656 155.511719 C 28.335938 155.8125 26.460938 156.1875 24.605469 156.65625 C 24.140625 156.769531 23.679688 156.902344 23.21875 157.03125 L 22.875 157.125 L 22.53125 157.230469 L 21.84375 157.4375 C 21.613281 157.507812 21.386719 157.589844 21.160156 157.660156 L 20.476562 157.890625 L 19.800781 158.136719 C 19.574219 158.21875 19.351562 158.300781 19.128906 158.390625 L 18.457031 158.660156 C 18.234375 158.746094 18.015625 158.84375 17.792969 158.941406 L 17.460938 159.082031 L 17.132812 159.230469 L 16.480469 159.539062 C 15.613281 159.960938 14.757812 160.40625 13.929688 160.910156 L 13.617188 161.097656 C 13.515625 161.160156 13.414062 161.226562 13.3125 161.292969 C 13.109375 161.425781 12.902344 161.554688 12.703125 161.6875 L 12.105469 162.105469 L 11.957031 162.207031 L 11.808594 162.316406 L 11.519531 162.535156 C 10.746094 163.125 9.996094 163.75 9.300781 164.433594 C 8.601562 165.117188 7.945312 165.839844 7.34375 166.609375 C 6.742188 167.378906 6.203125 168.195312 5.722656 169.039062 C 4.761719 170.734375 4.054688 172.558594 3.617188 174.414062 C 3.179688 176.277344 2.976562 178.164062 2.972656 180.027344 C 2.96875 181.890625 3.140625 183.730469 3.441406 185.53125 C 4.046875 189.128906 5.128906 192.5625 6.4375 195.839844 C 7.757812 199.121094 9.308594 202.253906 10.996094 205.265625 C 12.6875 208.28125 14.515625 211.171875 16.433594 213.957031 C 18.359375 216.746094 20.367188 219.433594 22.480469 221.996094 C 20.3125 219.054688 18.265625 215.980469 16.328125 212.796875 C 14.394531 209.613281 12.578125 206.308594 10.949219 202.882812 C 9.324219 199.453125 7.882812 195.894531 6.800781 192.203125 C 6.265625 190.355469 5.8125 188.476562 5.507812 186.574219 C 5.199219 184.671875 5.027344 182.742188 5.050781 180.820312 C 5.078125 178.894531 5.304688 176.976562 5.800781 175.132812 C 6.292969 173.289062 7.058594 171.523438 8.09375 169.929688 C 9.128906 168.332031 10.433594 166.910156 11.925781 165.691406 C 12.667969 165.082031 13.457031 164.519531 14.28125 164 C 15.109375 163.488281 15.96875 163.019531 16.851562 162.589844 L 17.519531 162.277344 C 17.746094 162.175781 17.972656 162.082031 18.199219 161.984375 C 18.3125 161.933594 18.425781 161.882812 18.542969 161.835938 L 19.230469 161.5625 C 19.347656 161.515625 19.460938 161.46875 19.578125 161.429688 L 20.28125 161.175781 C 20.398438 161.128906 20.515625 161.09375 20.632812 161.054688 L 20.988281 160.933594 C 21.460938 160.773438 21.941406 160.632812 22.421875 160.488281 C 24.34375 159.925781 26.324219 159.496094 28.332031 159.152344 C 30.335938 158.8125 32.375 158.566406 34.429688 158.398438 C 35.335938 158.320312 36.25 158.261719 37.164062 158.210938 C 37.242188 157.046875 37.339844 155.875 37.457031 154.6875 C 37.417969 154.691406 37.378906 154.691406 37.34375 154.695312 " fill-opacity="1" fill-rule="nonzero"/><path fill="#578cb5" d="M 111.640625 107.882812 C 111.640625 107.882812 97.882812 118.210938 83.871094 109.441406 C 83.871094 109.441406 100.585938 109.585938 111.640625 107.882812 Z M 98.644531 129.722656 C 98.324219 129.902344 97.855469 130.15625 97.257812 130.449219 C 96.664062 130.75 95.945312 131.089844 95.121094 131.449219 C 94.914062 131.539062 94.703125 131.628906 94.484375 131.722656 C 94.269531 131.816406 94.046875 131.910156 93.820312 132.003906 C 93.363281 132.191406 92.886719 132.382812 92.390625 132.566406 C 91.394531 132.9375 90.320312 133.292969 89.191406 133.605469 C 89.050781 133.644531 88.90625 133.683594 88.761719 133.722656 C 88.621094 133.761719 88.480469 133.796875 88.335938 133.835938 C 88.050781 133.910156 87.761719 133.980469 87.46875 134.046875 C 86.882812 134.183594 86.289062 134.300781 85.683594 134.398438 C 84.476562 134.59375 83.238281 134.710938 81.992188 134.714844 C 80.746094 134.714844 79.488281 134.601562 78.261719 134.335938 C 78.480469 134.277344 78.695312 134.210938 78.914062 134.152344 L 79.574219 133.972656 L 80.886719 133.617188 C 81.761719 133.382812 82.632812 133.152344 83.503906 132.921875 C 84.378906 132.699219 85.246094 132.472656 86.113281 132.253906 C 86.992188 132.042969 87.863281 131.835938 88.734375 131.628906 C 89.605469 131.425781 90.476562 131.226562 91.339844 131.027344 L 92.640625 130.738281 C 92.855469 130.6875 93.074219 130.644531 93.292969 130.597656 L 93.945312 130.464844 C 95.6875 130.105469 97.417969 129.765625 99.136719 129.441406 C 99.136719 129.441406 98.964844 129.542969 98.644531 129.722656 Z M 30.675781 216.144531 C 30.40625 216.617188 29.808594 216.890625 29.21875 216.820312 C 28.242188 216.699219 27.707031 215.785156 28.152344 215.011719 C 28.425781 214.542969 29.019531 214.265625 29.613281 214.339844 C 30.585938 214.457031 31.125 215.371094 30.675781 216.144531 Z M 147.480469 50.671875 C 147.449219 50.542969 147.382812 50.414062 147.277344 50.296875 C 147.171875 50.183594 147.03125 50.078125 146.851562 50 C 145.808594 49.527344 144.71875 49.121094 143.605469 48.769531 L 143.394531 48.703125 C 143.324219 48.679688 143.246094 48.660156 143.175781 48.640625 L 142.734375 48.519531 L 142.289062 48.398438 C 142.214844 48.375 142.140625 48.359375 142.070312 48.339844 L 141.851562 48.285156 C 141.5625 48.214844 141.269531 48.140625 140.976562 48.074219 C 140.6875 48.007812 140.398438 47.945312 140.109375 47.882812 C 137.796875 47.398438 135.507812 47.109375 133.230469 46.980469 C 130.957031 46.847656 128.703125 46.878906 126.464844 47.039062 C 125.910156 47.085938 125.351562 47.128906 124.792969 47.1875 C 124.246094 47.246094 123.695312 47.3125 123.140625 47.382812 C 122.582031 47.453125 122.046875 47.542969 121.496094 47.628906 L 120.675781 47.769531 L 120.269531 47.839844 L 119.863281 47.917969 C 119.863281 47.917969 119.632812 47.953125 119.191406 48.050781 C 118.976562 48.101562 118.703125 48.164062 118.382812 48.25 C 118.226562 48.292969 118.054688 48.339844 117.867188 48.390625 C 117.6875 48.445312 117.5 48.507812 117.296875 48.570312 C 116.492188 48.839844 115.496094 49.1875 114.410156 49.691406 C 114.136719 49.816406 113.851562 49.945312 113.5625 50.085938 C 113.414062 50.15625 113.265625 50.226562 113.117188 50.304688 C 112.972656 50.378906 112.824219 50.457031 112.675781 50.539062 C 112.078125 50.859375 111.453125 51.21875 110.800781 51.613281 C 110.164062 52.011719 109.511719 52.453125 108.835938 52.933594 C 108.496094 53.171875 108.167969 53.429688 107.832031 53.695312 C 107.5 53.960938 107.160156 54.238281 106.820312 54.523438 C 106.648438 54.664062 106.476562 54.8125 106.308594 54.957031 C 106.140625 55.109375 105.972656 55.261719 105.804688 55.421875 C 105.472656 55.730469 105.136719 56.054688 104.796875 56.386719 C 104.628906 56.554688 104.460938 56.722656 104.292969 56.894531 C 104.25 56.9375 104.207031 56.980469 104.164062 57.027344 C 104.125 57.070312 104.082031 57.113281 104.042969 57.15625 C 103.960938 57.246094 103.878906 57.335938 103.796875 57.425781 C 103.46875 57.789062 103.140625 58.160156 102.816406 58.539062 C 102.152344 59.300781 101.542969 60.125 100.921875 60.988281 C 100.769531 61.203125 100.617188 61.421875 100.464844 61.640625 C 100.386719 61.753906 100.3125 61.863281 100.238281 61.976562 C 100.164062 62.089844 100.09375 62.203125 100.019531 62.320312 C 99.730469 62.777344 99.445312 63.25 99.164062 63.730469 C 99.023438 63.96875 98.886719 64.210938 98.746094 64.457031 C 98.679688 64.582031 98.605469 64.703125 98.539062 64.828125 C 98.476562 64.953125 98.410156 65.082031 98.347656 65.210938 C 98.085938 65.71875 97.832031 66.234375 97.585938 66.765625 C 97.460938 67.03125 97.339844 67.296875 97.21875 67.570312 C 97.15625 67.703125 97.097656 67.839844 97.039062 67.976562 C 96.984375 68.117188 96.929688 68.253906 96.871094 68.394531 C 96.652344 68.949219 96.433594 69.519531 96.226562 70.09375 C 96.226562 70.09375 96.144531 69.898438 96.113281 69.390625 C 96.097656 69.140625 96.09375 68.8125 96.125 68.394531 C 96.144531 68.183594 96.167969 67.953125 96.203125 67.695312 C 96.21875 67.570312 96.238281 67.433594 96.261719 67.292969 C 96.273438 67.222656 96.285156 67.152344 96.296875 67.078125 C 96.3125 67.003906 96.328125 66.929688 96.34375 66.855469 C 96.472656 66.246094 96.660156 65.535156 96.925781 64.703125 C 97.054688 64.289062 97.207031 63.84375 97.382812 63.367188 C 97.570312 62.894531 97.777344 62.390625 98.015625 61.851562 C 98.253906 61.3125 98.519531 60.742188 98.8125 60.132812 C 99.125 59.53125 99.464844 58.898438 99.847656 58.222656 C 100.035156 57.882812 100.234375 57.539062 100.445312 57.183594 C 100.660156 56.832031 100.890625 56.46875 101.128906 56.097656 C 101.367188 55.726562 101.617188 55.347656 101.882812 54.957031 C 102.011719 54.761719 102.144531 54.5625 102.28125 54.363281 C 102.425781 54.167969 102.570312 53.964844 102.71875 53.761719 L 102.164062 54.03125 C 102.070312 54.078125 101.984375 54.125 101.894531 54.171875 L 101.625 54.308594 L 100.554688 54.871094 L 99.480469 55.445312 C 99.300781 55.542969 99.128906 55.640625 98.957031 55.738281 L 97.398438 56.640625 L 96.878906 56.945312 L 96.617188 57.101562 C 96.53125 57.152344 96.445312 57.203125 96.359375 57.253906 C 95.691406 57.671875 95.019531 58.097656 94.351562 58.527344 L 93.851562 58.851562 L 93.601562 59.011719 L 93.359375 59.179688 L 92.386719 59.84375 L 91.417969 60.519531 C 91.097656 60.746094 90.769531 60.972656 90.460938 61.203125 C 89.835938 61.664062 89.214844 62.132812 88.597656 62.605469 L 88.128906 62.957031 L 87.898438 63.136719 L 87.675781 63.316406 L 86.777344 64.042969 C 81.984375 67.921875 77.691406 72.152344 73.847656 76.558594 C 73.765625 76.648438 73.691406 76.742188 73.613281 76.832031 L 73.386719 77.109375 C 73.234375 77.292969 73.085938 77.476562 72.9375 77.667969 C 72.644531 78.039062 72.355469 78.417969 72.078125 78.804688 C 71.800781 79.1875 71.53125 79.578125 71.269531 79.972656 C 71.203125 80.070312 71.140625 80.171875 71.078125 80.269531 L 70.894531 80.570312 C 70.777344 80.765625 70.65625 80.96875 70.539062 81.171875 C 70.070312 81.980469 69.636719 82.800781 69.242188 83.632812 L 69.09375 83.949219 C 69.046875 84.054688 69 84.160156 68.957031 84.265625 C 68.867188 84.476562 68.777344 84.6875 68.691406 84.898438 C 68.523438 85.324219 68.359375 85.75 68.207031 86.179688 C 68.054688 86.609375 67.914062 87.039062 67.78125 87.472656 C 67.714844 87.6875 67.648438 87.902344 67.589844 88.121094 C 67.558594 88.226562 67.527344 88.335938 67.496094 88.445312 L 67.417969 88.773438 C 67.207031 89.648438 67.035156 90.527344 66.902344 91.40625 C 66.835938 91.84375 66.78125 92.285156 66.734375 92.726562 C 66.714844 92.945312 66.691406 93.164062 66.675781 93.386719 C 66.65625 93.605469 66.648438 93.828125 66.640625 94.046875 C 66.601562 94.929688 66.605469 95.8125 66.652344 96.6875 C 66.679688 97.222656 66.714844 97.742188 66.753906 98.253906 C 66.777344 98.507812 66.800781 98.757812 66.824219 99.007812 C 66.832031 99.070312 66.835938 99.128906 66.84375 99.191406 C 66.851562 99.253906 66.859375 99.316406 66.867188 99.378906 C 66.882812 99.5 66.898438 99.621094 66.914062 99.742188 C 67.042969 100.707031 67.199219 101.605469 67.394531 102.421875 C 67.777344 104.046875 68.292969 105.320312 68.964844 106.054688 C 68.964844 106.054688 68.773438 105.972656 68.421875 105.664062 C 68.070312 105.351562 67.558594 104.816406 66.929688 103.894531 C 66.296875 102.976562 65.546875 101.675781 64.71875 99.828125 C 64.515625 99.367188 64.304688 98.871094 64.089844 98.335938 C 63.878906 97.800781 63.65625 97.226562 63.449219 96.621094 C 63.023438 95.398438 62.59375 94.015625 62.167969 92.445312 C 57.824219 99.433594 54.277344 106.519531 51.363281 113.457031 C 48.449219 120.398438 46.171875 127.199219 44.347656 133.667969 C 44.195312 134.210938 44.054688 134.761719 43.929688 135.308594 C 43.804688 135.855469 43.6875 136.40625 43.601562 136.960938 C 43.425781 138.070312 43.304688 139.179688 43.242188 140.292969 C 43.210938 140.847656 43.191406 141.40625 43.191406 141.960938 C 43.1875 142.238281 43.191406 142.515625 43.199219 142.792969 C 43.199219 142.933594 43.203125 143.070312 43.210938 143.210938 L 43.234375 143.628906 C 43.300781 144.738281 43.425781 145.839844 43.609375 146.9375 C 43.753906 147.796875 43.910156 148.632812 44.082031 149.425781 C 44.167969 149.824219 44.257812 150.207031 44.351562 150.578125 C 44.445312 150.953125 44.550781 151.3125 44.652344 151.65625 C 45.066406 153.03125 45.535156 154.152344 46.058594 154.863281 C 46.058594 154.863281 45.488281 154.195312 44.566406 152.929688 C 44.105469 152.296875 43.558594 151.511719 42.953125 150.585938 C 42.800781 150.355469 42.648438 150.117188 42.488281 149.867188 C 42.332031 149.621094 42.175781 149.363281 42.011719 149.097656 C 41.691406 148.566406 41.355469 148 41.015625 147.398438 C 40.652344 149.089844 40.355469 150.746094 40.066406 152.367188 C 39.921875 153.171875 39.78125 153.972656 39.648438 154.761719 C 39.578125 155.152344 39.515625 155.546875 39.449219 155.933594 C 39.390625 156.324219 39.328125 156.710938 39.269531 157.09375 C 39.039062 158.628906 38.824219 160.125 38.625 161.570312 C 38.578125 161.933594 38.527344 162.289062 38.480469 162.644531 C 38.46875 162.734375 38.457031 162.820312 38.445312 162.910156 C 38.433594 163 38.421875 163.089844 38.410156 163.175781 C 38.390625 163.351562 38.371094 163.53125 38.347656 163.707031 C 38.265625 164.40625 38.1875 165.09375 38.113281 165.773438 C 37.960938 167.125 37.824219 168.425781 37.699219 169.679688 C 37.683594 169.832031 37.667969 169.988281 37.652344 170.144531 C 37.640625 170.300781 37.625 170.453125 37.613281 170.605469 C 37.589844 170.914062 37.5625 171.214844 37.539062 171.515625 C 37.492188 172.117188 37.445312 172.703125 37.402344 173.273438 C 37.316406 174.417969 37.238281 175.507812 37.171875 176.539062 C 37.15625 176.796875 37.140625 177.050781 37.125 177.300781 C 37.109375 177.550781 37.09375 177.796875 37.082031 178.039062 C 37.058594 178.527344 37.039062 179 37.019531 179.457031 C 37.015625 179.535156 37 179.609375 36.976562 179.683594 L 35.878906 182.996094 L 35.328125 184.652344 L 35.191406 185.070312 L 34.792969 186.3125 L 33.738281 189.636719 L 33.214844 191.292969 L 32.949219 192.125 L 32.816406 192.542969 L 32.691406 192.957031 L 31.5625 196.671875 L 31.625 196.695312 C 31.476562 197.171875 31.332031 197.648438 31.183594 198.128906 C 30.699219 199.707031 30.238281 201.273438 29.796875 202.820312 C 29.6875 203.207031 29.578125 203.589844 29.472656 203.972656 C 29.367188 204.359375 29.265625 204.742188 29.164062 205.125 C 28.960938 205.886719 28.765625 206.644531 28.574219 207.394531 C 28.417969 208.003906 28.265625 208.609375 28.117188 209.210938 L 23.863281 223.984375 C 23.769531 224.3125 24.257812 224.515625 24.488281 224.242188 C 27.085938 221.117188 32.492188 217.195312 34.019531 216.113281 C 34.199219 215.984375 34.160156 215.738281 33.949219 215.65625 C 32.527344 215.101562 31.40625 214.171875 30.546875 213.183594 C 32.105469 207.917969 33.660156 202.851562 35.203125 197.96875 L 35.242188 197.980469 L 36.320312 194.527344 C 36.585938 193.65625 36.875 192.789062 37.15625 191.921875 L 38.851562 186.71875 C 38.992188 186.285156 39.144531 185.851562 39.289062 185.421875 L 39.730469 184.125 L 40.609375 181.53125 L 41.050781 180.230469 L 41.273438 179.582031 L 41.382812 179.257812 L 41.496094 178.9375 L 43.332031 173.765625 L 43.789062 172.472656 L 44.265625 171.183594 L 45.214844 168.609375 L 46.167969 166.035156 C 46.246094 165.820312 46.332031 165.605469 46.414062 165.390625 L 46.660156 164.75 L 47.15625 163.46875 L 48.144531 160.902344 L 48.640625 159.621094 C 48.808594 159.191406 48.980469 158.769531 49.152344 158.34375 L 51.210938 153.234375 L 53.347656 148.148438 C 56.246094 141.382812 59.328125 134.675781 62.652344 128.050781 C 63.464844 126.390625 64.34375 124.75 65.195312 123.101562 L 65.839844 121.867188 L 65.917969 121.710938 L 66.003906 121.558594 L 66.167969 121.253906 L 66.503906 120.640625 L 67.835938 118.1875 L 68.171875 117.574219 C 68.28125 117.371094 68.390625 117.164062 68.507812 116.964844 L 69.199219 115.75 L 70.582031 113.316406 L 70.757812 113.011719 L 70.84375 112.859375 L 70.933594 112.710938 L 71.292969 112.105469 L 72.007812 110.902344 L 72.726562 109.695312 L 73.085938 109.09375 L 73.261719 108.789062 C 73.324219 108.691406 73.386719 108.59375 73.449219 108.492188 L 74.933594 106.101562 L 75.679688 104.910156 C 75.929688 104.511719 76.191406 104.121094 76.445312 103.726562 L 77.988281 101.359375 L 78.179688 101.0625 L 78.378906 100.773438 L 79.574219 99.015625 L 80.375 97.847656 L 80.574219 97.554688 C 80.640625 97.457031 80.710938 97.363281 80.777344 97.265625 L 81.195312 96.6875 L 82.84375 94.378906 C 82.914062 94.28125 82.984375 94.183594 83.054688 94.089844 L 83.269531 93.800781 L 83.695312 93.234375 L 84.550781 92.089844 L 85.40625 90.949219 L 87.179688 88.699219 L 87.625 88.136719 C 87.699219 88.042969 87.769531 87.949219 87.847656 87.855469 L 88.074219 87.582031 L 89.910156 85.363281 L 90.136719 85.085938 C 90.214844 84.992188 90.296875 84.902344 90.375 84.8125 L 90.847656 84.269531 L 91.796875 83.179688 L 92.269531 82.632812 L 92.507812 82.363281 C 92.589844 82.269531 92.671875 82.183594 92.753906 82.09375 L 93.734375 81.023438 C 96.347656 78.167969 99.109375 75.402344 102.046875 72.765625 L 101.855469 72.941406 C 101.789062 73 101.726562 73.058594 101.664062 73.121094 L 101.289062 73.480469 L 99.789062 74.925781 L 99.507812 75.195312 L 99.417969 75.289062 L 99.054688 75.65625 L 97.605469 77.132812 L 97.246094 77.503906 L 96.890625 77.878906 L 96.191406 78.628906 L 95.492188 79.382812 L 95.140625 79.757812 C 95.082031 79.820312 95.023438 79.882812 94.96875 79.949219 L 94.796875 80.140625 L 93.441406 81.671875 L 92.769531 82.441406 C 92.542969 82.699219 92.328125 82.960938 92.109375 83.21875 L 90.804688 84.777344 C 87.355469 88.957031 84.179688 93.285156 81.210938 97.703125 C 78.242188 102.121094 75.488281 106.632812 72.882812 111.199219 L 71.90625 112.914062 L 71.664062 113.34375 L 71.429688 113.777344 L 70.957031 114.640625 L 69.550781 117.230469 L 69.316406 117.664062 L 69.089844 118.097656 L 67.28125 121.578125 L 67.054688 122.015625 L 66.941406 122.230469 L 66.832031 122.453125 L 66.394531 123.328125 L 65.527344 125.082031 L 64.65625 126.832031 C 64.582031 126.980469 64.511719 127.125 64.445312 127.273438 L 64.234375 127.714844 L 63.816406 128.59375 C 63.257812 129.773438 62.695312 130.945312 62.144531 132.125 L 60.53125 135.671875 L 60.128906 136.558594 C 59.996094 136.855469 59.859375 137.148438 59.730469 137.449219 L 58.957031 139.230469 L 58.183594 141.015625 L 57.601562 142.351562 L 57.503906 142.574219 L 57.410156 142.800781 L 55.921875 146.386719 L 55.179688 148.179688 L 54.460938 149.976562 L 53.03125 153.582031 L 52.851562 154.03125 C 52.792969 154.179688 52.738281 154.332031 52.679688 154.484375 L 52.335938 155.386719 L 50.960938 159.003906 C 50.730469 159.605469 50.5 160.207031 50.28125 160.816406 L 48.960938 164.445312 L 48.300781 166.261719 C 48.1875 166.566406 48.085938 166.871094 47.980469 167.171875 L 47.664062 168.085938 L 46.394531 171.730469 L 46.078125 172.640625 L 45.917969 173.097656 L 45.15625 175.382812 L 43.941406 179.039062 L 43.636719 179.953125 L 43.34375 180.871094 L 42.761719 182.707031 C 42.511719 183.488281 43.441406 184.140625 44.121094 183.667969 C 45.160156 182.941406 46.183594 182.21875 47.191406 181.496094 C 47.699219 181.140625 48.207031 180.78125 48.707031 180.425781 C 49.207031 180.066406 49.707031 179.710938 50.199219 179.359375 C 51.1875 178.648438 52.15625 177.941406 53.113281 177.238281 C 53.589844 176.886719 54.0625 176.535156 54.535156 176.183594 C 55.007812 175.835938 55.480469 175.488281 55.949219 175.144531 C 56.882812 174.449219 57.800781 173.761719 58.707031 173.074219 C 59.15625 172.730469 59.605469 172.386719 60.050781 172.046875 C 60.496094 171.703125 60.929688 171.359375 61.375 171.023438 C 63.144531 169.671875 64.851562 168.328125 66.5 166.996094 C 73.136719 161.695312 78.96875 156.632812 84.105469 151.785156 C 82.5 152.015625 81.03125 152.203125 79.695312 152.351562 C 78.367188 152.5 77.171875 152.613281 76.097656 152.691406 C 73.945312 152.839844 72.277344 152.851562 71.015625 152.792969 C 69.753906 152.734375 68.894531 152.609375 68.351562 152.492188 C 67.804688 152.378906 67.578125 152.277344 67.578125 152.277344 C 70.054688 152.941406 72.824219 152.636719 75.585938 151.835938 C 75.933594 151.734375 76.277344 151.628906 76.621094 151.511719 C 76.792969 151.457031 76.96875 151.394531 77.136719 151.335938 C 77.3125 151.273438 77.484375 151.214844 77.660156 151.152344 C 78.351562 150.898438 79.039062 150.621094 79.71875 150.328125 C 81.074219 149.742188 82.394531 149.082031 83.640625 148.402344 C 83.957031 148.234375 84.265625 148.0625 84.574219 147.898438 C 84.878906 147.730469 85.179688 147.5625 85.476562 147.394531 C 86.066406 147.054688 86.636719 146.71875 87.175781 146.390625 C 87.71875 146.0625 88.230469 145.742188 88.714844 145.433594 C 89.199219 145.125 89.652344 144.832031 90.074219 144.5625 C 91.761719 143.476562 92.871094 142.683594 93.121094 142.550781 C 93.148438 142.539062 93.179688 142.542969 93.203125 142.5625 C 93.238281 142.589844 93.28125 142.589844 93.308594 142.5625 C 97.675781 137.902344 101.398438 133.441406 104.597656 129.160156 C 107.796875 124.871094 110.472656 120.757812 112.746094 116.785156 C 112.886719 116.535156 113.027344 116.28125 113.164062 116.03125 C 113.304688 115.789062 113.445312 115.546875 113.582031 115.300781 C 113.855469 114.8125 114.125 114.320312 114.382812 113.828125 C 114.445312 113.703125 114.511719 113.578125 114.574219 113.457031 L 114.667969 113.273438 L 114.765625 113.09375 C 114.894531 112.851562 115.023438 112.613281 115.148438 112.371094 C 115.398438 111.890625 115.640625 111.40625 115.878906 110.917969 C 115.9375 110.796875 115.996094 110.675781 116.054688 110.554688 C 116.113281 110.4375 116.175781 110.316406 116.234375 110.199219 C 116.351562 109.964844 116.46875 109.726562 116.582031 109.488281 C 116.8125 109.015625 117.035156 108.535156 117.253906 108.054688 C 117.304688 107.933594 117.359375 107.816406 117.417969 107.703125 C 117.46875 107.585938 117.527344 107.46875 117.578125 107.351562 C 117.6875 107.121094 117.796875 106.882812 117.902344 106.648438 C 118.007812 106.414062 118.109375 106.179688 118.214844 105.941406 C 118.265625 105.824219 118.316406 105.707031 118.363281 105.589844 C 118.414062 105.46875 118.464844 105.347656 118.515625 105.234375 C 120.136719 101.511719 121.492188 97.886719 122.738281 94.335938 C 122.210938 94.386719 121.691406 94.4375 121.1875 94.488281 C 120.675781 94.554688 120.175781 94.617188 119.6875 94.679688 C 119.441406 94.710938 119.195312 94.742188 118.953125 94.769531 C 118.832031 94.789062 118.710938 94.800781 118.589844 94.816406 C 118.53125 94.824219 118.472656 94.832031 118.414062 94.839844 C 118.351562 94.847656 118.292969 94.859375 118.234375 94.867188 C 117.757812 94.9375 117.292969 95.007812 116.839844 95.078125 C 116.378906 95.148438 115.929688 95.214844 115.492188 95.277344 C 115.4375 95.285156 115.382812 95.292969 115.328125 95.300781 C 115.273438 95.3125 115.21875 95.320312 115.164062 95.332031 C 115.058594 95.347656 114.949219 95.367188 114.84375 95.386719 C 114.628906 95.421875 114.414062 95.457031 114.207031 95.492188 C 113.785156 95.5625 113.375 95.632812 112.972656 95.699219 C 112.773438 95.730469 112.570312 95.765625 112.375 95.796875 C 112.277344 95.8125 112.179688 95.828125 112.082031 95.84375 C 111.984375 95.859375 111.886719 95.878906 111.792969 95.894531 C 111.03125 96.035156 110.304688 96.164062 109.609375 96.28125 C 109.261719 96.339844 108.921875 96.394531 108.59375 96.449219 C 108.429688 96.472656 108.269531 96.507812 108.113281 96.535156 C 107.953125 96.5625 107.796875 96.589844 107.644531 96.617188 C 107.027344 96.726562 106.445312 96.824219 105.898438 96.910156 C 105.621094 96.953125 105.359375 96.992188 105.101562 97.03125 C 104.972656 97.050781 104.84375 97.070312 104.722656 97.085938 C 104.597656 97.105469 104.472656 97.121094 104.355469 97.140625 C 102.460938 97.441406 101.097656 97.566406 100.21875 97.613281 C 100.109375 97.621094 100.007812 97.625 99.910156 97.628906 C 99.816406 97.632812 99.730469 97.636719 99.652344 97.640625 C 99.492188 97.644531 99.359375 97.648438 99.257812 97.648438 C 99.050781 97.648438 98.949219 97.640625 98.949219 97.640625 C 99.125 97.617188 99.300781 97.59375 99.476562 97.5625 C 99.566406 97.546875 99.65625 97.53125 99.746094 97.515625 C 99.835938 97.496094 99.929688 97.480469 100.019531 97.460938 C 100.390625 97.390625 100.765625 97.304688 101.152344 97.203125 C 101.921875 97.003906 102.71875 96.746094 103.53125 96.445312 C 103.632812 96.40625 103.738281 96.371094 103.84375 96.332031 C 103.945312 96.296875 104.050781 96.257812 104.15625 96.222656 C 104.363281 96.144531 104.574219 96.0625 104.785156 95.980469 C 105.207031 95.820312 105.632812 95.644531 106.0625 95.460938 C 106.910156 95.089844 107.800781 94.722656 108.679688 94.316406 C 108.898438 94.214844 109.121094 94.113281 109.339844 94.007812 C 109.449219 93.957031 109.558594 93.90625 109.667969 93.855469 L 109.832031 93.773438 L 110 93.699219 C 110.449219 93.496094 110.894531 93.292969 111.335938 93.082031 C 111.558594 92.976562 111.78125 92.871094 112 92.765625 L 112.332031 92.605469 L 112.496094 92.523438 C 112.550781 92.496094 112.605469 92.472656 112.664062 92.445312 C 113.105469 92.242188 113.546875 92.035156 113.984375 91.828125 C 114.203125 91.722656 114.421875 91.617188 114.636719 91.511719 C 114.746094 91.460938 114.851562 91.40625 114.960938 91.355469 C 115.070312 91.300781 115.175781 91.253906 115.285156 91.203125 C 115.722656 91.007812 116.148438 90.808594 116.570312 90.609375 C 116.78125 90.507812 116.992188 90.410156 117.199219 90.3125 L 117.351562 90.238281 L 117.507812 90.164062 C 117.613281 90.121094 117.71875 90.074219 117.820312 90.027344 C 118.234375 89.84375 118.640625 89.660156 119.039062 89.476562 C 119.5625 89.222656 120.078125 88.980469 120.5625 88.699219 C 120.808594 88.554688 121.042969 88.410156 121.273438 88.253906 L 121.449219 88.136719 L 121.621094 88.023438 C 121.734375 87.945312 121.847656 87.867188 121.960938 87.789062 C 122.183594 87.628906 122.398438 87.464844 122.609375 87.289062 C 122.714844 87.203125 122.820312 87.113281 122.921875 87.023438 L 123.074219 86.886719 L 123.226562 86.753906 C 123.632812 86.402344 124.015625 86.015625 124.371094 85.605469 C 125.820312 83.996094 126.941406 82.066406 127.785156 79.804688 C 127.953125 79.355469 128.121094 78.910156 128.285156 78.46875 C 128.460938 78.03125 128.632812 77.59375 128.800781 77.160156 C 128.886719 76.941406 128.976562 76.722656 129.0625 76.503906 C 129.152344 76.292969 129.238281 76.078125 129.328125 75.863281 C 129.507812 75.4375 129.683594 75.003906 129.867188 74.578125 C 130.050781 74.152344 130.238281 73.730469 130.421875 73.316406 C 130.46875 73.210938 130.511719 73.105469 130.558594 73 C 130.605469 72.894531 130.652344 72.789062 130.703125 72.6875 C 130.796875 72.480469 130.894531 72.277344 130.988281 72.070312 C 131.085938 71.863281 131.183594 71.660156 131.277344 71.457031 C 131.328125 71.351562 131.375 71.25 131.421875 71.144531 L 131.496094 70.992188 L 131.570312 70.84375 C 131.773438 70.4375 131.972656 70.039062 132.171875 69.640625 C 132.371094 69.238281 132.578125 68.855469 132.785156 68.464844 C 132.890625 68.269531 132.996094 68.078125 133.097656 67.882812 C 133.148438 67.785156 133.203125 67.691406 133.253906 67.59375 C 133.308594 67.496094 133.359375 67.40625 133.414062 67.308594 C 133.628906 66.933594 133.84375 66.558594 134.058594 66.183594 C 134.113281 66.09375 134.167969 65.996094 134.222656 65.90625 C 134.277344 65.8125 134.332031 65.722656 134.386719 65.632812 C 134.496094 65.453125 134.609375 65.269531 134.71875 65.089844 C 134.828125 64.910156 134.941406 64.730469 135.050781 64.550781 C 135.105469 64.460938 135.160156 64.371094 135.21875 64.285156 C 135.277344 64.199219 135.332031 64.109375 135.386719 64.023438 C 135.617188 63.675781 135.84375 63.332031 136.070312 62.992188 C 136.183594 62.816406 136.300781 62.65625 136.414062 62.488281 C 136.53125 62.320312 136.648438 62.15625 136.761719 61.996094 C 136.882812 61.832031 136.996094 61.667969 137.113281 61.507812 C 137.226562 61.34375 137.347656 61.191406 137.464844 61.03125 C 137.699219 60.71875 137.933594 60.410156 138.171875 60.105469 C 138.40625 59.804688 138.644531 59.511719 138.882812 59.222656 C 139.003906 59.078125 139.121094 58.933594 139.238281 58.789062 C 139.359375 58.648438 139.476562 58.511719 139.59375 58.375 C 139.832031 58.101562 140.070312 57.832031 140.308594 57.570312 C 140.785156 57.054688 141.25 56.550781 141.722656 56.089844 C 141.839844 55.976562 141.957031 55.863281 142.070312 55.746094 C 142.1875 55.636719 142.300781 55.523438 142.417969 55.414062 C 142.652344 55.203125 142.878906 54.992188 143.105469 54.789062 C 144.867188 53.175781 146.320312 52.046875 147.203125 51.382812 C 147.453125 51.191406 147.542969 50.929688 147.480469 50.671875 " fill-opacity="1" fill-rule="nonzero"/></svg>