<svg xmlns="http://www.w3.org/2000/svg" xmlns:xlink="http://www.w3.org/1999/xlink" width="380" zoomAndPan="magnify" viewBox="0 0 285 374.999991" height="500" preserveAspectRatio="xMidYMid meet" version="1.0"><path fill="#ffc0cb" d="M 131.832031 8.6875 C 131.832031 8.6875 253.953125 41.773438 272.820312 156.832031 C 291.78125 271.984375 227.1875 344.476562 179.046875 364.925781 C 130.996094 385.464844 65.9375 378.308594 56.367188 281.929688 C 46.792969 185.457031 6.828125 220.589844 30.527344 135.457031 C 54.136719 50.324219 71.144531 -18.914062 131.832031 8.6875 Z M 131.832031 8.6875 " fill-opacity="1" fill-rule="evenodd"/><path fill="#578cb5" d="M 263.804688 316.875 C 267.988281 312.691406 303.585938 270.964844 249.867188 170.214844 C 196.054688 69.5625 274.121094 -2.1875 178.675781 9.523438 C 83.226562 21.234375 18.445312 21.328125 46.980469 129.417969 C 75.417969 237.410156 4.226562 316.875 59.527344 337.042969 C 114.730469 357.117188 240.386719 363.808594 263.804688 316.875 Z M 263.804688 316.875 " fill-opacity="1" fill-rule="evenodd"/><path fill="#ffc0cb" d="M 47.1875 168.964844 C 47.523438 168.378906 47.804688 167.765625 48.019531 167.125 C 48.238281 166.480469 48.390625 165.824219 48.480469 165.152344 C 48.570312 164.480469 48.589844 163.808594 48.546875 163.132812 C 48.503906 162.457031 48.390625 161.789062 48.21875 161.136719 C 48.042969 160.480469 47.804688 159.851562 47.503906 159.242188 C 47.203125 158.636719 46.847656 158.0625 46.4375 157.523438 C 46.023438 156.988281 45.5625 156.496094 45.054688 156.050781 C 44.542969 155.601562 43.996094 155.210938 43.410156 154.871094 C 42.824219 154.53125 42.207031 154.253906 41.566406 154.035156 C 40.925781 153.816406 40.269531 153.664062 39.597656 153.578125 C 38.925781 153.488281 38.25 153.464844 37.574219 153.511719 C 36.898438 153.554688 36.234375 153.664062 35.578125 153.839844 C 34.925781 154.015625 34.292969 154.253906 33.6875 154.550781 C 33.078125 154.851562 32.507812 155.207031 31.96875 155.621094 C 31.429688 156.03125 30.9375 156.492188 30.492188 157.003906 C 30.046875 157.511719 29.652344 158.0625 29.316406 158.648438 C 28.976562 159.234375 28.699219 159.847656 28.480469 160.488281 C 28.261719 161.132812 28.109375 161.789062 28.019531 162.460938 C 27.933594 163.132812 27.910156 163.804688 27.953125 164.480469 C 28 165.15625 28.109375 165.824219 28.285156 166.476562 C 28.460938 167.132812 28.695312 167.761719 28.996094 168.371094 C 29.296875 168.976562 29.652344 169.550781 30.0625 170.089844 C 30.476562 170.625 30.9375 171.117188 31.445312 171.566406 C 31.957031 172.011719 32.503906 172.402344 33.089844 172.742188 C 33.679688 173.082031 34.292969 173.359375 34.933594 173.578125 C 35.574219 173.796875 36.230469 173.949219 36.902344 174.035156 C 37.574219 174.125 38.25 174.148438 38.925781 174.101562 C 39.601562 174.058594 40.265625 173.949219 40.921875 173.773438 C 41.574219 173.597656 42.207031 173.359375 42.8125 173.0625 C 43.421875 172.761719 43.996094 172.40625 44.53125 171.992188 C 45.070312 171.582031 45.5625 171.121094 46.007812 170.609375 C 46.453125 170.101562 46.847656 169.550781 47.1875 168.964844 Z M 47.1875 168.964844 " fill-opacity="1" fill-rule="nonzero"/><path fill="#ffc0cb" d="M 39.910156 136.222656 C 40.082031 135.925781 40.222656 135.617188 40.332031 135.292969 C 40.441406 134.96875 40.519531 134.636719 40.566406 134.296875 C 40.609375 133.957031 40.621094 133.617188 40.597656 133.277344 C 40.574219 132.933594 40.519531 132.597656 40.433594 132.269531 C 40.34375 131.9375 40.222656 131.617188 40.070312 131.3125 C 39.921875 131.003906 39.742188 130.714844 39.53125 130.441406 C 39.324219 130.171875 39.089844 129.921875 38.832031 129.699219 C 38.574219 129.472656 38.300781 129.273438 38.003906 129.101562 C 37.707031 128.929688 37.394531 128.789062 37.070312 128.679688 C 36.746094 128.570312 36.414062 128.492188 36.078125 128.449219 C 35.738281 128.402344 35.398438 128.390625 35.054688 128.414062 C 34.714844 128.4375 34.378906 128.492188 34.046875 128.582031 C 33.714844 128.667969 33.398438 128.789062 33.089844 128.941406 C 32.78125 129.09375 32.492188 129.273438 32.222656 129.480469 C 31.949219 129.6875 31.703125 129.921875 31.476562 130.179688 C 31.25 130.4375 31.050781 130.714844 30.882812 131.011719 C 30.710938 131.308594 30.570312 131.617188 30.460938 131.941406 C 30.347656 132.265625 30.273438 132.597656 30.226562 132.9375 C 30.183594 133.277344 30.171875 133.617188 30.195312 133.957031 C 30.214844 134.300781 30.273438 134.636719 30.359375 134.964844 C 30.449219 135.296875 30.570312 135.617188 30.71875 135.921875 C 30.871094 136.230469 31.050781 136.519531 31.261719 136.789062 C 31.46875 137.0625 31.703125 137.3125 31.957031 137.535156 C 32.214844 137.761719 32.492188 137.960938 32.789062 138.132812 C 33.085938 138.304688 33.394531 138.445312 33.71875 138.554688 C 34.042969 138.664062 34.375 138.742188 34.714844 138.785156 C 35.054688 138.832031 35.394531 138.839844 35.738281 138.820312 C 36.078125 138.796875 36.414062 138.742188 36.746094 138.652344 C 37.074219 138.5625 37.394531 138.445312 37.703125 138.292969 C 38.007812 138.140625 38.296875 137.960938 38.570312 137.753906 C 38.839844 137.542969 39.089844 137.3125 39.316406 137.054688 C 39.542969 136.796875 39.738281 136.519531 39.910156 136.222656 Z M 39.910156 136.222656 " fill-opacity="1" fill-rule="nonzero"/><path fill="#ffc0cb" d="M 247.648438 65.347656 C 247.910156 64.898438 248.121094 64.429688 248.289062 63.9375 C 248.457031 63.445312 248.574219 62.945312 248.640625 62.429688 C 248.707031 61.914062 248.726562 61.398438 248.691406 60.882812 C 248.65625 60.363281 248.574219 59.855469 248.4375 59.355469 C 248.304688 58.851562 248.121094 58.371094 247.894531 57.90625 C 247.664062 57.441406 247.390625 57 247.074219 56.589844 C 246.761719 56.179688 246.40625 55.800781 246.019531 55.460938 C 245.628906 55.117188 245.207031 54.816406 244.757812 54.558594 C 244.308594 54.300781 243.839844 54.085938 243.347656 53.917969 C 242.859375 53.753906 242.355469 53.636719 241.839844 53.566406 C 241.328125 53.5 240.8125 53.484375 240.292969 53.515625 C 239.777344 53.550781 239.265625 53.636719 238.765625 53.769531 C 238.265625 53.902344 237.78125 54.085938 237.316406 54.316406 C 236.851562 54.542969 236.414062 54.816406 236 55.132812 C 235.589844 55.449219 235.214844 55.800781 234.871094 56.191406 C 234.53125 56.582031 234.230469 57 233.96875 57.449219 C 233.710938 57.898438 233.496094 58.367188 233.332031 58.859375 C 233.164062 59.351562 233.046875 59.851562 232.980469 60.367188 C 232.910156 60.882812 232.894531 61.398438 232.929688 61.914062 C 232.960938 62.433594 233.046875 62.941406 233.179688 63.441406 C 233.316406 63.945312 233.496094 64.425781 233.726562 64.890625 C 233.957031 65.355469 234.226562 65.796875 234.542969 66.207031 C 234.859375 66.617188 235.210938 66.996094 235.601562 67.335938 C 235.992188 67.679688 236.410156 67.980469 236.859375 68.238281 C 237.308594 68.496094 237.78125 68.710938 238.269531 68.878906 C 238.761719 69.042969 239.265625 69.160156 239.777344 69.230469 C 240.292969 69.296875 240.808594 69.3125 241.328125 69.28125 C 241.84375 69.246094 242.351562 69.160156 242.855469 69.027344 C 243.355469 68.894531 243.839844 68.710938 244.304688 68.480469 C 244.769531 68.253906 245.207031 67.980469 245.617188 67.664062 C 246.03125 67.347656 246.40625 66.996094 246.75 66.605469 C 247.089844 66.214844 247.390625 65.796875 247.648438 65.347656 Z M 247.648438 65.347656 " fill-opacity="1" fill-rule="nonzero"/><path fill="#ffc0cb" d="M 43.910156 244.941406 C 43.167969 244.195312 23.464844 216.78125 8.410156 206 C -6.554688 195.308594 12.40625 183.042969 26.996094 209.34375 C 41.496094 235.554688 43.910156 244.941406 43.910156 244.941406 Z M 43.910156 244.941406 " fill-opacity="1" fill-rule="evenodd"/><path fill="#ffc0cb" d="M 248.882812 38.933594 C 249.125 38.507812 249.28125 38.054688 249.34375 37.566406 C 249.410156 37.082031 249.378906 36.601562 249.25 36.125 C 249.125 35.652344 248.910156 35.222656 248.613281 34.832031 C 248.3125 34.441406 247.953125 34.125 247.527344 33.878906 C 247.101562 33.632812 246.648438 33.480469 246.160156 33.414062 C 245.675781 33.351562 245.195312 33.382812 244.71875 33.511719 C 244.246094 33.636719 243.816406 33.851562 243.425781 34.148438 C 243.035156 34.449219 242.71875 34.808594 242.472656 35.234375 C 242.226562 35.660156 242.074219 36.113281 242.011719 36.601562 C 241.945312 37.085938 241.976562 37.566406 242.105469 38.042969 C 242.230469 38.515625 242.445312 38.945312 242.742188 39.335938 C 243.042969 39.726562 243.402344 40.042969 243.828125 40.289062 C 244.253906 40.53125 244.707031 40.6875 245.195312 40.75 C 245.679688 40.816406 246.160156 40.785156 246.636719 40.65625 C 247.109375 40.53125 247.539062 40.316406 247.929688 40.019531 C 248.320312 39.71875 248.636719 39.359375 248.882812 38.933594 Z M 248.882812 38.933594 " fill-opacity="1" fill-rule="nonzero"/><path fill="#578cb5" d="M 228.933594 364.054688 C 229.191406 363.605469 229.402344 363.132812 229.570312 362.644531 C 229.738281 362.152344 229.855469 361.648438 229.921875 361.136719 C 229.988281 360.621094 230.007812 360.105469 229.972656 359.585938 C 229.9375 359.070312 229.855469 358.5625 229.722656 358.058594 C 229.585938 357.558594 229.40625 357.074219 229.175781 356.609375 C 228.945312 356.144531 228.671875 355.707031 228.359375 355.296875 C 228.042969 354.882812 227.691406 354.507812 227.300781 354.164062 C 226.910156 353.824219 226.488281 353.523438 226.039062 353.265625 C 225.59375 353.003906 225.121094 352.792969 224.628906 352.625 C 224.140625 352.457031 223.636719 352.339844 223.121094 352.273438 C 222.609375 352.207031 222.09375 352.1875 221.574219 352.222656 C 221.058594 352.257812 220.546875 352.339844 220.046875 352.476562 C 219.546875 352.609375 219.0625 352.789062 218.597656 353.019531 C 218.132812 353.25 217.695312 353.523438 217.285156 353.835938 C 216.871094 354.152344 216.496094 354.507812 216.152344 354.894531 C 215.8125 355.285156 215.511719 355.707031 215.25 356.15625 C 214.992188 356.605469 214.78125 357.074219 214.613281 357.566406 C 214.445312 358.054688 214.328125 358.558594 214.261719 359.074219 C 214.195312 359.585938 214.175781 360.101562 214.210938 360.621094 C 214.246094 361.136719 214.328125 361.648438 214.460938 362.148438 C 214.597656 362.648438 214.777344 363.132812 215.007812 363.597656 C 215.238281 364.0625 215.511719 364.5 215.824219 364.910156 C 216.140625 365.324219 216.496094 365.699219 216.882812 366.042969 C 217.273438 366.382812 217.695312 366.683594 218.144531 366.945312 C 218.59375 367.203125 219.0625 367.417969 219.554688 367.582031 C 220.042969 367.75 220.546875 367.867188 221.0625 367.933594 C 221.574219 368.003906 222.089844 368.019531 222.609375 367.984375 C 223.125 367.953125 223.636719 367.867188 224.136719 367.734375 C 224.636719 367.597656 225.121094 367.417969 225.585938 367.1875 C 226.050781 366.957031 226.488281 366.6875 226.898438 366.371094 C 227.3125 366.054688 227.6875 365.703125 228.03125 365.3125 C 228.371094 364.921875 228.671875 364.503906 228.933594 364.054688 Z M 228.933594 364.054688 " fill-opacity="1" fill-rule="nonzero"/><path fill="#578cb5" d="M 245.019531 350.453125 C 245.28125 350 245.445312 349.511719 245.511719 348.996094 C 245.582031 348.476562 245.546875 347.960938 245.414062 347.457031 C 245.277344 346.949219 245.050781 346.492188 244.730469 346.074219 C 244.414062 345.660156 244.027344 345.320312 243.574219 345.058594 C 243.121094 344.796875 242.632812 344.632812 242.113281 344.5625 C 241.59375 344.496094 241.082031 344.527344 240.574219 344.664062 C 240.070312 344.800781 239.609375 345.027344 239.195312 345.347656 C 238.777344 345.664062 238.441406 346.050781 238.179688 346.503906 C 237.917969 346.957031 237.75 347.445312 237.683594 347.964844 C 237.613281 348.484375 237.648438 348.996094 237.785156 349.5 C 237.917969 350.007812 238.144531 350.46875 238.464844 350.882812 C 238.785156 351.296875 239.171875 351.636719 239.625 351.898438 C 240.078125 352.160156 240.5625 352.324219 241.082031 352.394531 C 241.601562 352.460938 242.113281 352.429688 242.621094 352.292969 C 243.125 352.15625 243.585938 351.929688 244.003906 351.613281 C 244.417969 351.292969 244.757812 350.90625 245.019531 350.453125 Z M 245.019531 350.453125 " fill-opacity="1" fill-rule="nonzero"/></svg>