<svg xmlns="http://www.w3.org/2000/svg" xmlns:xlink="http://www.w3.org/1999/xlink" width="250" zoomAndPan="magnify" viewBox="0 0 187.5 449.999982" height="600" preserveAspectRatio="xMidYMid meet" version="1.0"><defs><clipPath id="56fef471ff"><path d="M 26 11 L 187 11 L 187 449.402344 L 26 449.402344 Z M 26 11 " clip-rule="nonzero"/></clipPath><clipPath id="c33d34670d"><path d="M 69.078125 497.984375 L -12.851562 29.359375 L 216.304688 -10.703125 L 298.234375 457.917969 Z M 69.078125 497.984375 " clip-rule="nonzero"/></clipPath><clipPath id="c1c2450bac"><path d="M 69.078125 497.984375 L -12.851562 29.359375 L 216.304688 -10.703125 L 298.234375 457.917969 Z M 69.078125 497.984375 " clip-rule="nonzero"/></clipPath><clipPath id="c186d91221"><path d="M 19 5 L 187 5 L 187 449.402344 L 19 449.402344 Z M 19 5 " clip-rule="nonzero"/></clipPath><clipPath id="5b35ba0df8"><path d="M 69.078125 497.984375 L -12.851562 29.359375 L 216.304688 -10.703125 L 298.234375 457.917969 Z M 69.078125 497.984375 " clip-rule="nonzero"/></clipPath><clipPath id="3c7059dd24"><path d="M 69.078125 497.984375 L -12.851562 29.359375 L 216.304688 -10.703125 L 298.234375 457.917969 Z M 69.078125 497.984375 " clip-rule="nonzero"/></clipPath><clipPath id="b11af46a7d"><path d="M 29 153 L 52 153 L 52 224 L 29 224 Z M 29 153 " clip-rule="nonzero"/></clipPath><clipPath id="fbc58ef78d"><path d="M 69.078125 497.984375 L -12.851562 29.359375 L 216.304688 -10.703125 L 298.234375 457.917969 Z M 69.078125 497.984375 " clip-rule="nonzero"/></clipPath><clipPath id="afe8b0d538"><path d="M 69.078125 497.984375 L -12.851562 29.359375 L 216.304688 -10.703125 L 298.234375 457.917969 Z M 69.078125 497.984375 " clip-rule="nonzero"/></clipPath><clipPath id="42b6b02cdb"><path d="M 45 142 L 53 142 L 53 151 L 45 151 Z M 45 142 " clip-rule="nonzero"/></clipPath><clipPath id="c4eb4019ea"><path d="M 69.078125 497.984375 L -12.851562 29.359375 L 216.304688 -10.703125 L 298.234375 457.917969 Z M 69.078125 497.984375 " clip-rule="nonzero"/></clipPath><clipPath id="6395c534e2"><path d="M 69.078125 497.984375 L -12.851562 29.359375 L 216.304688 -10.703125 L 298.234375 457.917969 Z M 69.078125 497.984375 " clip-rule="nonzero"/></clipPath><clipPath id="3efe71b905"><path d="M 69 376 L 109 376 L 109 441 L 69 441 Z M 69 376 " clip-rule="nonzero"/></clipPath><clipPath id="3edfaac036"><path d="M 69.078125 497.984375 L -12.851562 29.359375 L 216.304688 -10.703125 L 298.234375 457.917969 Z M 69.078125 497.984375 " clip-rule="nonzero"/></clipPath><clipPath id="184008010f"><path d="M 69.078125 497.984375 L -12.851562 29.359375 L 216.304688 -10.703125 L 298.234375 457.917969 Z M 69.078125 497.984375 " clip-rule="nonzero"/></clipPath><clipPath id="5e55ba8d11"><path d="M 66 362 L 70 362 L 70 371 L 66 371 Z M 66 362 " clip-rule="nonzero"/></clipPath><clipPath id="1940fb56db"><path d="M 69.078125 497.984375 L -12.851562 29.359375 L 216.304688 -10.703125 L 298.234375 457.917969 Z M 69.078125 497.984375 " clip-rule="nonzero"/></clipPath><clipPath id="67c0e092b3"><path d="M 69.078125 497.984375 L -12.851562 29.359375 L 216.304688 -10.703125 L 298.234375 457.917969 Z M 69.078125 497.984375 " clip-rule="nonzero"/></clipPath><clipPath id="862c8d1d59"><path d="M 121 11 L 181 11 L 181 30 L 121 30 Z M 121 11 " clip-rule="nonzero"/></clipPath><clipPath id="e89ca9be1b"><path d="M 69.078125 497.984375 L -12.851562 29.359375 L 216.304688 -10.703125 L 298.234375 457.917969 Z M 69.078125 497.984375 " clip-rule="nonzero"/></clipPath><clipPath id="61e3b56e35"><path d="M 69.078125 497.984375 L -12.851562 29.359375 L 216.304688 -10.703125 L 298.234375 457.917969 Z M 69.078125 497.984375 " clip-rule="nonzero"/></clipPath><clipPath id="f9b56b4bdc"><path d="M 182 33 L 187 33 L 187 44 L 182 44 Z M 182 33 " clip-rule="nonzero"/></clipPath><clipPath id="441936ce57"><path d="M 69.078125 497.984375 L -12.851562 29.359375 L 216.304688 -10.703125 L 298.234375 457.917969 Z M 69.078125 497.984375 " clip-rule="nonzero"/></clipPath><clipPath id="6788e775d0"><path d="M 69.078125 497.984375 L -12.851562 29.359375 L 216.304688 -10.703125 L 298.234375 457.917969 Z M 69.078125 497.984375 " clip-rule="nonzero"/></clipPath></defs><g clip-path="url(#56fef471ff)"><g clip-path="url(#c33d34670d)"><g clip-path="url(#c1c2450bac)"><path fill="#578cb5" d="M 179.226562 26.503906 C 194.113281 41.367188 201.789062 62.609375 207.832031 82.324219 C 211.171875 93.21875 213.6875 104.535156 213.804688 115.976562 C 213.917969 127.339844 210.949219 138.089844 207.683594 148.871094 C 202.703125 165.320312 197.277344 183.460938 206.414062 199.527344 C 215.539062 215.570312 233.414062 223.796875 245.292969 237.410156 C 248.675781 241.347656 251.648438 245.570312 254.21875 250.078125 C 256.789062 254.585938 258.90625 259.296875 260.574219 264.210938 C 262.238281 269.125 263.421875 274.15625 264.121094 279.296875 C 264.820312 284.4375 265.027344 289.597656 264.734375 294.78125 C 264.09375 305.621094 260.503906 315.351562 257.167969 325.5625 C 254.335938 334.242188 252.746094 343.074219 255.035156 352.078125 C 259.511719 369.671875 274.027344 382.453125 282.996094 397.667969 C 288.117188 406.359375 291.101562 415.542969 290.046875 425.714844 C 289.652344 429.53125 288.839844 443.339844 277.855469 452.902344 C 266.390625 462.882812 251.703125 461.539062 246.109375 461.027344 C 240.0625 460.382812 234.261719 458.828125 228.703125 456.363281 C 226.054688 455.175781 223.519531 453.792969 221.089844 452.210938 C 215.09375 448.3125 209.738281 443.511719 203.652344 439.746094 C 189.824219 431.195312 174.332031 430.5625 159.257812 435.894531 C 150.304688 439.0625 142.425781 440.25 133.285156 436.703125 C 129.277344 435.050781 125.53125 432.933594 122.054688 430.34375 C 118.574219 427.757812 115.46875 424.78125 112.734375 421.417969 C 100.644531 407.09375 94.492188 387.742188 91.042969 369.65625 C 88.773438 357.707031 87.90625 345.65625 88.449219 333.503906 C 88.933594 322.65625 90.289062 311.859375 90.472656 300.996094 C 90.816406 280.925781 85.691406 263.457031 69.949219 250.28125 C 55.640625 238.308594 37.644531 229.902344 30.425781 211.507812 C 22.210938 190.566406 28.859375 167.144531 41.394531 149.476562 C 53.378906 132.582031 70.074219 121.136719 85.699219 108.003906 C 92.589844 102.214844 99.128906 95.710938 103.417969 87.707031 C 107.164062 80.710938 108.65625 72.972656 109.339844 65.136719 C 110.859375 47.707031 109.054688 25.878906 126.859375 15.980469 C 144.148438 6.367188 166.03125 13.328125 179.226562 26.503906 Z M 179.226562 26.503906 " fill-opacity="1" fill-rule="nonzero"/></g></g></g><g clip-path="url(#c186d91221)"><g clip-path="url(#5b35ba0df8)"><g clip-path="url(#3c7059dd24)"><path fill="#ffc0cb" d="M 120.808594 17.132812 C 109.085938 31.074219 111.691406 50.820312 107.613281 67.449219 C 102.28125 89.171875 82.453125 99.644531 65.667969 111.824219 C 49.097656 123.847656 33.183594 138.613281 24.933594 157.753906 C 17.410156 175.210938 16.464844 196.609375 27.011719 213.066406 C 37.753906 229.832031 57.617188 237.863281 68.632812 254.375 C 82.769531 275.566406 74.921875 302.679688 72.5 326.007812 C 71.273438 337.679688 71.34375 349.339844 72.710938 360.996094 C 74.082031 372.648438 76.710938 384.011719 80.605469 395.078125 C 85.765625 409.644531 94.445312 423.753906 108.050781 431.785156 C 115.171875 435.988281 123.28125 438.292969 131.535156 436.949219 C 139.585938 435.636719 146.929688 432.171875 155.234375 432.1875 C 160.078125 432.257812 164.800781 433.050781 169.398438 434.570312 C 174 436.089844 178.265625 438.261719 182.199219 441.085938 C 188.574219 445.566406 194.027344 451.210938 200.421875 455.664062 C 203.964844 458.042969 207.71875 460.023438 211.683594 461.605469 C 215.648438 463.1875 219.738281 464.335938 223.945312 465.050781 C 230.679688 466.121094 241.574219 467.855469 252.429688 461.882812 C 261.492188 456.898438 265.8125 449.191406 267.964844 445.164062 C 270.023438 441.355469 271.554688 437.34375 272.554688 433.132812 C 273.558594 428.921875 273.996094 424.652344 273.875 420.324219 C 273.503906 410.953125 269.402344 402.285156 264.699219 394.34375 C 254.3125 376.808594 237.917969 359.359375 243.308594 337.34375 C 245.914062 326.707031 251.695312 317.164062 254.269531 306.488281 C 256.582031 296.753906 257.078125 286.933594 255.765625 277.015625 C 253.152344 256.960938 243.46875 239.65625 228.828125 225.929688 C 221.742188 219.285156 214.039062 213.136719 208.082031 205.40625 C 206.324219 203.171875 204.820312 200.777344 203.566406 198.226562 C 202.3125 195.675781 201.339844 193.019531 200.644531 190.261719 C 199.949219 187.507812 199.550781 184.707031 199.445312 181.867188 C 199.339844 179.023438 199.53125 176.203125 200.019531 173.402344 C 203.308594 152.703125 215.171875 134.78125 215.703125 113.40625 C 216.246094 91.546875 209.558594 68.128906 201.171875 48.09375 C 194.046875 31.0625 182.660156 14.460938 164.566406 8.074219 C 149.785156 2.855469 131.402344 4.527344 120.808594 17.132812 Z M 183.820312 24.710938 C 197.808594 40.421875 204.226562 62.074219 209.105469 82.113281 C 211.800781 93.183594 213.652344 104.625 213.097656 116.054688 C 212.546875 127.40625 208.953125 137.960938 205.0625 148.535156 C 199.128906 164.660156 192.648438 182.453125 200.832031 199.03125 C 209 215.578125 226.363281 224.835938 237.425781 239.121094 C 240.570312 243.25 243.292969 247.640625 245.59375 252.289062 C 247.898438 256.941406 249.734375 261.769531 251.109375 266.773438 C 252.484375 271.777344 253.371094 276.863281 253.769531 282.039062 C 254.167969 287.210938 254.070312 292.378906 253.476562 297.53125 C 252.203125 308.316406 248.046875 317.820312 244.121094 327.820312 C 240.785156 336.320312 238.679688 345.042969 240.441406 354.164062 C 243.875 371.988281 257.621094 385.597656 265.683594 401.3125 C 270.289062 410.289062 272.730469 419.632812 271.082031 429.722656 C 270.464844 433.507812 268.84375 447.25 257.320312 456.152344 C 245.289062 465.445312 230.707031 463.242188 225.152344 462.402344 C 219.152344 461.40625 213.449219 459.515625 208.046875 456.726562 C 205.472656 455.390625 203.023438 453.859375 200.691406 452.136719 C 194.933594 447.894531 189.867188 442.789062 184.011719 438.675781 C 170.707031 429.328125 155.28125 427.789062 139.921875 432.230469 C 130.796875 434.867188 122.859375 435.59375 113.945312 431.515625 C 110.039062 429.632812 106.425781 427.300781 103.101562 424.511719 C 99.78125 421.726562 96.855469 418.574219 94.324219 415.054688 C 83.09375 400.050781 78.082031 380.371094 75.699219 362.109375 C 74.132812 350.050781 73.972656 337.96875 75.226562 325.871094 C 76.34375 315.070312 78.328125 304.371094 79.148438 293.539062 C 80.664062 273.523438 76.574219 255.78125 61.628906 241.710938 C 48.046875 228.917969 30.574219 219.472656 24.445312 200.6875 C 17.464844 179.300781 25.476562 156.308594 39.023438 139.402344 C 51.976562 123.238281 69.3125 112.792969 85.679688 100.597656 C 92.894531 95.21875 99.804688 89.109375 104.554688 81.371094 C 108.703125 74.605469 110.644531 66.96875 111.789062 59.1875 C 114.324219 41.875 113.804688 19.980469 132.15625 11.140625 C 149.976562 2.554688 171.417969 10.785156 183.820312 24.710938 Z M 183.820312 24.710938 " fill-opacity="1" fill-rule="nonzero"/></g></g></g><g clip-path="url(#b11af46a7d)"><g clip-path="url(#fbc58ef78d)"><g clip-path="url(#afe8b0d538)"><path fill="#ffc0cb" d="M 51.277344 222.402344 C 46.902344 218.261719 43.21875 213.578125 40.21875 208.355469 C 37.222656 203.136719 35.035156 197.59375 33.664062 191.730469 C 30.71875 178.027344 36.765625 166.894531 42.457031 154.929688 C 42.945312 153.902344 41.480469 153.566406 40.96875 154.363281 C 33.695312 165.667969 27.960938 178.195312 30.660156 191.886719 C 31.265625 195 32.160156 198.03125 33.332031 200.976562 C 34.503906 203.925781 35.941406 206.738281 37.640625 209.417969 C 39.339844 212.097656 41.273438 214.59375 43.4375 216.914062 C 45.601562 219.234375 47.964844 221.332031 50.523438 223.207031 C 50.914062 223.503906 51.652344 222.761719 51.277344 222.402344 Z M 51.277344 222.402344 " fill-opacity="1" fill-rule="nonzero"/></g></g></g><g clip-path="url(#42b6b02cdb)"><g clip-path="url(#c4eb4019ea)"><g clip-path="url(#6395c534e2)"><path fill="#ffc0cb" d="M 47.171875 149.722656 C 48.128906 147.761719 49.238281 145.910156 51.367188 145.070312 C 51.761719 144.957031 52.082031 144.734375 52.332031 144.410156 C 52.578125 144.085938 52.707031 143.71875 52.71875 143.308594 C 52.695312 143.136719 52.636719 142.976562 52.542969 142.828125 C 52.445312 142.679688 52.320312 142.5625 52.171875 142.472656 C 52.019531 142.382812 51.855469 142.332031 51.679688 142.320312 C 51.503906 142.304688 51.335938 142.332031 51.171875 142.398438 C 48.074219 143.636719 45.15625 146.304688 45.003906 149.832031 C 44.945312 151.179688 46.832031 150.417969 47.171875 149.722656 Z M 47.171875 149.722656 " fill-opacity="1" fill-rule="nonzero"/></g></g></g><g clip-path="url(#3efe71b905)"><g clip-path="url(#3edfaac036)"><g clip-path="url(#184008010f)"><path fill="#ffc0cb" d="M 108.855469 439.242188 C 99.894531 430.933594 90.886719 423.949219 84.273438 413.414062 C 80.820312 407.925781 78.046875 402.113281 75.949219 395.984375 C 73.851562 389.851562 72.484375 383.558594 71.847656 377.109375 C 71.675781 375.386719 69.039062 376.449219 69.171875 377.894531 C 69.761719 384.132812 71.03125 390.226562 72.988281 396.183594 C 74.945312 402.136719 77.535156 407.800781 80.761719 413.171875 C 87.082031 423.664062 96.472656 435.175781 108.023438 440.136719 C 108.464844 440.328125 109.328125 439.679688 108.855469 439.242188 Z M 108.855469 439.242188 " fill-opacity="1" fill-rule="nonzero"/></g></g></g><g clip-path="url(#5e55ba8d11)"><g clip-path="url(#1940fb56db)"><g clip-path="url(#67c0e092b3)"><path fill="#ffc0cb" d="M 69.941406 369.261719 C 69.65625 368.03125 69.523438 366.785156 69.539062 365.523438 C 69.570312 364.582031 70.214844 363.167969 69.457031 362.417969 C 69.308594 362.285156 69.136719 362.210938 68.9375 362.195312 C 68.738281 362.179688 68.558594 362.222656 68.386719 362.328125 C 67.066406 362.929688 66.832031 364.628906 66.75 365.929688 C 66.601562 367.457031 66.90625 368.882812 67.671875 370.210938 C 68.273438 371.28125 70.191406 370.410156 69.941406 369.261719 Z M 69.941406 369.261719 " fill-opacity="1" fill-rule="nonzero"/></g></g></g><g clip-path="url(#862c8d1d59)"><g clip-path="url(#e89ca9be1b)"><g clip-path="url(#61e3b56e35)"><path fill="#ffc0cb" d="M 122.652344 28.09375 C 128.011719 16.699219 139.355469 12.671875 151.3125 15.175781 C 161.367188 17.28125 169.972656 23.179688 178.253906 28.960938 C 179.578125 29.886719 181.660156 27.425781 180.183594 26.390625 C 169.4375 18.871094 157.5625 11.058594 143.855469 11.78125 C 134.058594 12.296875 123.765625 17.984375 121.242188 27.980469 C 121.003906 28.929688 122.363281 28.707031 122.652344 28.09375 Z M 122.652344 28.09375 " fill-opacity="1" fill-rule="nonzero"/></g></g></g><g clip-path="url(#f9b56b4bdc)"><g clip-path="url(#441936ce57)"><g clip-path="url(#6788e775d0)"><path fill="#ffc0cb" d="M 189.035156 41.570312 C 188.316406 40.074219 187.742188 38.511719 186.980469 37.035156 C 186.480469 35.636719 185.6875 34.429688 184.601562 33.414062 C 183.699219 32.773438 182.3125 34.003906 182.410156 34.953125 C 182.5625 36.480469 183.675781 37.835938 184.472656 39.117188 C 185.289062 40.421875 186.265625 41.625 187.109375 42.914062 C 187.722656 43.851562 189.484375 42.5 189.035156 41.570312 Z M 189.035156 41.570312 " fill-opacity="1" fill-rule="nonzero"/></g></g></g></svg>