<svg xmlns="http://www.w3.org/2000/svg" xmlns:xlink="http://www.w3.org/1999/xlink" width="400" zoomAndPan="magnify" viewBox="0 0 300 74.999997" height="100" preserveAspectRatio="xMidYMid meet" version="1.0"><defs><clipPath id="f26a0c8cec"><path d="M 6 0 L 300 0 L 300 75 L 6 75 Z M 6 0 " clip-rule="nonzero"/></clipPath><clipPath id="32d9906fb4"><path d="M 1.957031 29.722656 L 294.277344 -1.652344 L 300.121094 52.785156 L 7.800781 84.160156 Z M 1.957031 29.722656 " clip-rule="nonzero"/></clipPath><clipPath id="76a8af2d09"><path d="M 1.957031 29.722656 L 294.277344 -1.652344 L 300.121094 52.785156 L 7.800781 84.160156 Z M 1.957031 29.722656 " clip-rule="nonzero"/></clipPath></defs><g clip-path="url(#f26a0c8cec)"><g clip-path="url(#32d9906fb4)"><g clip-path="url(#76a8af2d09)"><path fill="#ffc0cb" d="M 298.902344 50.917969 C 287.890625 47.375 277.65625 41.46875 269.195312 33.5625 C 268.691406 33.09375 268.183594 32.605469 267.695312 32.121094 C 269.460938 30.851562 271.144531 29.484375 272.75 28.039062 C 279.496094 21.929688 284.835938 14.195312 287.125 5.308594 C 287.566406 3.589844 287.683594 1.589844 285.933594 0.574219 C 284.484375 -0.28125 282.570312 0.0625 281.082031 0.640625 C 279.09375 1.429688 277.480469 2.964844 275.945312 4.417969 C 274.03125 6.226562 272.292969 8.207031 270.742188 10.34375 C 269.652344 11.855469 268.691406 13.457031 267.804688 15.101562 C 266.242188 9.78125 262.148438 5.269531 256.773438 3.546875 C 254.191406 2.710938 250.949219 3.039062 250.21875 6.117188 C 249.570312 8.851562 251.074219 11.667969 252.265625 14.015625 C 255.558594 20.476562 259.714844 26.40625 264.617188 31.664062 C 248.546875 42.328125 228.59375 44.417969 209.5625 43.605469 C 197.765625 43.09375 186.011719 41.707031 174.230469 40.707031 C 162.886719 39.726562 151.527344 38.941406 140.140625 38.542969 C 117.597656 37.777344 94.863281 38.648438 72.726562 43.289062 C 51.492188 47.726562 29.976562 55.71875 12.871094 69.386719 C 10.832031 71.015625 8.890625 72.742188 7.03125 74.5625 C 6.792969 74.796875 7.1875 75.207031 7.421875 74.972656 C 15.957031 67.136719 25.878906 61.367188 36.464844 56.730469 C 47.265625 52 58.582031 48.5 70.109375 46.007812 C 93.289062 41.011719 117.199219 40.222656 140.832031 41.101562 C 152.746094 41.546875 164.640625 42.433594 176.53125 43.492188 C 188.742188 44.585938 200.933594 45.976562 213.207031 46.210938 C 225.007812 46.425781 237.039062 45.535156 248.339844 41.863281 C 254.601562 39.832031 260.667969 36.933594 266.140625 33.191406 C 269.832031 36.925781 273.90625 40.289062 278.316406 43.210938 C 284.542969 47.335938 291.238281 50.46875 298.410156 52.503906 C 299.332031 52.804688 299.824219 51.21875 298.902344 50.917969 Z M 257.9375 20.429688 C 256.285156 18.011719 254.808594 15.46875 253.484375 12.855469 C 252.53125 10.957031 250.390625 7.089844 252.511719 5.242188 C 254.007812 3.933594 256.585938 5.050781 258.109375 5.773438 C 259.503906 6.441406 260.785156 7.332031 261.941406 8.359375 C 264.484375 10.628906 266.242188 13.699219 266.933594 17.042969 C 267.050781 17.671875 267.890625 17.863281 268.207031 17.234375 C 270.523438 12.507812 274.015625 8.195312 278.023438 4.769531 C 279.570312 3.4375 281.203125 2.09375 283.324219 1.882812 C 284.011719 1.808594 285.003906 1.808594 285.40625 2.476562 C 286.042969 3.507812 285.109375 5.523438 284.765625 6.554688 C 281.875 15.175781 276.308594 22.570312 269.289062 28.273438 C 268.292969 29.074219 267.277344 29.847656 266.242188 30.585938 C 263.171875 27.464844 260.382812 24.050781 257.9375 20.429688 Z M 257.9375 20.429688 " fill-opacity="1" fill-rule="nonzero"/></g></g></g></svg>