<svg xmlns="http://www.w3.org/2000/svg" xmlns:xlink="http://www.w3.org/1999/xlink" width="300" zoomAndPan="magnify" viewBox="0 0 224.87999 449.999984" height="600" preserveAspectRatio="xMidYMid meet" version="1.0"><defs><clipPath id="7e6dadcc82"><path d="M 0 4 L 204 4 L 204 428 L 0 428 Z M 0 4 " clip-rule="nonzero"/></clipPath><clipPath id="794af47d25"><path d="M 163.296875 -20.160156 L 230.402344 437.449219 L -22.507812 474.535156 L -89.613281 16.929688 Z M 163.296875 -20.160156 " clip-rule="nonzero"/></clipPath><clipPath id="b97876a009"><path d="M 163.296875 -20.160156 L 230.402344 437.449219 L -22.507812 474.535156 L -89.613281 16.929688 Z M 163.296875 -20.160156 " clip-rule="nonzero"/></clipPath><clipPath id="9478f2ef88"><path d="M 0 15 L 201 15 L 201 439 L 0 439 Z M 0 15 " clip-rule="nonzero"/></clipPath><clipPath id="e47c560f20"><path d="M 163.296875 -20.160156 L 230.402344 437.449219 L -22.507812 474.535156 L -89.613281 16.929688 Z M 163.296875 -20.160156 " clip-rule="nonzero"/></clipPath><clipPath id="f16ea24f61"><path d="M 163.296875 -20.160156 L 230.402344 437.449219 L -22.507812 474.535156 L -89.613281 16.929688 Z M 163.296875 -20.160156 " clip-rule="nonzero"/></clipPath><clipPath id="2ab1ca0b1e"><path d="M 0 27 L 40 27 L 40 53 L 0 53 Z M 0 27 " clip-rule="nonzero"/></clipPath><clipPath id="8b71b92744"><path d="M 163.296875 -20.160156 L 230.402344 437.449219 L -22.507812 474.535156 L -89.613281 16.929688 Z M 163.296875 -20.160156 " clip-rule="nonzero"/></clipPath><clipPath id="75d0e65ae5"><path d="M 163.296875 -20.160156 L 230.402344 437.449219 L -22.507812 474.535156 L -89.613281 16.929688 Z M 163.296875 -20.160156 " clip-rule="nonzero"/></clipPath><clipPath id="f17fa65cc8"><path d="M 43 62 L 53 62 L 53 83 L 43 83 Z M 43 62 " clip-rule="nonzero"/></clipPath><clipPath id="b7cb8a9d46"><path d="M 163.296875 -20.160156 L 230.402344 437.449219 L -22.507812 474.535156 L -89.613281 16.929688 Z M 163.296875 -20.160156 " clip-rule="nonzero"/></clipPath><clipPath id="f83b6b9d92"><path d="M 163.296875 -20.160156 L 230.402344 437.449219 L -22.507812 474.535156 L -89.613281 16.929688 Z M 163.296875 -20.160156 " clip-rule="nonzero"/></clipPath><clipPath id="759967c931"><path d="M 0 341 L 42 341 L 42 408 L 0 408 Z M 0 341 " clip-rule="nonzero"/></clipPath><clipPath id="07fe06b6cb"><path d="M 163.296875 -20.160156 L 230.402344 437.449219 L -22.507812 474.535156 L -89.613281 16.929688 Z M 163.296875 -20.160156 " clip-rule="nonzero"/></clipPath><clipPath id="353b7402ff"><path d="M 163.296875 -20.160156 L 230.402344 437.449219 L -22.507812 474.535156 L -89.613281 16.929688 Z M 163.296875 -20.160156 " clip-rule="nonzero"/></clipPath><clipPath id="094789769d"><path d="M 47 392 L 68 392 L 68 401 L 47 401 Z M 47 392 " clip-rule="nonzero"/></clipPath><clipPath id="21e17c6b08"><path d="M 163.296875 -20.160156 L 230.402344 437.449219 L -22.507812 474.535156 L -89.613281 16.929688 Z M 163.296875 -20.160156 " clip-rule="nonzero"/></clipPath><clipPath id="a14f15b1c8"><path d="M 163.296875 -20.160156 L 230.402344 437.449219 L -22.507812 474.535156 L -89.613281 16.929688 Z M 163.296875 -20.160156 " clip-rule="nonzero"/></clipPath><clipPath id="6b61647719"><path d="M 189 331 L 214 331 L 214 428 L 189 428 Z M 189 331 " clip-rule="nonzero"/></clipPath><clipPath id="a53e33af6d"><path d="M 163.296875 -20.160156 L 230.402344 437.449219 L -22.507812 474.535156 L -89.613281 16.929688 Z M 163.296875 -20.160156 " clip-rule="nonzero"/></clipPath><clipPath id="21124a85de"><path d="M 163.296875 -20.160156 L 230.402344 437.449219 L -22.507812 474.535156 L -89.613281 16.929688 Z M 163.296875 -20.160156 " clip-rule="nonzero"/></clipPath><clipPath id="b41d41886e"><path d="M 168 433 L 184 433 L 184 446 L 168 446 Z M 168 433 " clip-rule="nonzero"/></clipPath><clipPath id="ba7192eb4d"><path d="M 163.296875 -20.160156 L 230.402344 437.449219 L -22.507812 474.535156 L -89.613281 16.929688 Z M 163.296875 -20.160156 " clip-rule="nonzero"/></clipPath><clipPath id="a6949b06fd"><path d="M 163.296875 -20.160156 L 230.402344 437.449219 L -22.507812 474.535156 L -89.613281 16.929688 Z M 163.296875 -20.160156 " clip-rule="nonzero"/></clipPath></defs><g clip-path="url(#7e6dadcc82)"><g clip-path="url(#794af47d25)"><g clip-path="url(#b97876a009)"><path fill="#ffc0cb" d="M 128.523438 416.78125 C 121.382812 410.53125 114.804688 404.195312 106.054688 400.214844 C 101.734375 398.253906 97.246094 396.832031 92.589844 395.945312 C 87.933594 395.058594 83.234375 394.734375 78.5 394.972656 C 57.449219 396.050781 38.453125 414.132812 17.125 406.554688 C -17.945312 394.09375 -27.664062 349.632812 -29.148438 316.984375 C -30.480469 287.6875 -27.832031 257.015625 -16.015625 229.933594 C -11.929688 220.570312 -7.03125 211.542969 -4.375 201.625 C -0.597656 187.535156 -0.925781 172.421875 -2.980469 158.09375 C -5.359375 141.53125 -11.003906 125.96875 -17.304688 110.554688 C -22.898438 96.871094 -28.871094 82.878906 -29.390625 67.886719 C -29.574219 59.460938 -28.296875 51.265625 -25.558594 43.296875 C -25.414062 42.929688 -25.425781 42.566406 -25.597656 42.210938 C -19.917969 26.894531 -10.222656 13.402344 5.664062 7.507812 C 24.914062 0.367188 48.109375 4.28125 61.71875 20.1875 C 73.722656 34.214844 77.582031 53.140625 80.613281 70.832031 C 83.984375 90.507812 87.078125 109.789062 94.511719 128.453125 C 125.222656 205.582031 205.152344 265.582031 203.144531 354.59375 C 202.675781 375.355469 196.929688 397.542969 182.203125 412.855469 C 175.460938 419.863281 166.78125 425.746094 157.015625 427.277344 C 145.878906 429.027344 136.65625 423.890625 128.523438 416.78125 Z M 128.523438 416.78125 " fill-opacity="1" fill-rule="nonzero"/></g></g></g><g clip-path="url(#9478f2ef88)"><g clip-path="url(#e47c560f20)"><g clip-path="url(#f16ea24f61)"><path fill="#578cb5" d="M 171.316406 430.554688 C 187.035156 419.027344 195.488281 400.828125 198.742188 382.027344 C 206.171875 339.085938 187.285156 296.019531 164.300781 260.796875 C 138.980469 222 105.707031 188.648438 84.214844 147.308594 C 73.941406 127.554688 68.441406 106.941406 63.671875 85.339844 C 59.652344 67.132812 55.144531 47.652344 42.675781 33.148438 C 18.621094 5.175781 -28.433594 13.015625 -45.269531 44.707031 C -47.851562 49.742188 -49.855469 54.996094 -51.289062 60.46875 C -51.652344 60.742188 -51.902344 61.097656 -52.035156 61.53125 C -53.046875 65.246094 -53.765625 69.019531 -54.199219 72.84375 C -54.628906 76.671875 -54.765625 80.507812 -54.609375 84.355469 C -54.449219 88.203125 -54 92.011719 -53.253906 95.792969 C -52.511719 99.570312 -51.484375 103.269531 -50.175781 106.886719 C -44.609375 122.753906 -35.957031 137.34375 -30.046875 153.082031 C -23.375 170.847656 -19.355469 190.4375 -21.007812 209.476562 C -22.0625 221.628906 -26.671875 232.480469 -31.039062 243.714844 C -42.023438 271.96875 -43.757812 302.773438 -41.167969 332.769531 C -38.3125 365.789062 -28.019531 405.574219 4.046875 421.921875 C 12.46875 426.21875 21.691406 427.882812 30.984375 425.78125 C 42.207031 423.242188 51.785156 416.382812 62.636719 412.824219 C 65.460938 411.914062 68.34375 411.230469 71.277344 410.773438 C 74.210938 410.316406 77.164062 410.097656 80.132812 410.109375 C 83.105469 410.125 86.054688 410.371094 88.984375 410.855469 C 91.917969 411.335938 94.789062 412.046875 97.609375 412.984375 C 108.714844 416.675781 116.484375 424.300781 125.703125 431.035156 C 140.25 441.664062 156.867188 441.148438 171.316406 430.554688 Z M 125.574219 426.125 C 118.105469 420.269531 111.199219 414.296875 102.246094 410.789062 C 97.828125 409.0625 93.269531 407.882812 88.570312 407.246094 C 83.871094 406.613281 79.164062 406.539062 74.449219 407.03125 C 53.488281 409.238281 35.488281 428.3125 13.785156 421.890625 C -21.902344 411.332031 -33.996094 367.453125 -37.230469 334.929688 C -40.132812 305.75 -39.132812 274.980469 -28.785156 247.300781 C -25.207031 237.734375 -20.800781 228.457031 -18.679688 218.410156 C -15.667969 204.136719 -16.804688 189.066406 -19.628906 174.867188 C -22.890625 158.453125 -29.363281 143.21875 -36.480469 128.164062 C -42.800781 114.800781 -49.515625 101.148438 -50.835938 86.207031 C -51.472656 77.804688 -50.636719 69.554688 -48.332031 61.449219 C -48.207031 61.074219 -48.238281 60.710938 -48.429688 60.367188 C -43.578125 44.765625 -34.625 30.773438 -19.074219 24.035156 C -0.234375 15.871094 23.136719 18.535156 37.578125 33.6875 C 50.316406 47.050781 55.1875 65.742188 59.164062 83.246094 C 63.585938 102.710938 67.710938 121.800781 76.132812 140.039062 C 110.941406 215.410156 193.976562 271.03125 196.746094 360.023438 C 197.390625 380.78125 192.84375 403.242188 178.960938 419.324219 C 172.605469 426.683594 164.257812 433.023438 154.585938 435.078125 C 143.558594 437.425781 134.070312 432.789062 125.574219 426.125 Z M 125.574219 426.125 " fill-opacity="1" fill-rule="nonzero"/></g></g></g><g clip-path="url(#2ab1ca0b1e)"><g clip-path="url(#8b71b92744)"><g clip-path="url(#75d0e65ae5)"><path fill="#578cb5" d="M 39.898438 50.144531 C 38.890625 45.171875 33.6875 41.527344 29.867188 38.523438 C 24.925781 34.53125 19.449219 31.5 13.441406 29.429688 C 3.078125 26.015625 -10.808594 26.339844 -19.253906 34.078125 C -20.351562 35.082031 -19.679688 36.855469 -18.121094 36.078125 C -7.886719 30.988281 1.753906 29.125 12.851562 33.09375 C 21.054688 36.027344 33.683594 43.136719 37.441406 51.40625 C 38.113281 52.886719 40.160156 51.4375 39.898438 50.144531 Z M 39.898438 50.144531 " fill-opacity="1" fill-rule="nonzero"/></g></g></g><g clip-path="url(#f17fa65cc8)"><g clip-path="url(#b7cb8a9d46)"><g clip-path="url(#f83b6b9d92)"><path fill="#578cb5" d="M 43.582031 63.769531 C 44.554688 69.914062 46.269531 75.847656 48.714844 81.570312 C 49.601562 83.523438 52.882812 81.609375 52.132812 79.816406 C 49.683594 74.308594 47.585938 68.667969 45.847656 62.894531 C 45.507812 61.671875 43.382812 62.707031 43.582031 63.769531 Z M 43.582031 63.769531 " fill-opacity="1" fill-rule="nonzero"/></g></g></g><g clip-path="url(#759967c931)"><g clip-path="url(#07fe06b6cb)"><g clip-path="url(#353b7402ff)"><path fill="#578cb5" d="M -22.675781 342.863281 C -25.328125 352.28125 -22.660156 361.710938 -18.449219 370.273438 C -14.0625 379.183594 -8.515625 389.578125 -1.042969 396.238281 C 5.144531 401.753906 13.199219 404.414062 21.230469 405.835938 C 26.152344 406.710938 36.300781 409.820312 40.316406 405.765625 C 40.765625 405.316406 41.394531 404.484375 41.035156 403.785156 L 40.644531 403.027344 C 40.117188 402.003906 38.589844 402.421875 38.199219 403.382812 C 37 406.332031 19.851562 402.007812 16.933594 401.222656 C 9.597656 399.246094 3.082031 395.765625 -1.753906 389.804688 C -11.609375 377.664062 -23.273438 359.160156 -20.617188 342.816406 C -20.378906 341.359375 -22.375 341.789062 -22.675781 342.863281 Z M -22.675781 342.863281 " fill-opacity="1" fill-rule="nonzero"/></g></g></g><g clip-path="url(#094789769d)"><g clip-path="url(#21e17c6b08)"><g clip-path="url(#a14f15b1c8)"><path fill="#578cb5" d="M 48.277344 399.296875 C 54.46875 401.230469 63.480469 400.136719 67.363281 394.28125 C 68.066406 393.222656 67.28125 392.144531 66.066406 392.695312 C 63.332031 393.933594 61.019531 395.699219 58.078125 396.519531 C 55.097656 397.332031 52.070312 397.578125 49 397.257812 C 47.980469 397.15625 47.058594 398.914062 48.277344 399.296875 Z M 48.277344 399.296875 " fill-opacity="1" fill-rule="nonzero"/></g></g></g><g clip-path="url(#6b61647719)"><g clip-path="url(#a53e33af6d)"><g clip-path="url(#21124a85de)"><path fill="#578cb5" d="M 206.679688 332.890625 C 208.347656 349.183594 211.65625 365.417969 208.421875 381.765625 C 206.773438 389.394531 204.355469 396.773438 201.167969 403.902344 C 198.03125 411.273438 195.019531 419.261719 190.074219 425.617188 C 188.710938 427.367188 191.160156 428.554688 192.390625 427.023438 C 197.175781 421.074219 200.015625 413.730469 203.050781 406.789062 C 206.605469 399.089844 209.351562 391.113281 211.277344 382.855469 C 214.8125 366.152344 212.5625 348.558594 208.625 332.140625 C 208.367188 331.0625 206.585938 332 206.679688 332.890625 Z M 206.679688 332.890625 " fill-opacity="1" fill-rule="nonzero"/></g></g></g><g clip-path="url(#b41d41886e)"><g clip-path="url(#ba7192eb4d)"><g clip-path="url(#a6949b06fd)"><path fill="#578cb5" d="M 182.082031 433.84375 C 180.609375 436.019531 178.800781 437.871094 176.660156 439.394531 C 174.519531 440.917969 172.179688 442.023438 169.640625 442.703125 C 167.78125 443.210938 167.433594 446.148438 169.78125 445.753906 C 171.328125 445.488281 172.816406 445.035156 174.25 444.394531 C 175.679688 443.75 177.007812 442.941406 178.234375 441.960938 C 179.457031 440.980469 180.542969 439.863281 181.484375 438.605469 C 182.421875 437.347656 183.191406 435.996094 183.789062 434.542969 C 184.25 433.339844 182.742188 432.910156 182.082031 433.84375 Z M 182.082031 433.84375 " fill-opacity="1" fill-rule="nonzero"/></g></g></g></svg>