<svg xmlns="http://www.w3.org/2000/svg" xmlns:xlink="http://www.w3.org/1999/xlink" width="500" zoomAndPan="magnify" viewBox="0 0 375 74.999997" height="100" preserveAspectRatio="xMidYMid meet" version="1.0"><defs><clipPath id="85df1cb861"><path d="M 9 3 L 375 3 L 375 68 L 9 68 Z M 9 3 " clip-rule="nonzero"/></clipPath><clipPath id="e4f1a6e88f"><path d="M 357.199219 119.664062 L 7.660156 18.992188 L 32.359375 -66.769531 L 381.902344 33.898438 Z M 357.199219 119.664062 " clip-rule="nonzero"/></clipPath><clipPath id="ff38c52712"><path d="M 357.199219 119.664062 L 7.660156 18.992188 L 32.359375 -66.769531 L 381.902344 33.898438 Z M 357.199219 119.664062 " clip-rule="nonzero"/></clipPath><clipPath id="d80f80c2b5"><path d="M 357.222656 119.582031 L 7.21875 18.78125 L 31.980469 -67.195312 L 381.984375 33.605469 Z M 357.222656 119.582031 " clip-rule="nonzero"/></clipPath><clipPath id="e437bda733"><path d="M 357.222656 119.582031 L 7.484375 18.859375 L 32.167969 -66.835938 L 381.902344 33.886719 Z M 357.222656 119.582031 " clip-rule="nonzero"/></clipPath></defs><g clip-path="url(#85df1cb861)"><g clip-path="url(#e4f1a6e88f)"><g clip-path="url(#ff38c52712)"><g clip-path="url(#d80f80c2b5)"><g clip-path="url(#e437bda733)"><path fill="#ffc0cb" d="M 317.9375 17.628906 C 317.371094 17.476562 316.800781 17.355469 316.21875 17.257812 C 315.566406 17.167969 314.910156 17.105469 314.25 17.074219 C 313.609375 17.0625 312.972656 17.082031 312.332031 17.132812 C 311.667969 17.210938 311.015625 17.316406 310.363281 17.460938 C 309.679688 17.644531 309.011719 17.859375 308.351562 18.101562 C 307.210938 18.546875 306.113281 19.058594 305.027344 19.625 C 303.714844 20.339844 302.449219 21.121094 301.226562 21.980469 C 300.703125 22.375 300.199219 22.785156 299.714844 23.230469 C 299.179688 23.757812 298.6875 24.3125 298.210938 24.898438 C 298.214844 24.894531 298.222656 24.886719 298.226562 24.878906 C 297.835938 25.390625 297.472656 25.910156 297.128906 26.445312 C 296.496094 27.511719 295.953125 28.613281 295.453125 29.742188 C 295.242188 30.238281 295.035156 30.734375 294.847656 31.242188 C 294.640625 31.816406 294.453125 32.398438 294.28125 32.984375 C 293.859375 34.507812 293.527344 36.050781 293.277344 37.609375 C 293.027344 39.300781 292.855469 41 292.785156 42.710938 C 292.765625 44.039062 292.828125 45.359375 292.957031 46.6875 C 292.953125 46.644531 292.949219 46.597656 292.945312 46.554688 C 293.03125 47.246094 293.136719 47.929688 293.28125 48.613281 C 293.378906 49.007812 293.488281 49.398438 293.617188 49.785156 C 294.078125 49.746094 294.539062 49.707031 294.996094 49.660156 C 297.128906 49.433594 299.25 49.105469 301.34375 48.628906 C 301.339844 48.632812 301.335938 48.632812 301.332031 48.632812 C 303.015625 48.238281 304.671875 47.746094 306.296875 47.144531 C 307.886719 46.539062 309.429688 45.835938 310.933594 45.042969 C 312.351562 44.273438 313.707031 43.425781 315.019531 42.492188 C 316.375 41.5 317.660156 40.4375 318.878906 39.285156 C 319.863281 38.328125 320.78125 37.324219 321.652344 36.265625 C 321.644531 36.269531 321.644531 36.273438 321.640625 36.277344 C 321.644531 36.273438 321.644531 36.269531 321.652344 36.265625 C 321.675781 36.234375 321.699219 36.203125 321.726562 36.171875 C 321.707031 36.195312 321.683594 36.222656 321.660156 36.25 C 322.175781 35.597656 322.664062 34.9375 323.097656 34.230469 C 323.476562 33.585938 323.816406 32.917969 324.117188 32.234375 C 324.320312 31.75 324.5 31.261719 324.65625 30.765625 C 324.792969 30.265625 324.910156 29.765625 325 29.257812 C 325.09375 28.640625 325.144531 28.027344 325.167969 27.402344 C 325.164062 27.445312 325.164062 27.492188 325.164062 27.535156 C 325.160156 27.113281 325.148438 26.695312 325.113281 26.273438 C 325.058594 25.78125 324.984375 25.300781 324.878906 24.816406 C 324.777344 24.417969 324.660156 24.035156 324.527344 23.648438 C 324.375 23.265625 324.210938 22.886719 324.027344 22.519531 C 323.835938 22.175781 323.621094 21.847656 323.398438 21.519531 C 323.089844 21.097656 322.757812 20.695312 322.402344 20.308594 C 322.027344 19.925781 321.636719 19.566406 321.21875 19.226562 C 320.964844 19.035156 320.703125 18.863281 320.4375 18.699219 C 320.042969 18.476562 319.648438 18.273438 319.242188 18.085938 C 318.8125 17.914062 318.378906 17.765625 317.9375 17.628906 Z M 322.132812 17.316406 C 322.421875 17.507812 322.691406 17.738281 322.957031 17.964844 C 323.226562 18.199219 323.488281 18.445312 323.734375 18.699219 C 324.242188 19.222656 324.722656 19.773438 325.132812 20.371094 C 325.507812 20.917969 325.855469 21.476562 326.128906 22.082031 C 326.421875 22.730469 326.667969 23.402344 326.839844 24.09375 C 327.167969 25.402344 327.289062 26.738281 327.21875 28.082031 C 327.152344 29.425781 326.867188 30.75 326.433594 32.023438 C 326.222656 32.648438 325.949219 33.257812 325.664062 33.851562 C 325.347656 34.519531 324.980469 35.160156 324.582031 35.78125 C 324.183594 36.40625 323.730469 36.996094 323.261719 37.574219 C 322.730469 38.230469 322.179688 38.871094 321.601562 39.484375 C 317.269531 44.082031 311.753906 47.519531 305.78125 49.535156 C 303.011719 50.472656 300.144531 51.082031 297.25 51.484375 C 296.34375 51.609375 295.4375 51.714844 294.523438 51.800781 C 294.871094 52.402344 295.246094 52.984375 295.648438 53.546875 C 296.191406 54.273438 296.773438 54.964844 297.394531 55.632812 C 298.210938 56.476562 299.074219 57.261719 299.988281 58.003906 C 300.875 58.695312 301.796875 59.34375 302.757812 59.941406 C 303.433594 60.335938 304.121094 60.6875 304.835938 61.003906 C 305.992188 61.484375 307.171875 61.898438 308.367188 62.253906 C 309.605469 62.597656 310.855469 62.847656 312.125 63.046875 C 312.082031 63.039062 312.039062 63.035156 311.992188 63.023438 C 313.394531 63.230469 314.792969 63.355469 316.210938 63.410156 C 318.816406 63.46875 321.417969 63.324219 324.007812 63.078125 C 327.941406 62.671875 331.839844 62.023438 335.695312 61.136719 C 337.628906 60.679688 339.542969 60.15625 341.441406 59.570312 C 343.582031 58.914062 345.691406 58.152344 347.789062 57.367188 C 347.75 57.386719 347.707031 57.398438 347.664062 57.417969 C 349.835938 56.589844 351.996094 55.730469 354.125 54.796875 C 356.304688 53.839844 358.441406 52.785156 360.546875 51.664062 C 360.542969 51.664062 360.542969 51.664062 360.542969 51.667969 C 362.425781 50.640625 364.273438 49.550781 366.085938 48.402344 C 367.894531 47.265625 369.675781 46.089844 371.417969 44.855469 C 372.164062 44.308594 372.914062 43.75 373.628906 43.160156 C 374.339844 42.570312 375.03125 41.957031 375.707031 41.328125 C 375.949219 41.089844 376.183594 40.851562 376.414062 40.605469 C 376.707031 40.296875 376.96875 39.964844 377.238281 39.636719 C 377.535156 39.253906 377.8125 38.859375 378.074219 38.445312 C 378.3125 38.042969 378.535156 37.625 378.734375 37.199219 C 378.800781 37.046875 378.859375 36.894531 378.910156 36.738281 C 378.476562 36.535156 378.210938 36.066406 378.324219 35.570312 C 378.441406 35.03125 379.015625 34.640625 379.5625 34.785156 C 379.828125 34.851562 380.085938 34.914062 380.320312 35.066406 C 380.734375 35.328125 380.980469 35.765625 381.042969 36.246094 C 381.117188 36.796875 380.921875 37.363281 380.707031 37.863281 C 380.453125 38.46875 380.148438 39.050781 379.804688 39.605469 C 379.382812 40.269531 378.910156 40.886719 378.40625 41.488281 C 377.871094 42.125 377.285156 42.695312 376.679688 43.257812 C 375.378906 44.472656 373.980469 45.585938 372.53125 46.609375 C 371.152344 47.585938 369.746094 48.515625 368.332031 49.4375 C 366.800781 50.433594 365.246094 51.390625 363.660156 52.304688 C 360.449219 54.15625 357.117188 55.796875 353.703125 57.242188 C 350.425781 58.628906 347.089844 59.890625 343.714844 61.023438 C 340.824219 61.996094 337.871094 62.800781 334.886719 63.449219 C 331.941406 64.09375 328.964844 64.59375 325.96875 64.949219 C 322.347656 65.378906 318.679688 65.648438 315.03125 65.433594 C 313.265625 65.332031 311.5 65.101562 309.765625 64.738281 C 308.03125 64.382812 306.328125 63.847656 304.6875 63.191406 C 303.921875 62.886719 303.179688 62.546875 302.453125 62.164062 C 301.640625 61.734375 300.871094 61.214844 300.121094 60.695312 C 298.707031 59.71875 297.402344 58.597656 296.195312 57.378906 C 295.054688 56.230469 294.019531 54.953125 293.160156 53.582031 C 292.835938 53.058594 292.535156 52.523438 292.269531 51.972656 C 291.105469 52.039062 289.9375 52.070312 288.773438 52.066406 C 286.878906 52.0625 284.996094 51.917969 283.121094 51.664062 C 281.074219 51.390625 279.046875 50.988281 277.023438 50.566406 C 275.015625 50.144531 273.011719 49.679688 271.007812 49.242188 C 268.941406 48.792969 266.859375 48.429688 264.773438 48.101562 C 264.816406 48.109375 264.863281 48.113281 264.902344 48.125 C 259.195312 47.246094 253.433594 46.664062 247.660156 46.492188 C 247.6875 46.492188 247.710938 46.496094 247.742188 46.492188 C 245.691406 46.445312 243.640625 46.433594 241.589844 46.5 C 239.605469 46.566406 237.625 46.699219 235.648438 46.890625 C 232.34375 47.242188 229.074219 47.789062 225.832031 48.535156 C 225.878906 48.527344 225.921875 48.515625 225.964844 48.507812 C 224.386719 48.878906 222.820312 49.296875 221.269531 49.777344 C 219.808594 50.230469 218.367188 50.730469 216.933594 51.265625 C 213.644531 52.511719 210.445312 53.964844 207.300781 55.539062 C 204.417969 56.984375 201.582031 58.519531 198.742188 60.039062 C 196.035156 61.488281 193.308594 62.898438 190.453125 64.042969 C 187.75 65.132812 184.949219 65.988281 182.082031 66.53125 C 179.660156 66.988281 177.15625 67.164062 174.703125 66.84375 C 172.796875 66.597656 170.894531 65.980469 169.339844 64.828125 C 168.054688 63.875 167.089844 62.496094 166.753906 60.921875 C 166.667969 60.527344 166.660156 60.105469 166.675781 59.699219 C 166.691406 59.21875 166.769531 58.75 166.871094 58.285156 C 167.085938 57.292969 167.453125 56.332031 167.882812 55.421875 C 168.351562 54.425781 168.925781 53.46875 169.578125 52.578125 C 169.933594 52.09375 170.324219 51.632812 170.730469 51.195312 C 171.316406 50.566406 171.992188 50.027344 172.667969 49.5 C 173.828125 48.601562 175.074219 47.804688 176.335938 47.050781 C 177.570312 46.3125 178.851562 45.652344 180.140625 45.011719 C 182.679688 43.753906 185.273438 42.605469 187.890625 41.535156 C 190.828125 40.332031 193.800781 39.21875 196.753906 38.054688 C 201.308594 36.261719 205.859375 34.398438 210.195312 32.117188 C 210.328125 32.042969 210.460938 31.960938 210.597656 31.902344 C 210.628906 31.882812 210.65625 31.867188 210.6875 31.851562 C 211.003906 31.675781 211.320312 31.503906 211.632812 31.328125 C 212.890625 30.609375 214.109375 29.820312 215.285156 28.972656 C 216.113281 28.359375 216.90625 27.714844 217.660156 27.011719 C 218.425781 26.265625 219.136719 25.480469 219.808594 24.648438 C 220.34375 23.957031 220.839844 23.246094 221.296875 22.503906 C 221.640625 21.917969 221.953125 21.316406 222.238281 20.699219 C 222.390625 20.332031 222.527344 19.964844 222.648438 19.585938 C 222.78125 19.105469 222.890625 18.621094 222.972656 18.125 C 223.015625 17.839844 223.042969 17.5625 223.066406 17.273438 C 223.070312 17.007812 223.0625 16.75 223.042969 16.484375 C 223.015625 16.285156 222.980469 16.089844 222.941406 15.890625 C 222.867188 15.597656 222.777344 15.308594 222.675781 15.023438 C 222.542969 14.703125 222.402344 14.394531 222.246094 14.085938 C 221.875 13.425781 221.457031 12.792969 221.019531 12.175781 C 220.597656 11.609375 220.164062 11.070312 219.691406 10.554688 C 219.105469 9.960938 218.488281 9.410156 217.839844 8.882812 C 217.203125 8.390625 216.546875 7.933594 215.863281 7.507812 C 215.199219 7.121094 214.527344 6.773438 213.828125 6.460938 C 213.21875 6.214844 212.601562 5.996094 211.96875 5.808594 C 211.34375 5.640625 210.710938 5.5 210.070312 5.390625 C 209.425781 5.300781 208.78125 5.25 208.128906 5.21875 C 207.46875 5.207031 206.816406 5.21875 206.160156 5.277344 C 205.285156 5.382812 204.425781 5.550781 203.566406 5.746094 C 202.316406 6.050781 201.089844 6.425781 199.882812 6.875 C 198.554688 7.390625 197.261719 7.988281 196.003906 8.65625 C 194.210938 9.628906 192.503906 10.726562 190.84375 11.914062 C 188.296875 13.78125 185.910156 15.84375 183.621094 18.011719 C 181.09375 20.429688 178.675781 22.957031 176.167969 25.394531 C 173.792969 27.703125 171.332031 29.925781 168.773438 32.03125 C 166.507812 33.898438 164.160156 35.675781 161.65625 37.203125 C 159.375 38.589844 156.929688 39.699219 154.402344 40.550781 C 152.007812 41.355469 149.519531 41.785156 147.003906 41.882812 C 144.585938 41.980469 142.160156 41.742188 139.785156 41.316406 C 135.511719 40.546875 131.445312 38.859375 127.828125 36.46875 C 125.636719 35.019531 123.613281 33.324219 121.566406 31.683594 C 121.578125 31.699219 121.59375 31.707031 121.605469 31.71875 C 119.652344 30.15625 117.683594 28.617188 115.542969 27.3125 C 114.574219 26.730469 113.578125 26.199219 112.550781 25.726562 C 112.386719 25.65625 112.210938 25.589844 112.046875 25.503906 C 110.964844 25.03125 109.851562 24.640625 108.722656 24.304688 C 107.355469 23.917969 105.976562 23.621094 104.578125 23.394531 C 102.867188 23.136719 101.144531 23 99.417969 22.949219 C 99.4375 22.949219 99.453125 22.949219 99.472656 22.949219 C 98.113281 22.917969 96.75 22.917969 95.386719 22.988281 C 93.878906 23.0625 92.371094 23.191406 90.867188 23.34375 C 90.898438 23.335938 90.929688 23.335938 90.964844 23.332031 C 87.925781 23.648438 84.902344 24.078125 81.886719 24.566406 C 78.902344 25.046875 75.917969 25.554688 72.933594 26.070312 C 71.453125 26.324219 69.976562 26.589844 68.488281 26.8125 C 67.015625 27.035156 65.535156 27.199219 64.050781 27.347656 C 60.484375 27.710938 56.910156 27.964844 53.324219 27.984375 C 49.890625 28.003906 46.457031 27.890625 43.039062 27.570312 C 41.460938 27.421875 39.890625 27.21875 38.324219 26.964844 C 36.726562 26.703125 35.140625 26.320312 33.585938 25.886719 C 30.457031 25.019531 27.40625 23.867188 24.429688 22.585938 C 21.851562 21.480469 19.324219 20.25 16.878906 18.886719 C 15.507812 18.125 14.160156 17.3125 12.875 16.417969 C 11.714844 15.605469 10.605469 14.722656 9.550781 13.78125 C 9.128906 13.402344 9.105469 12.722656 9.484375 12.3125 C 9.871094 11.886719 10.53125 11.867188 10.953125 12.246094 C 11.414062 12.65625 11.882812 13.054688 12.359375 13.4375 C 13.589844 14.410156 14.878906 15.292969 16.21875 16.105469 C 19.003906 17.765625 21.914062 19.214844 24.882812 20.519531 C 27.722656 21.753906 30.628906 22.851562 33.597656 23.734375 C 33.554688 23.722656 33.511719 23.710938 33.46875 23.695312 C 35.320312 24.226562 37.1875 24.671875 39.089844 24.984375 C 42.46875 25.503906 45.882812 25.769531 49.304688 25.867188 C 49.28125 25.867188 49.257812 25.867188 49.238281 25.867188 C 51.65625 25.925781 54.074219 25.925781 56.492188 25.832031 C 58.949219 25.738281 61.394531 25.523438 63.839844 25.285156 C 63.796875 25.289062 63.753906 25.292969 63.707031 25.296875 C 65.191406 25.144531 66.671875 24.984375 68.148438 24.761719 C 69.632812 24.539062 71.113281 24.273438 72.589844 24.015625 C 75.574219 23.503906 78.558594 22.996094 81.546875 22.515625 C 84.570312 22.019531 87.605469 21.589844 90.65625 21.277344 C 92.207031 21.113281 93.757812 20.996094 95.308594 20.910156 C 96.738281 20.828125 98.175781 20.835938 99.605469 20.875 C 102.082031 20.953125 104.550781 21.210938 106.980469 21.726562 C 109.003906 22.15625 110.976562 22.78125 112.875 23.601562 C 112.917969 23.617188 112.957031 23.628906 112.996094 23.652344 C 113.164062 23.726562 113.335938 23.800781 113.503906 23.878906 C 115.597656 24.835938 117.5625 26.046875 119.421875 27.402344 C 120.339844 28.066406 121.230469 28.769531 122.117188 29.472656 C 122.542969 29.808594 122.96875 30.148438 123.390625 30.488281 C 123.601562 30.65625 123.8125 30.824219 124.023438 30.996094 C 124.140625 31.089844 124.269531 31.183594 124.382812 31.28125 C 124.4375 31.324219 124.492188 31.371094 124.542969 31.414062 C 124.683594 31.523438 124.824219 31.632812 124.960938 31.746094 C 126.621094 33.066406 128.316406 34.355469 130.125 35.464844 C 131.289062 36.160156 132.488281 36.78125 133.726562 37.328125 C 134.808594 37.789062 135.914062 38.1875 137.042969 38.527344 C 138.367188 38.910156 139.710938 39.207031 141.074219 39.425781 C 141.03125 39.421875 140.988281 39.414062 140.945312 39.410156 C 142.339844 39.625 143.746094 39.761719 145.15625 39.8125 C 146.320312 39.835938 147.476562 39.800781 148.632812 39.691406 C 149.625 39.582031 150.597656 39.417969 151.570312 39.199219 C 151.5625 39.199219 151.558594 39.203125 151.550781 39.199219 C 152.707031 38.921875 153.835938 38.566406 154.949219 38.15625 C 156.382812 37.605469 157.777344 36.964844 159.128906 36.25 C 160.703125 35.386719 162.203125 34.410156 163.664062 33.371094 C 167.257812 30.75 170.617188 27.816406 173.835938 24.753906 C 173.800781 24.785156 173.769531 24.820312 173.734375 24.851562 C 176.261719 22.4375 178.683594 19.917969 181.1875 17.476562 C 183.675781 15.046875 186.277344 12.714844 189.074219 10.640625 C 191.789062 8.628906 194.675781 6.824219 197.785156 5.484375 C 199.289062 4.835938 200.839844 4.292969 202.425781 3.886719 C 203.941406 3.5 205.476562 3.195312 207.042969 3.136719 C 209.894531 3.03125 212.738281 3.65625 215.320312 4.855469 C 216.65625 5.476562 217.902344 6.296875 219.0625 7.203125 C 220.28125 8.148438 221.394531 9.238281 222.335938 10.464844 C 223.289062 11.707031 224.175781 13.039062 224.703125 14.519531 C 225.164062 15.804688 225.246094 17.160156 225.019531 18.5 C 224.910156 19.136719 224.769531 19.769531 224.578125 20.386719 C 224.359375 21.082031 224.058594 21.75 223.730469 22.398438 C 223.023438 23.792969 222.132812 25.070312 221.160156 26.285156 C 218.828125 29.199219 215.742188 31.371094 212.523438 33.210938 C 212.210938 33.386719 211.890625 33.5625 211.574219 33.734375 C 211.566406 33.738281 211.5625 33.738281 211.554688 33.746094 C 211.527344 33.761719 211.496094 33.777344 211.460938 33.792969 C 211.417969 33.816406 211.371094 33.839844 211.324219 33.863281 C 211.300781 33.878906 211.277344 33.890625 211.253906 33.90625 C 210.960938 34.0625 210.667969 34.214844 210.375 34.367188 C 209.746094 34.695312 209.105469 35.007812 208.46875 35.3125 C 207.183594 35.9375 205.875 36.523438 204.566406 37.09375 C 201.742188 38.316406 198.886719 39.453125 196.023438 40.570312 C 193.042969 41.738281 190.039062 42.863281 187.089844 44.125 C 184.3125 45.3125 181.558594 46.566406 178.886719 47.992188 C 177.308594 48.859375 175.777344 49.8125 174.3125 50.863281 C 173.679688 51.339844 173.066406 51.835938 172.488281 52.375 C 172.191406 52.671875 171.910156 52.980469 171.644531 53.300781 C 171.226562 53.835938 170.847656 54.386719 170.488281 54.960938 C 170.164062 55.519531 169.859375 56.089844 169.59375 56.679688 C 169.386719 57.160156 169.207031 57.652344 169.050781 58.152344 C 168.957031 58.488281 168.878906 58.824219 168.8125 59.167969 C 168.785156 59.378906 168.761719 59.589844 168.75 59.800781 C 168.75 59.96875 168.753906 60.136719 168.761719 60.300781 C 168.777344 60.429688 168.796875 60.550781 168.820312 60.675781 C 168.859375 60.800781 168.894531 60.921875 168.9375 61.046875 C 169.011719 61.21875 169.089844 61.390625 169.175781 61.558594 C 169.269531 61.722656 169.371094 61.882812 169.476562 62.039062 C 169.621094 62.230469 169.773438 62.410156 169.9375 62.585938 C 170.09375 62.746094 170.257812 62.890625 170.425781 63.035156 C 170.65625 63.214844 170.890625 63.378906 171.140625 63.535156 C 171.414062 63.695312 171.695312 63.839844 171.984375 63.976562 C 172.375 64.140625 172.769531 64.28125 173.175781 64.40625 C 173.675781 64.546875 174.179688 64.65625 174.695312 64.746094 C 175.375 64.847656 176.054688 64.902344 176.738281 64.921875 C 177.578125 64.9375 178.414062 64.902344 179.25 64.832031 C 180.601562 64.691406 181.941406 64.460938 183.265625 64.160156 C 185.109375 63.71875 186.914062 63.15625 188.691406 62.5 C 191.523438 61.421875 194.234375 60.085938 196.910156 58.664062 C 199.726562 57.167969 202.527344 55.644531 205.367188 54.191406 C 208.46875 52.597656 211.621094 51.121094 214.863281 49.835938 C 218.316406 48.464844 221.867188 47.320312 225.492188 46.484375 C 228.378906 45.820312 231.292969 45.304688 234.234375 44.957031 C 237.28125 44.597656 240.34375 44.425781 243.410156 44.382812 C 246.820312 44.335938 250.230469 44.480469 253.625 44.734375 C 257.089844 44.992188 260.539062 45.382812 263.96875 45.882812 C 265.417969 46.09375 266.863281 46.328125 268.304688 46.585938 C 269.933594 46.878906 271.546875 47.230469 273.160156 47.589844 C 276.183594 48.257812 279.195312 48.945312 282.25 49.4375 C 284.03125 49.710938 285.820312 49.910156 287.625 49.972656 C 287.578125 49.972656 287.535156 49.96875 287.488281 49.96875 C 288.816406 50.007812 290.148438 49.988281 291.472656 49.921875 C 291.382812 49.628906 291.304688 49.328125 291.246094 49.023438 C 290.925781 47.53125 290.785156 46.019531 290.71875 44.496094 C 290.644531 42.882812 290.761719 41.265625 290.917969 39.660156 C 291.210938 36.6875 291.804688 33.722656 292.761719 30.894531 C 293.207031 29.582031 293.792969 28.3125 294.410156 27.074219 C 294.78125 26.316406 295.214844 25.585938 295.667969 24.875 C 296.039062 24.289062 296.472656 23.746094 296.90625 23.207031 C 298.683594 20.996094 301.113281 19.429688 303.5625 18.058594 C 305.007812 17.246094 306.523438 16.558594 308.082031 15.988281 C 309.734375 15.378906 311.480469 15.054688 313.238281 14.996094 C 314.875 14.945312 316.511719 15.128906 318.09375 15.519531 C 318.25 15.558594 318.410156 15.601562 318.566406 15.644531 C 319.835938 16.011719 321.035156 16.582031 322.132812 17.316406 " fill-opacity="1" fill-rule="nonzero"/></g></g></g></g></g></svg>