<svg xmlns="http://www.w3.org/2000/svg" xmlns:xlink="http://www.w3.org/1999/xlink" width="250" zoomAndPan="magnify" viewBox="0 0 187.5 374.999989" height="500" preserveAspectRatio="xMidYMid meet" version="1.0"><defs><clipPath id="a245ff47eb"><path d="M 0 1 L 174 1 L 174 374.5 L 0 374.5 Z M 0 1 " clip-rule="nonzero"/></clipPath></defs><g clip-path="url(#a245ff47eb)"><path fill="#578cb5" d="M 8.820312 8.105469 C -0.410156 11.25 -8.640625 15.429688 -16.113281 21.730469 C -22.035156 26.726562 -26.976562 33.21875 -30.515625 40.089844 C -38.039062 54.691406 -40.507812 71.21875 -40.578125 87.496094 C -40.667969 108.566406 -38.96875 129.558594 -36.964844 150.515625 C -34.902344 172.066406 -32.617188 193.617188 -32.066406 215.273438 C -31.511719 237.003906 -32.335938 258.839844 -33.609375 280.53125 C -34.1875 290.367188 -35.097656 300.25 -34.894531 310.109375 C -34.8125 314.019531 -34.546875 318.035156 -33.949219 322 C -33.894531 323.117188 -33.800781 324.234375 -33.679688 325.351562 C -33.6875 325.8125 -33.683594 326.273438 -33.667969 326.730469 C -33.453125 332.902344 -31.707031 338.539062 -29.011719 344.0625 C -28.019531 346.101562 -26.84375 348.074219 -25.546875 349.964844 C -24.855469 351.132812 -23.996094 352.179688 -23.164062 353.269531 C -22.855469 353.679688 -22.515625 354.066406 -22.152344 354.433594 C -21.523438 355.195312 -20.878906 355.933594 -20.222656 356.65625 C -16.867188 360.359375 -12.824219 363.582031 -8.507812 366.082031 C 1.175781 371.6875 12.300781 373.824219 23.375 374.148438 C 32.835938 374.421875 42.273438 373.351562 51.707031 372.835938 C 61.691406 372.285156 71.679688 372.785156 81.660156 373.230469 C 92.882812 373.730469 104.082031 373.757812 115.175781 371.691406 C 121.304688 370.550781 127.171875 368.472656 132.855469 365.929688 C 136.980469 364.085938 140.960938 361.847656 144.597656 359.164062 C 148.480469 356.300781 152.140625 353.355469 155.238281 349.632812 C 158.195312 346.085938 160.871094 342.445312 162.910156 338.296875 C 164.960938 334.128906 166.691406 329.820312 167.875 325.328125 C 168.828125 321.730469 169.472656 318.035156 169.964844 314.335938 C 172.164062 305.925781 173.117188 297.085938 173.484375 288.554688 C 174.386719 267.699219 172.992188 246.804688 171.894531 225.984375 C 171.332031 215.34375 170.882812 204.699219 170.847656 194.042969 C 170.8125 183.261719 171.128906 172.480469 171.492188 161.703125 C 172.21875 140.128906 173.148438 118.53125 172.054688 96.953125 C 171.558594 87.121094 170.890625 77.140625 168.414062 67.578125 C 166.457031 60.027344 163.382812 52.558594 159.210938 45.957031 C 155.152344 39.535156 150.160156 33.679688 144.273438 28.871094 C 140.875 26.09375 137.410156 23.480469 133.652344 21.210938 C 129.734375 18.847656 125.597656 16.945312 121.414062 15.105469 C 113.609375 11.683594 105.375 9.304688 97.101562 7.316406 C 87.105469 4.914062 76.875 3.273438 66.640625 2.339844 C 47.414062 0.589844 27.183594 1.851562 8.820312 8.105469 Z M 8.820312 8.105469 " fill-opacity="1" fill-rule="nonzero"/></g></svg>