<svg xmlns="http://www.w3.org/2000/svg" xmlns:xlink="http://www.w3.org/1999/xlink" width="400" zoomAndPan="magnify" viewBox="0 0 300 299.999988" height="400" preserveAspectRatio="xMidYMid meet" version="1.0"><path fill="#000000" d="M 293.058594 143.476562 C 287.328125 113.367188 270.613281 86.9375 251.488281 63.46875 C 234.59375 42.773438 214.558594 24.25 190.363281 12.480469 C 178.660156 6.75 165.445312 1.5 152.351562 0.777344 C 139.320312 0.0546875 126.167969 2.648438 114.21875 7.898438 C 102.089844 13.144531 91.050781 21.351562 82.785156 31.609375 C 73.371094 43.195312 68.121094 57.132812 62.628906 70.890625 C 50.203125 102.144531 31.132812 130.140625 18.464844 161.394531 C 7.242188 189.03125 1.75 220.527344 13.214844 249.125 C 24.195312 276.398438 49.777344 292.085938 77.894531 297.394531 C 110.054688 303.367188 143.300781 296.851562 173.230469 284.484375 C 188.253906 278.328125 202.613281 270.667969 216.613281 262.398438 C 230.429688 254.195312 244.308594 245.808594 257.21875 236.273438 C 268.925781 227.644531 279.183594 217.449219 285.636719 204.296875 C 291.792969 191.804688 294.75 177.808594 294.871094 163.867188 C 294.929688 156.929688 294.207031 150.113281 293.058594 143.476562 " fill-opacity="1" fill-rule="nonzero"/></svg>