<svg xmlns="http://www.w3.org/2000/svg" xmlns:xlink="http://www.w3.org/1999/xlink" width="400" zoomAndPan="magnify" viewBox="0 0 300 48.75" height="65" preserveAspectRatio="xMidYMid meet" version="1.0"><defs><clipPath id="39d7657504"><path d="M 2 1 L 299 1 L 299 48 L 2 48 Z M 2 1 " clip-rule="nonzero"/></clipPath><clipPath id="7186d2894c"><path d="M 294.375 62.398438 L 0.269531 33.882812 L 5.167969 -16.617188 L 299.273438 11.894531 Z M 294.375 62.398438 " clip-rule="nonzero"/></clipPath><clipPath id="3e62a7ae8b"><path d="M 5.417969 -16.300781 L 299.523438 12.210938 L 294.625 62.714844 L 0.519531 34.203125 Z M 5.417969 -16.300781 " clip-rule="nonzero"/></clipPath><clipPath id="d1f6ccc329"><path d="M 5.976562 -16.246094 L 298.980469 12.160156 L 294.054688 62.964844 L 1.050781 34.554688 Z M 5.976562 -16.246094 " clip-rule="nonzero"/></clipPath><clipPath id="2745c7197c"><path d="M 5.976562 -16.246094 L 298.667969 12.128906 L 293.796875 62.359375 L 1.105469 33.984375 Z M 5.976562 -16.246094 " clip-rule="nonzero"/></clipPath></defs><g clip-path="url(#39d7657504)"><g clip-path="url(#7186d2894c)"><g clip-path="url(#3e62a7ae8b)"><g clip-path="url(#d1f6ccc329)"><g clip-path="url(#2745c7197c)"><path fill="#ffc0cb" d="M 198.226562 40.550781 C 198.578125 40.582031 198.921875 40.589844 199.269531 40.585938 C 199.65625 40.566406 200.035156 40.53125 200.417969 40.476562 C 200.847656 40.402344 201.273438 40.308594 201.691406 40.1875 C 202.089844 40.0625 202.480469 39.917969 202.867188 39.757812 C 203.304688 39.558594 203.726562 39.339844 204.136719 39.097656 C 204.566406 38.832031 204.976562 38.539062 205.375 38.226562 C 205.832031 37.851562 206.269531 37.453125 206.683594 37.023438 C 207.042969 36.640625 207.375 36.238281 207.6875 35.816406 C 207.980469 35.398438 208.25 34.964844 208.496094 34.519531 C 208.769531 33.996094 209.011719 33.460938 209.226562 32.910156 C 209.238281 32.875 209.253906 32.839844 209.265625 32.804688 C 209.265625 32.804688 209.265625 32.804688 209.265625 32.808594 C 209.480469 32.207031 209.660156 31.59375 209.808594 30.976562 C 209.949219 30.347656 210.054688 29.71875 210.125 29.078125 C 210.160156 28.675781 210.175781 28.269531 210.183594 27.867188 C 208.957031 28.078125 207.742188 28.339844 206.546875 28.683594 C 205.679688 28.945312 204.828125 29.253906 204 29.609375 C 203.214844 29.960938 202.449219 30.347656 201.714844 30.789062 C 201.152344 31.136719 200.609375 31.515625 200.089844 31.921875 C 199.527344 32.386719 198.996094 32.882812 198.488281 33.40625 C 197.980469 33.953125 197.496094 34.523438 197.054688 35.128906 C 196.789062 35.507812 196.546875 35.894531 196.320312 36.304688 C 196.191406 36.558594 196.070312 36.824219 195.964844 37.09375 C 195.894531 37.296875 195.832031 37.507812 195.777344 37.71875 C 195.746094 37.882812 195.71875 38.050781 195.695312 38.214844 C 195.6875 38.332031 195.683594 38.449219 195.683594 38.566406 C 195.691406 38.667969 195.699219 38.765625 195.710938 38.867188 C 195.726562 38.941406 195.742188 39.015625 195.761719 39.085938 C 195.785156 39.15625 195.808594 39.230469 195.839844 39.300781 C 195.867188 39.359375 195.898438 39.417969 195.929688 39.476562 C 195.96875 39.53125 196.007812 39.589844 196.046875 39.640625 C 196.097656 39.703125 196.148438 39.761719 196.207031 39.816406 C 196.265625 39.871094 196.328125 39.917969 196.386719 39.964844 C 196.476562 40.027344 196.566406 40.078125 196.65625 40.128906 C 196.765625 40.183594 196.875 40.234375 196.988281 40.28125 C 197.160156 40.339844 197.335938 40.390625 197.511719 40.4375 C 197.75 40.488281 197.988281 40.523438 198.226562 40.550781 Z M 129.453125 45.335938 C 127.722656 44.308594 126.40625 42.632812 125.773438 40.726562 C 125.496094 39.875 125.511719 38.960938 125.675781 38.089844 C 125.769531 37.597656 125.894531 37.097656 126.09375 36.636719 C 126.308594 36.132812 126.566406 35.664062 126.859375 35.207031 C 127.488281 34.214844 128.304688 33.371094 129.160156 32.574219 C 130.097656 31.703125 131.105469 30.90625 132.132812 30.140625 C 134.289062 28.539062 136.566406 27.117188 138.847656 25.695312 C 141.035156 24.339844 143.234375 22.992188 145.257812 21.398438 C 145.964844 20.824219 146.636719 20.21875 147.273438 19.5625 C 147.671875 19.125 148.058594 18.671875 148.410156 18.195312 C 148.40625 18.203125 148.398438 18.210938 148.394531 18.214844 C 148.398438 18.207031 148.40625 18.199219 148.414062 18.191406 C 148.433594 18.160156 148.457031 18.132812 148.476562 18.101562 C 148.460938 18.125 148.441406 18.148438 148.425781 18.171875 C 148.710938 17.769531 148.972656 17.355469 149.21875 16.925781 C 149.421875 16.542969 149.605469 16.152344 149.769531 15.75 C 149.90625 15.367188 150.027344 14.980469 150.128906 14.585938 C 150.195312 14.269531 150.253906 13.953125 150.292969 13.632812 C 150.316406 13.308594 150.328125 12.984375 150.324219 12.660156 C 150.308594 12.324219 150.277344 11.988281 150.234375 11.652344 C 150.175781 11.316406 150.105469 10.988281 150.019531 10.65625 C 149.949219 10.429688 149.875 10.210938 149.789062 9.992188 C 149.699219 9.792969 149.597656 9.601562 149.488281 9.410156 C 149.359375 9.214844 149.226562 9.03125 149.085938 8.851562 C 148.855469 8.582031 148.613281 8.328125 148.363281 8.078125 C 148.027344 7.769531 147.683594 7.480469 147.316406 7.203125 C 146.828125 6.855469 146.320312 6.539062 145.796875 6.25 C 145.207031 5.949219 144.609375 5.679688 143.992188 5.441406 C 143.15625 5.136719 142.304688 4.886719 141.4375 4.671875 C 140.304688 4.421875 139.164062 4.238281 138.007812 4.113281 C 136.34375 3.957031 134.683594 3.914062 133.015625 3.957031 C 130.933594 4.039062 128.867188 4.261719 126.808594 4.574219 C 124.148438 5.003906 121.496094 5.53125 118.902344 6.269531 C 112.910156 8.101562 107.15625 10.632812 101.421875 13.144531 C 101.449219 13.132812 101.472656 13.117188 101.503906 13.105469 C 101.40625 13.148438 101.308594 13.191406 101.214844 13.234375 C 101.214844 13.230469 101.214844 13.230469 101.21875 13.234375 C 100.640625 13.484375 100.066406 13.738281 99.492188 13.988281 C 99.203125 14.117188 98.914062 14.242188 98.621094 14.371094 C 98.617188 14.375 98.617188 14.375 98.609375 14.375 C 98.570312 14.398438 98.53125 14.414062 98.488281 14.429688 C 98.464844 14.4375 98.441406 14.449219 98.417969 14.457031 C 98.390625 14.472656 98.359375 14.484375 98.332031 14.5 C 98.328125 14.5 98.320312 14.503906 98.3125 14.507812 C 98.28125 14.523438 98.246094 14.539062 98.210938 14.550781 C 97.917969 14.679688 97.625 14.808594 97.328125 14.9375 C 96.054688 15.496094 94.777344 16.046875 93.496094 16.59375 C 92.285156 17.105469 91.0625 17.59375 89.835938 18.074219 C 88.609375 18.558594 87.382812 19.027344 86.136719 19.441406 C 83.539062 20.3125 80.910156 21.097656 78.261719 21.796875 C 76.757812 22.191406 75.253906 22.5625 73.742188 22.921875 C 72.246094 23.273438 70.742188 23.5625 69.234375 23.835938 C 66.214844 24.371094 63.179688 24.8125 60.128906 25.09375 C 57.269531 25.359375 54.410156 25.574219 51.542969 25.714844 C 48.484375 25.863281 45.421875 25.96875 42.359375 25.964844 C 39.4375 25.957031 36.507812 25.902344 33.589844 25.789062 C 30.746094 25.675781 27.910156 25.367188 25.085938 25.078125 C 23.589844 24.921875 22.097656 24.765625 20.605469 24.5625 C 19.117188 24.355469 17.640625 24.101562 16.164062 23.832031 C 15.4375 23.695312 14.710938 23.554688 13.984375 23.40625 C 13.644531 23.339844 13.308594 23.265625 12.972656 23.191406 C 12.820312 23.160156 12.664062 23.125 12.515625 23.089844 C 12.417969 23.066406 12.320312 23.046875 12.222656 23.019531 C 12.148438 23.003906 12.074219 22.988281 11.996094 22.96875 C 10.738281 22.675781 9.492188 22.34375 8.246094 22.007812 C 7.082031 21.695312 5.914062 21.371094 4.785156 20.945312 C 4.183594 20.71875 3.558594 20.492188 3.03125 20.121094 C 3.007812 20.105469 2.988281 20.089844 2.964844 20.074219 C 2.949219 20.0625 2.933594 20.046875 2.917969 20.039062 C 2.507812 19.71875 2.429688 19.101562 2.695312 18.675781 C 2.984375 18.214844 3.675781 18.007812 4.136719 18.339844 C 4.230469 18.40625 4.328125 18.464844 4.429688 18.519531 C 4.789062 18.699219 5.164062 18.847656 5.539062 18.992188 C 6.628906 19.382812 7.738281 19.699219 8.855469 20 C 10.078125 20.328125 11.304688 20.660156 12.539062 20.945312 C 12.722656 20.988281 12.902344 21.03125 13.082031 21.074219 C 13.050781 21.066406 13.019531 21.058594 12.988281 21.050781 C 15.175781 21.535156 17.386719 21.964844 19.601562 22.296875 C 21.921875 22.644531 24.25 22.890625 26.582031 23.125 C 26.535156 23.121094 26.492188 23.113281 26.445312 23.109375 C 28.058594 23.269531 29.671875 23.425781 31.285156 23.550781 C 32.996094 23.679688 34.707031 23.742188 36.417969 23.78125 C 39.910156 23.863281 43.398438 23.902344 46.890625 23.800781 C 46.84375 23.804688 46.800781 23.804688 46.753906 23.808594 C 49.886719 23.703125 53.015625 23.566406 56.140625 23.328125 C 57.6875 23.210938 59.234375 23.074219 60.777344 22.925781 C 62.503906 22.757812 64.222656 22.523438 65.9375 22.257812 C 65.929688 22.257812 65.925781 22.261719 65.914062 22.261719 C 68.472656 21.855469 71.015625 21.40625 73.539062 20.8125 C 75.960938 20.246094 78.375 19.621094 80.765625 18.929688 C 80.722656 18.945312 80.679688 18.957031 80.636719 18.96875 C 83.1875 18.214844 85.722656 17.414062 88.207031 16.460938 C 90.738281 15.488281 93.234375 14.4375 95.71875 13.355469 C 96.292969 13.105469 96.863281 12.855469 97.4375 12.605469 C 97.546875 12.554688 97.664062 12.507812 97.773438 12.457031 C 97.800781 12.445312 97.828125 12.433594 97.855469 12.421875 C 98.050781 12.335938 98.242188 12.253906 98.4375 12.167969 C 99.113281 11.871094 99.789062 11.574219 100.464844 11.273438 C 100.4375 11.289062 100.410156 11.300781 100.386719 11.3125 C 105.5 9.070312 110.621094 6.832031 115.914062 5.03125 C 117.261719 4.578125 118.617188 4.152344 120 3.804688 C 121.289062 3.476562 122.589844 3.21875 123.894531 2.960938 C 126.503906 2.445312 129.136719 2.097656 131.789062 1.917969 C 134.582031 1.730469 137.402344 1.847656 140.164062 2.285156 C 142.707031 2.683594 145.207031 3.476562 147.4375 4.769531 C 148.523438 5.398438 149.53125 6.214844 150.375 7.144531 C 150.753906 7.554688 151.09375 8 151.375 8.480469 C 151.683594 9.007812 151.910156 9.589844 152.0625 10.179688 C 152.351562 11.308594 152.488281 12.484375 152.390625 13.648438 C 152.296875 14.800781 151.988281 15.929688 151.523438 16.988281 C 149.949219 20.566406 146.773438 23.070312 143.589844 25.171875 C 141.691406 26.425781 139.742188 27.59375 137.824219 28.808594 C 135.863281 30.050781 133.933594 31.355469 132.117188 32.800781 C 131.273438 33.484375 130.457031 34.199219 129.695312 34.976562 C 129.429688 35.265625 129.179688 35.566406 128.941406 35.878906 C 128.683594 36.242188 128.449219 36.613281 128.230469 37 C 128.15625 37.15625 128.082031 37.316406 128.015625 37.476562 C 127.933594 37.703125 127.863281 37.929688 127.804688 38.164062 C 127.746094 38.4375 127.699219 38.707031 127.664062 38.988281 C 127.65625 39.117188 127.652344 39.246094 127.652344 39.378906 C 127.660156 39.488281 127.667969 39.597656 127.679688 39.707031 C 127.707031 39.828125 127.734375 39.949219 127.765625 40.070312 C 127.832031 40.261719 127.902344 40.445312 127.980469 40.628906 C 128.097656 40.886719 128.226562 41.136719 128.363281 41.378906 C 128.511719 41.609375 128.664062 41.832031 128.832031 42.046875 C 129.03125 42.285156 129.238281 42.507812 129.457031 42.722656 C 129.667969 42.914062 129.882812 43.089844 130.105469 43.261719 C 130.332031 43.414062 130.566406 43.558594 130.804688 43.691406 C 131.148438 43.863281 131.5 44.019531 131.859375 44.160156 C 132.3125 44.320312 132.769531 44.457031 133.238281 44.574219 C 133.839844 44.703125 134.445312 44.796875 135.054688 44.863281 C 135.804688 44.929688 136.554688 44.953125 137.304688 44.941406 C 138.359375 44.90625 139.40625 44.804688 140.453125 44.648438 C 141.828125 44.421875 143.1875 44.105469 144.53125 43.71875 C 144.488281 43.730469 144.445312 43.742188 144.402344 43.757812 C 146.140625 43.238281 147.832031 42.617188 149.492188 41.890625 C 149.449219 41.910156 149.410156 41.925781 149.367188 41.945312 C 150.976562 41.226562 152.53125 40.410156 154.042969 39.507812 C 156.109375 38.234375 158.078125 36.816406 160.027344 35.371094 C 161.714844 34.113281 163.398438 32.847656 165.089844 31.597656 C 166.792969 30.347656 168.507812 29.113281 170.246094 27.921875 C 172.003906 26.71875 173.800781 25.574219 175.621094 24.472656 C 175.613281 24.476562 175.609375 24.480469 175.601562 24.484375 C 177.621094 23.261719 179.675781 22.097656 181.757812 20.980469 C 183.925781 19.816406 186.128906 18.695312 188.378906 17.707031 C 191.171875 16.480469 194.097656 15.582031 197.132812 15.242188 C 198.472656 15.089844 199.839844 15.101562 201.175781 15.265625 C 202.390625 15.414062 203.570312 15.722656 204.714844 16.164062 C 206.359375 16.796875 207.835938 17.84375 209.0625 19.097656 C 210.265625 20.332031 211.148438 21.898438 211.660156 23.542969 C 211.851562 24.171875 212 24.8125 212.101562 25.460938 C 212.425781 25.421875 212.746094 25.382812 213.066406 25.34375 C 214.8125 25.140625 216.570312 25.03125 218.328125 25.058594 C 219.851562 25.082031 221.367188 25.214844 222.886719 25.300781 C 224.820312 25.410156 226.753906 25.457031 228.691406 25.410156 C 228.648438 25.410156 228.605469 25.414062 228.558594 25.414062 C 230.78125 25.34375 232.988281 25.132812 235.1875 24.789062 C 237.867188 24.351562 240.511719 23.738281 243.125 22.980469 C 243.082031 22.992188 243.039062 23.007812 242.996094 23.019531 C 246.542969 21.976562 249.984375 20.644531 253.371094 19.164062 C 253.355469 19.171875 253.34375 19.179688 253.328125 19.183594 C 256.015625 18 258.671875 16.734375 261.375 15.585938 C 262.671875 15.039062 263.980469 14.523438 265.308594 14.054688 C 266.59375 13.605469 267.902344 13.21875 269.21875 12.871094 C 271.683594 12.214844 274.195312 11.738281 276.71875 11.382812 C 278.855469 11.078125 281.003906 10.875 283.160156 10.820312 C 285.667969 10.753906 288.167969 11.042969 290.570312 11.773438 C 293.101562 12.542969 295.496094 13.703125 297.8125 14.96875 C 298.316406 15.246094 298.4375 15.949219 298.148438 16.414062 C 298 16.652344 297.761719 16.824219 297.488281 16.882812 C 297.210938 16.945312 296.953125 16.886719 296.707031 16.75 C 296.503906 16.640625 296.300781 16.53125 296.09375 16.421875 C 296.136719 16.441406 296.175781 16.464844 296.21875 16.488281 C 294.699219 15.679688 293.148438 14.9375 291.542969 14.320312 C 291.574219 14.328125 291.601562 14.34375 291.636719 14.351562 C 291.601562 14.339844 291.570312 14.328125 291.535156 14.316406 C 291.527344 14.3125 291.515625 14.308594 291.507812 14.304688 C 291.515625 14.308594 291.523438 14.3125 291.535156 14.316406 C 290.574219 13.960938 289.597656 13.652344 288.597656 13.414062 C 287.800781 13.238281 286.996094 13.105469 286.1875 13.019531 C 285.074219 12.914062 283.960938 12.894531 282.847656 12.921875 C 282.878906 12.921875 282.910156 12.917969 282.9375 12.917969 C 280.585938 12.996094 278.246094 13.257812 275.921875 13.617188 C 275.964844 13.609375 276.007812 13.605469 276.054688 13.597656 C 273.519531 14 271.007812 14.53125 268.539062 15.230469 C 265.972656 15.980469 263.492188 16.945312 261.039062 18.011719 C 258.355469 19.191406 255.707031 20.453125 253.007812 21.601562 C 250.246094 22.785156 247.4375 23.855469 244.566406 24.734375 C 241.726562 25.605469 238.835938 26.296875 235.914062 26.792969 C 233.050781 27.28125 230.160156 27.507812 227.257812 27.527344 C 225.203125 27.542969 223.152344 27.425781 221.109375 27.292969 C 219.671875 27.203125 218.234375 27.125 216.796875 27.160156 C 215.285156 27.214844 213.777344 27.355469 212.277344 27.550781 C 212.304688 29.625 211.914062 31.703125 211.1875 33.644531 C 210.84375 34.539062 210.429688 35.398438 209.9375 36.21875 C 209.449219 37.027344 208.855469 37.773438 208.210938 38.460938 C 207.027344 39.710938 205.617188 40.785156 204.054688 41.519531 C 202.734375 42.136719 201.324219 42.523438 199.871094 42.648438 C 199.230469 42.703125 198.585938 42.691406 197.949219 42.625 C 197.40625 42.570312 196.855469 42.464844 196.34375 42.273438 C 195.34375 41.902344 194.453125 41.257812 193.980469 40.277344 C 193.492188 39.25 193.511719 38.105469 193.789062 37.023438 C 194.117188 35.753906 194.820312 34.621094 195.59375 33.582031 C 196.027344 32.996094 196.511719 32.449219 197.015625 31.921875 C 197.527344 31.382812 198.070312 30.871094 198.644531 30.398438 C 201.261719 28.273438 204.449219 26.957031 207.714844 26.214844 C 208.484375 26.042969 209.257812 25.894531 210.03125 25.765625 C 210.027344 25.746094 210.027344 25.730469 210.023438 25.710938 C 209.941406 25.246094 209.835938 24.789062 209.710938 24.332031 C 209.589844 23.957031 209.460938 23.585938 209.308594 23.21875 C 209.148438 22.863281 208.972656 22.515625 208.777344 22.171875 C 208.542969 21.792969 208.289062 21.429688 208.011719 21.078125 C 207.753906 20.773438 207.484375 20.480469 207.203125 20.203125 C 206.84375 19.875 206.476562 19.570312 206.089844 19.285156 C 205.75 19.054688 205.402344 18.835938 205.046875 18.632812 C 204.597656 18.398438 204.140625 18.1875 203.664062 18.003906 C 203.167969 17.828125 202.664062 17.679688 202.152344 17.554688 C 201.59375 17.441406 201.039062 17.355469 200.476562 17.296875 C 199.863281 17.246094 199.25 17.234375 198.636719 17.242188 C 197.851562 17.273438 197.078125 17.347656 196.300781 17.460938 C 195.253906 17.636719 194.222656 17.871094 193.203125 18.160156 C 193.234375 18.148438 193.265625 18.140625 193.292969 18.132812 C 191.992188 18.515625 190.726562 18.980469 189.480469 19.511719 C 187.273438 20.480469 185.121094 21.566406 183 22.695312 C 180.898438 23.816406 178.824219 24.992188 176.785156 26.214844 C 176.691406 26.273438 176.597656 26.328125 176.503906 26.386719 C 176.511719 26.382812 176.515625 26.378906 176.519531 26.375 C 174.523438 27.589844 172.566406 28.859375 170.648438 30.191406 C 168.683594 31.558594 166.753906 32.972656 164.832031 34.398438 C 162.957031 35.792969 161.097656 37.207031 159.203125 38.574219 C 156.746094 40.351562 154.175781 41.984375 151.4375 43.296875 C 148.921875 44.503906 146.28125 45.476562 143.566406 46.148438 C 141.074219 46.765625 138.492188 47.132812 135.921875 47.023438 C 135.5625 47.007812 135.207031 46.984375 134.847656 46.949219 C 132.964844 46.769531 131.085938 46.296875 129.453125 45.335938 " fill-opacity="1" fill-rule="nonzero"/></g></g></g></g></g></svg>