<svg xmlns="http://www.w3.org/2000/svg" xmlns:xlink="http://www.w3.org/1999/xlink" width="40" zoomAndPan="magnify" viewBox="0 0 30 30.000001" height="40" preserveAspectRatio="xMidYMid meet" version="1.0"><defs><clipPath id="d26be76bb5"><path d="M 0.484375 0 L 29.515625 0 L 29.515625 29.03125 L 0.484375 29.03125 Z M 0.484375 0 " clip-rule="nonzero"/></clipPath><clipPath id="645e7709dc"><path d="M 2.25 0 L 27.65625 0 L 27.65625 8 L 2.25 8 Z M 2.25 0 " clip-rule="nonzero"/></clipPath><clipPath id="4ce332d389"><path d="M 4 9 L 26 9 L 26 29.03125 L 4 29.03125 Z M 4 9 " clip-rule="nonzero"/></clipPath></defs><g clip-path="url(#d26be76bb5)"><path fill="#ffffff" d="M 44.03125 14.515625 C 44.03125 15.46875 43.984375 16.414062 43.890625 17.363281 C 43.800781 18.308594 43.660156 19.246094 43.472656 20.179688 C 43.289062 21.113281 43.058594 22.035156 42.78125 22.945312 C 42.507812 23.855469 42.1875 24.746094 41.824219 25.625 C 41.457031 26.503906 41.050781 27.363281 40.605469 28.203125 C 40.15625 29.039062 39.667969 29.855469 39.140625 30.644531 C 38.609375 31.4375 38.046875 32.199219 37.441406 32.933594 C 36.839844 33.667969 36.203125 34.371094 35.527344 35.046875 C 34.855469 35.71875 34.152344 36.355469 33.417969 36.957031 C 32.683594 37.5625 31.921875 38.128906 31.128906 38.65625 C 30.339844 39.183594 29.523438 39.671875 28.6875 40.121094 C 27.847656 40.570312 26.988281 40.972656 26.109375 41.339844 C 25.230469 41.703125 24.335938 42.023438 23.425781 42.296875 C 22.519531 42.574219 21.597656 42.804688 20.664062 42.992188 C 19.730469 43.175781 18.792969 43.316406 17.84375 43.410156 C 16.898438 43.5 15.949219 43.546875 15 43.546875 C 14.050781 43.546875 13.101562 43.5 12.15625 43.410156 C 11.207031 43.316406 10.269531 43.175781 9.335938 42.992188 C 8.402344 42.804688 7.480469 42.574219 6.574219 42.296875 C 5.664062 42.023438 4.769531 41.703125 3.890625 41.339844 C 3.011719 40.972656 2.152344 40.570312 1.3125 40.121094 C 0.476562 39.671875 -0.339844 39.183594 -1.128906 38.65625 C -1.921875 38.128906 -2.683594 37.5625 -3.417969 36.957031 C -4.152344 36.355469 -4.855469 35.71875 -5.527344 35.046875 C -6.203125 34.371094 -6.839844 33.667969 -7.441406 32.933594 C -8.046875 32.199219 -8.609375 31.4375 -9.140625 30.644531 C -9.667969 29.855469 -10.15625 29.039062 -10.605469 28.203125 C -11.050781 27.363281 -11.457031 26.503906 -11.824219 25.625 C -12.1875 24.746094 -12.507812 23.855469 -12.78125 22.945312 C -13.058594 22.035156 -13.289062 21.113281 -13.472656 20.179688 C -13.660156 19.246094 -13.800781 18.308594 -13.890625 17.363281 C -13.984375 16.414062 -14.03125 15.46875 -14.03125 14.515625 C -14.03125 13.566406 -13.984375 12.617188 -13.890625 11.671875 C -13.800781 10.722656 -13.660156 9.785156 -13.472656 8.851562 C -13.289062 7.917969 -13.058594 7 -12.78125 6.089844 C -12.507812 5.179688 -12.1875 4.285156 -11.824219 3.40625 C -11.457031 2.527344 -11.050781 1.667969 -10.605469 0.832031 C -10.15625 -0.0078125 -9.667969 -0.824219 -9.140625 -1.613281 C -8.609375 -2.402344 -8.046875 -3.167969 -7.441406 -3.902344 C -6.839844 -4.636719 -6.203125 -5.339844 -5.527344 -6.011719 C -4.855469 -6.683594 -4.152344 -7.324219 -3.417969 -7.925781 C -2.683594 -8.53125 -1.921875 -9.09375 -1.128906 -9.625 C -0.339844 -10.152344 0.476562 -10.640625 1.3125 -11.089844 C 2.152344 -11.535156 3.011719 -11.941406 3.890625 -12.304688 C 4.769531 -12.671875 5.664062 -12.988281 6.574219 -13.265625 C 7.480469 -13.542969 8.402344 -13.773438 9.335938 -13.957031 C 10.269531 -14.144531 11.207031 -14.28125 12.15625 -14.375 C 13.101562 -14.46875 14.050781 -14.515625 15 -14.515625 C 15.949219 -14.515625 16.898438 -14.46875 17.84375 -14.375 C 18.792969 -14.28125 19.730469 -14.144531 20.664062 -13.957031 C 21.597656 -13.773438 22.519531 -13.542969 23.425781 -13.265625 C 24.335938 -12.988281 25.230469 -12.671875 26.109375 -12.304688 C 26.988281 -11.941406 27.847656 -11.535156 28.6875 -11.089844 C 29.523438 -10.640625 30.339844 -10.152344 31.128906 -9.625 C 31.921875 -9.09375 32.683594 -8.53125 33.417969 -7.925781 C 34.152344 -7.324219 34.855469 -6.683594 35.527344 -6.011719 C 36.203125 -5.339844 36.839844 -4.636719 37.441406 -3.902344 C 38.046875 -3.167969 38.609375 -2.402344 39.140625 -1.613281 C 39.667969 -0.824219 40.15625 -0.0078125 40.605469 0.832031 C 41.050781 1.667969 41.457031 2.527344 41.824219 3.40625 C 42.1875 4.285156 42.507812 5.179688 42.78125 6.089844 C 43.058594 7 43.289062 7.917969 43.472656 8.851562 C 43.660156 9.785156 43.800781 10.722656 43.890625 11.671875 C 43.984375 12.617188 44.03125 13.566406 44.03125 14.515625 Z M 44.03125 14.515625 " fill-opacity="1" fill-rule="nonzero"/></g><g clip-path="url(#645e7709dc)"><path fill="#ffc0cb" d="M 26.835938 3.574219 L 20.460938 3.574219 L 20.460938 0.910156 C 20.460938 0.410156 20.050781 0 19.550781 0 L 10.445312 0 C 9.945312 0 9.535156 0.410156 9.535156 0.910156 L 9.535156 3.574219 L 3.164062 3.574219 C 2.660156 3.574219 2.25 3.984375 2.25 4.484375 L 2.25 6.304688 C 2.25 6.804688 2.660156 7.214844 3.164062 7.214844 L 26.835938 7.214844 C 27.335938 7.214844 27.746094 6.804688 27.746094 6.304688 L 27.746094 4.484375 C 27.746094 3.984375 27.335938 3.574219 26.835938 3.574219 Z M 26.835938 3.574219 " fill-opacity="1" fill-rule="nonzero"/></g><g clip-path="url(#4ce332d389)"><path fill="#ffc0cb" d="M 6.257812 28.335938 C 6.304688 28.792969 6.691406 29.132812 7.167969 29.132812 L 22.851562 29.132812 C 23.304688 29.132812 23.691406 28.792969 23.761719 28.335938 L 25.945312 9.128906 L 4.074219 9.128906 Z M 18.640625 25.378906 L 20.234375 12.65625 C 20.300781 12.15625 20.757812 11.8125 21.257812 11.859375 C 21.757812 11.925781 22.101562 12.382812 22.054688 12.882812 L 20.460938 25.605469 C 20.394531 26.0625 20.003906 26.402344 19.550781 26.402344 C 19.503906 26.402344 19.480469 26.402344 19.4375 26.402344 C 18.9375 26.335938 18.59375 25.878906 18.640625 25.378906 Z M 14.085938 12.769531 C 14.085938 12.269531 14.496094 11.859375 15 11.859375 C 15.5 11.859375 15.910156 12.269531 15.910156 12.769531 L 15.910156 25.492188 C 15.910156 25.992188 15.5 26.402344 15 26.402344 C 14.496094 26.402344 14.085938 25.992188 14.085938 25.492188 Z M 8.738281 11.859375 C 9.238281 11.789062 9.695312 12.15625 9.761719 12.65625 L 11.355469 25.378906 C 11.425781 25.878906 11.058594 26.335938 10.558594 26.402344 C 10.515625 26.402344 10.492188 26.402344 10.445312 26.402344 C 9.992188 26.402344 9.605469 26.0625 9.535156 25.605469 L 7.941406 12.882812 C 7.898438 12.382812 8.238281 11.925781 8.738281 11.859375 Z M 8.738281 11.859375 " fill-opacity="1" fill-rule="nonzero"/></g></svg>