<svg xmlns="http://www.w3.org/2000/svg" xmlns:xlink="http://www.w3.org/1999/xlink" width="40" zoomAndPan="magnify" viewBox="0 0 30 30.000001" height="40" preserveAspectRatio="xMidYMid meet" version="1.0"><defs><clipPath id="2690c5dd75"><path d="M 0.484375 0 L 29.515625 0 L 29.515625 29.03125 L 0.484375 29.03125 Z M 0.484375 0 " clip-rule="nonzero"/></clipPath><clipPath id="67e6e8b5bc"><path d="M 0.484375 2 L 28 2 L 28 29.03125 L 0.484375 29.03125 Z M 0.484375 2 " clip-rule="nonzero"/></clipPath><clipPath id="720388f24f"><path d="M 22 0 L 29.515625 0 L 29.515625 8 L 22 8 Z M 22 0 " clip-rule="nonzero"/></clipPath></defs><g clip-path="url(#2690c5dd75)"><path fill="#ffffff" d="M 44.03125 14.515625 C 44.03125 15.46875 43.984375 16.414062 43.890625 17.363281 C 43.800781 18.308594 43.660156 19.246094 43.472656 20.179688 C 43.289062 21.113281 43.058594 22.035156 42.78125 22.945312 C 42.507812 23.855469 42.1875 24.746094 41.824219 25.625 C 41.457031 26.503906 41.050781 27.363281 40.605469 28.203125 C 40.15625 29.039062 39.667969 29.855469 39.140625 30.644531 C 38.609375 31.4375 38.046875 32.199219 37.441406 32.933594 C 36.839844 33.667969 36.203125 34.371094 35.527344 35.046875 C 34.855469 35.71875 34.152344 36.355469 33.417969 36.957031 C 32.683594 37.5625 31.921875 38.128906 31.128906 38.65625 C 30.339844 39.183594 29.523438 39.671875 28.6875 40.121094 C 27.847656 40.570312 26.988281 40.972656 26.109375 41.339844 C 25.230469 41.703125 24.335938 42.023438 23.425781 42.296875 C 22.519531 42.574219 21.597656 42.804688 20.664062 42.992188 C 19.730469 43.175781 18.792969 43.316406 17.84375 43.410156 C 16.898438 43.5 15.949219 43.546875 15 43.546875 C 14.050781 43.546875 13.101562 43.5 12.15625 43.410156 C 11.207031 43.316406 10.269531 43.175781 9.335938 42.992188 C 8.402344 42.804688 7.480469 42.574219 6.574219 42.296875 C 5.664062 42.023438 4.769531 41.703125 3.890625 41.339844 C 3.011719 40.972656 2.152344 40.570312 1.3125 40.121094 C 0.476562 39.671875 -0.339844 39.183594 -1.128906 38.65625 C -1.921875 38.128906 -2.683594 37.5625 -3.417969 36.957031 C -4.152344 36.355469 -4.855469 35.71875 -5.527344 35.046875 C -6.203125 34.371094 -6.839844 33.667969 -7.441406 32.933594 C -8.046875 32.199219 -8.609375 31.4375 -9.140625 30.644531 C -9.667969 29.855469 -10.15625 29.039062 -10.605469 28.203125 C -11.050781 27.363281 -11.457031 26.503906 -11.824219 25.625 C -12.1875 24.746094 -12.507812 23.855469 -12.78125 22.945312 C -13.058594 22.035156 -13.289062 21.113281 -13.472656 20.179688 C -13.660156 19.246094 -13.800781 18.308594 -13.890625 17.363281 C -13.984375 16.414062 -14.03125 15.46875 -14.03125 14.515625 C -14.03125 13.566406 -13.984375 12.617188 -13.890625 11.671875 C -13.800781 10.722656 -13.660156 9.785156 -13.472656 8.851562 C -13.289062 7.917969 -13.058594 7 -12.78125 6.089844 C -12.507812 5.179688 -12.1875 4.285156 -11.824219 3.40625 C -11.457031 2.527344 -11.050781 1.667969 -10.605469 0.832031 C -10.15625 -0.0078125 -9.667969 -0.824219 -9.140625 -1.613281 C -8.609375 -2.402344 -8.046875 -3.167969 -7.441406 -3.902344 C -6.839844 -4.636719 -6.203125 -5.339844 -5.527344 -6.011719 C -4.855469 -6.683594 -4.152344 -7.324219 -3.417969 -7.925781 C -2.683594 -8.53125 -1.921875 -9.09375 -1.128906 -9.625 C -0.339844 -10.152344 0.476562 -10.640625 1.3125 -11.089844 C 2.152344 -11.535156 3.011719 -11.941406 3.890625 -12.304688 C 4.769531 -12.671875 5.664062 -12.988281 6.574219 -13.265625 C 7.480469 -13.542969 8.402344 -13.773438 9.335938 -13.957031 C 10.269531 -14.144531 11.207031 -14.28125 12.15625 -14.375 C 13.101562 -14.46875 14.050781 -14.515625 15 -14.515625 C 15.949219 -14.515625 16.898438 -14.46875 17.84375 -14.375 C 18.792969 -14.28125 19.730469 -14.144531 20.664062 -13.957031 C 21.597656 -13.773438 22.519531 -13.542969 23.425781 -13.265625 C 24.335938 -12.988281 25.230469 -12.671875 26.109375 -12.304688 C 26.988281 -11.941406 27.847656 -11.535156 28.6875 -11.089844 C 29.523438 -10.640625 30.339844 -10.152344 31.128906 -9.625 C 31.921875 -9.09375 32.683594 -8.53125 33.417969 -7.925781 C 34.152344 -7.324219 34.855469 -6.683594 35.527344 -6.011719 C 36.203125 -5.339844 36.839844 -4.636719 37.441406 -3.902344 C 38.046875 -3.167969 38.609375 -2.402344 39.140625 -1.613281 C 39.667969 -0.824219 40.15625 -0.0078125 40.605469 0.832031 C 41.050781 1.667969 41.457031 2.527344 41.824219 3.40625 C 42.1875 4.285156 42.507812 5.179688 42.78125 6.089844 C 43.058594 7 43.289062 7.917969 43.472656 8.851562 C 43.660156 9.785156 43.800781 10.722656 43.890625 11.671875 C 43.984375 12.617188 44.03125 13.566406 44.03125 14.515625 Z M 44.03125 14.515625 " fill-opacity="1" fill-rule="nonzero"/></g><g clip-path="url(#67e6e8b5bc)"><path fill="#578cb5" d="M 24.863281 26.816406 L 2.699219 26.816406 L 2.699219 4.652344 L 15.996094 4.652344 L 15.996094 2.4375 L 2.699219 2.4375 C 1.476562 2.4375 0.484375 3.429688 0.484375 4.652344 L 0.484375 26.816406 C 0.484375 28.039062 1.476562 29.03125 2.699219 29.03125 L 24.863281 29.03125 C 26.085938 29.03125 27.078125 28.039062 27.078125 26.816406 L 27.078125 13.519531 L 24.863281 13.519531 Z M 24.863281 26.816406 " fill-opacity="1" fill-rule="nonzero"/></g><path fill="#578cb5" d="M 9.347656 20.203125 L 14.015625 20.203125 L 25.320312 8.894531 L 20.621094 4.195312 L 9.347656 15.46875 Z M 9.347656 20.203125 " fill-opacity="1" fill-rule="nonzero"/><g clip-path="url(#720388f24f)"><path fill="#578cb5" d="M 28.644531 2.4375 L 27.078125 0.871094 C 26.210938 0.00390625 24.808594 0.00390625 23.945312 0.871094 L 22.1875 2.628906 L 26.886719 7.328125 L 28.644531 5.570312 C 29.511719 4.703125 29.511719 3.300781 28.644531 2.4375 Z M 28.644531 2.4375 " fill-opacity="1" fill-rule="nonzero"/></g></svg>