<svg xmlns="http://www.w3.org/2000/svg" xmlns:xlink="http://www.w3.org/1999/xlink" width="500" zoomAndPan="magnify" viewBox="0 0 375 299.999988" height="400" preserveAspectRatio="xMidYMid meet" version="1.0"><path fill="#ffc0cb" d="M 368.355469 161.136719 C 368.355469 161.136719 335.164062 38.625 219.738281 19.699219 C 104.21875 0.679688 31.496094 65.476562 10.984375 113.773438 C -9.621094 161.976562 -2.441406 227.242188 94.242188 236.84375 C 191.023438 246.449219 155.777344 286.539062 241.183594 262.765625 C 326.585938 239.082031 396.046875 222.019531 368.355469 161.136719 Z M 368.355469 161.136719 " fill-opacity="1" fill-rule="evenodd"/><path fill="#578cb5" d="M 59.1875 28.742188 C 63.382812 24.546875 105.246094 -11.160156 206.3125 42.730469 C 307.285156 96.710938 379.265625 18.394531 367.515625 114.148438 C 355.769531 209.902344 355.675781 274.886719 247.242188 246.261719 C 138.902344 217.730469 59.1875 289.152344 38.953125 233.675781 C 18.816406 178.292969 12.101562 52.238281 59.1875 28.742188 Z M 59.1875 28.742188 " fill-opacity="1" fill-rule="evenodd"/><path fill="#ffc0cb" d="M 207.566406 246.054688 C 208.15625 245.714844 208.773438 245.433594 209.414062 245.214844 C 210.058594 245 210.71875 244.84375 211.390625 244.757812 C 212.066406 244.667969 212.742188 244.644531 213.421875 244.691406 C 214.097656 244.734375 214.765625 244.84375 215.421875 245.019531 C 216.078125 245.195312 216.710938 245.433594 217.320312 245.734375 C 217.929688 246.035156 218.503906 246.394531 219.042969 246.804688 C 219.582031 247.21875 220.078125 247.683594 220.527344 248.195312 C 220.972656 248.703125 221.367188 249.253906 221.707031 249.84375 C 222.046875 250.429688 222.328125 251.046875 222.546875 251.691406 C 222.761719 252.335938 222.917969 252.992188 223.007812 253.667969 C 223.09375 254.339844 223.117188 255.015625 223.074219 255.695312 C 223.027344 256.375 222.917969 257.042969 222.742188 257.699219 C 222.566406 258.355469 222.328125 258.988281 222.027344 259.597656 C 221.726562 260.207031 221.371094 260.78125 220.957031 261.320312 C 220.542969 261.859375 220.078125 262.351562 219.566406 262.800781 C 219.058594 263.25 218.507812 263.644531 217.917969 263.984375 C 217.332031 264.324219 216.714844 264.601562 216.070312 264.820312 C 215.425781 265.039062 214.769531 265.191406 214.09375 265.28125 C 213.421875 265.371094 212.746094 265.390625 212.066406 265.347656 C 211.386719 265.304688 210.71875 265.191406 210.0625 265.015625 C 209.40625 264.839844 208.773438 264.601562 208.164062 264.300781 C 207.554688 264 206.980469 263.644531 206.441406 263.230469 C 205.902344 262.816406 205.410156 262.355469 204.960938 261.84375 C 204.511719 261.332031 204.117188 260.78125 203.777344 260.195312 C 203.4375 259.605469 203.160156 258.988281 202.941406 258.347656 C 202.722656 257.703125 202.570312 257.042969 202.480469 256.371094 C 202.390625 255.695312 202.371094 255.019531 202.414062 254.339844 C 202.457031 253.664062 202.570312 252.996094 202.746094 252.339844 C 202.921875 251.683594 203.160156 251.050781 203.460938 250.441406 C 203.761719 249.832031 204.117188 249.257812 204.53125 248.71875 C 204.945312 248.179688 205.40625 247.683594 205.917969 247.234375 C 206.429688 246.789062 206.980469 246.394531 207.566406 246.054688 Z M 207.566406 246.054688 " fill-opacity="1" fill-rule="nonzero"/><path fill="#ffc0cb" d="M 240.414062 253.351562 C 240.710938 253.179688 241.023438 253.039062 241.347656 252.929688 C 241.671875 252.820312 242.007812 252.742188 242.347656 252.695312 C 242.6875 252.652344 243.027344 252.640625 243.371094 252.664062 C 243.714844 252.6875 244.050781 252.742188 244.382812 252.832031 C 244.714844 252.917969 245.035156 253.039062 245.34375 253.191406 C 245.652344 253.34375 245.941406 253.523438 246.214844 253.734375 C 246.484375 253.941406 246.734375 254.175781 246.960938 254.433594 C 247.1875 254.691406 247.386719 254.96875 247.558594 255.265625 C 247.730469 255.566406 247.871094 255.875 247.980469 256.199219 C 248.09375 256.527344 248.167969 256.859375 248.214844 257.199219 C 248.257812 257.539062 248.269531 257.882812 248.25 258.222656 C 248.226562 258.566406 248.171875 258.902344 248.082031 259.234375 C 247.992188 259.566406 247.871094 259.886719 247.71875 260.195312 C 247.566406 260.503906 247.386719 260.792969 247.179688 261.066406 C 246.96875 261.339844 246.734375 261.585938 246.476562 261.8125 C 246.21875 262.039062 245.941406 262.238281 245.644531 262.410156 C 245.347656 262.582031 245.035156 262.722656 244.710938 262.835938 C 244.386719 262.945312 244.050781 263.023438 243.710938 263.066406 C 243.371094 263.113281 243.03125 263.125 242.6875 263.101562 C 242.34375 263.078125 242.007812 263.023438 241.675781 262.933594 C 241.34375 262.84375 241.023438 262.726562 240.714844 262.574219 C 240.40625 262.421875 240.117188 262.242188 239.84375 262.03125 C 239.574219 261.824219 239.324219 261.589844 239.097656 261.332031 C 238.871094 261.074219 238.671875 260.792969 238.5 260.496094 C 238.328125 260.199219 238.1875 259.886719 238.078125 259.5625 C 237.964844 259.238281 237.890625 258.90625 237.84375 258.566406 C 237.800781 258.222656 237.789062 257.882812 237.808594 257.539062 C 237.832031 257.199219 237.886719 256.859375 237.976562 256.527344 C 238.066406 256.195312 238.1875 255.875 238.339844 255.570312 C 238.492188 255.261719 238.671875 254.96875 238.878906 254.699219 C 239.089844 254.425781 239.324219 254.175781 239.582031 253.949219 C 239.839844 253.722656 240.117188 253.523438 240.414062 253.351562 Z M 240.414062 253.351562 " fill-opacity="1" fill-rule="nonzero"/><path fill="#ffc0cb" d="M 311.515625 44.953125 C 311.96875 44.691406 312.4375 44.476562 312.929688 44.308594 C 313.425781 44.144531 313.929688 44.027344 314.445312 43.957031 C 314.960938 43.890625 315.476562 43.871094 315.996094 43.90625 C 316.515625 43.941406 317.027344 44.023438 317.527344 44.160156 C 318.03125 44.292969 318.515625 44.476562 318.984375 44.707031 C 319.449219 44.9375 319.890625 45.210938 320.300781 45.527344 C 320.714844 45.84375 321.09375 46.199219 321.433594 46.589844 C 321.777344 46.980469 322.078125 47.402344 322.339844 47.851562 C 322.601562 48.300781 322.8125 48.773438 322.980469 49.265625 C 323.148438 49.757812 323.265625 50.261719 323.332031 50.777344 C 323.402344 51.296875 323.417969 51.8125 323.382812 52.332031 C 323.351562 52.851562 323.265625 53.363281 323.132812 53.863281 C 322.996094 54.367188 322.816406 54.851562 322.585938 55.316406 C 322.355469 55.785156 322.082031 56.222656 321.765625 56.636719 C 321.449219 57.050781 321.09375 57.425781 320.703125 57.769531 C 320.3125 58.113281 319.890625 58.414062 319.441406 58.675781 C 318.988281 58.933594 318.519531 59.148438 318.023438 59.316406 C 317.53125 59.484375 317.027344 59.601562 316.511719 59.667969 C 315.996094 59.738281 315.480469 59.753906 314.960938 59.71875 C 314.441406 59.6875 313.929688 59.601562 313.425781 59.464844 C 312.925781 59.332031 312.441406 59.148438 311.972656 58.917969 C 311.507812 58.691406 311.066406 58.417969 310.65625 58.097656 C 310.242188 57.78125 309.863281 57.429688 309.519531 57.039062 C 309.179688 56.644531 308.875 56.226562 308.617188 55.773438 C 308.355469 55.324219 308.140625 54.851562 307.976562 54.359375 C 307.808594 53.867188 307.691406 53.363281 307.621094 52.847656 C 307.554688 52.332031 307.539062 51.8125 307.570312 51.296875 C 307.605469 50.777344 307.691406 50.265625 307.824219 49.761719 C 307.960938 49.261719 308.140625 48.777344 308.371094 48.308594 C 308.601562 47.84375 308.875 47.402344 309.191406 46.988281 C 309.507812 46.578125 309.863281 46.199219 310.253906 45.855469 C 310.644531 45.511719 311.066406 45.210938 311.515625 44.953125 Z M 311.515625 44.953125 " fill-opacity="1" fill-rule="nonzero"/><path fill="#ffc0cb" d="M 131.351562 249.339844 C 132.097656 250.085938 159.601562 269.851562 170.417969 284.953125 C 181.140625 299.964844 193.445312 280.945312 167.0625 266.308594 C 140.769531 251.761719 131.351562 249.339844 131.351562 249.339844 Z M 131.351562 249.339844 " fill-opacity="1" fill-rule="evenodd"/><path fill="#ffc0cb" d="M 338.015625 43.714844 C 338.441406 43.46875 338.898438 43.316406 339.386719 43.25 C 339.875 43.1875 340.355469 43.21875 340.832031 43.34375 C 341.304688 43.472656 341.738281 43.6875 342.128906 43.984375 C 342.519531 44.285156 342.839844 44.648438 343.085938 45.074219 C 343.332031 45.5 343.484375 45.957031 343.550781 46.445312 C 343.613281 46.933594 343.582031 47.414062 343.453125 47.890625 C 343.328125 48.367188 343.113281 48.800781 342.816406 49.1875 C 342.515625 49.578125 342.152344 49.898438 341.726562 50.144531 C 341.300781 50.390625 340.84375 50.546875 340.355469 50.609375 C 339.867188 50.675781 339.386719 50.640625 338.910156 50.515625 C 338.433594 50.386719 338 50.175781 337.609375 49.875 C 337.21875 49.574219 336.902344 49.210938 336.65625 48.785156 C 336.410156 48.359375 336.253906 47.902344 336.191406 47.414062 C 336.125 46.925781 336.15625 46.445312 336.285156 45.96875 C 336.414062 45.496094 336.625 45.0625 336.925781 44.671875 C 337.226562 44.28125 337.589844 43.960938 338.015625 43.714844 Z M 338.015625 43.714844 " fill-opacity="1" fill-rule="nonzero"/><path fill="#578cb5" d="M 11.859375 63.730469 C 12.308594 63.46875 12.78125 63.253906 13.273438 63.089844 C 13.765625 62.921875 14.269531 62.804688 14.785156 62.734375 C 15.300781 62.667969 15.820312 62.652344 16.339844 62.683594 C 16.859375 62.71875 17.367188 62.804688 17.871094 62.9375 C 18.375 63.074219 18.859375 63.253906 19.324219 63.484375 C 19.792969 63.714844 20.230469 63.988281 20.644531 64.304688 C 21.054688 64.621094 21.433594 64.976562 21.777344 65.367188 C 22.121094 65.757812 22.421875 66.179688 22.683594 66.628906 C 22.941406 67.078125 23.15625 67.550781 23.324219 68.042969 C 23.492188 68.535156 23.609375 69.042969 23.675781 69.558594 C 23.742188 70.074219 23.761719 70.589844 23.726562 71.109375 C 23.691406 71.628906 23.609375 72.140625 23.472656 72.640625 C 23.339844 73.144531 23.15625 73.628906 22.925781 74.09375 C 22.695312 74.5625 22.421875 75 22.105469 75.414062 C 21.789062 75.828125 21.4375 76.207031 21.042969 76.546875 C 20.652344 76.890625 20.234375 77.191406 19.78125 77.453125 C 19.332031 77.714844 18.859375 77.925781 18.367188 78.09375 C 17.875 78.261719 17.371094 78.378906 16.855469 78.445312 C 16.339844 78.515625 15.820312 78.53125 15.300781 78.496094 C 14.78125 78.464844 14.273438 78.378906 13.769531 78.246094 C 13.265625 78.109375 12.78125 77.925781 12.316406 77.699219 C 11.847656 77.46875 11.410156 77.195312 10.996094 76.878906 C 10.585938 76.558594 10.207031 76.207031 9.863281 75.816406 C 9.519531 75.425781 9.21875 75.003906 8.957031 74.554688 C 8.699219 74.101562 8.484375 73.628906 8.316406 73.136719 C 8.148438 72.644531 8.03125 72.140625 7.964844 71.625 C 7.898438 71.109375 7.878906 70.59375 7.914062 70.074219 C 7.949219 69.554688 8.03125 69.042969 8.167969 68.539062 C 8.300781 68.039062 8.484375 67.554688 8.714844 67.085938 C 8.945312 66.621094 9.21875 66.179688 9.535156 65.769531 C 9.851562 65.355469 10.203125 64.976562 10.597656 64.632812 C 10.988281 64.289062 11.40625 63.988281 11.859375 63.730469 Z M 11.859375 63.730469 " fill-opacity="1" fill-rule="nonzero"/><path fill="#578cb5" d="M 25.5 47.589844 C 25.726562 47.460938 25.960938 47.355469 26.210938 47.269531 C 26.457031 47.1875 26.707031 47.128906 26.964844 47.09375 C 27.222656 47.0625 27.480469 47.050781 27.742188 47.070312 C 28 47.085938 28.257812 47.128906 28.507812 47.195312 C 28.757812 47.261719 29 47.355469 29.234375 47.46875 C 29.46875 47.585938 29.6875 47.722656 29.894531 47.878906 C 30.101562 48.039062 30.289062 48.214844 30.460938 48.410156 C 30.632812 48.605469 30.785156 48.816406 30.914062 49.042969 C 31.042969 49.265625 31.148438 49.503906 31.234375 49.75 C 31.316406 49.996094 31.375 50.246094 31.410156 50.503906 C 31.445312 50.761719 31.453125 51.023438 31.4375 51.28125 C 31.417969 51.542969 31.375 51.796875 31.308594 52.046875 C 31.242188 52.300781 31.152344 52.542969 31.035156 52.773438 C 30.921875 53.007812 30.785156 53.226562 30.625 53.433594 C 30.46875 53.640625 30.289062 53.828125 30.09375 54 C 29.898438 54.171875 29.6875 54.324219 29.464844 54.453125 C 29.238281 54.582031 29.003906 54.691406 28.757812 54.773438 C 28.507812 54.859375 28.257812 54.917969 28 54.949219 C 27.742188 54.984375 27.484375 54.992188 27.222656 54.976562 C 26.964844 54.957031 26.707031 54.917969 26.457031 54.847656 C 26.207031 54.78125 25.964844 54.691406 25.730469 54.574219 C 25.496094 54.460938 25.277344 54.324219 25.070312 54.164062 C 24.863281 54.007812 24.675781 53.832031 24.503906 53.632812 C 24.332031 53.4375 24.179688 53.230469 24.050781 53.003906 C 23.921875 52.777344 23.816406 52.542969 23.730469 52.296875 C 23.648438 52.050781 23.589844 51.796875 23.554688 51.539062 C 23.519531 51.28125 23.511719 51.023438 23.527344 50.761719 C 23.546875 50.503906 23.589844 50.25 23.65625 49.996094 C 23.722656 49.746094 23.8125 49.503906 23.929688 49.269531 C 24.042969 49.035156 24.179688 48.816406 24.339844 48.609375 C 24.496094 48.40625 24.675781 48.214844 24.871094 48.042969 C 25.066406 47.871094 25.277344 47.722656 25.5 47.589844 Z M 25.5 47.589844 " fill-opacity="1" fill-rule="nonzero"/></svg>