<svg xmlns="http://www.w3.org/2000/svg" xmlns:xlink="http://www.w3.org/1999/xlink" width="500" zoomAndPan="magnify" viewBox="0 0 375 299.999988" height="400" preserveAspectRatio="xMidYMid meet" version="1.0"><path fill="#578cb5" d="M 12.214844 166.425781 C 12.214844 166.425781 45.449219 43.773438 160.972656 24.796875 C 276.5 5.820312 349.257812 70.710938 369.902344 118.9375 C 390.453125 167.261719 348.796875 239.09375 251.96875 248.71875 C 155.140625 258.347656 206.886719 298.523438 121.445312 274.824219 C 36.007812 251.128906 -15.460938 227.335938 12.214844 166.425781 Z M 12.214844 166.425781 " fill-opacity="1" fill-rule="evenodd"/><path fill="#ffc0cb" d="M 58.039062 48.125 C 62.296875 43.957031 100.898438 22.113281 207.628906 30.535156 C 314.359375 38.960938 367.308594 33.867188 355.554688 129.675781 C 343.796875 225.484375 354.71875 294.449219 246.320312 265.84375 C 137.925781 237.242188 58.039062 308.703125 37.855469 253.257812 C 17.769531 197.808594 11.011719 71.730469 58.039062 48.125 Z M 58.039062 48.125 " fill-opacity="1" fill-rule="evenodd"/><path fill="#578cb5" d="M 206.585938 265.601562 C 207.175781 265.261719 207.792969 264.984375 208.4375 264.765625 C 209.078125 264.546875 209.738281 264.390625 210.414062 264.304688 C 211.085938 264.214844 211.765625 264.191406 212.441406 264.238281 C 213.121094 264.28125 213.789062 264.390625 214.445312 264.566406 C 215.101562 264.742188 215.738281 264.980469 216.347656 265.28125 C 216.957031 265.582031 217.53125 265.941406 218.070312 266.355469 C 218.609375 266.769531 219.105469 267.230469 219.554688 267.742188 C 220 268.253906 220.394531 268.804688 220.734375 269.394531 C 221.074219 269.984375 221.355469 270.597656 221.574219 271.242188 C 221.792969 271.886719 221.945312 272.546875 222.035156 273.222656 C 222.125 273.894531 222.144531 274.570312 222.101562 275.25 C 222.058594 275.929688 221.945312 276.597656 221.769531 277.253906 C 221.59375 277.910156 221.355469 278.542969 221.054688 279.152344 C 220.753906 279.765625 220.398438 280.339844 219.984375 280.878906 C 219.570312 281.417969 219.105469 281.914062 218.59375 282.359375 C 218.082031 282.808594 217.535156 283.203125 216.945312 283.542969 C 216.355469 283.882812 215.738281 284.164062 215.09375 284.382812 C 214.449219 284.601562 213.792969 284.753906 213.117188 284.84375 C 212.441406 284.929688 211.765625 284.953125 211.085938 284.910156 C 210.410156 284.863281 209.742188 284.753906 209.085938 284.578125 C 208.425781 284.402344 207.792969 284.164062 207.183594 283.863281 C 206.574219 283.5625 206 283.203125 205.460938 282.789062 C 204.921875 282.375 204.425781 281.914062 203.976562 281.402344 C 203.527344 280.890625 203.136719 280.339844 202.796875 279.75 C 202.453125 279.164062 202.175781 278.546875 201.957031 277.902344 C 201.738281 277.257812 201.585938 276.597656 201.496094 275.925781 C 201.40625 275.25 201.386719 274.574219 201.429688 273.894531 C 201.472656 273.214844 201.585938 272.550781 201.761719 271.890625 C 201.9375 271.234375 202.175781 270.601562 202.476562 269.992188 C 202.777344 269.382812 203.132812 268.808594 203.546875 268.265625 C 203.960938 267.726562 204.425781 267.234375 204.9375 266.785156 C 205.445312 266.335938 205.996094 265.941406 206.585938 265.601562 Z M 206.585938 265.601562 " fill-opacity="1" fill-rule="nonzero"/><path fill="#578cb5" d="M 239.457031 272.90625 C 239.753906 272.734375 240.066406 272.59375 240.390625 272.484375 C 240.714844 272.371094 241.050781 272.292969 241.390625 272.25 C 241.730469 272.203125 242.074219 272.195312 242.414062 272.214844 C 242.757812 272.238281 243.09375 272.292969 243.425781 272.382812 C 243.757812 272.472656 244.078125 272.59375 244.386719 272.746094 C 244.695312 272.898438 244.988281 273.078125 245.257812 273.285156 C 245.53125 273.496094 245.78125 273.730469 246.007812 273.988281 C 246.234375 274.246094 246.433594 274.523438 246.605469 274.820312 C 246.777344 275.121094 246.917969 275.429688 247.027344 275.757812 C 247.140625 276.082031 247.21875 276.414062 247.261719 276.753906 C 247.304688 277.097656 247.316406 277.4375 247.296875 277.78125 C 247.273438 278.125 247.21875 278.460938 247.128906 278.792969 C 247.039062 279.125 246.917969 279.445312 246.765625 279.753906 C 246.613281 280.0625 246.433594 280.351562 246.226562 280.625 C 246.015625 280.898438 245.78125 281.148438 245.523438 281.375 C 245.265625 281.601562 244.988281 281.800781 244.691406 281.972656 C 244.390625 282.144531 244.082031 282.285156 243.753906 282.394531 C 243.429688 282.503906 243.097656 282.582031 242.757812 282.628906 C 242.414062 282.671875 242.074219 282.683594 241.730469 282.660156 C 241.386719 282.636719 241.050781 282.582031 240.71875 282.492188 C 240.386719 282.40625 240.066406 282.285156 239.757812 282.132812 C 239.449219 281.980469 239.160156 281.800781 238.886719 281.589844 C 238.613281 281.382812 238.363281 281.148438 238.136719 280.890625 C 237.910156 280.632812 237.710938 280.351562 237.539062 280.054688 C 237.367188 279.757812 237.226562 279.445312 237.117188 279.121094 C 237.007812 278.796875 236.929688 278.460938 236.882812 278.121094 C 236.839844 277.78125 236.828125 277.4375 236.851562 277.097656 C 236.875 276.753906 236.929688 276.414062 237.019531 276.085938 C 237.105469 275.753906 237.226562 275.433594 237.378906 275.125 C 237.53125 274.816406 237.710938 274.523438 237.921875 274.253906 C 238.128906 273.980469 238.363281 273.730469 238.621094 273.503906 C 238.878906 273.277344 239.160156 273.078125 239.457031 272.90625 Z M 239.457031 272.90625 " fill-opacity="1" fill-rule="nonzero"/><path fill="#578cb5" d="M 282.378906 18.113281 C 282.796875 17.875 283.242188 17.722656 283.71875 17.660156 C 284.195312 17.597656 284.664062 17.625 285.128906 17.75 C 285.59375 17.875 286.015625 18.085938 286.398438 18.375 C 286.78125 18.667969 287.089844 19.023438 287.332031 19.441406 C 287.570312 19.855469 287.722656 20.304688 287.785156 20.78125 C 287.847656 21.257812 287.816406 21.726562 287.691406 22.191406 C 287.570312 22.65625 287.359375 23.078125 287.066406 23.460938 C 286.773438 23.839844 286.421875 24.152344 286.003906 24.390625 C 285.589844 24.632812 285.140625 24.785156 284.664062 24.847656 C 284.1875 24.910156 283.71875 24.878906 283.253906 24.753906 C 282.789062 24.628906 282.367188 24.421875 281.984375 24.128906 C 281.605469 23.835938 281.292969 23.480469 281.050781 23.066406 C 280.8125 22.648438 280.660156 22.203125 280.597656 21.726562 C 280.535156 21.25 280.566406 20.777344 280.691406 20.316406 C 280.816406 19.851562 281.023438 19.425781 281.316406 19.046875 C 281.609375 18.664062 281.964844 18.355469 282.378906 18.113281 Z M 282.378906 18.113281 " fill-opacity="1" fill-rule="nonzero"/><path fill="#ffc0cb" d="M 134.5 25.445312 C 132.925781 25.816406 76.550781 29.238281 48.039062 40.8125 C 19.527344 52.382812 19.160156 14.800781 69.238281 17.667969 C 119.226562 20.445312 134.5 25.445312 134.5 25.445312 Z M 134.5 25.445312 " fill-opacity="1" fill-rule="evenodd"/></svg>