<svg xmlns="http://www.w3.org/2000/svg" xmlns:xlink="http://www.w3.org/1999/xlink" width="320" zoomAndPan="magnify" viewBox="0 0 240 165.000002" height="220" preserveAspectRatio="xMidYMid meet" version="1.0"><defs><clipPath id="f746500f12"><path d="M 0.722656 0 L 239.277344 0 L 239.277344 164.007812 L 0.722656 164.007812 Z M 0.722656 0 " clip-rule="nonzero"/></clipPath><clipPath id="e9b75c3f35"><path d="M 17.867188 0 L 222.875 0 L 222.875 164.007812 L 17.867188 164.007812 Z M 17.867188 0 " clip-rule="nonzero"/></clipPath></defs><g clip-path="url(#f746500f12)"><path fill="#ffffff" d="M 358.554688 82.003906 C 358.554688 85.90625 358.457031 89.808594 358.265625 93.707031 C 358.074219 97.609375 357.789062 101.5 357.40625 105.386719 C 357.023438 109.269531 356.546875 113.144531 355.972656 117.007812 C 355.398438 120.867188 354.730469 124.714844 353.96875 128.542969 C 353.207031 132.371094 352.355469 136.179688 351.40625 139.96875 C 350.457031 143.753906 349.414062 147.515625 348.28125 151.25 C 347.148438 154.988281 345.925781 158.695312 344.609375 162.371094 C 343.292969 166.046875 341.890625 169.6875 340.394531 173.292969 C 338.902344 176.902344 337.320312 180.46875 335.648438 183.996094 C 333.980469 187.527344 332.226562 191.011719 330.386719 194.457031 C 328.546875 197.898438 326.621094 201.296875 324.613281 204.644531 C 322.609375 207.992188 320.519531 211.289062 318.351562 214.535156 C 316.179688 217.78125 313.933594 220.972656 311.609375 224.109375 C 309.28125 227.246094 306.882812 230.320312 304.40625 233.339844 C 301.929688 236.359375 299.378906 239.3125 296.757812 242.207031 C 294.136719 245.097656 291.445312 247.925781 288.683594 250.6875 C 285.921875 253.445312 283.097656 256.136719 280.203125 258.761719 C 277.308594 261.382812 274.355469 263.929688 271.335938 266.40625 C 268.320312 268.882812 265.242188 271.285156 262.105469 273.613281 C 258.96875 275.9375 255.78125 278.183594 252.535156 280.351562 C 249.289062 282.523438 245.988281 284.609375 242.640625 286.617188 C 239.292969 288.625 235.898438 290.546875 232.453125 292.390625 C 229.011719 294.230469 225.523438 295.984375 221.996094 297.652344 C 218.464844 299.324219 214.898438 300.902344 211.289062 302.398438 C 207.683594 303.890625 204.042969 305.296875 200.367188 306.613281 C 196.691406 307.925781 192.984375 309.152344 189.25 310.285156 C 185.511719 311.417969 181.75 312.460938 177.964844 313.40625 C 174.175781 314.355469 170.367188 315.210938 166.539062 315.972656 C 162.710938 316.734375 158.863281 317.402344 155.003906 317.976562 C 151.140625 318.546875 147.269531 319.027344 143.382812 319.410156 C 139.496094 319.792969 135.605469 320.078125 131.707031 320.269531 C 127.804688 320.460938 123.902344 320.558594 120 320.558594 C 116.097656 320.558594 112.195312 320.460938 108.292969 320.269531 C 104.394531 320.078125 100.503906 319.792969 96.617188 319.410156 C 92.730469 319.027344 88.859375 318.546875 84.996094 317.976562 C 81.136719 317.402344 77.289062 316.734375 73.460938 315.972656 C 69.632812 315.210938 65.824219 314.355469 62.035156 313.40625 C 58.25 312.460938 54.488281 311.417969 50.75 310.285156 C 47.015625 309.152344 43.308594 307.925781 39.632812 306.613281 C 35.957031 305.296875 32.316406 303.890625 28.710938 302.398438 C 25.101562 300.902344 21.535156 299.324219 18.003906 297.652344 C 14.476562 295.984375 10.988281 294.230469 7.546875 292.390625 C 4.101562 290.546875 0.707031 288.625 -2.640625 286.617188 C -5.988281 284.609375 -9.289062 282.523438 -12.535156 280.351562 C -15.78125 278.183594 -18.972656 275.9375 -22.105469 273.613281 C -25.242188 271.285156 -28.320312 268.882812 -31.335938 266.40625 C -34.355469 263.929688 -37.308594 261.382812 -40.203125 258.761719 C -43.097656 256.136719 -45.921875 253.445312 -48.683594 250.6875 C -51.445312 247.925781 -54.136719 245.097656 -56.757812 242.207031 C -59.378906 239.3125 -61.929688 236.359375 -64.40625 233.339844 C -66.882812 230.320312 -69.28125 227.246094 -71.609375 224.109375 C -73.933594 220.972656 -76.179688 217.78125 -78.351562 214.535156 C -80.519531 211.289062 -82.609375 207.992188 -84.613281 204.644531 C -86.621094 201.296875 -88.546875 197.898438 -90.386719 194.457031 C -92.226562 191.011719 -93.980469 187.527344 -95.652344 183.996094 C -97.320312 180.46875 -98.902344 176.902344 -100.394531 173.292969 C -101.890625 169.6875 -103.292969 166.046875 -104.609375 162.371094 C -105.925781 158.695312 -107.148438 154.988281 -108.28125 151.25 C -109.414062 147.515625 -110.457031 143.753906 -111.40625 139.96875 C -112.355469 136.179688 -113.207031 132.371094 -113.96875 128.542969 C -114.730469 124.714844 -115.398438 120.867188 -115.972656 117.007812 C -116.546875 113.144531 -117.023438 109.269531 -117.40625 105.386719 C -117.789062 101.5 -118.074219 97.609375 -118.265625 93.707031 C -118.457031 89.808594 -118.554688 85.90625 -118.554688 82.003906 C -118.554688 78.097656 -118.457031 74.195312 -118.265625 70.296875 C -118.074219 66.398438 -117.789062 62.507812 -117.40625 58.621094 C -117.023438 54.734375 -116.546875 50.863281 -115.972656 47 C -115.398438 43.136719 -114.730469 39.292969 -113.96875 35.464844 C -113.207031 31.632812 -112.355469 27.824219 -111.40625 24.039062 C -110.457031 20.25 -109.414062 16.492188 -108.28125 12.753906 C -107.148438 9.019531 -105.925781 5.3125 -104.609375 1.636719 C -103.292969 -2.039062 -101.890625 -5.679688 -100.394531 -9.289062 C -98.902344 -12.894531 -97.320312 -16.460938 -95.652344 -19.992188 C -93.980469 -23.519531 -92.226562 -27.007812 -90.386719 -30.449219 C -88.546875 -33.894531 -86.621094 -37.289062 -84.613281 -40.636719 C -82.609375 -43.988281 -80.519531 -47.285156 -78.351562 -50.53125 C -76.179688 -53.777344 -73.933594 -56.96875 -71.609375 -60.105469 C -69.28125 -63.238281 -66.882812 -66.316406 -64.40625 -69.335938 C -61.929688 -72.351562 -59.378906 -75.308594 -56.757812 -78.199219 C -54.136719 -81.09375 -51.445312 -83.917969 -48.683594 -86.679688 C -45.921875 -89.441406 -43.097656 -92.132812 -40.203125 -94.753906 C -37.308594 -97.375 -34.355469 -99.925781 -31.335938 -102.402344 C -28.320312 -104.878906 -25.242188 -107.28125 -22.105469 -109.605469 C -18.972656 -111.929688 -15.78125 -114.179688 -12.535156 -116.347656 C -9.289062 -118.515625 -5.988281 -120.605469 -2.640625 -122.613281 C 0.707031 -124.617188 4.101562 -126.542969 7.546875 -128.382812 C 10.988281 -130.222656 14.476562 -131.976562 18.003906 -133.648438 C 21.535156 -135.316406 25.101562 -136.898438 28.710938 -138.390625 C 32.316406 -139.886719 35.957031 -141.292969 39.632812 -142.605469 C 43.308594 -143.921875 47.015625 -145.144531 50.75 -146.277344 C 54.488281 -147.414062 58.25 -148.453125 62.035156 -149.402344 C 65.824219 -150.351562 69.632812 -151.207031 73.460938 -151.96875 C 77.289062 -152.730469 81.136719 -153.394531 84.996094 -153.96875 C 88.859375 -154.542969 92.730469 -155.019531 96.617188 -155.402344 C 100.503906 -155.785156 104.394531 -156.074219 108.292969 -156.265625 C 112.195312 -156.457031 116.097656 -156.550781 120 -156.550781 C 123.902344 -156.550781 127.804688 -156.457031 131.707031 -156.265625 C 135.605469 -156.074219 139.496094 -155.785156 143.382812 -155.402344 C 147.269531 -155.019531 151.140625 -154.542969 155.003906 -153.96875 C 158.863281 -153.394531 162.710938 -152.730469 166.539062 -151.96875 C 170.367188 -151.207031 174.175781 -150.351562 177.964844 -149.402344 C 181.75 -148.453125 185.511719 -147.414062 189.25 -146.277344 C 192.984375 -145.144531 196.691406 -143.921875 200.367188 -142.605469 C 204.042969 -141.292969 207.683594 -139.886719 211.289062 -138.390625 C 214.898438 -136.898438 218.464844 -135.316406 221.996094 -133.648438 C 225.523438 -131.976562 229.011719 -130.222656 232.453125 -128.382812 C 235.898438 -126.542969 239.292969 -124.617188 242.640625 -122.613281 C 245.988281 -120.605469 249.289062 -118.515625 252.535156 -116.347656 C 255.78125 -114.179688 258.96875 -111.929688 262.105469 -109.605469 C 265.242188 -107.28125 268.320312 -104.878906 271.335938 -102.402344 C 274.355469 -99.925781 277.308594 -97.375 280.203125 -94.753906 C 283.097656 -92.132812 285.921875 -89.441406 288.683594 -86.679688 C 291.445312 -83.917969 294.136719 -81.09375 296.757812 -78.199219 C 299.378906 -75.308594 301.929688 -72.351562 304.40625 -69.335938 C 306.882812 -66.316406 309.28125 -63.238281 311.609375 -60.105469 C 313.933594 -56.96875 316.179688 -53.777344 318.351562 -50.53125 C 320.519531 -47.285156 322.609375 -43.988281 324.613281 -40.636719 C 326.621094 -37.289062 328.546875 -33.894531 330.386719 -30.449219 C 332.226562 -27.007812 333.980469 -23.519531 335.648438 -19.992188 C 337.320312 -16.460938 338.902344 -12.894531 340.394531 -9.289062 C 341.890625 -5.679688 343.292969 -2.039062 344.609375 1.636719 C 345.925781 5.3125 347.148438 9.019531 348.28125 12.753906 C 349.414062 16.492188 350.457031 20.25 351.40625 24.039062 C 352.355469 27.824219 353.207031 31.632812 353.96875 35.464844 C 354.730469 39.292969 355.398438 43.136719 355.972656 47 C 356.546875 50.863281 357.023438 54.734375 357.40625 58.621094 C 357.789062 62.507812 358.074219 66.398438 358.265625 70.296875 C 358.457031 74.195312 358.554688 78.097656 358.554688 82.003906 Z M 358.554688 82.003906 " fill-opacity="1" fill-rule="nonzero"/></g><g clip-path="url(#e9b75c3f35)"><path fill="#ffc0cb" d="M 212.625 0 L 28.121094 0 C 27.445312 0 26.78125 0.0664062 26.121094 0.195312 C 25.460938 0.328125 24.820312 0.523438 24.195312 0.78125 C 23.574219 1.039062 22.984375 1.355469 22.425781 1.726562 C 21.863281 2.101562 21.347656 2.527344 20.871094 3.003906 C 20.394531 3.476562 19.96875 3.996094 19.597656 4.554688 C 19.222656 5.113281 18.90625 5.707031 18.648438 6.328125 C 18.390625 6.949219 18.195312 7.589844 18.066406 8.25 C 17.933594 8.910156 17.867188 9.578125 17.867188 10.25 L 17.867188 153.753906 C 17.867188 154.429688 17.933594 155.09375 18.066406 155.753906 C 18.195312 156.414062 18.390625 157.054688 18.648438 157.679688 C 18.90625 158.300781 19.222656 158.890625 19.597656 159.449219 C 19.96875 160.011719 20.394531 160.527344 20.871094 161.003906 C 21.347656 161.480469 21.863281 161.90625 22.425781 162.277344 C 22.984375 162.652344 23.574219 162.96875 24.195312 163.226562 C 24.820312 163.484375 25.460938 163.679688 26.121094 163.808594 C 26.78125 163.941406 27.445312 164.007812 28.121094 164.007812 L 212.625 164.007812 C 213.300781 164.007812 213.964844 163.941406 214.625 163.808594 C 215.285156 163.679688 215.925781 163.484375 216.546875 163.226562 C 217.171875 162.96875 217.761719 162.652344 218.320312 162.277344 C 218.878906 161.90625 219.398438 161.480469 219.875 161.003906 C 220.351562 160.527344 220.773438 160.011719 221.148438 159.449219 C 221.523438 158.890625 221.839844 158.300781 222.097656 157.679688 C 222.355469 157.054688 222.546875 156.414062 222.679688 155.753906 C 222.8125 155.09375 222.875 154.429688 222.875 153.753906 L 222.875 10.25 C 222.875 9.578125 222.8125 8.910156 222.679688 8.25 C 222.546875 7.589844 222.355469 6.949219 222.097656 6.328125 C 221.839844 5.707031 221.523438 5.113281 221.148438 4.554688 C 220.773438 3.996094 220.351562 3.476562 219.875 3.003906 C 219.398438 2.527344 218.878906 2.101562 218.320312 1.726562 C 217.761719 1.355469 217.171875 1.039062 216.546875 0.78125 C 215.925781 0.523438 215.285156 0.328125 214.625 0.195312 C 213.964844 0.0664062 213.300781 0 212.625 0 Z M 69.121094 30.75 C 69.792969 30.75 70.460938 30.785156 71.128906 30.851562 C 71.796875 30.914062 72.460938 31.015625 73.121094 31.144531 C 73.777344 31.277344 74.429688 31.4375 75.070312 31.632812 C 75.714844 31.828125 76.347656 32.054688 76.964844 32.3125 C 77.585938 32.570312 78.191406 32.855469 78.785156 33.171875 C 79.378906 33.488281 79.953125 33.832031 80.511719 34.207031 C 81.070312 34.578125 81.605469 34.980469 82.125 35.40625 C 82.644531 35.832031 83.140625 36.28125 83.617188 36.753906 C 84.09375 37.230469 84.542969 37.726562 84.96875 38.246094 C 85.394531 38.765625 85.792969 39.304688 86.167969 39.863281 C 86.539062 40.421875 86.882812 40.996094 87.199219 41.589844 C 87.515625 42.179688 87.804688 42.785156 88.0625 43.40625 C 88.316406 44.027344 88.542969 44.660156 88.738281 45.300781 C 88.933594 45.941406 89.097656 46.59375 89.226562 47.253906 C 89.359375 47.910156 89.457031 48.574219 89.523438 49.242188 C 89.589844 49.910156 89.621094 50.582031 89.621094 51.25 C 89.621094 51.921875 89.589844 52.59375 89.523438 53.261719 C 89.457031 53.929688 89.359375 54.59375 89.226562 55.25 C 89.097656 55.910156 88.933594 56.558594 88.738281 57.203125 C 88.542969 57.84375 88.316406 58.476562 88.0625 59.097656 C 87.804688 59.71875 87.515625 60.324219 87.199219 60.914062 C 86.882812 61.507812 86.539062 62.082031 86.167969 62.640625 C 85.792969 63.199219 85.394531 63.738281 84.96875 64.257812 C 84.542969 64.777344 84.09375 65.273438 83.617188 65.75 C 83.140625 66.222656 82.644531 66.671875 82.125 67.097656 C 81.605469 67.523438 81.070312 67.925781 80.511719 68.296875 C 79.953125 68.671875 79.378906 69.015625 78.785156 69.332031 C 78.191406 69.648438 77.585938 69.933594 76.964844 70.191406 C 76.347656 70.449219 75.714844 70.675781 75.070312 70.871094 C 74.429688 71.066406 73.777344 71.226562 73.121094 71.359375 C 72.460938 71.488281 71.796875 71.589844 71.128906 71.652344 C 70.460938 71.71875 69.792969 71.753906 69.121094 71.753906 C 68.449219 71.753906 67.78125 71.71875 67.113281 71.652344 C 66.441406 71.589844 65.78125 71.488281 65.121094 71.359375 C 64.460938 71.226562 63.8125 71.066406 63.167969 70.871094 C 62.527344 70.675781 61.894531 70.449219 61.277344 70.191406 C 60.65625 69.933594 60.050781 69.648438 59.457031 69.332031 C 58.863281 69.015625 58.289062 68.671875 57.730469 68.296875 C 57.171875 67.925781 56.632812 67.523438 56.117188 67.097656 C 55.597656 66.671875 55.097656 66.222656 54.625 65.75 C 54.148438 65.273438 53.699219 64.777344 53.273438 64.257812 C 52.847656 63.738281 52.449219 63.199219 52.074219 62.640625 C 51.703125 62.082031 51.355469 61.507812 51.039062 60.914062 C 50.722656 60.324219 50.4375 59.71875 50.179688 59.097656 C 49.921875 58.476562 49.699219 57.84375 49.503906 57.203125 C 49.308594 56.558594 49.144531 55.910156 49.015625 55.25 C 48.882812 54.59375 48.785156 53.929688 48.71875 53.261719 C 48.652344 52.59375 48.621094 51.921875 48.621094 51.25 C 48.621094 50.582031 48.652344 49.910156 48.71875 49.242188 C 48.785156 48.574219 48.882812 47.910156 49.015625 47.253906 C 49.144531 46.59375 49.308594 45.941406 49.503906 45.300781 C 49.699219 44.660156 49.921875 44.027344 50.179688 43.40625 C 50.4375 42.785156 50.722656 42.179688 51.039062 41.589844 C 51.355469 40.996094 51.703125 40.421875 52.074219 39.863281 C 52.449219 39.304688 52.847656 38.765625 53.273438 38.246094 C 53.699219 37.726562 54.148438 37.230469 54.625 36.753906 C 55.097656 36.28125 55.597656 35.832031 56.117188 35.40625 C 56.632812 34.980469 57.171875 34.578125 57.730469 34.207031 C 58.289062 33.832031 58.863281 33.488281 59.457031 33.171875 C 60.050781 32.855469 60.65625 32.570312 61.277344 32.3125 C 61.894531 32.054688 62.527344 31.828125 63.167969 31.632812 C 63.8125 31.4375 64.460938 31.277344 65.121094 31.144531 C 65.78125 31.015625 66.441406 30.914062 67.113281 30.851562 C 67.78125 30.785156 68.449219 30.75 69.121094 30.75 Z M 202.375 143.503906 L 38.371094 143.503906 L 38.371094 126.417969 L 79.371094 92.253906 L 108.65625 114.21875 L 161.375 61.503906 L 202.375 116.167969 Z M 202.375 143.503906 " fill-opacity="1" fill-rule="nonzero"/></g></svg>