<svg xmlns="http://www.w3.org/2000/svg" xmlns:xlink="http://www.w3.org/1999/xlink" width="50" zoomAndPan="magnify" viewBox="0 0 37.5 37.499999" height="50" preserveAspectRatio="xMidYMid meet" version="1.0"><path fill="#578cb5" d="M 21.527344 23.832031 L 23.832031 21.527344 L 28.511719 26.207031 L 26.207031 28.511719 Z M 21.527344 23.832031 " fill-opacity="1" fill-rule="nonzero"/><path fill="#578cb5" d="M 35.90625 30.984375 C 36.921875 32.003906 36.921875 33.65625 35.90625 34.675781 L 34.675781 35.90625 C 33.65625 36.925781 32.003906 36.925781 30.984375 35.90625 L 24.390625 29.3125 C 23.371094 28.289062 23.371094 26.640625 24.390625 25.621094 L 25.621094 24.390625 C 26.640625 23.371094 28.292969 23.371094 29.3125 24.390625 Z M 35.90625 30.984375 " fill-opacity="1" fill-rule="nonzero"/><path fill="#578cb5" d="M 14.003906 -0.015625 C 6.257812 -0.015625 -0.015625 6.257812 -0.015625 14.003906 C -0.015625 21.746094 6.257812 28.023438 14.003906 28.023438 C 21.746094 28.023438 28.023438 21.746094 28.023438 14.003906 C 28.023438 6.257812 21.746094 -0.015625 14.003906 -0.015625 Z M 14.003906 25.429688 C 7.691406 25.429688 2.574219 20.316406 2.574219 14.003906 C 2.574219 7.691406 7.691406 2.578125 14.003906 2.578125 C 20.316406 2.578125 25.429688 7.691406 25.429688 14.003906 C 25.429688 20.316406 20.316406 25.429688 14.003906 25.429688 Z M 14.003906 25.429688 " fill-opacity="1" fill-rule="nonzero"/><path fill="#578cb5" d="M 16.878906 20.941406 C 11.285156 20.941406 6.75 16.40625 6.75 10.8125 C 6.75 10.664062 6.765625 10.519531 6.769531 10.371094 C 6.03125 11.566406 5.597656 12.96875 5.597656 14.476562 C 5.597656 18.800781 9.105469 22.304688 13.429688 22.304688 C 15.101562 22.304688 16.644531 21.78125 17.917969 20.890625 C 17.574219 20.925781 17.226562 20.941406 16.878906 20.941406 Z M 16.878906 20.941406 " fill-opacity="1" fill-rule="nonzero"/></svg>