<svg xmlns="http://www.w3.org/2000/svg" xmlns:xlink="http://www.w3.org/1999/xlink" width="400" zoomAndPan="magnify" viewBox="0 0 300 37.5" height="50" preserveAspectRatio="xMidYMid meet" version="1.0"><defs><clipPath id="59a0f48bc2"><path d="M 2 1.664062 L 298 1.664062 L 298 35.710938 L 2 35.710938 Z M 2 1.664062 " clip-rule="nonzero"/></clipPath></defs><g clip-path="url(#59a0f48bc2)"><path fill="#ffc0cb" d="M 2.398438 9.394531 C 2.726562 10.167969 2.953125 10.738281 3.59375 11.082031 C 9 14.027344 14.371094 17.027344 19.800781 19.929688 C 28.957031 24.828125 38.46875 28.867188 48.542969 31.488281 C 53.417969 32.757812 58.363281 33.640625 63.363281 34.253906 C 70 35.066406 76.660156 35.355469 83.335938 35.195312 C 88.035156 35.082031 92.722656 34.753906 97.40625 34.277344 C 110.554688 32.941406 123.496094 30.414062 136.308594 27.269531 C 147.976562 24.402344 159.585938 21.316406 171.214844 18.292969 C 180.972656 15.753906 190.71875 13.160156 200.585938 11.078125 C 206.640625 9.800781 212.726562 8.667969 218.832031 7.648438 C 222.996094 6.949219 227.207031 6.460938 231.414062 6.042969 C 238.1875 5.371094 244.984375 5.046875 251.792969 5.242188 C 255.527344 5.351562 259.261719 5.507812 262.980469 5.824219 C 274.378906 6.800781 285.527344 8.953125 296.222656 13.148438 C 296.652344 13.316406 297.089844 13.445312 297.601562 13.4375 C 297.035156 13.140625 296.480469 12.824219 295.902344 12.558594 C 289.769531 9.71875 283.402344 7.535156 276.867188 5.824219 C 272.464844 4.671875 268.015625 3.730469 263.515625 3.089844 C 260.09375 2.605469 256.644531 2.261719 253.191406 2.023438 C 249.933594 1.800781 246.660156 1.671875 243.394531 1.722656 C 239.0625 1.789062 234.722656 1.957031 230.402344 2.28125 C 224.226562 2.746094 218.089844 3.578125 211.972656 4.582031 C 201.816406 6.25 191.769531 8.433594 181.796875 10.9375 C 169.824219 13.941406 157.886719 17.082031 145.921875 20.132812 C 136.179688 22.617188 126.402344 24.953125 116.515625 26.78125 C 111.308594 27.746094 106.070312 28.558594 100.824219 29.246094 C 96.300781 29.84375 91.75 30.273438 87.195312 30.578125 C 82.304688 30.910156 77.398438 31.03125 72.492188 30.703125 C 69.234375 30.488281 65.957031 30.390625 62.722656 29.988281 C 58.921875 29.519531 55.136719 28.882812 51.382812 28.136719 C 39.429688 25.769531 28.082031 21.601562 17.128906 16.316406 C 12.550781 14.105469 7.945312 11.945312 3.351562 9.769531 C 3.097656 9.648438 2.828125 9.5625 2.398438 9.394531 Z M 2.398438 9.394531 " fill-opacity="1" fill-rule="nonzero"/></g></svg>