<svg xmlns="http://www.w3.org/2000/svg" xmlns:xlink="http://www.w3.org/1999/xlink" width="200" zoomAndPan="magnify" viewBox="0 0 150 299.999988" height="400" preserveAspectRatio="xMidYMid meet" version="1.0"><defs><clipPath id="2cc1d264b0"><path d="M 37 0 L 150 0 L 150 300 L 37 300 Z M 37 0 " clip-rule="nonzero"/></clipPath><clipPath id="419f6ab9ba"><path d="M 331.523438 34.75 L 282.671875 325.421875 L -11.699219 275.949219 L 37.152344 -14.722656 Z M 331.523438 34.75 " clip-rule="nonzero"/></clipPath><clipPath id="f21be1c5a2"><path d="M 331.523438 34.75 L 282.671875 325.421875 L -11.699219 275.949219 L 37.152344 -14.722656 Z M 331.523438 34.75 " clip-rule="nonzero"/></clipPath><clipPath id="813143b1d8"><path d="M 43 9 L 150 9 L 150 267 L 43 267 Z M 43 9 " clip-rule="nonzero"/></clipPath><clipPath id="dde4fb1112"><path d="M 331.523438 34.75 L 282.671875 325.421875 L -11.699219 275.949219 L 37.152344 -14.722656 Z M 331.523438 34.75 " clip-rule="nonzero"/></clipPath><clipPath id="09e07bea72"><path d="M 331.523438 34.75 L 282.671875 325.421875 L -11.699219 275.949219 L 37.152344 -14.722656 Z M 331.523438 34.75 " clip-rule="nonzero"/></clipPath></defs><g clip-path="url(#2cc1d264b0)"><g clip-path="url(#419f6ab9ba)"><g clip-path="url(#f21be1c5a2)"><path fill="#ffc0cb" d="M 317.878906 92.574219 C 317.273438 117.210938 297.828125 137.109375 277.691406 151.789062 C 257.933594 166.535156 235.316406 179.617188 223.382812 201.566406 C 214.894531 217.023438 213.023438 235.164062 208.605469 252.09375 C 204.191406 269.023438 196.082031 286.902344 180.535156 295.285156 C 163.71875 304.238281 142.523438 299.496094 127.640625 287.574219 C 112.761719 275.648438 103.9375 258.0625 97.910156 240.167969 C 91.886719 222.269531 88.347656 203.609375 82.324219 185.714844 C 74.144531 161.957031 60.425781 138.445312 63.449219 113.429688 C 65.898438 91.851562 80.691406 73.917969 94.914062 57.066406 C 108.621094 40.914062 125.324219 23.300781 145.953125 24.410156 C 161.546875 25.070312 174.585938 36.292969 187.242188 45.09375 C 199.835938 54.28125 216.121094 62.515625 230.453125 56.675781 C 249.371094 49.253906 262.582031 24.378906 284.460938 41.40625 C 301.375 55.246094 318.609375 69.527344 317.878906 92.574219 Z M 241.605469 235.648438 C 244.125 255.707031 282.898438 253.976562 280.320312 231.945312 C 277.484375 209.085938 239.214844 214.828125 241.605469 235.648438 Z M 37.285156 19.109375 C 39.804688 39.164062 78.578125 37.433594 75.996094 15.402344 C 73.164062 -7.453125 34.894531 -1.714844 37.285156 19.109375 Z M 37.285156 19.109375 " fill-opacity="1" fill-rule="nonzero"/></g></g></g><g clip-path="url(#813143b1d8)"><g clip-path="url(#dde4fb1112)"><g clip-path="url(#09e07bea72)"><path fill="#578cb5" d="M 44.851562 168.027344 C 49.34375 141.296875 64.082031 116.675781 86.003906 100.726562 C 90.464844 97.550781 95.308594 94.4375 100.085938 91.707031 C 108.371094 86.816406 117.097656 81.605469 123.792969 74.484375 C 129.976562 68.0625 134.507812 59.792969 138.910156 52.285156 C 139.996094 50.507812 140.632812 49.042969 141.71875 47.261719 C 147.269531 37.59375 153.652344 27.667969 163.335938 21.441406 C 174.296875 14.644531 187.730469 14.15625 196.441406 20.722656 C 197.140625 21.234375 197.332031 22.445312 196.757812 23.527344 C 196.246094 24.226562 195.035156 24.414062 193.953125 23.839844 C 185.242188 17.269531 173.078125 19.546875 165.179688 24.5 C 155.9375 30.410156 150.070312 39.632812 144.582031 48.921875 C 143.5625 50.320312 142.859375 52.164062 141.773438 53.945312 C 137.304688 61.835938 132.773438 70.105469 126.144531 76.84375 C 119.003906 84.28125 110.210938 89.875 101.546875 94.699219 C 96.769531 97.429688 91.988281 100.164062 87.910156 103.402344 C 55.730469 126.660156 39.882812 169.546875 49.507812 208.078125 C 51.152344 214.636719 56.097656 229.605469 68.253906 232.042969 C 74.746094 233.132812 81.4375 230.722656 88.253906 227.546875 C 95.894531 224.121094 103.859375 221.140625 112.132812 223.316406 C 121.105469 226 125.613281 234.21875 129.742188 242.375 C 133.042969 248.425781 136.664062 254.925781 141.941406 258.5625 C 152.183594 265.386719 166.832031 259.996094 174.992188 251.15625 C 182.261719 242.953125 186.480469 231.882812 190.566406 221.574219 C 191.269531 219.730469 191.910156 218.265625 192.613281 216.421875 C 197.402344 204.269531 203.597656 190.78125 215.832031 183.410156 C 226.726562 176.996094 239.265625 177.140625 251.808594 177.285156 C 262.375 177.488281 273.773438 177.441406 283.136719 173.125 C 301.800781 164.875 309.21875 141.773438 306.824219 123.308594 C 304.238281 103.632812 293.1875 85.28125 281.429688 68.777344 C 275.710938 60.75 269.292969 52.207031 261.152344 46.914062 C 254.09375 42.191406 243.273438 38.804688 233.910156 43.121094 C 233.015625 43.757812 231.9375 43.183594 231.300781 42.289062 C 230.664062 41.398438 231.238281 40.316406 232.132812 39.679688 C 241.433594 35.746094 253.335938 37.355469 263.257812 43.734375 C 272.097656 49.539062 278.515625 58.078125 284.554688 66.554688 C 296.628906 83.503906 308.0625 101.917969 310.453125 122.738281 C 312.972656 142.796875 304.851562 167.742188 284.46875 176.882812 C 274.277344 181.453125 262.5 181.4375 251.484375 181.550781 C 238.941406 181.40625 227.546875 181.453125 217.542969 187.234375 C 206.203125 193.964844 200.136719 206.691406 195.855469 218.144531 C 195.152344 219.988281 194.515625 221.453125 193.8125 223.296875 C 189.660156 233.988281 185.761719 245.507812 177.601562 254.34375 C 168.417969 264.582031 151.347656 270.351562 139.328125 262.441406 C 132.964844 258.230469 129.410156 251.351562 125.789062 244.851562 C 121.597656 237.078125 117.660156 230.132812 110.214844 227.707031 C 103.46875 225.785156 96.335938 228.515625 89.136719 231.625 C 81.941406 234.734375 74.742188 237.84375 66.785156 236.113281 C 52.339844 233.292969 46.503906 216.605469 44.984375 209.28125 C 43.285156 196.039062 42.539062 181.777344 44.851562 168.027344 Z M 250.632812 247.375 C 252.207031 259.027344 264.296875 264.203125 275.121094 262.878906 C 285.117188 261.8125 294.484375 255.140625 292.972656 243.105469 C 292.15625 236.292969 288.34375 230.9375 282.105469 228.320312 C 274.40625 225.0625 264.410156 226.132812 257.273438 231.214844 C 253.257812 234.074219 251.089844 237.636719 250.320312 242.21875 C 250.761719 244.257812 250.507812 245.785156 250.632812 247.375 Z M 274.933594 259.3125 C 265.703125 260.511719 255.777344 256.488281 254.578125 247.253906 C 254.015625 241.269531 257.074219 237.070312 260.132812 235.230469 C 265.933594 231.097656 274.785156 229.839844 281.019531 232.457031 C 284.328125 233.796875 288.460938 237.242188 289.28125 244.054688 C 289.40625 245.644531 289.59375 246.855469 289.402344 248 C 288.246094 254.875 281.367188 258.433594 274.933594 259.3125 Z M 46.691406 30.898438 C 48.265625 42.550781 60.355469 47.722656 71.179688 46.402344 C 81.175781 45.332031 90.546875 38.660156 89.035156 26.625 C 88.214844 19.8125 84.402344 14.460938 78.167969 11.84375 C 70.46875 8.585938 60.472656 9.652344 53.335938 14.738281 C 49.320312 17.597656 47.148438 21.160156 46.378906 25.742188 C 46.441406 27.714844 46.183594 29.242188 46.691406 30.898438 Z M 48.28125 30.773438 Z M 70.613281 42.773438 C 61.378906 43.96875 51.453125 39.945312 50.257812 30.710938 C 49.691406 24.726562 52.753906 20.53125 55.8125 18.6875 C 61.609375 14.558594 70.460938 13.296875 76.695312 15.914062 C 80.003906 17.257812 84.140625 20.699219 84.957031 27.511719 C 85.082031 29.105469 85.273438 30.3125 85.078125 31.460938 C 83.925781 38.332031 77.042969 41.890625 70.613281 42.773438 Z M 70.613281 42.773438 " fill-opacity="1" fill-rule="nonzero"/></g></g></g></svg>