<svg xmlns="http://www.w3.org/2000/svg" xmlns:xlink="http://www.w3.org/1999/xlink" width="200" zoomAndPan="magnify" viewBox="0 0 150 299.999988" height="400" preserveAspectRatio="xMidYMid meet" version="1.0"><defs><clipPath id="8e8be1d1d2"><path d="M 0 35 L 149 35 L 149 300 L 0 300 Z M 0 35 " clip-rule="nonzero"/></clipPath><clipPath id="dc33f2759b"><path d="M 40.605469 -35.503906 L 173.195312 221.007812 L -42.671875 332.585938 L -175.261719 76.078125 Z M 40.605469 -35.503906 " clip-rule="nonzero"/></clipPath><clipPath id="97bc0d9641"><path d="M 40.605469 -35.503906 L 173.195312 221.007812 L -42.671875 332.585938 L -175.261719 76.078125 Z M 40.605469 -35.503906 " clip-rule="nonzero"/></clipPath><clipPath id="bba44b8e59"><path d="M 0 3 L 143 3 L 143 282 L 0 282 Z M 0 3 " clip-rule="nonzero"/></clipPath><clipPath id="7e8cf7f448"><path d="M 40.605469 -35.503906 L 173.195312 221.007812 L -42.671875 332.585938 L -175.261719 76.078125 Z M 40.605469 -35.503906 " clip-rule="nonzero"/></clipPath><clipPath id="4b914c2957"><path d="M 40.605469 -35.503906 L 173.195312 221.007812 L -42.671875 332.585938 L -175.261719 76.078125 Z M 40.605469 -35.503906 " clip-rule="nonzero"/></clipPath></defs><g clip-path="url(#8e8be1d1d2)"><g clip-path="url(#dc33f2759b)"><g clip-path="url(#97bc0d9641)"><path fill="#ffc0cb" d="M 35.113281 41.644531 C 68.042969 53.832031 92.871094 85.238281 97.941406 119.984375 C 101.898438 147.578125 94.082031 175.671875 81.441406 200.242188 C 68.464844 224.992188 50.660156 246.222656 32.855469 267.453125 C 24.625 277.289062 15.890625 287.816406 4.894531 294.789062 C -6.105469 301.765625 -20.050781 305.535156 -32.390625 301.605469 C -55.1875 294.0625 -62.390625 266 -66.460938 242.332031 C -70.359375 219.003906 -73.742188 195.839844 -77.640625 172.515625 C -82.679688 140.328125 -96.113281 80.265625 -68.128906 54.632812 C -44.351562 33.324219 7.328125 31.09375 35.113281 41.644531 Z M -148.9375 86.09375 C -149.503906 94.976562 -140.355469 102.703125 -131.308594 102.753906 C -121.585938 102.453125 -112.652344 93.96875 -111.925781 84.574219 C -109.417969 55.359375 -147.519531 64.746094 -148.9375 86.09375 Z M 111.253906 208.886719 C 110.691406 217.769531 119.839844 225.496094 128.882812 225.546875 C 138.605469 225.246094 147.539062 216.761719 148.265625 207.367188 C 150.773438 178.152344 112.671875 187.539062 111.253906 208.886719 Z M 111.253906 208.886719 " fill-opacity="1" fill-rule="nonzero"/></g></g></g><g clip-path="url(#bba44b8e59)"><g clip-path="url(#7e8cf7f448)"><g clip-path="url(#4b914c2957)"><path fill="#578cb5" d="M -83.027344 254.332031 C -85.652344 249.246094 -88.117188 243.648438 -90.078125 237.359375 C -103.066406 198.113281 -106.875 155.839844 -100.9375 114.972656 C -100.609375 113.945312 -99.769531 113.082031 -98.742188 113.410156 C -97.710938 113.738281 -96.847656 114.578125 -97.175781 115.605469 C -102.949219 155.960938 -99.3125 197.890625 -86.339844 236.285156 C -79.054688 257.859375 -69.320312 270.871094 -56.457031 275.816406 C -34.675781 283.886719 -11.871094 266.515625 -0.0742188 255.265625 C 24.191406 232.414062 43.4375 203.996094 56.335938 173.277344 C 66.582031 148.222656 76.828125 110.710938 66.601562 73.476562 C 56.746094 38.621094 28.742188 11.863281 -2.894531 7.167969 C -20.164062 4.5 -39.203125 10.046875 -53.898438 21.507812 C -66.730469 31.578125 -74.226562 45.328125 -75.738281 59.855469 C -75.726562 60.707031 -76.90625 61.75 -77.761719 61.761719 C -78.613281 61.773438 -79.652344 60.589844 -79.664062 59.738281 C -78.339844 44.019531 -70.003906 29.402344 -56.492188 18.980469 C -41.292969 6.832031 -21.0625 1.097656 -2.9375 3.757812 C 30.0625 8.605469 59.449219 36.367188 69.664062 72.75 C 80.242188 110.664062 69.664062 149.203125 59.257812 174.773438 C 46.195312 206.007812 26.613281 234.597656 2.179688 257.964844 C -10.292969 269.566406 -34.617188 288.152344 -58.117188 279.253906 C -68.234375 275.464844 -76.367188 267.210938 -83.027344 254.332031 Z M -153.515625 113.804688 C -149.707031 117.847656 -144.214844 120.164062 -138.757812 119.917969 C -128.179688 119.605469 -118.234375 110.597656 -117.351562 99.835938 C -116.636719 89.585938 -120.457031 84.6875 -123.90625 82.175781 C -129.246094 78.492188 -136.921875 78.597656 -144.214844 81.9375 C -152.527344 85.800781 -157.71875 93.210938 -158.292969 101.238281 C -158.597656 103.972656 -158.046875 106.695312 -156.644531 109.40625 C -155.769531 111.101562 -154.730469 112.285156 -153.515625 113.804688 Z M -121.28125 99.71875 C -122.019531 108.261719 -130.109375 115.878906 -138.976562 116.167969 C -143.242188 116.226562 -147.707031 114.238281 -150.992188 111.210938 C -153.757812 108.34375 -154.996094 105.121094 -154.527344 101.871094 C -153.953125 93.84375 -148.050781 88.644531 -142.628906 85.839844 C -136.351562 83.023438 -130.378906 82.945312 -126.078125 85.449219 C -124.699219 86.453125 -123.660156 87.632812 -122.785156 89.328125 C -121.382812 92.039062 -121 95.277344 -121.28125 99.71875 Z M 106.675781 236.597656 C 110.484375 240.640625 115.976562 242.957031 121.433594 242.710938 C 132.011719 242.398438 141.957031 233.390625 142.839844 222.628906 C 143.554688 212.378906 139.734375 207.480469 136.285156 204.96875 C 130.949219 201.285156 123.269531 201.390625 115.976562 204.730469 C 107.664062 208.59375 102.476562 216.003906 101.898438 224.03125 C 101.59375 226.765625 102.144531 229.488281 103.546875 232.199219 C 104.421875 233.894531 105.636719 235.414062 106.675781 236.597656 Z M 138.910156 222.511719 C 138.171875 231.054688 130.082031 238.671875 121.214844 238.960938 C 116.949219 239.019531 112.484375 237.03125 109.203125 234.003906 C 106.433594 231.136719 105.195312 227.914062 105.664062 224.664062 C 106.238281 216.636719 112.140625 211.4375 117.5625 208.632812 C 123.839844 205.816406 129.8125 205.738281 134.113281 208.238281 C 135.492188 209.246094 136.53125 210.425781 137.40625 212.121094 C 138.808594 214.832031 139.367188 218.410156 138.910156 222.511719 Z M 138.910156 222.511719 " fill-opacity="1" fill-rule="nonzero"/></g></g></g></svg>