<svg xmlns="http://www.w3.org/2000/svg" xmlns:xlink="http://www.w3.org/1999/xlink" width="170" zoomAndPan="magnify" viewBox="0 0 127.5 37.5" height="50" preserveAspectRatio="xMidYMid meet" version="1.0"><path fill="#ffc0cb" d="M 2.421875 15.871094 C 8.445312 10.890625 14.597656 6.125 20.800781 1.371094 C 23.257812 -0.507812 25.699219 3.054688 23.617188 5.089844 C 21.074219 7.578125 18.539062 10.058594 15.984375 12.515625 C 22.253906 11.953125 28.667969 12.136719 34.839844 12.195312 C 45.003906 12.292969 55.164062 12.542969 65.328125 12.644531 C 75.25 12.742188 85.171875 12.84375 95.09375 13.015625 C 100.070312 13.105469 105.046875 13.199219 110.015625 13.484375 C 114.738281 13.75 119.230469 14.890625 123.902344 15.375 C 125.949219 15.585938 126.355469 18.894531 124.125 19.125 C 119.144531 19.648438 114.371094 20.820312 109.339844 21.066406 C 104.542969 21.300781 99.753906 21.445312 94.957031 21.527344 C 84.882812 21.699219 74.8125 21.792969 64.742188 21.890625 C 54.90625 21.984375 45.085938 22.199219 35.25 22.324219 C 29.046875 22.398438 22.476562 22.660156 16.09375 22.097656 C 17.660156 23.183594 19.21875 24.273438 20.789062 25.359375 C 24.339844 27.835938 28.984375 30.339844 30.851562 34.417969 C 31.367188 35.550781 30.597656 36.996094 29.257812 36.910156 C 24.34375 36.59375 19.964844 32.746094 16.011719 30.078125 C 11.65625 27.140625 7.292969 24.195312 2.9375 21.257812 C 1.210938 20.097656 0.660156 17.328125 2.421875 15.871094 Z M 2.421875 15.871094 " fill-opacity="1" fill-rule="nonzero"/></svg>