<svg xmlns="http://www.w3.org/2000/svg" xmlns:xlink="http://www.w3.org/1999/xlink" width="800" zoomAndPan="magnify" viewBox="0 0 600 412.499988" height="550" preserveAspectRatio="xMidYMid meet" version="1.0"><defs><clipPath id="9481bdf11b"><path d="M 1 8 L 599.636719 8 L 599.636719 404 L 1 404 Z M 1 8 " clip-rule="nonzero"/></clipPath><clipPath id="c4206e7be1"><path d="M 599.636719 300.503906 L 599.636719 343.878906 C 599.636719 379.582031 568.632812 407.296875 533.242188 403.539062 L 129.394531 360.164062 C 102.304688 357.1875 81.164062 336.675781 76.621094 310.679688 L 70.359375 311.152344 C 36.535156 313.65625 7.410156 287.820312 5.84375 253.996094 L 1.929688 169.75 C 0.363281 134.984375 28.394531 106.488281 63 107.113281 L 57.988281 78.300781 C 51.253906 39.308594 83.355469 4.703125 122.660156 8.304688 L 537 46.042969 C 565.5 48.703125 588.207031 71.097656 591.179688 99.597656 L 592.746094 114.003906 C 596.503906 149.394531 568.632812 180.242188 533.085938 180.242188 L 507.71875 180.242188 C 507.71875 181.492188 507.875 182.746094 507.875 183.84375 L 507.875 222.519531 C 507.875 228.785156 506.933594 234.890625 505.054688 240.683594 L 539.503906 240.683594 C 572.703125 240.527344 599.636719 267.460938 599.636719 300.503906 Z M 599.636719 300.503906 " clip-rule="nonzero"/></clipPath></defs><g clip-path="url(#9481bdf11b)"><g clip-path="url(#c4206e7be1)"><path fill="#000000" d="M 0.363281 4.703125 L 599.636719 4.703125 L 599.636719 407.296875 L 0.363281 407.296875 Z M 0.363281 4.703125 " fill-opacity="1" fill-rule="nonzero"/></g></g></svg>