<svg xmlns="http://www.w3.org/2000/svg" xmlns:xlink="http://www.w3.org/1999/xlink" width="40" zoomAndPan="magnify" viewBox="0 0 30 30.000001" height="40" preserveAspectRatio="xMidYMid meet" version="1.0"><defs><clipPath id="67616b0f7f"><path d="M 2.054688 8.609375 L 27.933594 8.609375 L 27.933594 20.222656 L 2.054688 20.222656 Z M 2.054688 8.609375 " clip-rule="nonzero"/></clipPath></defs><g clip-path="url(#67616b0f7f)"><path fill="#ffffff" d="M 1.988281 13.242188 C 2.058594 12.921875 2.285156 12.59375 2.253906 12.335938 C 2.144531 11.398438 2.722656 11.113281 3.453125 10.882812 C 6.515625 9.890625 9.636719 9.128906 12.851562 8.75 C 14 8.613281 14.28125 8.914062 14.027344 10.011719 C 13.996094 10.148438 13.941406 10.28125 13.90625 10.414062 C 13.777344 10.871094 13.429688 11.082031 12.996094 11.003906 C 12.574219 10.925781 12.191406 11.023438 11.804688 11.101562 C 10.816406 11.292969 9.835938 11.515625 8.847656 11.726562 C 8.820312 11.777344 8.8125 11.832031 8.835938 11.886719 C 9.898438 11.976562 10.960938 12.097656 12.023438 12.144531 C 14.753906 12.261719 17.433594 12.902344 20.195312 12.777344 C 21.507812 12.71875 22.84375 12.929688 24.152344 13.113281 C 25.183594 13.257812 26.230469 13.179688 27.25 13.394531 C 27.769531 13.5 27.867188 13.628906 27.558594 14.042969 C 26.953125 14.867188 26.316406 15.6875 25.054688 15.421875 C 24.832031 15.375 24.59375 15.398438 24.363281 15.375 C 22.210938 15.164062 20.050781 15.042969 17.894531 14.910156 C 15.5625 14.765625 13.230469 14.613281 10.902344 14.457031 C 10.121094 14.40625 9.347656 14.332031 8.492188 14.265625 C 8.730469 14.640625 9.039062 14.75 9.292969 14.917969 C 10.15625 15.492188 10.917969 16.171875 11.707031 16.832031 C 12.914062 17.832031 12.398438 19.171875 11.808594 19.992188 C 11.699219 20.144531 11.558594 20.230469 11.402344 20.023438 C 10.9375 19.390625 10.25 19.015625 9.613281 18.582031 C 7.796875 17.339844 5.894531 16.226562 3.992188 15.113281 C 3.496094 14.824219 3 14.539062 2.503906 14.257812 C 2.097656 14.03125 1.867188 13.785156 1.988281 13.242188 Z M 8.496094 11.765625 C 8.480469 11.757812 8.46875 11.757812 8.453125 11.746094 C 8.464844 11.757812 8.476562 11.765625 8.488281 11.769531 C 8.488281 11.769531 8.492188 11.769531 8.496094 11.765625 Z M 8.496094 11.765625 " fill-opacity="1" fill-rule="nonzero"/></g></svg>