<svg xmlns="http://www.w3.org/2000/svg" xmlns:xlink="http://www.w3.org/1999/xlink" width="40" zoomAndPan="magnify" viewBox="0 0 30 30.000001" height="40" preserveAspectRatio="xMidYMid meet" version="1.0"><defs><clipPath id="98dd08c906"><path d="M 0.484375 0 L 29.515625 0 L 29.515625 28.996094 L 0.484375 28.996094 Z M 0.484375 0 " clip-rule="nonzero"/></clipPath></defs><g clip-path="url(#98dd08c906)"><path fill="#ffc0cb" d="M 27.0625 14.480469 C 27.0625 21.132812 21.652344 26.542969 15 26.542969 C 8.347656 26.542969 2.9375 21.132812 2.9375 14.480469 C 2.9375 7.828125 8.347656 2.417969 15 2.417969 C 21.652344 2.417969 27.0625 7.828125 27.0625 14.480469 Z M 25.261719 4.214844 C 22.523438 1.476562 18.878906 -0.0351562 15 -0.0351562 C 11.121094 -0.0351562 7.476562 1.476562 4.738281 4.214844 C 1.996094 6.957031 0.484375 10.601562 0.484375 14.480469 C 0.484375 18.355469 1.996094 22.003906 4.738281 24.742188 C 7.476562 27.484375 11.121094 28.996094 15 28.996094 C 18.878906 28.996094 22.523438 27.484375 25.261719 24.742188 C 28.003906 22.003906 29.515625 18.355469 29.515625 14.480469 C 29.515625 10.601562 28.003906 6.957031 25.261719 4.214844 " fill-opacity="1" fill-rule="nonzero"/></g><path fill="#ffc0cb" d="M 21.4375 9.007812 L 13.480469 16.964844 L 10.171875 13.65625 L 7.929688 15.898438 L 13.480469 21.445312 L 23.679688 11.246094 L 21.4375 9.007812 " fill-opacity="1" fill-rule="nonzero"/></svg>