<svg xmlns="http://www.w3.org/2000/svg" xmlns:xlink="http://www.w3.org/1999/xlink" width="400" zoomAndPan="magnify" viewBox="0 0 300 74.999997" height="100" preserveAspectRatio="xMidYMid meet" version="1.0"><defs><clipPath id="15f6af3ce5"><path d="M 0 0.746094 L 300 0.746094 L 300 74.183594 L 0 74.183594 Z M 0 0.746094 " clip-rule="nonzero"/></clipPath></defs><g clip-path="url(#15f6af3ce5)"><path fill="#ffc0cb" d="M 54.382812 72.546875 C 54.867188 72.539062 55.34375 72.507812 55.828125 72.453125 C 56.367188 72.375 56.898438 72.277344 57.429688 72.148438 C 57.941406 72.011719 58.4375 71.851562 58.933594 71.664062 C 59.441406 71.453125 59.933594 71.21875 60.417969 70.953125 C 60.917969 70.652344 61.398438 70.332031 61.867188 69.988281 C 62.667969 69.375 63.421875 68.71875 64.152344 68.023438 C 65.03125 67.160156 65.855469 66.25 66.625 65.289062 C 66.953125 64.859375 67.257812 64.417969 67.539062 63.957031 C 67.839844 63.414062 68.105469 62.863281 68.347656 62.289062 C 68.347656 62.296875 68.34375 62.304688 68.339844 62.308594 C 68.535156 61.816406 68.703125 61.320312 68.855469 60.816406 C 69.113281 59.832031 69.289062 58.832031 69.429688 57.824219 C 69.484375 57.382812 69.535156 56.941406 69.566406 56.496094 C 69.601562 55.996094 69.617188 55.492188 69.617188 54.988281 C 69.605469 53.683594 69.515625 52.386719 69.359375 51.09375 C 69.171875 49.699219 68.921875 48.3125 68.582031 46.945312 C 68.296875 45.886719 67.945312 44.851562 67.539062 43.832031 C 67.554688 43.867188 67.566406 43.902344 67.578125 43.933594 C 67.355469 43.40625 67.113281 42.890625 66.84375 42.378906 C 66.675781 42.089844 66.5 41.804688 66.3125 41.527344 C 65.953125 41.664062 65.601562 41.800781 65.25 41.941406 C 63.609375 42.609375 62.003906 43.351562 60.457031 44.207031 C 60.457031 44.203125 60.460938 44.199219 60.460938 44.199219 C 59.21875 44.898438 58.019531 45.667969 56.867188 46.511719 C 55.75 47.355469 54.683594 48.265625 53.675781 49.234375 C 52.730469 50.167969 51.847656 51.152344 51.019531 52.1875 C 50.175781 53.28125 49.398438 54.417969 48.695312 55.609375 C 48.132812 56.59375 47.636719 57.597656 47.1875 58.632812 C 47.191406 58.628906 47.191406 58.625 47.195312 58.621094 C 47.191406 58.625 47.191406 58.628906 47.1875 58.632812 C 47.175781 58.664062 47.164062 58.695312 47.148438 58.726562 C 47.160156 58.699219 47.171875 58.675781 47.183594 58.648438 C 46.921875 59.28125 46.6875 59.917969 46.503906 60.574219 C 46.351562 61.175781 46.238281 61.777344 46.152344 62.390625 C 46.105469 62.820312 46.070312 63.246094 46.0625 63.679688 C 46.066406 64.105469 46.089844 64.527344 46.132812 64.949219 C 46.203125 65.460938 46.296875 65.957031 46.421875 66.457031 C 46.417969 66.421875 46.40625 66.386719 46.398438 66.351562 C 46.496094 66.683594 46.601562 67.011719 46.722656 67.339844 C 46.878906 67.714844 47.050781 68.082031 47.246094 68.441406 C 47.414062 68.730469 47.59375 69.007812 47.789062 69.285156 C 47.996094 69.550781 48.210938 69.816406 48.441406 70.066406 C 48.671875 70.292969 48.917969 70.507812 49.167969 70.714844 C 49.507812 70.976562 49.863281 71.21875 50.234375 71.445312 C 50.617188 71.664062 51.011719 71.859375 51.417969 72.035156 C 51.664062 72.125 51.910156 72.203125 52.15625 72.273438 C 52.519531 72.355469 52.878906 72.429688 53.246094 72.484375 C 53.625 72.523438 54 72.539062 54.382812 72.546875 Z M 51.128906 73.753906 C 50.855469 73.667969 50.589844 73.546875 50.328125 73.429688 C 50.0625 73.304688 49.800781 73.171875 49.542969 73.023438 C 49.023438 72.722656 48.515625 72.402344 48.054688 72.019531 C 47.636719 71.671875 47.230469 71.308594 46.878906 70.890625 C 46.496094 70.445312 46.148438 69.96875 45.855469 69.457031 C 45.296875 68.496094 44.894531 67.464844 44.644531 66.386719 C 44.390625 65.308594 44.316406 64.191406 44.367188 63.085938 C 44.390625 62.542969 44.46875 61.996094 44.558594 61.460938 C 44.660156 60.859375 44.800781 60.269531 44.976562 59.6875 C 45.152344 59.101562 45.375 58.53125 45.613281 57.964844 C 45.886719 57.324219 46.171875 56.691406 46.492188 56.070312 C 48.875 51.441406 52.460938 47.460938 56.730469 44.5 C 58.714844 43.125 60.84375 41.988281 63.046875 41.011719 C 63.734375 40.703125 64.429688 40.414062 65.132812 40.136719 C 64.722656 39.742188 64.292969 39.367188 63.84375 39.011719 C 63.246094 38.558594 62.628906 38.144531 61.984375 37.757812 C 61.144531 37.273438 60.28125 36.847656 59.390625 36.472656 C 58.527344 36.125 57.648438 35.820312 56.753906 35.570312 C 56.128906 35.410156 55.503906 35.289062 54.863281 35.199219 C 53.839844 35.082031 52.8125 35.023438 51.78125 35.015625 C 50.722656 35.027344 49.675781 35.113281 48.625 35.246094 C 48.660156 35.238281 48.695312 35.234375 48.734375 35.234375 C 47.578125 35.390625 46.4375 35.609375 45.304688 35.890625 C 43.226562 36.4375 41.199219 37.144531 39.203125 37.933594 C 36.179688 39.152344 33.238281 40.554688 30.386719 42.136719 C 28.960938 42.941406 27.5625 43.789062 26.195312 44.6875 C 24.648438 45.695312 23.148438 46.78125 21.667969 47.878906 C 21.695312 47.855469 21.726562 47.835938 21.757812 47.8125 C 20.226562 48.964844 18.707031 50.136719 17.238281 51.363281 C 15.726562 52.621094 14.273438 53.941406 12.863281 55.308594 C 12.867188 55.308594 12.867188 55.308594 12.867188 55.304688 C 11.605469 56.546875 10.394531 57.832031 9.21875 59.15625 C 8.046875 60.46875 6.90625 61.808594 5.804688 63.183594 C 5.335938 63.789062 4.871094 64.398438 4.4375 65.03125 C 4.011719 65.660156 3.601562 66.304688 3.210938 66.957031 C 3.074219 67.199219 2.941406 67.441406 2.816406 67.691406 C 2.65625 68 2.523438 68.324219 2.382812 68.644531 C 2.234375 69.015625 2.105469 69.390625 1.992188 69.78125 C 1.898438 70.152344 1.816406 70.535156 1.753906 70.917969 C 1.738281 71.054688 1.726562 71.1875 1.722656 71.320312 C 2.109375 71.386719 2.425781 71.695312 2.453125 72.113281 C 2.480469 72.570312 2.117188 73.007812 1.648438 73.019531 C 1.425781 73.027344 1.207031 73.035156 0.988281 72.96875 C 0.597656 72.855469 0.304688 72.566406 0.144531 72.199219 C -0.0390625 71.777344 -0.015625 71.285156 0.0390625 70.839844 C 0.105469 70.304688 0.210938 69.773438 0.359375 69.257812 C 0.539062 68.632812 0.773438 68.035156 1.039062 67.445312 C 1.316406 66.820312 1.648438 66.234375 2 65.648438 C 2.753906 64.390625 3.609375 63.1875 4.523438 62.046875 C 5.394531 60.960938 6.292969 59.902344 7.203125 58.851562 C 8.191406 57.710938 9.203125 56.597656 10.25 55.511719 C 12.371094 53.3125 14.636719 51.253906 17.011719 49.328125 C 19.292969 47.480469 21.644531 45.722656 24.058594 44.054688 C 26.128906 42.625 28.285156 41.3125 30.5 40.117188 C 32.6875 38.9375 34.933594 37.863281 37.222656 36.894531 C 39.992188 35.730469 42.839844 34.679688 45.777344 34.015625 C 47.199219 33.695312 48.648438 33.476562 50.109375 33.367188 C 51.5625 33.253906 53.03125 33.285156 54.484375 33.433594 C 55.160156 33.5 55.824219 33.601562 56.488281 33.738281 C 57.230469 33.894531 57.957031 34.128906 58.671875 34.367188 C 60.011719 34.820312 61.300781 35.410156 62.535156 36.097656 C 63.703125 36.75 64.8125 37.523438 65.808594 38.417969 C 66.183594 38.757812 66.542969 39.109375 66.878906 39.488281 C 67.789062 39.167969 68.703125 38.878906 69.625 38.617188 C 71.128906 38.1875 72.652344 37.871094 74.195312 37.644531 C 75.882812 37.394531 77.578125 37.25 79.277344 37.125 C 80.964844 37 82.660156 36.910156 84.347656 36.796875 C 86.085938 36.683594 87.816406 36.496094 89.546875 36.28125 C 89.507812 36.285156 89.472656 36.289062 89.4375 36.292969 C 94.15625 35.6875 98.855469 34.832031 103.46875 33.652344 C 103.445312 33.65625 103.425781 33.660156 103.402344 33.667969 C 105.039062 33.238281 106.667969 32.78125 108.273438 32.257812 C 109.832031 31.753906 111.371094 31.199219 112.894531 30.59375 C 115.429688 29.5625 117.894531 28.382812 120.292969 27.054688 C 120.261719 27.070312 120.226562 27.089844 120.195312 27.105469 C 121.359375 26.449219 122.507812 25.761719 123.625 25.027344 C 124.679688 24.335938 125.707031 23.609375 126.722656 22.859375 C 129.042969 21.121094 131.246094 19.242188 133.375 17.277344 C 135.328125 15.472656 137.226562 13.613281 139.128906 11.757812 C 140.945312 9.992188 142.78125 8.257812 144.78125 6.695312 C 146.675781 5.214844 148.699219 3.902344 150.84375 2.816406 C 152.660156 1.902344 154.601562 1.191406 156.621094 0.882812 C 158.183594 0.644531 159.835938 0.699219 161.328125 1.257812 C 162.5625 1.722656 163.644531 2.59375 164.269531 3.761719 C 164.425781 4.054688 164.527344 4.386719 164.609375 4.710938 C 164.703125 5.097656 164.75 5.488281 164.777344 5.878906 C 164.832031 6.714844 164.761719 7.558594 164.628906 8.375 C 164.484375 9.273438 164.25 10.160156 163.933594 11.015625 C 163.761719 11.480469 163.558594 11.933594 163.335938 12.375 C 163.015625 13.007812 162.605469 13.585938 162.1875 14.160156 C 161.472656 15.136719 160.667969 16.050781 159.84375 16.933594 C 159.03125 17.800781 158.167969 18.617188 157.292969 19.417969 C 155.570312 20.996094 153.777344 22.496094 151.945312 23.941406 C 149.894531 25.566406 147.796875 27.125 145.71875 28.71875 C 142.519531 31.179688 139.34375 33.695312 136.425781 36.492188 C 136.339844 36.582031 136.253906 36.675781 136.15625 36.753906 C 136.136719 36.773438 136.117188 36.796875 136.097656 36.816406 C 135.886719 37.023438 135.675781 37.234375 135.46875 37.445312 C 134.636719 38.300781 133.851562 39.207031 133.109375 40.144531 C 132.597656 40.820312 132.113281 41.511719 131.679688 42.238281 C 131.242188 43.003906 130.855469 43.789062 130.515625 44.601562 C 130.25 45.269531 130.019531 45.945312 129.824219 46.640625 C 129.6875 47.183594 129.578125 47.730469 129.492188 48.285156 C 129.453125 48.609375 129.429688 48.933594 129.417969 49.257812 C 129.425781 49.671875 129.449219 50.078125 129.496094 50.492188 C 129.527344 50.726562 129.570312 50.953125 129.617188 51.1875 C 129.671875 51.398438 129.738281 51.601562 129.816406 51.804688 C 129.882812 51.960938 129.953125 52.105469 130.03125 52.253906 C 130.15625 52.46875 130.292969 52.679688 130.4375 52.882812 C 130.617188 53.105469 130.800781 53.316406 130.996094 53.523438 C 131.4375 53.964844 131.914062 54.367188 132.402344 54.757812 C 132.863281 55.109375 133.332031 55.441406 133.824219 55.742188 C 134.425781 56.074219 135.039062 56.371094 135.671875 56.640625 C 136.289062 56.886719 136.914062 57.097656 137.550781 57.28125 C 138.164062 57.433594 138.777344 57.558594 139.402344 57.644531 C 139.941406 57.699219 140.480469 57.730469 141.023438 57.738281 C 141.558594 57.726562 142.089844 57.695312 142.625 57.636719 C 143.15625 57.558594 143.675781 57.453125 144.199219 57.328125 C 144.726562 57.1875 145.238281 57.027344 145.746094 56.835938 C 146.414062 56.546875 147.058594 56.21875 147.695312 55.871094 C 148.617188 55.34375 149.5 54.765625 150.355469 54.136719 C 151.289062 53.421875 152.175781 52.65625 153.023438 51.839844 C 154.21875 50.660156 155.320312 49.398438 156.363281 48.082031 C 157.957031 46.019531 159.375 43.84375 160.695312 41.601562 C 162.148438 39.109375 163.484375 36.558594 164.917969 34.054688 C 166.269531 31.683594 167.714844 29.359375 169.257812 27.109375 C 170.628906 25.113281 172.082031 23.167969 173.71875 21.390625 C 175.210938 19.769531 176.894531 18.332031 178.699219 17.082031 C 180.410156 15.898438 182.285156 14.988281 184.257812 14.335938 C 186.148438 13.710938 188.125 13.34375 190.101562 13.140625 C 193.664062 12.773438 197.269531 13.183594 200.683594 14.253906 C 202.75 14.902344 204.738281 15.78125 206.734375 16.613281 C 206.722656 16.605469 206.707031 16.601562 206.695312 16.597656 C 208.597656 17.386719 210.511719 18.160156 212.503906 18.703125 C 213.402344 18.941406 214.3125 19.136719 215.238281 19.277344 C 215.382812 19.296875 215.539062 19.308594 215.683594 19.339844 C 216.648438 19.464844 217.621094 19.519531 218.59375 19.527344 C 219.761719 19.523438 220.925781 19.445312 222.082031 19.304688 C 223.496094 19.117188 224.890625 18.835938 226.273438 18.480469 C 226.257812 18.484375 226.242188 18.488281 226.226562 18.492188 C 227.316406 18.207031 228.394531 17.898438 229.457031 17.53125 C 230.632812 17.125 231.800781 16.683594 232.957031 16.21875 C 232.933594 16.230469 232.910156 16.238281 232.882812 16.25 C 235.21875 15.304688 237.515625 14.273438 239.789062 13.199219 C 242.046875 12.140625 244.296875 11.054688 246.539062 9.96875 C 247.652344 9.425781 248.765625 8.878906 249.894531 8.363281 C 251.007812 7.851562 252.144531 7.382812 253.285156 6.925781 C 256.027344 5.824219 258.800781 4.808594 261.636719 3.976562 C 264.355469 3.175781 267.097656 2.484375 269.878906 1.957031 C 271.164062 1.714844 272.457031 1.515625 273.753906 1.363281 C 275.078125 1.203125 276.421875 1.144531 277.753906 1.132812 C 280.429688 1.109375 283.109375 1.324219 285.761719 1.660156 C 288.054688 1.949219 290.335938 2.34375 292.585938 2.867188 C 293.847656 3.160156 295.097656 3.496094 296.320312 3.910156 C 297.421875 4.289062 298.503906 4.734375 299.554688 5.242188 C 299.976562 5.445312 300.148438 5.976562 299.941406 6.390625 C 299.734375 6.8125 299.214844 6.980469 298.796875 6.777344 C 298.335938 6.558594 297.875 6.347656 297.40625 6.152344 C 296.210938 5.664062 294.988281 5.261719 293.742188 4.921875 C 291.15625 4.238281 288.523438 3.757812 285.871094 3.402344 C 283.339844 3.074219 280.789062 2.863281 278.234375 2.84375 C 278.273438 2.84375 278.308594 2.84375 278.347656 2.84375 C 276.757812 2.84375 275.175781 2.917969 273.597656 3.105469 C 270.804688 3.464844 268.035156 4.035156 265.304688 4.738281 C 265.324219 4.730469 265.34375 4.726562 265.359375 4.722656 C 263.429688 5.226562 261.515625 5.777344 259.621094 6.40625 C 257.695312 7.039062 255.804688 7.765625 253.925781 8.511719 C 253.957031 8.5 253.992188 8.488281 254.027344 8.476562 C 252.886719 8.933594 251.75 9.398438 250.628906 9.910156 C 249.503906 10.425781 248.394531 10.972656 247.28125 11.515625 C 245.035156 12.601562 242.785156 13.683594 240.53125 14.746094 C 238.246094 15.828125 235.941406 16.863281 233.59375 17.808594 C 232.402344 18.289062 231.203125 18.738281 229.992188 19.160156 C 228.878906 19.550781 227.742188 19.871094 226.597656 20.164062 C 224.617188 20.671875 222.601562 21.03125 220.558594 21.175781 C 218.859375 21.296875 217.152344 21.253906 215.464844 21.035156 C 215.425781 21.03125 215.390625 21.03125 215.355469 21.023438 C 215.207031 21.003906 215.054688 20.980469 214.902344 20.957031 C 213.027344 20.675781 211.191406 20.164062 209.410156 19.519531 C 208.53125 19.199219 207.667969 18.847656 206.800781 18.492188 C 206.390625 18.324219 205.976562 18.152344 205.5625 17.976562 C 205.355469 17.894531 205.152344 17.808594 204.945312 17.722656 C 204.832031 17.671875 204.707031 17.628906 204.59375 17.574219 C 204.542969 17.554688 204.488281 17.53125 204.4375 17.507812 C 204.304688 17.453125 204.164062 17.398438 204.03125 17.339844 C 202.414062 16.671875 200.777344 16.039062 199.089844 15.570312 C 198.011719 15.285156 196.921875 15.070312 195.816406 14.917969 C 194.851562 14.800781 193.882812 14.738281 192.914062 14.726562 C 191.777344 14.722656 190.644531 14.792969 189.515625 14.929688 C 189.550781 14.925781 189.585938 14.921875 189.621094 14.914062 C 188.464844 15.0625 187.320312 15.277344 186.191406 15.558594 C 185.265625 15.804688 184.355469 16.097656 183.464844 16.445312 C 182.707031 16.757812 181.972656 17.113281 181.253906 17.507812 C 181.257812 17.503906 181.261719 17.5 181.265625 17.5 C 180.414062 17.984375 179.601562 18.527344 178.8125 19.105469 C 177.804688 19.867188 176.84375 20.691406 175.9375 21.566406 C 174.886719 22.609375 173.917969 23.726562 173.003906 24.882812 C 170.753906 27.777344 168.761719 30.871094 166.90625 34.027344 C 166.929688 33.996094 166.945312 33.960938 166.964844 33.929688 C 165.515625 36.417969 164.171875 38.96875 162.746094 41.472656 C 161.328125 43.964844 159.800781 46.40625 158.058594 48.683594 C 156.367188 50.898438 154.492188 52.988281 152.332031 54.757812 C 151.289062 55.617188 150.1875 56.398438 149.019531 57.082031 C 147.910156 57.734375 146.761719 58.324219 145.535156 58.730469 C 143.300781 59.464844 140.90625 59.617188 138.585938 59.257812 C 137.386719 59.070312 136.210938 58.703125 135.085938 58.25 C 133.902344 57.78125 132.773438 57.171875 131.75 56.414062 C 130.710938 55.644531 129.703125 54.792969 128.945312 53.742188 C 128.289062 52.828125 127.917969 51.777344 127.789062 50.660156 C 127.730469 50.132812 127.699219 49.597656 127.710938 49.066406 C 127.726562 48.464844 127.808594 47.867188 127.921875 47.277344 C 128.164062 46.011719 128.578125 44.800781 129.070312 43.613281 C 130.253906 40.773438 132.203125 38.347656 134.332031 36.15625 C 134.542969 35.945312 134.753906 35.734375 134.96875 35.527344 C 134.96875 35.519531 134.976562 35.519531 134.976562 35.511719 C 134.996094 35.492188 135.019531 35.472656 135.039062 35.453125 C 135.070312 35.421875 135.101562 35.394531 135.132812 35.367188 C 135.148438 35.351562 135.164062 35.335938 135.179688 35.316406 C 135.375 35.125 135.574219 34.9375 135.769531 34.75 C 136.195312 34.347656 136.628906 33.957031 137.066406 33.566406 C 137.941406 32.777344 138.84375 32.015625 139.75 31.265625 C 141.707031 29.652344 143.710938 28.101562 145.722656 26.5625 C 147.820312 24.957031 149.941406 23.382812 151.988281 21.707031 C 153.917969 20.132812 155.816406 18.511719 157.605469 16.773438 C 158.660156 15.722656 159.652344 14.621094 160.574219 13.453125 C 160.96875 12.933594 161.339844 12.402344 161.675781 11.839844 C 161.839844 11.539062 161.996094 11.230469 162.132812 10.914062 C 162.339844 10.398438 162.515625 9.871094 162.671875 9.335938 C 162.800781 8.820312 162.910156 8.300781 162.988281 7.773438 C 163.039062 7.34375 163.070312 6.914062 163.082031 6.480469 C 163.078125 6.191406 163.0625 5.90625 163.039062 5.621094 C 163.011719 5.449219 162.980469 5.273438 162.941406 5.105469 C 162.90625 4.972656 162.863281 4.84375 162.816406 4.710938 C 162.777344 4.613281 162.734375 4.523438 162.6875 4.429688 C 162.628906 4.339844 162.570312 4.25 162.507812 4.160156 C 162.414062 4.042969 162.3125 3.925781 162.203125 3.808594 C 162.089844 3.703125 161.976562 3.597656 161.855469 3.5 C 161.699219 3.378906 161.535156 3.269531 161.367188 3.167969 C 161.207031 3.078125 161.042969 3 160.878906 2.925781 C 160.652344 2.835938 160.429688 2.757812 160.195312 2.691406 C 159.941406 2.628906 159.6875 2.578125 159.425781 2.535156 C 159.082031 2.496094 158.734375 2.472656 158.386719 2.464844 C 157.957031 2.46875 157.53125 2.5 157.105469 2.542969 C 156.542969 2.621094 155.992188 2.730469 155.445312 2.871094 C 154.777344 3.050781 154.125 3.269531 153.476562 3.515625 C 152.4375 3.9375 151.429688 4.421875 150.449219 4.964844 C 149.089844 5.734375 147.789062 6.589844 146.53125 7.515625 C 144.535156 9.019531 142.6875 10.695312 140.894531 12.429688 C 139.003906 14.261719 137.132812 16.105469 135.21875 17.90625 C 133.121094 19.871094 130.960938 21.761719 128.6875 23.519531 C 126.265625 25.394531 123.710938 27.113281 121.03125 28.601562 C 118.894531 29.785156 116.707031 30.855469 114.453125 31.804688 C 112.121094 32.785156 109.734375 33.617188 107.316406 34.351562 C 104.625 35.167969 101.890625 35.832031 99.144531 36.40625 C 96.339844 36.992188 93.519531 37.46875 90.6875 37.855469 C 89.492188 38.019531 88.292969 38.164062 87.09375 38.289062 C 85.734375 38.425781 84.378906 38.515625 83.019531 38.601562 C 80.472656 38.757812 77.925781 38.902344 75.394531 39.210938 C 73.921875 39.398438 72.460938 39.652344 71.015625 40.011719 C 71.050781 40.003906 71.085938 39.996094 71.125 39.984375 C 70.0625 40.257812 69.015625 40.578125 67.980469 40.929688 C 68.117188 41.144531 68.246094 41.363281 68.363281 41.589844 C 68.957031 42.699219 69.414062 43.867188 69.816406 45.058594 C 70.242188 46.320312 70.515625 47.625 70.757812 48.933594 C 71.203125 51.355469 71.410156 53.839844 71.300781 56.296875 C 71.246094 57.4375 71.070312 58.578125 70.867188 59.699219 C 70.742188 60.386719 70.566406 61.0625 70.371094 61.730469 C 70.207031 62.277344 69.988281 62.808594 69.769531 63.332031 C 68.867188 65.492188 67.296875 67.285156 65.671875 68.929688 C 64.710938 69.90625 63.667969 70.792969 62.5625 71.601562 C 61.394531 72.460938 60.082031 73.117188 58.703125 73.5625 C 57.421875 73.976562 56.082031 74.203125 54.738281 74.257812 C 54.605469 74.261719 54.472656 74.265625 54.335938 74.265625 C 53.246094 74.265625 52.164062 74.085938 51.128906 73.753906 " fill-opacity="1" fill-rule="nonzero"/></g></svg>