<svg xmlns="http://www.w3.org/2000/svg" xmlns:xlink="http://www.w3.org/1999/xlink" width="400" zoomAndPan="magnify" viewBox="0 0 300 52.499999" height="70" preserveAspectRatio="xMidYMid meet" version="1.0"><defs><clipPath id="43b09c1a28"><path d="M 1.972656 0.609375 L 298.007812 0.609375 L 298.007812 51.125 L 1.972656 51.125 Z M 1.972656 0.609375 " clip-rule="nonzero"/></clipPath></defs><g clip-path="url(#43b09c1a28)"><path fill="#ffc0cb" d="M 200.128906 38.84375 C 200.480469 38.839844 200.828125 38.8125 201.175781 38.777344 C 201.5625 38.71875 201.9375 38.648438 202.316406 38.558594 C 202.738281 38.441406 203.15625 38.304688 203.5625 38.140625 C 203.949219 37.976562 204.328125 37.796875 204.699219 37.597656 C 205.117188 37.359375 205.519531 37.097656 205.90625 36.8125 C 206.308594 36.503906 206.691406 36.171875 207.0625 35.820312 C 207.488281 35.398438 207.886719 34.957031 208.257812 34.488281 C 208.582031 34.066406 208.875 33.632812 209.144531 33.179688 C 209.398438 32.730469 209.625 32.273438 209.832031 31.800781 C 210.054688 31.25 210.242188 30.691406 210.40625 30.121094 C 210.414062 30.082031 210.425781 30.046875 210.4375 30.007812 C 210.433594 30.011719 210.433594 30.011719 210.433594 30.011719 C 210.589844 29.390625 210.710938 28.757812 210.804688 28.125 C 210.878906 27.480469 210.925781 26.839844 210.933594 26.191406 C 210.929688 25.785156 210.90625 25.378906 210.875 24.972656 C 209.667969 25.304688 208.472656 25.683594 207.308594 26.144531 C 206.464844 26.492188 205.644531 26.878906 204.847656 27.320312 C 204.09375 27.746094 203.363281 28.207031 202.671875 28.722656 C 202.140625 29.125 201.636719 29.558594 201.15625 30.015625 C 200.636719 30.535156 200.152344 31.085938 199.695312 31.660156 C 199.238281 32.257812 198.808594 32.875 198.425781 33.523438 C 198.199219 33.929688 197.988281 34.34375 197.804688 34.773438 C 197.699219 35.042969 197.605469 35.316406 197.523438 35.597656 C 197.472656 35.808594 197.429688 36.023438 197.398438 36.242188 C 197.378906 36.410156 197.367188 36.582031 197.363281 36.75 C 197.367188 36.867188 197.375 36.984375 197.386719 37.101562 C 197.402344 37.203125 197.421875 37.300781 197.445312 37.402344 C 197.464844 37.472656 197.488281 37.542969 197.515625 37.613281 C 197.542969 37.683594 197.578125 37.753906 197.613281 37.820312 C 197.648438 37.878906 197.683594 37.933594 197.722656 37.988281 C 197.765625 38.042969 197.808594 38.09375 197.855469 38.144531 C 197.910156 38.199219 197.96875 38.253906 198.03125 38.304688 C 198.097656 38.351562 198.164062 38.394531 198.226562 38.4375 C 198.320312 38.488281 198.417969 38.53125 198.511719 38.574219 C 198.628906 38.617188 198.742188 38.65625 198.859375 38.691406 C 199.039062 38.738281 199.21875 38.769531 199.398438 38.796875 C 199.640625 38.824219 199.886719 38.835938 200.128906 38.84375 Z M 131.679688 50.316406 C 129.847656 49.457031 128.363281 47.90625 127.546875 46.058594 C 127.183594 45.230469 127.113281 44.316406 127.191406 43.425781 C 127.238281 42.921875 127.3125 42.410156 127.46875 41.925781 C 127.632812 41.40625 127.847656 40.910156 128.097656 40.421875 C 128.632812 39.363281 129.367188 38.441406 130.148438 37.558594 C 131.003906 36.59375 131.9375 35.699219 132.886719 34.835938 C 134.894531 33.019531 137.039062 31.371094 139.1875 29.726562 C 141.246094 28.15625 143.316406 26.59375 145.191406 24.796875 C 145.84375 24.152344 146.460938 23.480469 147.03125 22.761719 C 147.390625 22.285156 147.730469 21.796875 148.039062 21.285156 C 148.035156 21.289062 148.03125 21.296875 148.027344 21.304688 C 148.03125 21.296875 148.039062 21.285156 148.042969 21.277344 C 148.058594 21.246094 148.078125 21.214844 148.097656 21.179688 C 148.082031 21.207031 148.066406 21.234375 148.054688 21.257812 C 148.300781 20.828125 148.523438 20.386719 148.726562 19.929688 C 148.894531 19.527344 149.039062 19.117188 149.164062 18.699219 C 149.265625 18.304688 149.347656 17.90625 149.410156 17.5 C 149.445312 17.175781 149.472656 16.851562 149.480469 16.527344 C 149.476562 16.199219 149.457031 15.875 149.417969 15.550781 C 149.371094 15.214844 149.308594 14.882812 149.230469 14.546875 C 149.140625 14.21875 149.035156 13.894531 148.917969 13.574219 C 148.828125 13.351562 148.730469 13.140625 148.625 12.929688 C 148.511719 12.738281 148.394531 12.554688 148.265625 12.375 C 148.117188 12.195312 147.96875 12.019531 147.808594 11.855469 C 147.550781 11.609375 147.285156 11.375 147.007812 11.148438 C 146.644531 10.871094 146.269531 10.617188 145.875 10.371094 C 145.351562 10.074219 144.8125 9.804688 144.257812 9.566406 C 143.640625 9.324219 143.015625 9.113281 142.375 8.933594 C 141.503906 8.707031 140.628906 8.539062 139.738281 8.410156 C 138.578125 8.269531 137.417969 8.199219 136.246094 8.179688 C 134.566406 8.1875 132.898438 8.304688 131.230469 8.511719 C 129.152344 8.796875 127.105469 9.21875 125.070312 9.734375 C 122.449219 10.421875 119.839844 11.207031 117.3125 12.199219 C 111.484375 14.617188 105.964844 17.710938 100.464844 20.785156 C 100.492188 20.769531 100.515625 20.753906 100.542969 20.738281 C 100.449219 20.792969 100.359375 20.84375 100.265625 20.898438 C 100.269531 20.894531 100.269531 20.894531 100.269531 20.894531 C 99.71875 21.203125 99.167969 21.511719 98.613281 21.820312 C 98.335938 21.976562 98.058594 22.132812 97.78125 22.289062 C 97.777344 22.289062 97.773438 22.292969 97.769531 22.292969 C 97.730469 22.316406 97.691406 22.339844 97.652344 22.359375 C 97.628906 22.371094 97.605469 22.382812 97.582031 22.394531 C 97.558594 22.410156 97.527344 22.425781 97.5 22.445312 C 97.496094 22.445312 97.488281 22.449219 97.484375 22.453125 C 97.453125 22.472656 97.417969 22.492188 97.386719 22.507812 C 97.105469 22.664062 96.820312 22.820312 96.539062 22.980469 C 95.316406 23.664062 94.089844 24.339844 92.859375 25.011719 C 91.695312 25.644531 90.519531 26.25 89.335938 26.851562 C 88.15625 27.453125 86.96875 28.042969 85.765625 28.578125 C 83.242188 29.703125 80.683594 30.746094 78.097656 31.707031 C 76.632812 32.25 75.160156 32.765625 73.679688 33.269531 C 72.21875 33.769531 70.738281 34.207031 69.25 34.625 C 66.277344 35.457031 63.28125 36.191406 60.25 36.769531 C 57.414062 37.3125 54.570312 37.804688 51.707031 38.226562 C 48.660156 38.675781 45.597656 39.078125 42.53125 39.371094 C 39.601562 39.648438 36.664062 39.875 33.726562 40.042969 C 30.867188 40.210938 27.996094 40.175781 25.136719 40.160156 C 23.625 40.148438 22.109375 40.136719 20.597656 40.078125 C 19.089844 40.015625 17.582031 39.902344 16.078125 39.777344 C 15.335938 39.710938 14.59375 39.640625 13.851562 39.5625 C 13.507812 39.53125 13.160156 39.488281 12.816406 39.445312 C 12.660156 39.429688 12.503906 39.410156 12.347656 39.386719 C 12.246094 39.375 12.148438 39.363281 12.050781 39.347656 C 11.972656 39.339844 11.894531 39.328125 11.816406 39.316406 C 10.527344 39.148438 9.25 38.933594 7.96875 38.71875 C 6.769531 38.515625 5.570312 38.304688 4.394531 37.988281 C 3.769531 37.820312 3.121094 37.65625 2.558594 37.335938 C 2.535156 37.324219 2.511719 37.308594 2.488281 37.292969 C 2.46875 37.285156 2.453125 37.269531 2.433594 37.261719 C 1.996094 36.984375 1.855469 36.371094 2.082031 35.917969 C 2.324219 35.425781 2.996094 35.15625 3.492188 35.441406 C 3.59375 35.5 3.695312 35.546875 3.800781 35.59375 C 4.183594 35.738281 4.570312 35.851562 4.960938 35.960938 C 6.089844 36.246094 7.234375 36.453125 8.378906 36.648438 C 9.640625 36.859375 10.898438 37.070312 12.164062 37.238281 C 12.351562 37.261719 12.535156 37.289062 12.71875 37.3125 C 12.6875 37.308594 12.65625 37.304688 12.625 37.300781 C 14.863281 37.570312 17.117188 37.785156 19.375 37.90625 C 21.730469 38.03125 24.085938 38.046875 26.445312 38.054688 C 26.402344 38.054688 26.355469 38.054688 26.308594 38.054688 C 27.941406 38.058594 29.574219 38.058594 31.203125 38.023438 C 32.925781 37.988281 34.648438 37.886719 36.367188 37.757812 C 39.871094 37.503906 43.371094 37.203125 46.859375 36.761719 C 46.816406 36.769531 46.769531 36.773438 46.722656 36.78125 C 49.855469 36.371094 52.976562 35.929688 56.085938 35.390625 C 57.625 35.121094 59.160156 34.835938 60.691406 34.535156 C 62.40625 34.199219 64.105469 33.796875 65.796875 33.363281 C 65.789062 33.367188 65.785156 33.367188 65.773438 33.371094 C 68.296875 32.714844 70.804688 32.019531 73.273438 31.179688 C 75.644531 30.375 78 29.515625 80.332031 28.589844 C 80.289062 28.609375 80.25 28.625 80.203125 28.640625 C 82.691406 27.640625 85.148438 26.589844 87.546875 25.390625 C 89.988281 24.171875 92.386719 22.875 94.773438 21.550781 C 95.324219 21.246094 95.871094 20.941406 96.421875 20.632812 C 96.527344 20.570312 96.636719 20.515625 96.746094 20.453125 C 96.769531 20.4375 96.796875 20.421875 96.824219 20.410156 C 97.007812 20.304688 97.195312 20.199219 97.378906 20.097656 C 98.027344 19.734375 98.675781 19.371094 99.324219 19.007812 C 99.300781 19.023438 99.273438 19.035156 99.25 19.050781 C 104.15625 16.308594 109.070312 13.566406 114.199219 11.25 C 115.503906 10.664062 116.824219 10.105469 118.175781 9.625 C 119.433594 9.171875 120.714844 8.785156 121.996094 8.402344 C 124.558594 7.628906 127.164062 7.023438 129.800781 6.585938 C 132.582031 6.128906 135.421875 5.972656 138.230469 6.140625 C 140.820312 6.296875 143.398438 6.847656 145.757812 7.925781 C 146.910156 8.449219 148 9.167969 148.9375 10.019531 C 149.351562 10.394531 149.734375 10.804688 150.066406 11.261719 C 150.425781 11.757812 150.710938 12.320312 150.917969 12.894531 C 151.320312 14 151.570312 15.160156 151.585938 16.339844 C 151.601562 17.503906 151.40625 18.664062 151.039062 19.769531 C 149.8125 23.511719 146.871094 26.328125 143.886719 28.742188 C 142.105469 30.179688 140.269531 31.542969 138.464844 32.945312 C 136.617188 34.382812 134.8125 35.875 133.128906 37.5 C 132.351562 38.269531 131.605469 39.0625 130.917969 39.914062 C 130.679688 40.230469 130.457031 40.554688 130.25 40.894531 C 130.027344 41.28125 129.824219 41.675781 129.644531 42.085938 C 129.585938 42.25 129.527344 42.414062 129.476562 42.582031 C 129.417969 42.820312 129.367188 43.050781 129.332031 43.292969 C 129.296875 43.574219 129.28125 43.847656 129.273438 44.128906 C 129.277344 44.261719 129.285156 44.390625 129.296875 44.523438 C 129.316406 44.632812 129.335938 44.742188 129.359375 44.851562 C 129.394531 44.972656 129.4375 45.085938 129.476562 45.207031 C 129.5625 45.390625 129.652344 45.566406 129.746094 45.746094 C 129.890625 45.992188 130.042969 46.230469 130.207031 46.460938 C 130.375 46.675781 130.550781 46.882812 130.738281 47.082031 C 130.960938 47.300781 131.191406 47.503906 131.429688 47.703125 C 131.660156 47.871094 131.894531 48.027344 132.132812 48.175781 C 132.375 48.308594 132.621094 48.429688 132.875 48.539062 C 133.238281 48.679688 133.605469 48.800781 133.976562 48.90625 C 134.445312 49.023438 134.917969 49.117188 135.398438 49.1875 C 136.015625 49.257812 136.628906 49.292969 137.246094 49.300781 C 138.007812 49.292969 138.757812 49.246094 139.507812 49.164062 C 140.5625 49.023438 141.601562 48.820312 142.632812 48.558594 C 143.992188 48.199219 145.324219 47.75 146.632812 47.230469 C 146.589844 47.25 146.546875 47.265625 146.507812 47.285156 C 148.195312 46.597656 149.832031 45.808594 151.421875 44.917969 C 151.382812 44.941406 151.34375 44.964844 151.304688 44.988281 C 152.847656 44.109375 154.328125 43.140625 155.753906 42.089844 C 157.703125 40.613281 159.535156 39.003906 161.347656 37.363281 C 162.917969 35.941406 164.480469 34.507812 166.054688 33.089844 C 167.636719 31.671875 169.234375 30.269531 170.863281 28.90625 C 172.507812 27.53125 174.195312 26.210938 175.914062 24.929688 C 175.90625 24.933594 175.902344 24.9375 175.894531 24.945312 C 177.800781 23.523438 179.746094 22.15625 181.726562 20.832031 C 183.785156 19.457031 185.882812 18.121094 188.039062 16.910156 C 190.71875 15.410156 193.5625 14.222656 196.574219 13.589844 C 197.898438 13.308594 199.269531 13.1875 200.625 13.222656 C 201.855469 13.25 203.070312 13.445312 204.257812 13.777344 C 205.96875 14.25 207.546875 15.15625 208.898438 16.296875 C 210.226562 17.414062 211.261719 18.898438 211.933594 20.496094 C 212.1875 21.109375 212.398438 21.738281 212.566406 22.375 C 212.882812 22.304688 213.199219 22.234375 213.515625 22.167969 C 215.246094 21.792969 216.996094 21.511719 218.765625 21.367188 C 220.289062 21.242188 221.824219 21.230469 223.355469 21.167969 C 225.304688 21.089844 227.246094 20.949219 229.183594 20.710938 C 229.136719 20.71875 229.09375 20.722656 229.050781 20.730469 C 231.269531 20.445312 233.460938 20.019531 235.628906 19.460938 C 238.273438 18.757812 240.863281 17.886719 243.40625 16.878906 C 243.367188 16.894531 243.324219 16.910156 243.28125 16.929688 C 246.734375 15.539062 250.050781 13.867188 253.304688 12.058594 C 253.289062 12.066406 253.277344 12.074219 253.261719 12.082031 C 255.839844 10.632812 258.378906 9.109375 260.976562 7.695312 C 262.222656 7.019531 263.484375 6.375 264.769531 5.777344 C 266.015625 5.203125 267.285156 4.691406 268.570312 4.210938 C 270.976562 3.316406 273.449219 2.59375 275.941406 1.992188 C 278.050781 1.480469 280.183594 1.066406 282.339844 0.800781 C 284.847656 0.492188 287.378906 0.539062 289.855469 1.039062 C 292.472656 1.5625 294.980469 2.492188 297.425781 3.535156 C 297.957031 3.761719 298.148438 4.457031 297.90625 4.953125 C 297.777344 5.203125 297.554688 5.398438 297.289062 5.484375 C 297.015625 5.574219 296.75 5.539062 296.488281 5.429688 C 296.277344 5.339844 296.0625 5.246094 295.847656 5.160156 C 295.890625 5.175781 295.933594 5.195312 295.976562 5.210938 C 294.375 4.550781 292.75 3.960938 291.082031 3.496094 C 291.113281 3.5 291.144531 3.511719 291.175781 3.519531 C 291.140625 3.507812 291.109375 3.5 291.074219 3.492188 C 291.0625 3.488281 291.050781 3.484375 291.042969 3.484375 C 291.050781 3.484375 291.0625 3.488281 291.074219 3.488281 C 290.074219 3.230469 289.066406 3.015625 288.042969 2.875 C 287.222656 2.777344 286.40625 2.71875 285.585938 2.710938 C 284.464844 2.714844 283.34375 2.800781 282.230469 2.9375 C 282.261719 2.933594 282.292969 2.929688 282.324219 2.929688 C 279.972656 3.234375 277.652344 3.722656 275.359375 4.308594 C 275.402344 4.296875 275.445312 4.285156 275.488281 4.273438 C 272.988281 4.921875 270.523438 5.699219 268.117188 6.640625 C 265.621094 7.640625 263.226562 8.851562 260.875 10.15625 C 258.300781 11.601562 255.769531 13.121094 253.175781 14.535156 C 250.523438 15.988281 247.8125 17.335938 245.019531 18.496094 C 242.257812 19.640625 239.433594 20.617188 236.550781 21.398438 C 233.730469 22.164062 230.855469 22.671875 227.949219 22.972656 C 225.894531 23.1875 223.828125 23.269531 221.765625 23.335938 C 220.316406 23.382812 218.871094 23.449219 217.429688 23.621094 C 215.921875 23.824219 214.425781 24.109375 212.941406 24.453125 C 213.171875 26.527344 212.980469 28.648438 212.441406 30.664062 C 212.183594 31.59375 211.851562 32.492188 211.4375 33.363281 C 211.03125 34.222656 210.507812 35.027344 209.925781 35.777344 C 208.863281 37.148438 207.554688 38.359375 206.058594 39.246094 C 204.796875 39.996094 203.421875 40.519531 201.976562 40.785156 C 201.339844 40.902344 200.695312 40.953125 200.050781 40.949219 C 199.5 40.945312 198.941406 40.894531 198.40625 40.753906 C 197.367188 40.476562 196.414062 39.917969 195.84375 38.980469 C 195.253906 38 195.164062 36.851562 195.339844 35.738281 C 195.542969 34.4375 196.140625 33.234375 196.8125 32.117188 C 197.1875 31.488281 197.621094 30.894531 198.074219 30.3125 C 198.535156 29.726562 199.027344 29.160156 199.5625 28.632812 C 201.976562 26.246094 205.039062 24.617188 208.242188 23.558594 C 208.996094 23.308594 209.753906 23.085938 210.519531 22.878906 C 210.511719 22.863281 210.507812 22.84375 210.503906 22.828125 C 210.378906 22.371094 210.230469 21.921875 210.058594 21.476562 C 209.902344 21.109375 209.734375 20.753906 209.546875 20.402344 C 209.351562 20.058594 209.140625 19.726562 208.914062 19.402344 C 208.640625 19.046875 208.351562 18.707031 208.039062 18.378906 C 207.753906 18.101562 207.453125 17.835938 207.144531 17.582031 C 206.753906 17.289062 206.355469 17.019531 205.9375 16.773438 C 205.578125 16.570312 205.207031 16.386719 204.832031 16.21875 C 204.355469 16.027344 203.878906 15.863281 203.386719 15.722656 C 202.871094 15.59375 202.347656 15.496094 201.824219 15.421875 C 201.253906 15.359375 200.691406 15.328125 200.121094 15.324219 C 199.503906 15.335938 198.886719 15.378906 198.273438 15.449219 C 197.492188 15.554688 196.71875 15.707031 195.953125 15.894531 C 194.921875 16.171875 193.914062 16.507812 192.917969 16.894531 C 192.945312 16.882812 192.976562 16.871094 193.003906 16.859375 C 191.738281 17.371094 190.515625 17.957031 189.316406 18.613281 C 187.203125 19.796875 185.152344 21.09375 183.132812 22.433594 C 181.136719 23.761719 179.175781 25.136719 177.25 26.5625 C 177.160156 26.628906 177.074219 26.695312 176.984375 26.757812 C 176.992188 26.753906 176.996094 26.753906 177 26.746094 C 175.117188 28.15625 173.277344 29.621094 171.484375 31.140625 C 169.648438 32.703125 167.855469 34.308594 166.070312 35.921875 C 164.324219 37.503906 162.597656 39.101562 160.832031 40.65625 C 158.542969 42.675781 156.128906 44.558594 153.511719 46.140625 C 151.105469 47.59375 148.554688 48.824219 145.902344 49.761719 C 143.464844 50.625 140.914062 51.242188 138.324219 51.382812 C 137.964844 51.402344 137.605469 51.414062 137.242188 51.414062 C 135.339844 51.414062 133.410156 51.121094 131.679688 50.316406 " fill-opacity="1" fill-rule="nonzero"/></g></svg>